<?xml version="1.0" encoding="UTF-8" standalone="no"?>
<!-- Created with Inkscape (http://www.inkscape.org/) -->

<svg
   xmlns:dc="http://purl.org/dc/elements/1.1/"
   xmlns:cc="http://creativecommons.org/ns#"
   xmlns:rdf="http://www.w3.org/1999/02/22-rdf-syntax-ns#"
   xmlns:svg="http://www.w3.org/2000/svg"
   xmlns="http://www.w3.org/2000/svg"
   xmlns:sodipodi="http://sodipodi.sourceforge.net/DTD/sodipodi-0.dtd"
   xmlns:inkscape="http://www.inkscape.org/namespaces/inkscape"
   width="210mm"
   height="297mm"
   viewBox="0 0 744.09448819 1052.3622047"
   id="svg5691"
   version="1.1"
   inkscape:version="0.91 r13725"
   sodipodi:docname="BBC-A-Floor_rooms.svg">
  <defs
     id="defs5693" />
  <sodipodi:namedview
     id="base"
     pagecolor="#ffffff"
     bordercolor="#666666"
     borderopacity="1.0"
     inkscape:pageopacity="0.0"
     inkscape:pageshadow="2"
     inkscape:zoom="0.65"
     inkscape:cx="429.39374"
     inkscape:cy="614.30581"
     inkscape:document-units="px"
     inkscape:current-layer="layer1"
     showgrid="false"
     inkscape:window-width="1536"
     inkscape:window-height="803"
     inkscape:window-x="-8"
     inkscape:window-y="-8"
     inkscape:window-maximized="1"
     showguides="true" />
  <metadata
     id="metadata5696">
    <rdf:RDF>
      <cc:Work
         rdf:about="">
        <dc:format>image/svg+xml</dc:format>
        <dc:type
           rdf:resource="http://purl.org/dc/dcmitype/StillImage" />
        <dc:title></dc:title>
      </cc:Work>
    </rdf:RDF>
  </metadata>
  <g
     inkscape:label="Layer 1"
     inkscape:groupmode="layer"
     id="layer1">
    <path
       inkscape:connector-curvature="0"
       style="opacity:1;fill:none;fill-opacity:1;stroke:#000000;stroke-width:1.09270871;stroke-opacity:1"
       d="m 331.502,877.05183 c 13.40005,-4.3826 24.35685,-8.28886 24.34845,-8.68072 -0.009,-0.39187 -4.78246,-15.20958 -10.60901,-32.92829 l -10.59373,-32.21581 -4.23636,0.17285 c -5.45151,0.2225 -10.49697,-2.06642 -13.47182,-6.11156 -1.11576,-1.51717 -2.11445,-3.01596 -2.21934,-3.33066 -0.1468,-0.44043 -34.39838,10.43323 -35.353,11.22335 -0.16184,0.13399 24.00435,74.70743 25.7685,79.51802 0.18351,0.50037 0.70918,0.77737 1.16813,0.61542 0.45894,-0.16188 11.79814,-3.88008 25.19818,-8.2626 z"
       id="bbc_a_14"
       inkscape:label="#path5623" />
    <path
       inkscape:connector-curvature="0"
       style="opacity:1;fill:none;fill-opacity:1;stroke:#000000;stroke-width:1.09270871;stroke-opacity:1"
       d="m 377.70929,861.9519 c 4.80554,-1.56767 8.84404,-2.94726 8.97445,-3.06555 0.13039,-0.11829 -0.42381,-2.20111 -1.23159,-4.62847 -0.80777,-2.42735 -1.34929,-4.77165 -1.20332,-5.20954 0.14594,-0.43788 5.28279,-2.47851 11.41523,-4.53486 l 11.14987,-3.73878 -11.45442,-34.99391 -11.45443,-34.99387 -17.71614,5.74101 -17.71611,5.74092 0,3.90262 c 0,6.37439 -3.10808,12.00594 -7.94762,14.40036 l -2.63299,1.3027 10.80121,32.94577 10.80119,32.94587 4.73867,-1.48189 c 2.60627,-0.81508 8.67047,-2.76467 13.476,-4.33238 z"
       id="bbc_a_15"
       inkscape:label="#path5575" />
    <path
       inkscape:connector-curvature="0"
       style="opacity:1;fill:none;fill-opacity:1;stroke:#000000;stroke-width:1.09270871;stroke-opacity:1"
       d="m 451.17898,837.80417 c 9.50857,-3.04576 12.9241,-4.41471 12.76995,-5.11821 -0.11574,-0.52821 -4.89835,-15.32501 -10.62802,-32.88173 l -10.4176,-31.92133 -4.55827,-0.0156 c -2.50705,-0.009 -5.53152,-0.42342 -6.72103,-0.92191 -2.99656,-1.25569 -6.36389,-4.21968 -7.73326,-6.8069 l -1.15052,-2.17368 -17.47466,5.68314 c -9.61106,3.12565 -17.59741,5.80062 -17.74744,5.94433 -0.32292,0.30923 22.04889,68.95918 22.68701,69.6171 0.24048,0.24797 5.4276,-1.1836 11.52694,-3.18126 6.09935,-1.9977 11.26329,-3.63716 11.47544,-3.64333 0.21216,-0.007 1.10048,2.26772 1.97403,5.05319 0.87355,2.78541 1.90976,4.94285 2.30268,4.79423 0.39288,-0.1485 6.55553,-2.14115 13.69475,-4.42796 z"
       id="bbc_a_16"
       inkscape:label="#path5479" />
    <path
       inkscape:connector-curvature="0"
       style="opacity:1;fill:none;fill-opacity:1;stroke:#000000;stroke-width:1.09270871;stroke-opacity:1"
       d="m 233.38579,753.64336 -0.17848,-18.91281 -3.05552,-0.77556 c -1.68052,-0.42658 -4.14527,-1.60669 -5.47719,-2.62264 -2.41414,-1.84141 -5.53409,-7.18747 -6.2422,-10.69611 l -0.373,-1.84829 -34.60048,0 -34.60047,0 0,26.88411 0,26.8841 42.35293,0 42.35292,0 z"
       id="bbc_a_13"
       inkscape:label="#path5307" />
    <path
       inkscape:connector-curvature="0"
       style="opacity:1;fill:none;fill-opacity:1;stroke:#000000;stroke-width:1.09270871;stroke-opacity:1"
       d="m 667.26245,766.77247 c 9.56112,-3.18684 13.22312,-4.68972 12.97879,-5.32655 -0.18723,-0.48784 -5.03723,-15.20027 -10.77773,-32.69414 l -10.43728,-31.80715 -4.57535,0 c -6.09634,0 -10.44232,-2.14149 -13.27677,-6.54209 -2.00151,-3.10744 -3.17882,-3.72361 -4.95963,-2.59573 -0.7719,0.48899 -0.68753,1.29642 0.50408,4.82495 0.78711,2.3308 1.4311,4.60869 1.4311,5.06201 0,2.29693 -7.60262,1.53766 -10.94726,-1.09328 l -1.71333,-1.34768 -0.44768,2.03817 c -0.55483,2.526 -3.20646,5.7518 -5.85316,7.12049 -1.09922,0.56844 -2.08076,0.93562 -2.18109,0.81592 -0.10031,-0.11964 -0.86938,-2.33466 -1.70897,-4.92227 -0.83958,-2.58759 -1.58348,-4.77746 -1.65305,-4.86639 -0.29658,-0.37907 -10.42415,3.34998 -10.18859,3.75151 0.14286,0.24358 5.3172,15.86754 11.4985,34.72002 6.18135,18.85248 11.32708,34.37229 11.43508,34.48855 0.10796,0.11618 5.14197,-1.38846 11.1867,-3.34369 6.04473,-1.95513 11.26767,-3.56247 11.60651,-3.57173 0.33886,-0.01 1.347,2.17579 2.24036,4.85582 0.89336,2.67997 1.82569,4.87274 2.0719,4.87274 0.24627,0 6.44134,-1.99775 13.76687,-4.43948 z"
       id="bbc_a_20"
       inkscape:label="#path5299" />
    <path
       inkscape:connector-curvature="0"
       style="opacity:1;fill:none;fill-opacity:1;stroke:#000000;stroke-width:1.09270871;stroke-opacity:1"
       d="m 218.31329,714.2511 c 0.17538,-0.64695 0.51564,-2.05437 0.7561,-3.12764 0.62916,-2.8082 4.01367,-7.45286 6.56733,-9.01279 1.20658,-0.73694 3.47916,-1.71951 5.05021,-2.18331 l 2.85643,-0.84336 0,-18.71245 0,-18.71247 -36.96564,0 -36.96563,0 0,12.4339 0,12.43389 -5.37683,0 -5.37681,0 0,14.4502 0,14.45021 34.56799,0 c 32.35235,0 34.58842,-0.0754 34.88685,-1.17618 z"
       id="bbc_a_12"
       inkscape:label="#path5073" />
    <path
       inkscape:connector-curvature="0"
       style="opacity:1;fill:none;fill-opacity:1;stroke:#000000;stroke-width:1.09270871;stroke-opacity:1"
       d="m 456.91357,689.79269 c 9.29855,-3.00952 17.15846,-5.69615 17.46646,-5.97041 0.53153,-0.47338 -21.31508,-68.29412 -22.35527,-69.39982 -0.37519,-0.39884 -16.8173,4.4626 -22.60562,6.68377 -0.52406,0.20109 -0.99805,-0.51505 -1.2642,-1.91002 -0.23419,-1.22752 -0.76381,-3.54553 -1.17695,-5.15119 -0.71753,-2.78875 -0.84297,-2.90112 -2.80129,-2.50949 -4.8488,0.96977 -6.57349,2.56137 -14.04171,12.95799 l -7.33954,10.21751 8.29885,25.36428 8.29886,25.36436 4.69801,0.0687 c 6.43587,0.0941 11.61013,2.97866 14.18469,7.9077 0.53098,1.01654 1.13773,1.84828 1.34832,1.84828 0.21061,0 7.99085,-2.46225 17.28939,-5.47172 z"
       id="bbc_a_17"
       inkscape:label="#path4943" />
    <path
       inkscape:connector-curvature="0"
       style="opacity:1;fill:none;fill-opacity:1;stroke:#000000;stroke-width:1.09270871;stroke-opacity:1"
       d="m 496.33546,676.8806 17.13863,-5.58131 0.37692,-4.98807 c 0.20729,-2.74348 0.87237,-5.92617 1.4779,-7.07268 1.20556,-2.28261 5.17879,-6.02859 7.53102,-7.10034 1.48028,-0.67448 1.41267,-0.91891 -9.23527,-33.38495 -5.89958,-17.98812 -10.82314,-32.81271 -10.94126,-32.94359 -0.37105,-0.41099 -27.1831,8.72455 -27.1831,9.26202 0,0.28104 0.60489,2.26912 1.34419,4.41803 0.73933,2.14883 1.34422,4.28817 1.34422,4.75407 0,0.49865 -4.67088,2.40391 -11.35481,4.63171 l -11.35481,3.78452 2.17903,6.8569 c 6.78595,21.35393 20.73929,62.97509 21.1075,62.96133 0.23718,-0.009 8.14363,-2.52785 17.56984,-5.59764 z"
       id="bbc_a_18"
       inkscape:label="#path4899" />
    <path
       inkscape:connector-curvature="0"
       style="opacity:1;fill:none;fill-opacity:1;stroke:#000000;stroke-width:1.09270871;stroke-opacity:1"
       d="m 565.56176,654.18204 c 9.05672,-3.00338 16.68138,-5.65271 16.94361,-5.88725 0.42616,-0.38117 -21.57769,-68.78582 -22.38661,-69.59476 -0.18222,-0.18223 -5.459,1.31544 -11.7262,3.32814 -6.26718,2.0127 -11.44583,3.66485 -11.50811,3.6714 -0.0623,0.007 -0.7802,-2.02954 -1.59541,-4.5247 -0.8152,-2.49522 -1.68509,-4.76192 -1.93313,-5.03721 -0.40252,-0.44683 -25.95345,7.69229 -26.79723,8.53608 -0.18876,0.18877 4.44371,14.976 10.29436,32.86053 l 10.63754,32.51729 4.43389,-0.0771 c 5.74465,-0.0998 10.13398,2.02051 13.47323,6.50849 1.29313,1.73795 2.65401,3.15994 3.02419,3.15994 0.3702,0 8.08315,-2.45736 17.13987,-5.46079 z"
       id="bbc_a_19"
       inkscape:label="#path4857" />
    <path
       inkscape:connector-curvature="0"
       style="opacity:1;fill:none;fill-opacity:1;stroke:#000000;stroke-width:1.09270871;stroke-opacity:1"
       d="m 233.54336,639.47985 0,-18.81886 -1.51223,-0.0144 c -4.62908,-0.0451 -11.24242,-5.73028 -12.63918,-10.8651 -0.43359,-1.59402 -0.89555,-3.27631 -1.02656,-3.73834 -0.1866,-0.65817 -7.74018,-0.84013 -34.87258,-0.84013 l -34.63436,0 0,14.45021 0,14.4502 5.37681,0 5.37683,0 0,12.09785 0,12.09785 36.96563,0 36.96564,0 0,-18.81888 z"
       id="bbc_a_11"
       inkscape:label="#path4855" />
    <path
       inkscape:connector-curvature="0"
       style="opacity:1;fill:none;fill-opacity:1;stroke:#000000;stroke-width:1.09270871;stroke-opacity:1"
       d="m 364.73654,590.75242 c 7.66726,-10.44491 7.89446,-10.85418 7.91294,-14.25503 l 0.0191,-3.50133 -5.54485,-0.19523 -5.54484,-0.19519 -0.18318,-12.26587 -0.1832,-12.26586 -36.61442,0 -36.61443,0 0,18.73908 0,18.73908 2.89037,0.72781 c 6.15245,1.54916 11.8696,8.14738 11.88932,13.72153 l 0.007,1.85591 27.0364,-0.17565 27.0364,-0.17561 7.89392,-10.75364 z"
       id="bbc_a_10"
       inkscape:label="#path4769">
      <title
         id="title5653">testing</title>
    </path>
    <path
       inkscape:connector-curvature="0"
       style="opacity:1;fill:none;fill-opacity:1;stroke:#000000;stroke-width:1.09270871;stroke-opacity:1"
       d="m 361.39572,532.44753 0.18319,-12.26588 5.54484,-0.1952 5.54485,-0.1952 0,-14.42302 0,-14.42304 -34.94934,0 -34.94933,0 0,1.88435 c 0,1.0364 -0.79697,3.48365 -1.77105,5.43838 -2.03668,4.08711 -5.80152,7.15088 -10.12484,8.23951 l -2.89036,0.72781 0,18.73908 0,18.73909 36.61442,0 36.61444,0 z"
       id="bbc_a_9"
       inkscape:label="#path4621" />
    <path
       inkscape:connector-curvature="0"
       style="opacity:1;fill:none;fill-opacity:1;stroke:#000000;stroke-width:1.09270871;stroke-opacity:1"
       d="m 372.6686,473.1345 0,-14.4502 -5.71287,0 -5.71288,0 0,-12.09784 0,-12.09786 -36.62959,0 -36.62958,0 0,18.73298 0,18.73298 2.57307,0.41144 c 2.97533,0.47579 7.35648,3.43632 9.4629,6.39448 0.80243,1.12692 1.82107,3.57337 2.26368,5.43658 l 0.80471,3.38765 34.79027,0 34.79029,0 z"
       id="bbc_a_8"
       inkscape:label="#path4555" />
    <path
       inkscape:connector-curvature="0"
       style="opacity:1;fill:none;fill-opacity:1;stroke:#000000;stroke-width:1.09270871;stroke-opacity:1"
       d="m 233.54336,412.3189 0,-18.8092 -3.03873,-0.76514 c -4.44625,-1.11959 -7.85223,-3.89216 -9.91392,-8.0702 -0.98191,-1.98985 -1.95314,-4.44963 -2.15831,-5.46618 l -0.373,-1.8483 -34.60048,0 -34.60047,0 0,14.45022 0,14.4502 5.37681,0 5.37683,0 0,12.43389 0,12.4339 36.96563,0 36.96564,0 z"
       id="bbc_a_6"
       inkscape:label="#path4457" />
    <path
       inkscape:connector-curvature="0"
       style="opacity:1;fill:none;fill-opacity:1;stroke:#000000;stroke-width:1.09270871;stroke-opacity:1"
       d="m 361.39572,418.86223 0.18319,-12.26588 5.54484,-0.19521 5.54485,-0.1952 0,-14.42302 0,-14.42304 -34.94934,0 -34.94933,0 0,1.70185 c 0,5.63132 -6.15123,12.42286 -12.4339,13.72822 l -2.01631,0.41894 -0.17848,18.9596 -0.17851,18.9596 36.62491,0 36.6249,0 z"
       id="bbc_a_7"
       inkscape:label="#path4453" />
    <path
       inkscape:connector-curvature="0"
       style="opacity:1;fill:none;fill-opacity:1;stroke:#000000;stroke-width:1.09270871;stroke-opacity:1"
       d="m 218.4324,372.15125 c 0.20517,-1.01657 1.1764,-3.47635 2.15831,-5.46619 2.06169,-4.17806 5.46767,-6.95061 9.91394,-8.0702 l 3.03871,-0.76516 0,-18.80919 0,-18.8092 -42.34245,0 -42.34246,0 0,26.88411 0,26.8841 34.60047,0 34.60048,0 z"
       id="bbc_a_5"
       inkscape:label="#path4427" />
    <path
       inkscape:connector-curvature="0"
       style="opacity:1;fill:none;fill-opacity:1;stroke:#000000;stroke-width:1.09270871;stroke-opacity:1"
       d="m 372.6686,359.5765 0,-14.42304 -5.54485,-0.19519 -5.54484,-0.19521 -0.18319,-12.26587 -0.18318,-12.26588 -36.6249,0 -36.62491,0 0.17851,18.95961 0.17848,18.95959 2.01631,0.41895 c 6.28267,1.30536 12.4339,8.09691 12.4339,13.72822 l 0,1.70184 34.94933,0 34.94934,0 z"
       id="bbc_a_4"
       inkscape:label="#path4425" />
    <path
       style="opacity:1;fill:none;fill-opacity:1;stroke:#000000;stroke-width:1.09270871;stroke-opacity:1"
       d="m 361.24285,304.77295 0,-12.09784 5.71288,0 5.71287,0 0,-14.4502 0,-14.45021 -34.79029,0 -34.79027,0 -0.80471,3.38764 c -0.44261,1.86321 -1.46125,4.30968 -2.26368,5.43659 -2.10642,2.95817 -6.48757,5.91871 -9.4629,6.39449 l -2.57307,0.41144 0,18.73298 0,18.73297 36.62958,0 17.73882,0 18.89077,0 z"
       id="bbc_a_3"
       inkscape:label="#path4375"
       inkscape:connector-curvature="0"
       sodipodi:nodetypes="ccccccccsssccccccc" />
    <path
       inkscape:connector-curvature="0"
       style="opacity:1;fill:none;fill-opacity:1;stroke:#000000;stroke-width:1.09270871;stroke-opacity:1"
       d="m 372.6686,245.99121 0,-14.42301 -5.54485,-0.19523 -5.54484,-0.19519 -0.18319,-12.26587 -0.18318,-12.26587 -36.61444,0 -36.61442,0 0,18.73908 0,18.73908 2.89036,0.72779 c 4.32332,1.08864 8.08816,4.15242 10.12484,8.23953 0.97408,1.95471 1.77105,4.40199 1.77105,5.43837 l 0,1.88435 34.94933,0 34.94934,0 z"
       id="bbc_a_2"
       inkscape:label="#path4311">
      <desc
         id="desc5657">testing description</desc>
      <title
         id="title5655">testingagain</title>
    </path>
    <path
       inkscape:connector-curvature="0"
       style="opacity:1;fill:none;fill-opacity:1;stroke:#000000;stroke-width:1.09270871;stroke-opacity:1"
       d="m 361.39569,191.01963 0.18319,-12.26586 5.54484,-0.19521 5.54485,-0.1952 0,-14.42303 0,-14.42303 -34.94934,0 -34.94932,0 -0.007,1.84829 c -0.0197,5.54092 -5.71974,12.13779 -11.92073,13.79632 l -2.85896,0.76465 0,18.67946 0,18.67949 36.61443,0 36.61443,0 0.18319,-12.26588 z"
       id="bbc_a_1"
       inkscape:label="#path4271" />
  </g>
</svg>
