<?xml version="1.0" encoding="UTF-8" standalone="no"?>
<!-- Created with Inkscape (http://www.inkscape.org/) -->

<svg
   xmlns:dc="http://purl.org/dc/elements/1.1/"
   xmlns:cc="http://creativecommons.org/ns#"
   xmlns:rdf="http://www.w3.org/1999/02/22-rdf-syntax-ns#"
   xmlns:svg="http://www.w3.org/2000/svg"
   xmlns="http://www.w3.org/2000/svg"
   xmlns:sodipodi="http://sodipodi.sourceforge.net/DTD/sodipodi-0.dtd"
   xmlns:inkscape="http://www.inkscape.org/namespaces/inkscape"
   width="210mm"
   height="297mm"
   viewBox="0 0 744.09448819 1052.3622047"
   id="svg4255"
   version="1.1"
   inkscape:version="0.91 r13725"
   sodipodi:docname="BBC-B-Floor_rooms.svg">
  <defs
     id="defs4257" />
  <sodipodi:namedview
     id="base"
     pagecolor="#ffffff"
     bordercolor="#666666"
     borderopacity="1.0"
     inkscape:pageopacity="0.0"
     inkscape:pageshadow="2"
     inkscape:zoom="1.4"
     inkscape:cx="300.43301"
     inkscape:cy="432.07452"
     inkscape:document-units="px"
     inkscape:current-layer="layer1"
     showgrid="false"
     inkscape:window-width="1536"
     inkscape:window-height="803"
     inkscape:window-x="-8"
     inkscape:window-y="-8"
     inkscape:window-maximized="1" />
  <metadata
     id="metadata4260">
    <rdf:RDF>
      <cc:Work
         rdf:about="">
        <dc:format>image/svg+xml</dc:format>
        <dc:type
           rdf:resource="http://purl.org/dc/dcmitype/StillImage" />
      </cc:Work>
    </rdf:RDF>
  </metadata>
  <g
     inkscape:label="Layer 1"
     inkscape:groupmode="layer"
     id="layer1">
    <path
       inkscape:connector-curvature="0"
       style="fill:none;stroke:#000000;stroke-opacity:1"
       d="m 289.03276,826.60391 c 12.1586,-3.9782 22.20653,-7.3109 22.32871,-7.406 0.12219,-0.095 -4.22815,-13.7166 -9.66743,-30.2698 l -9.88959,-30.09678 -3.8188,0.15587 c -3.09509,0.12633 -4.46072,-0.1582 -7.20603,-1.50132 -2.94983,-1.44325 -6.36417,-4.85806 -7.11893,-7.11987 -0.25402,-0.76127 -32.61438,9.76639 -32.61438,10.61032 0,0.67294 23.40502,72.09648 23.92033,72.99608 0.15918,0.2779 0.66521,0.3611 1.12449,0.1849 0.45929,-0.1763 10.78302,-3.5753 22.94163,-7.5534 z"
       id="bbc_b_12"
       inkscape:label="#path4973" />
    <path
       inkscape:connector-curvature="0"
       style="fill:none;stroke:#000000;stroke-opacity:1"
       d="m 338.04701,809.01936 c 0.54235,-0.2033 0.33114,-1.4969 -0.77584,-4.7516 -0.83661,-2.4597 -1.31091,-4.6692 -1.05402,-4.91 0.25688,-0.2408 5.07536,-1.9286 10.70771,-3.7506 l 10.24066,-3.3127 -10.51355,-32.10269 c -5.78245,-17.65643 -10.54657,-32.16581 -10.58694,-32.24308 -0.0404,-0.0773 -7.35144,2.28166 -16.24683,5.24189 l -16.17343,5.38236 -0.004,3.09516 c -0.002,1.70228 -0.30089,4.16634 -0.66445,5.47562 -0.78051,2.81098 -4.76191,7.35044 -7.40809,8.44659 -1.02816,0.42587 -1.75824,1.08196 -1.62239,1.45798 0.13585,0.37602 4.63762,14.05817 10.00395,30.40487 l 9.75694,29.7213 11.79724,-3.9378 c 6.48848,-2.1657 12.13259,-4.0636 12.54247,-4.2173 z"
       id="bbc_b_13"
       inkscape:label="#path4933" />
    <path
       inkscape:connector-curvature="0"
       style="fill:none;stroke:#000000;stroke-opacity:1"
       d="m 398.83275,790.55291 c 6.4535,-2.1344 11.82051,-3.9527 11.92671,-4.0408 0.10618,-0.088 -4.2706,-13.7367 -9.72619,-30.33041 l -9.91925,-30.17025 -4.88928,0 c -4.4487,0 -5.12963,-0.16902 -7.55636,-1.87566 -2.31773,-1.62991 -4.9578,-4.69003 -5.57715,-6.46451 -0.27093,-0.77629 -32.61655,9.8608 -32.62328,10.72839 -0.004,0.50764 20.21364,62.82964 20.70918,63.83734 0.0397,0.081 4.62835,-1.3782 10.19701,-3.2422 5.56867,-1.8638 10.43277,-3.3889 10.80912,-3.3889 0.37635,0 1.34099,2.094 2.14366,4.6535 0.80266,2.5593 1.75477,4.5456 2.11579,4.4138 0.36102,-0.1318 5.93654,-1.9859 12.39004,-4.1203 z"
       id="bbc_b_14"
       inkscape:label="#path4915" />
    <path
       inkscape:connector-curvature="0"
       style="fill:none;stroke:#000000;stroke-opacity:1"
       d="m 198.90762,712.91573 -0.16415,-17.10991 -2.35752,-0.4895 c -3.04445,-0.63227 -7.38086,-3.62898 -8.96501,-6.19536 -0.68435,-1.10869 -1.57614,-3.33576 -1.98173,-4.94912 l -0.73746,-2.93341 -31.731,0 -31.731,0 0,24.3936 0,24.3936 38.91602,0 38.91602,0 -0.16417,-17.10985 z"
       id="bbc_b_11"
       inkscape:label="#path4843" />
    <path
       inkscape:connector-curvature="0"
       style="fill:none;stroke:#000000;stroke-opacity:1"
       d="m 597.37386,725.38015 12.20668,-4.02797 -6.2994,-19.2849 c -3.46465,-10.60676 -7.92309,-24.16332 -9.90763,-30.12573 l -3.60827,-10.84075 -4.06745,0.0301 c -5.11205,0.0385 -9.27514,-1.84323 -11.80427,-5.33457 -0.96751,-1.33561 -1.86761,-2.75382 -2.00021,-3.15167 -0.16135,-0.48413 -5.53541,0.98156 -16.24902,4.43155 -8.80439,2.83514 -16.18539,5.33236 -16.40222,5.54938 -0.35441,0.35474 20.02758,63.46294 20.72024,64.15564 0.15859,0.15855 4.94788,-1.26787 10.64287,-3.16985 5.69503,-1.90204 10.54056,-3.25177 10.76787,-2.99937 0.22727,0.25237 1.02609,2.33462 1.77512,4.62731 0.74907,2.29272 1.50975,4.16853 1.69048,4.16853 0.18067,0 5.82151,-1.81257 12.53521,-4.02788 z"
       id="bbc_b_18"
       inkscape:label="#path4839" />
    <path
       inkscape:connector-curvature="0"
       style="fill:none;stroke:#000000;stroke-opacity:1"
       d="m 635.91555,712.66859 c 12.6004,-4.1118 23.00524,-7.5652 23.12188,-7.67428 0.27385,-0.25597 -23.4639,-72.67934 -24.05276,-73.38445 -0.2446,-0.29292 -7.69419,1.8838 -16.55454,4.83711 l -16.10975,5.36981 0.36628,2.29076 c 0.79363,4.96299 -2.23088,10.99364 -7.04853,14.05426 -2.08389,1.32386 -2.59369,1.97165 -2.33378,2.96557 0.82985,3.17343 19.2318,58.98765 19.45272,59.00159 0.13687,0.009 10.5582,-3.34851 23.15848,-7.46037 z"
       id="bbc_b_19"
       inkscape:label="#path4811" />
    <path
       inkscape:connector-curvature="0"
       style="fill:none;stroke:#000000;stroke-opacity:1"
       d="m 397.88577,578.88109 -8.41601,2.68555 c -4.62848,1.4772 -8.54321,2.81468 -8.69922,2.9707 -0.37517,0.37518 2.30226,8.39063 2.80273,8.39063 0.21337,0 4.01219,-1.17431 8.44141,-2.60938 4.42922,-1.4351 8.17494,-2.69189 8.32422,-2.79297 0.14926,-0.10118 -0.34057,-2.08759 -1.08985,-4.41406 l -1.36328,-4.23047 z m 3.42188,12.22071 c -1.10762,0.0584 -3.73285,0.7879 -8.1543,2.25585 -4.68839,1.55661 -8.62493,2.91565 -8.74805,3.01954 -0.12312,0.104 0.2245,1.50614 0.77344,3.11718 0.66331,1.94675 0.78437,3.06159 0.35938,3.32422 -0.35172,0.21739 -9.46502,3.26621 -20.25196,6.77539 l -19.61328,6.38086 -2.48242,3.45313 -2.48242,3.45117 2.15625,6.98242 c 8.19187,24.89111 2.80285,8.38657 8.1914,24.89063 4.07035,12.45073 5.23353,15.37109 6.125,15.37109 0.82577,0 1.5069,1.21852 2.72852,4.88672 l 1.62695,4.88867 6.23633,-2.09961 c 3.4297,-1.15505 6.32116,-2.18633 6.42578,-2.29101 0.10462,-0.10464 -0.49944,-2.36471 -1.34375,-5.02344 -1.41146,-4.44468 -1.45356,-4.89373 -0.51758,-5.57813 0.93085,-0.68065 0.84163,-1.28009 -1.03515,-7.00586 -1.12883,-3.44395 -1.83377,-6.47954 -1.56641,-6.74609 0.26737,-0.26649 2.33804,-0.47274 4.60156,-0.45703 5.858,0.0401 10.35071,2.71465 13.39258,7.97265 0.5832,1.00806 1.45342,0.82001 11.58008,-2.50976 6.02179,-1.98 10.94727,-3.89679 10.94726,-4.25977 0,-1.51915 -9.77792,-30.86817 -10.1621,-32.13086 0,0 -1.34001,-0.37135 2.28906,-1.46093 3.48148,-1.12939 6.56448,-2.27121 6.85156,-2.53711 0.42215,-0.39089 -1.56769,-7.06037 -7.31445,-24.50781 -0.042,-0.12739 -0.24408,-0.18157 -0.61328,-0.16211 z"
       id="bbc_b_15"
       inkscape:label="#path4605" />
    <path
       inkscape:connector-curvature="0"
       style="fill:none;stroke:#000000;stroke-opacity:1"
       d="m 185.19818,675.83479 c 0.95928,-5.47474 5.76245,-10.61475 11.19826,-11.98351 l 2.65581,-0.66869 0,-17.21835 0,-17.21835 -33.96578,0 -33.96577,0 0,11.42485 0,11.42485 -4.94048,0 -4.94047,0 0,13.27752 0,13.27754 31.77634,0 31.77632,0 z"
       id="bbc_b_10"
       inkscape:label="#path4603" />
    <path
       inkscape:connector-curvature="0"
       style="fill:none;stroke:#000000;stroke-opacity:1"
       d="m 418.21194,572.04711 -8.45508,2.80664 c -4.64998,1.54371 -8.55204,2.88954 -8.67187,2.99023 -0.35011,0.29411 2.43799,8.28948 2.89258,8.29493 0.22705,0 4.09524,-1.15546 8.5957,-2.57422 4.50046,-1.41871 8.18359,-2.89505 8.18359,-3.28125 0,-0.38615 -0.5738,-2.39701 -1.27343,-4.46875 l -1.27149,-3.76758 z m 35.22852,8.69922 -14.02539,4.54297 c -7.71468,2.49851 -14.34467,4.54481 -14.73242,4.54687 -0.38776,0 -0.87659,-0.67957 -1.08594,-1.51367 -0.20936,-0.83415 -0.64197,-2.2067 -0.96289,-3.05078 l -0.58399,-1.53516 -8.52148,2.83008 c -4.68633,1.5559 -8.57453,2.86712 -8.64063,2.91406 -0.066,0.0469 1.70462,5.70372 3.9336,12.57227 3.39579,12.10354 -8.1e-4,0.001 9.8418,31.36914 -0.14065,0.36659 -2.38619,1.29922 -4.99024,2.07226 -2.87534,0.85362 -4.63033,1.68236 -4.46875,2.11328 0.14634,0.39024 1.19809,3.55952 2.33594,7.04102 1.21704,3.72369 2.39854,6.33008 2.87109,6.33008 0.44181,0 10.0569,-3.05336 21.36719,-6.78516 l 20.56445,-6.78515 0.0117,-3.86914 c 0.008,-2.70076 0.40018,-4.6246 1.30469,-6.37891 1.21933,-2.36486 4.73798,-5.9613 7.23437,-7.39453 1.04899,-0.60225 0.93199,-1.20286 -1.87304,-9.68555 -6.68663,-20.61893 -2.91503,-9.25643 -6.6875,-20.61914 l -2.89258,-8.71484 z"
       id="bbc_b_16"
       inkscape:label="#path4475" />
    <path
       inkscape:connector-curvature="0"
       style="fill:none;stroke:#000000;stroke-opacity:1"
       d="m 497.14163,546.14867 -8.39648,2.78711 c -4.61732,1.53281 -8.50911,2.88566 -8.64844,3.00586 -0.24957,0.2152 0.78283,4.04473 1.8418,6.83008 0.29818,0.78425 0.79285,1.42578 1.09765,1.42578 0.30479,0 4.13195,-1.1409 8.50586,-2.53516 4.3739,-1.3943 8.04664,-2.62228 8.16016,-2.72851 0.11353,-0.10616 -0.41684,-2.12574 -1.17774,-4.48828 l -1.38281,-4.29688 z m 3.89063,11.67188 -8.48829,2.81836 c -4.66829,1.54988 -8.58781,2.90386 -8.71093,3.00781 -0.12311,0.10395 0.2258,1.50816 0.77539,3.12109 0.54957,1.61291 0.78788,3.11518 0.53125,3.33789 -0.25663,0.22272 -6.71904,2.421 -14.36133,4.88477 -7.6423,2.46377 -13.99309,4.57235 -14.11328,4.68554 9.5118,29.42108 7.3657,22.14472 9.51172,29.41993 l 2.94531,8.91015 4.08594,-0.0332 c 5.29882,-0.043 9.34179,1.91995 12.39062,6.01758 1.18817,1.59696 2.26158,2.90234 2.38477,2.90234 0.12318,0 9.64163,-3.07075 21.15234,-6.82422 11.51072,-3.75347 20.92774,-6.97987 20.92774,-7.16992 0,-0.19006 -0.98149,-3.49135 -2.18165,-7.33594 l -2.18164,-6.99023 -4.41015,1.5 c -2.42574,0.82507 -4.75588,1.5 -5.17774,1.5 -0.43502,0 -1.89154,-3.40731 -3.36523,-7.87305 -7.6411,-23.21876 -0.52788,-1.07062 -7.64063,-23.21875 l -4.07421,-12.66015 z"
       id="bbc_b_17"
       inkscape:label="#path4413" />
    <path
       inkscape:connector-curvature="0"
       style="fill:none;stroke:#000000;stroke-opacity:1"
       d="m 199.05225,608.36641 0,-17.29166 -1.38951,-0.0134 c -4.08287,-0.0395 -11.06784,-5.94967 -11.89419,-10.06336 -0.9168,-4.56401 2.55318,-4.12693 -32.76611,-4.12693 l -31.76269,0 0,13.27753 0,13.27753 4.94047,0 4.94048,0 0,11.11607 0,11.11607 33.96577,0 33.96578,0 0,-17.29166 z"
       id="bbc_b_9"
       inkscape:label="#path4411" />
    <path
       inkscape:connector-curvature="0"
       style="fill:none;stroke:#000000;stroke-opacity:1"
       d="m 283.65726,524.37719 0,7.41015 c 0.0182,3.7029 0.46205,3.01604 -1.23438,3.08789 l -16.98242,0 -16.98438,0 0,11.96289 0,11.96485 2.32422,0.37109 c 5.6607,0.90519 10.83616,6.38699 11.65235,12.3418 l 0.39648,2.88281 -7.18555,0 c -6.77417,0 -7.1875,0.072 -7.1875,1.23633 0,1.13823 -0.41049,1.23437 -5.24804,1.23437 l -5.25,0 0,6.79297 0,6.79297 5.25,0 c 4.2543,0 5.24804,0.17694 5.24804,0.92774 0,0.80095 2.30019,0.92578 16.98438,0.92578 25.78311,-0.007 14.6877,0.004 25.7832,-0.008 l 7.56446,-0.008 2.3164,-3.33594 2.31445,-3.33593 0,-21.35938 0,-21.35742 3.39649,0 3.39844,0 0,-9.26367 0,-9.26367 -13.2793,0 -13.27734,0 z m 29.64257,0.002 0,9.26172 0,9.26367 4.63282,0 4.63086,0 0,-9.26367 0,-9.26172 -4.63086,0 -4.63282,0 z"
       id="bbc_b_8"
       inkscape:label="#path4315" />
    <path
       inkscape:connector-curvature="0"
       style="fill:none;stroke:#000000;stroke-opacity:1"
       d="m 262.80179,471.885 -0.41016,2.73242 c -0.79781,5.32011 -5.33156,10.11859 -10.91211,11.54883 l -3.02344,0.77344 0,22.42578 0,22.42383 7.72071,0 7.71875,0 0,-5.25 0,-5.24805 9.26367,0 c 23.77605,0 12.06799,-0.003 23.77539,0 l 13.2793,0 0,-9.26367 0,-9.26367 -3.39844,0 -3.39649,0 0,-15.43946 0,-15.43945 -9.88085,0 -20.92579,0 -9.81054,0 z m 50.49804,30.87891 0,9.26367 0,9.26367 4.63282,0 4.63086,0 0,-9.26367 0,-9.26367 -4.63086,0 -4.63282,0 z"
       id="bbc_b_7"
       inkscape:label="#path4111" />
    <path
       inkscape:connector-curvature="0"
       style="fill:none;stroke:#000000;stroke-opacity:1"
       d="m 248.45804,408.89476 0,22.84961 0,22.84961 1.5625,0 c 2.17021,0 5.15323,1.34103 7.63281,3.43164 2.22443,1.8755 4.99188,7.06591 5.00195,9.38282 0.006,1.38283 0.0533,1.38867 9.88672,1.38867 l 20.98633,0 9.86914,0 0.16602,-15.2832 0.16601,-15.28516 3.24219,-0.1875 3.24219,-0.18555 0,-8.92187 0,-8.92383 -13.2793,0 c -23.77605,0 -9.89842,0.0112 -23.77539,0 l -9.26367,0 0,-5.55664 0,-5.5586 -7.71875,0 -7.71875,0 z m 64.84179,11.11524 0,8.95508 0,8.95507 4.63282,0 4.63086,0 0,-8.95507 0,-8.95508 -4.63086,0 -4.63282,0 z"
       id="bbc_b_6"
       inkscape:label="#path3987" />
    <path
       inkscape:connector-curvature="0"
       style="fill:none;stroke:#000000;stroke-opacity:1"
       d="m 199.05225,399.67506 0,-17.24783 -3.44382,-1.00114 c -4.87606,-1.41752 -8.53212,-5.16616 -9.92511,-10.17648 l -1.03744,-3.73145 -31.70307,0 -31.70306,0 0,13.27752 0,13.27754 4.94047,0 4.94048,0 0,11.42485 0,11.42484 33.96577,0 33.96578,0 z"
       id="bbc_b_5"
       inkscape:label="#path3873" />
    <path
       inkscape:connector-curvature="0"
       style="fill:none;stroke:#000000;stroke-opacity:1"
       d="m 248.45608,315.02562 0,17.24219 0,17.24219 2.00782,0.43359 c 6.58459,1.42124 12.19726,7.76579 12.19726,13.78711 0,1.26904 -0.2627,1.31641 -7.10156,1.31641 l -7.10352,0 0,20.38086 0,20.3789 16.98438,0 c 14.6842,0 10.10071,10e-4 16.79297,-0.10546 2.10566,0.10847 1.17019,-1.09204 1.42383,4.73632 l 0,6.48438 13.27734,0 13.2793,0 0,-9.23047 0,-9.23047 -3.24219,-0.1875 -3.24219,-0.18555 -0.16016,-32.26757 -0.16015,-32.26758 3.40234,0 3.40235,0 0,-9.26367 0,-9.26368 -13.2793,0 c -11.59664,0.18567 -18.32063,0.002 -31.49414,0 l -16.98438,0 z m 64.84375,0 0,9.26368 0,9.26367 4.63282,0 4.63086,0 0,-9.26367 0,-9.26368 -4.63086,0 -4.63282,0 z m 0,83.3711 0,9.26367 0,9.26172 4.63282,0 4.63086,0 0,-9.26172 0,-9.26367 -4.63086,0 -4.63282,0 z"
       id="bbc_b_3"
       inkscape:label="#path3867" />
    <path
       inkscape:connector-curvature="0"
       style="fill:none;stroke:#000000;stroke-opacity:1"
       d="m 185.68332,360.6989 c 1.55525,-5.59394 5.74299,-9.44873 11.67064,-10.74275 l 1.69829,-0.37074 0,-17.27991 0,-17.27991 -38.90625,0 -38.90625,0 0,24.70239 0,24.70238 31.70306,0 31.70307,0 z"
       id="bbc_b_4"
       inkscape:label="#path3819" />
    <path
       inkscape:connector-curvature="0"
       style="fill:none;stroke:#000000;stroke-opacity:1"
       d="m 248.45608,210.65843 0,25.60743 0,25.60937 6.94922,0.17383 6.94727,0.17578 0.1914,1.65235 c 0.27944,2.41803 -2.18908,7.64715 -4.61523,9.77734 -2.39934,2.10666 -5.84622,3.69922 -8.00391,3.69922 l -1.46875,0 0,17.29297 0,17.29101 16.98438,0 c 22.5722,-0.19486 21.55911,-0.005 31.49414,0 l 13.2793,0 0,-9.26367 0,-9.26367 -3.39844,0 -3.39649,0 0,-32.11133 0,-32.11329 3.39649,0 3.39844,0 0,-9.26367 0,-9.26367 -13.2793,0 c -18.38971,0.12469 -21.70991,0.16993 -31.49414,0 l -16.98438,0 z m 64.84375,0 0,9.26367 0,9.26367 4.63282,0 4.63086,0 0,-9.26367 0,-9.26367 -4.63086,0 -4.63282,0 z m 0,82.75196 0,9.26367 0,9.26367 4.63282,0 4.63086,0 0,-9.26367 0,-9.26367 -4.63086,0 -4.63282,0 z"
       id="bbc_b_2"
       inkscape:label="#path3751" />
    <path
       inkscape:connector-curvature="0"
       style="fill:none;fill-opacity:1;stroke:#000000;stroke-opacity:1"
       d="m 275.8428,131.52171 -27.38672,0.0898 0,9.88086 0,9.88086 1.54493,0 c 2.12776,0.20753 1.38536,1.00651 0,1.23437 -1.3895,0 -1.54493,0.2475 -1.54493,2.47071 l 0,2.4707 7.1875,0 7.18555,0 -0.39648,2.88281 c -0.81834,5.97045 -5.83037,11.28712 -11.55274,12.25391 l -2.42383,0.41016 0,17.23632 0,17.23829 16.98438,0 c 13.86507,-0.78098 18.38995,0 31.49414,0 l 13.2793,0 0,-9.26368 0,-9.26367 -3.39844,0 -3.39649,0 0,-28.17383 c 0,-25.17259 0.10093,-27.06707 -0.67187,-27.83984 -0.34522,-0.34522 -0.5091,-0.47979 -0.61328,-0.55273 0.003,-0.002 0.0107,10e-4 -0.006,-0.004 -0.13857,-0.0954 -0.14489,-0.0569 -0.13281,-0.0273 -0.78553,-0.17409 -6.35396,-0.98838 -26.15235,-0.92383 z m 37.45703,57.52148 0,9.26367 0,9.26368 4.63282,0 4.63086,0 0,-9.26368 0,-9.26367 -4.63086,0 -4.63282,0 z"
       id="bbc_b_1"
       inkscape:label="#path5964" />
    <path
       inkscape:connector-curvature="0"
       style="fill:none;stroke:#000000;stroke-opacity:1"
       d="m 596.43803,513.85958 c -0.17177,-0.20585 -12.65961,3.58389 -16.01953,4.86133 l -1.47656,0.5625 1.21679,3.57421 c 0.66939,1.96661 1.33827,3.90727 1.48633,4.3125 0.18765,0.51344 2.85254,-0.11955 8.79297,-2.09179 4.68836,-1.5566 8.59127,-2.88192 8.67383,-2.94532 0.1576,-0.12106 -2.35259,-7.8885 -2.67383,-8.27343 z m 3.54687,11.78515 c -2.26338,0.16103 -16.76953,5.07186 -16.76953,5.75586 0,0.40987 0.4013,1.88482 0.89258,3.27735 0.49133,1.39251 0.69949,2.63911 0.46289,2.76953 -1.15705,0.63788 -59.42301,19.55664 -60.23047,19.55664 -0.53474,0 -1.24962,-0.9889 -1.67382,-2.31641 -0.40705,-1.2737 -0.95315,-2.55024 -1.21485,-2.83594 -0.35797,-0.3909 -15.98968,4.08344 -17.19531,4.92188 -0.54771,0.38087 8.11863,24.93164 8.80078,24.93164 0.41754,0 3.1048,-0.79294 5.9707,-1.76172 3.90056,-1.25249 3.53474,-1.76974 4.28321,0.72461 0,0.57423 11.80148,36.54147 13.25781,40.40625 0.39958,1.06038 0.25205,1.09114 9.46484,-1.93555 4.51503,-1.48336 8.35582,-2.84414 8.53516,-3.02343 0.17934,-0.17938 -0.24976,-2.25725 -0.95313,-4.61914 -0.70338,-2.36184 -1.27929,-4.58951 -1.27929,-4.94922 0,-0.35981 4.37696,-2.10408 9.72656,-3.87696 5.34964,-1.77289 9.78435,-3.26532 9.85352,-3.3164 0.0692,-0.0512 -0.80827,-3.06685 -1.94922,-6.70117 l -2.07422,-6.60743 2.41992,-0.65234 c 4.57834,-1.23279 9.87731,0.66608 13.7168,4.91602 1.25053,1.38417 2.27343,2.79414 2.27343,3.13281 0,0.33866 0.4914,0.61523 1.09375,0.61523 0.81601,0 26.403,-8.26229 31.42188,-10.14648 0.4731,-0.17761 -1.00814,-5.51392 -4.41406,-15.90235 -3.73285,-10.41974 -3.60797,-10.05314 -14.13867,-42.33007 -0.0341,-0.0342 -0.13036,-0.0439 -0.28126,-0.0332 z m -82.57617,14.27539 c -0.58895,-0.22599 -16.15333,4.44139 -16.83007,5.04688 -0.1056,0.0945 0.4,2.11956 1.12304,4.5 l 1.31446,4.32812 8.44921,-2.80468 c 4.64727,-1.54283 8.56378,-2.90325 8.70313,-3.02344 0.48463,-0.418 -2.03657,-7.76935 -2.75977,-8.04688 z"
       id="bbc_b_20"
       inkscape:label="#path4389" />
  </g>
</svg>
