<?xml version="1.0" encoding="UTF-8" standalone="no"?>
<!-- Created with Inkscape (http://www.inkscape.org/) -->

<svg
   xmlns:dc="http://purl.org/dc/elements/1.1/"
   xmlns:cc="http://creativecommons.org/ns#"
   xmlns:rdf="http://www.w3.org/1999/02/22-rdf-syntax-ns#"
   xmlns:svg="http://www.w3.org/2000/svg"
   xmlns="http://www.w3.org/2000/svg"
   xmlns:sodipodi="http://sodipodi.sourceforge.net/DTD/sodipodi-0.dtd"
   xmlns:inkscape="http://www.inkscape.org/namespaces/inkscape"
   width="99.169121mm"
   height="72.713493mm"
   viewBox="0 0 351.38666 257.64623"
   id="svg13944"
   version="1.1"
   inkscape:version="0.91 r13725"
   sodipodi:docname="Central-site-1st-floor_rooms.svg">
  <defs
     id="defs13946" />
  <sodipodi:namedview
     id="base"
     pagecolor="#ffffff"
     bordercolor="#666666"
     borderopacity="1.0"
     inkscape:pageopacity="0.0"
     inkscape:pageshadow="2"
     inkscape:zoom="0.98994949"
     inkscape:cx="-35.137831"
     inkscape:cy="36.26586"
     inkscape:document-units="px"
     inkscape:current-layer="layer1"
     showgrid="false"
     fit-margin-top="0"
     fit-margin-left="0"
     fit-margin-right="0"
     fit-margin-bottom="0"
     inkscape:window-width="1366"
     inkscape:window-height="705"
     inkscape:window-x="-8"
     inkscape:window-y="-8"
     inkscape:window-maximized="1" />
  <metadata
     id="metadata13949">
    <rdf:RDF>
      <cc:Work
         rdf:about="">
        <dc:format>image/svg+xml</dc:format>
        <dc:type
           rdf:resource="http://purl.org/dc/dcmitype/StillImage" />
        <dc:title />
      </cc:Work>
    </rdf:RDF>
  </metadata>
  <g
     inkscape:label="Layer 1"
     inkscape:groupmode="layer"
     id="layer1"
     transform="translate(-267.16381,-126.39623)">
    <path
       style="fill:none;stroke:#000000;stroke-opacity:1"
       d="m 411.60627,378.02591 c 7.29585,-0.15626 14.58109,-0.59889 21.86704,-0.98842 1.90122,-0.79532 5.74028,1.06322 4.53516,-2.29579 -0.29931,-4.87604 -0.41632,-9.76052 -0.58549,-14.64213 2.31447,1.06855 3.85676,-3.06647 2.1748,-3.64366 0.38221,-3.23433 -0.27326,-6.48713 -0.3259,-9.70591 -2.36356,-0.3482 -5.23098,-0.77883 -7.59401,-1.91205 0.28085,-1.09414 4.8157,2.51618 4.95662,-0.0929 -0.35412,-2.47925 0.039,-5.198 -0.85327,-7.51982 -0.71525,-0.48308 -4.56638,0.6365 -2.92305,-0.57642 1.31737,0.004 4.33058,-0.59036 1.27825,-0.68821 -2.39261,-0.28339 -5.75385,0.52382 -7.54294,-0.24457 -0.36431,-2.10719 2.56006,-4.91169 -0.26351,-5.88619 -2.88581,-1.35633 -4.86327,-3.97493 -6.04684,-6.86917 -1.03823,-2.23868 -0.59632,-6.11827 -4.17127,-5.18407 -4.25723,0.52582 -8.5527,0.45741 -12.82847,0.80403 -0.66048,1.30537 -0.27754,3.29642 -2.48957,2.42863 -1.67415,0.50613 -5.04535,-0.70479 -5.49844,1.14092 0.62626,8.10416 0.65882,16.24788 1.40324,24.34583 4.01381,-0.38452 2.16405,4.93565 2.82611,7.31228 0.4,5.79211 0.23171,11.66434 1.02331,17.40404 3.67445,0.74617 0.66554,5.06182 3.05941,6.96631 2.21131,0.38902 4.61021,-0.32349 6.93647,-0.13108 0.35411,-0.007 0.70832,-0.0148 1.06235,-0.0216 z"
       id="cs_1_10_a"
       inkscape:connector-curvature="0"
       inkscape:label="#cs_10_a" />
    <path
       style="fill:none;stroke:#000000;stroke-opacity:1"
       d="m 555.7869,373.74721 c 3.42957,-0.67071 6.79351,-0.43326 10.29786,-0.43232 2.09101,0.34921 3.35986,-0.14444 2.72616,-2.3393 0.35588,-2.53829 -1.88765,-7.52772 2.18585,-7.08278 2.29904,-2.22709 -1.06395,-7.37472 3.90392,-6.08317 6.43408,-0.42548 12.95976,-0.80342 19.35271,-0.98516 0.6743,2.66542 0.70827,6.74058 4.059,6.6065 1.14967,2.81422 -1.43822,9.55293 3.51787,8.22935 4.72435,-0.24128 9.44055,-0.62155 14.16587,-0.8444 -0.21955,-4.56295 -0.5638,-9.13857 -0.34248,-13.68739 -0.30407,-5.70802 -0.50369,-11.42796 -0.7253,-17.12771 -0.24397,-3.45066 -0.0608,-6.95282 -0.45455,-10.38137 -0.20787,-3.83449 -0.0726,-7.70813 -0.72048,-11.49702 0.41651,-2.84647 -0.31582,-6.09062 -0.17977,-9.09281 -0.11337,-3.56731 -0.27585,-7.13295 -0.37033,-10.70088 -5.16687,0.53755 -10.37612,0.49774 -15.55167,0.75076 -1.52096,1.94118 -0.26234,1.28509 -1.17337,-0.0834 -4.26696,0.79573 -8.72033,0.36812 -13.05989,0.75389 -3.18229,0.0827 -6.46057,0.25013 -9.51935,0.66251 -0.15059,3.30545 0.74534,6.79371 0.21698,10.01042 -1.70096,0.10479 -3.51081,-0.57019 -3.16054,1.81717 -0.52626,5.41714 -4.16608,10.31093 -8.9665,12.75077 -2.60763,1.17069 -7.05229,1.99217 -5.60307,-2.20365 -0.82849,-2.63264 0.97535,-8.21096 -1.46638,-9.04198 -0.009,1.47326 -3.0192,6.95673 -1.3306,3.08706 1.31802,-2.06764 0.63998,-3.04199 -1.54941,-2.4075 -2.21832,0.24936 -6.01291,-0.61631 -4.34881,2.98093 -1.04853,4.05193 2.52066,3.8899 5.03539,5.70797 1.59651,2.16784 2.71428,5.01768 4.04303,6.62382 0.11975,3.7491 -2.67856,7.09081 -6.27036,7.88486 -1.44707,0.84655 -3.24396,1.479 -5.30168,1.02705 0.16818,4.66623 0.38225,9.3943 0.70925,14.07575 1.08669,0.14905 2.73252,-0.31306 3.49661,0.18862 0.6564,6.81541 0.27325,13.73001 1.49937,20.48646 0.65447,1.4998 3.56831,-0.0193 4.88467,0.34695 z"
       id="cs_1_s_7"
       inkscape:connector-curvature="0"
       inkscape:label="#path13670" />
    <path
       style="fill:none;fill-opacity:1;stroke:#000000;stroke-opacity:1"
       d="m 335.91158,349.18819 c -2.8758,-10.11539 1.77392,-15.87176 12.21924,-13.83132 -2.37374,-6.58709 2.5251,-15.72708 -0.75709,-18.96273 -10.53431,1.7222 -20.73976,-18.73022 -4.56629,-14.67232 10.6135,2.16983 0.0645,-8.20436 3.1443,-14.38226 -1.71197,-8.55417 1.30992,-22.00297 -3.39548,-27.47247 -4.90586,3.08408 -10.61225,-1.96642 -17.79612,1.47414 0.91214,6.43602 -2.26558,11.97934 -4.80081,15.83947 -8.42449,-1.39469 -21.65952,5.67648 -23.46434,-5.09539 -8.26812,-1.77208 -16.81157,-0.9877 -23.71331,0.94004 1.6078,21.68129 1.53866,43.61992 3.1206,65.37161 14.81126,-0.51048 29.60152,-1.60932 44.42474,-1.76316 1.61312,7.30315 7.24284,18.42385 15.7962,15.6377 -0.15553,-1.02177 -0.15784,-2.05439 -0.21164,-3.08331 z m 10.15933,7.72621 c 6.14501,-0.53487 2.39552,-15.82741 0.9221,-18.18914 -12.9267,-5.10707 -9.69595,15.22368 -6.34865,18.54972 1.80757,-0.13853 3.61656,-0.25853 5.42655,-0.36058 z m -9.26395,16.13824 c 5.38503,-0.75613 -11.80029,0.42059 -2.18056,0.16246 l 2.18056,-0.16244 0,-2e-5 z m -37.8776,10.05559 c 11.62489,-1.0503 31.6605,-0.32226 38.0823,-1.93057 -7.98179,-1.98315 -7.67373,-11.86342 1.55355,-8.72662 5.94029,-1.62944 4.45672,-15.10897 -0.70121,-16.19448 0.0585,-3.6085 0.14679,-17.84374 -1.17908,-15.07586 2.29271,7.65336 0.11936,17.62737 -9.13716,9.9857 -6.12489,-4.11631 -5.0415,-14.70168 -14.91505,-11.04114 -11.50879,1.76747 -28.0296,-1.07868 -36.28945,3.57311 1.24712,10.92223 -1.68256,23.14486 3.82596,33.09005 4.19369,6.13576 11.84789,7.62411 18.76014,6.31981 z"
       id="cs_1_s_10b"
       inkscape:connector-curvature="0"
       inkscape:label="#cs_s_10b" />
    <path
       style="fill:none;fill-opacity:1;stroke:#000000;stroke-opacity:1"
       d="m 581.29672,296.61744 c 3.68741,-0.0788 7.34531,-0.28353 11.02115,-0.49759 8.38013,-0.16754 16.77119,-0.59262 25.11639,-1.18686 1.6138,-0.64792 -0.53228,-4.90079 0.13139,-6.77622 -0.23738,-3.88559 0.0312,-7.80695 -0.54751,-11.66643 0.19916,-3.27252 -0.69123,-7.07021 -0.42687,-10.59745 -0.21693,-5.47072 -0.68674,-10.96961 -0.75656,-16.4643 -0.27038,-2.68051 -0.58842,-5.18736 -0.44036,-8.10342 -0.0626,-3.40784 -0.40383,-6.80075 -0.46038,-10.20618 -1.6325,0.0651 -3.26501,0.13013 -4.89751,0.1952 -0.17351,-2.27241 -0.34703,-4.54483 -0.52055,-6.81724 -3.94753,0.16765 -7.93762,0.0692 -11.85049,0.44459 -0.46534,1.913 -2.4999,-1.25024 -4.48018,-0.19078 -6.32875,0.7762 -12.75391,0.74773 -19.12664,1.07093 -3.26602,-0.071 -5.6227,0.83313 -8.54009,0.38711 -3.33141,0.53965 -7.76889,-0.35204 -10.40939,1.20528 0.0633,5.66401 0.57456,11.32223 0.76415,16.9806 -0.89878,-1.78017 -0.51254,-7.88159 -0.91168,-11.21122 -0.48798,-1.81289 0.42846,-5.15745 -0.72052,-6.26536 -3.19206,0.0989 -6.3843,0.19225 -9.57646,0.28792 -0.60848,2.66737 0.4249,5.40456 0.18985,8.11918 0.14336,3.24442 0.21991,6.49804 0.53765,9.73034 3.34602,0.41251 7.01066,-0.34154 10.19654,0.19784 -1.27238,0.49854 -3.82912,-0.67081 -3.03754,1.63456 0.12503,4.44423 0.17818,8.94082 0.99698,13.3088 3.14683,0.34897 6.70853,0.82971 9.19147,3.14251 1.98977,1.04177 5.50446,7.46893 1.18945,6.63913 -1.7821,-1.24155 3.1816,0.31172 1.28006,-2.31207 -0.87108,-4.11789 -5.10624,-6.22622 -9.00969,-6.32539 0.23839,2.65956 -0.19335,5.54542 0.88772,7.9982 1.69673,0.25675 5.32238,0.48436 4.38727,-0.0995 3.42648,0.76425 0.29427,1.67453 -1.4998,1.04036 -1.8014,-0.33479 -4.13959,1.33059 -0.98061,0.7288 2.71949,-0.18812 8.20058,-1.0709 5.40527,3.33694 -0.58541,2.68194 -4.19984,4.09119 -5.4189,5.31367 2.41077,-0.0293 5.11455,3.43814 6.26646,-0.68804 1.23507,-5.35569 4.96125,0.60727 6.49776,2.84387 2.58827,4.41655 2.60539,10.09576 0.437,14.67443 2.29842,1.25079 6.30324,0.28197 9.11517,0.12774 z"
       id="cs_1_s_8_"
       inkscape:connector-curvature="0"
       inkscape:label="#cs_s_8_" />
    <path
       style="fill:none;stroke:#000000;stroke-opacity:1"
       d="m 421.73325,293.63037 c -1.99831,-8.72853 16.66426,-21.82579 15.17523,-8.08439 0.4187,2.34607 -0.0586,7.09675 -0.51476,2.10731 -1.38895,5.99223 4.51479,8.14175 2.10946,0.39825 -0.24247,-14.62057 -1.77907,-29.21258 -1.59412,-43.83821 6.59986,-0.0924 3.78316,-16.13204 -4.4129,-10.4525 -6.11435,1.16433 -18.89564,-3.38812 -14.70792,7.30777 1.09848,17.76288 1.58708,35.52159 2.53428,53.29527 l 0.70095,-0.098 0.70988,-0.63551 -10e-5,1e-5 z m -41.80755,2.61143 c 12.55889,-0.90566 25.17642,-0.93091 37.74979,-1.84707 -1.39262,-19.77423 -1.66398,-39.63824 -3.03878,-59.40371 -5.17684,-1.8191 -18.52152,0.99581 -18.67561,1.69715 -2.35637,-1.98968 -18.93245,-3.58466 -16.88365,3.59771 -1.55582,3.2428 -0.89705,12.51754 6.35571,10.5955 5.22057,2.58806 3.58554,7.55421 -2.42218,6.30095 5.44692,-1.03834 11.99132,-0.6508 6.31008,5.76843 -4.84059,2.582 -3.74364,3.2706 -2.34157,3.87812 -8.26436,-3.68451 1.4865,12.53494 -9.16857,8.32341 -11.60627,2.02584 6.53634,1.98915 9.68829,1.82117 1.98862,9.64693 -9.28119,13.11106 -13.10434,17.36796 -0.62456,3.91816 3.65388,1.27583 5.53083,1.90038 z"
       id="cs_1_s_9b"
       inkscape:connector-curvature="0"
       inkscape:label="#cs_s_9b" />
    <path
       style="fill:none;stroke:#000000;stroke-opacity:1"
       d="m 458.78857,292.98021 c 4.09111,-0.55901 8.39077,-0.43584 12.38303,-0.75871 0.86916,-4.5944 2.41606,-9.52843 6.56527,-12.39576 2.30899,-1.82658 9.43959,-5.41042 9.10764,0.0875 0.65983,3.59284 -0.59619,9.28099 1.36733,11.54216 9.41205,-0.9493 18.8857,-1.04506 28.32253,-1.66525 2.6604,-0.4898 6.63026,0.44994 8.42027,-1.17785 0.32846,-3.70974 3.66449,-6.9457 6.33249,-8.0717 -1.25941,-0.22564 -6.61955,-3.01094 -2.82953,-1.5988 1.69459,1.60106 5.72755,2.72116 4.34322,-1.14518 1.53725,-4.64743 -2.31609,-5.30541 -5.80821,-4.57541 -3.75263,-0.98077 -1.06719,3.59772 -1.08743,3.8051 -3.1317,-2.42733 -0.46282,-5.5448 2.88817,-4.50507 2.079,0.32836 5.00432,-0.39744 1.50305,-0.68946 -2.56429,-0.12439 -8.9048,2.02088 -6.59405,-2.80044 1.26542,-4.09873 5.41608,-7.58115 9.83104,-7.27244 3.70633,-2.49895 0.47646,-8.01979 1.37124,-11.82421 0.63952,-2.6926 -1.99196,-3.09644 -3.37565,-3.1831 -0.61192,-5.92017 -0.62904,-11.93201 -1.0825,-17.88948 -2.6074,-0.93407 -4.00882,1.24433 -4.35984,2.7455 -2.92532,1.77669 -3.52013,-0.0926 -3.74666,-2.31758 -3.74282,0.55803 -7.97819,-0.50897 -11.4328,1.3781 -2.78467,-2.16101 -8.34837,0.42089 -12.29813,-0.19171 -6.1532,0.25072 -12.34358,0.51685 -18.44617,1.12876 -4.06529,-0.61326 -8.03532,0.46575 -12.10112,0.46216 -4.72055,0.2488 -9.4436,0.47949 -14.15313,0.89563 -0.6214,1.90667 -1.55363,-1.39317 -3.19421,-0.0674 -2.12463,2.82903 0.10978,8.15542 -0.36474,11.90901 -1.29236,4.99879 4.07484,3.27802 6.62533,4.45982 0.41492,7.35983 0.60062,14.8698 1.0544,22.28243 -4.21687,0.0449 -7.26128,1.39085 -6.30497,6.1339 0.34848,5.21839 0.41514,10.45441 0.88709,15.6656 2.04746,-0.26306 4.11312,-0.3801 6.17704,-0.3661 z"
       id="cs_1_s_8"
       inkscape:connector-curvature="0"
       inkscape:label="#cs_s_8" />
    <path
       style="fill:none;stroke:#000000;stroke-opacity:1"
       d="m 283.16848,165.5754 c 5.54544,-8.31298 -7.56365,0.63286 0,0 z m 2.79576,8.55437 c -0.67979,-7.90096 -8.30381,-3.11866 -3.20619,0.7391 l 1.75385,-0.1827 1.45227,-0.55642 7e-5,2e-5 z m -11.37059,1.65515 c 9.49916,-1.09605 -3.41191,-23.19679 11.5184,-14.8808 5.89306,2.64002 7.06326,12.14869 12.55622,14.29307 14.42065,-1.80516 29.11712,-1.30573 43.63,-2.80066 -0.94743,-15.13504 -0.55562,-30.36458 -2.5696,-45.42353 -7.64381,1.25377 -17.37516,2.92692 -25.92101,3.90548 -8.12474,2.30471 -19.05752,2.55965 -28.69809,4.47001 2.57097,4.47927 -6.378,10.02173 -10.68368,11.66816 -0.22003,6.44887 2.43525,18.20564 -1.14747,10.39539 -8.48114,0.2721 -1.81496,3.77188 -2.69163,2.90557 -5.04508,2.06238 -2.31027,12.25174 -0.96678,15.79649 1.67073,0.0411 3.30142,-0.44265 4.97364,-0.32918 z m 57.54776,81.4844 c 4.64224,0.69452 20.79705,-2.2136 7.8527,-1.75707 -15.67427,4.24604 -5.49648,-15.97846 4.40316,-15.78895 2.10753,-8.5275 -0.57906,-18.98969 -0.14125,-28.25671 -0.5342,-11.56904 -1.00396,-23.33663 -2.21777,-34.72921 -6.53246,0.2655 -16.63851,-0.0117 -25.30528,0.82932 -6.44115,-0.91166 -18.45144,3.80585 -21.94627,-1.77231 1.87358,-8.18863 -12.45577,-17.57828 -12.17662,-6.79568 5.08025,2.08618 4.59041,8.09363 -0.91353,7.44766 -1.44738,7.68133 -17.05573,-2.24569 -12.75816,9.54308 1.31425,22.99027 2.06805,46.00742 3.19411,69.00686 7.96116,0.23662 23.09754,4.01653 25.54722,-7.14213 1.796,-5.32267 15.50281,-2.35455 21.34014,-2.71151 3.32238,3.46592 4.83523,9.12607 6.60206,12.68071 2.16961,-0.23688 4.33696,-0.49628 6.51949,-0.55406 z"
       id="cs_1_s_9a"
       inkscape:connector-curvature="0"
       inkscape:label="#cs_s_9a" />
  </g>
</svg>
