<?xml version="1.0" encoding="UTF-8" standalone="no"?>
<!-- Created with Inkscape (http://www.inkscape.org/) -->

<svg
   xmlns:dc="http://purl.org/dc/elements/1.1/"
   xmlns:cc="http://creativecommons.org/ns#"
   xmlns:rdf="http://www.w3.org/1999/02/22-rdf-syntax-ns#"
   xmlns:svg="http://www.w3.org/2000/svg"
   xmlns="http://www.w3.org/2000/svg"
   xmlns:sodipodi="http://sodipodi.sourceforge.net/DTD/sodipodi-0.dtd"
   xmlns:inkscape="http://www.inkscape.org/namespaces/inkscape"
   width="211.17357mm"
   height="56.813267mm"
   viewBox="0 0 748.25281 201.30684"
   id="svg8431"
   version="1.1"
   inkscape:version="0.91 r13725"
   sodipodi:docname="new-build-a-stair_rooms.svg">
  <defs
     id="defs8433" />
  <sodipodi:namedview
     id="base"
     pagecolor="#ffffff"
     bordercolor="#666666"
     borderopacity="1.0"
     inkscape:pageopacity="0.0"
     inkscape:pageshadow="2"
     inkscape:zoom="0.35"
     inkscape:cx="-619.93966"
     inkscape:cy="181.96044"
     inkscape:document-units="px"
     inkscape:current-layer="layer1"
     showgrid="false"
     fit-margin-top="0"
     fit-margin-left="0"
     fit-margin-right="0"
     fit-margin-bottom="0"
     inkscape:window-width="1600"
     inkscape:window-height="837"
     inkscape:window-x="-8"
     inkscape:window-y="-8"
     inkscape:window-maximized="1" />
  <metadata
     id="metadata8436">
    <rdf:RDF>
      <cc:Work
         rdf:about="">
        <dc:format>image/svg+xml</dc:format>
        <dc:type
           rdf:resource="http://purl.org/dc/dcmitype/StillImage" />
        <dc:title></dc:title>
      </cc:Work>
    </rdf:RDF>
  </metadata>
  <g
     inkscape:label="Layer 1"
     inkscape:groupmode="layer"
     id="layer1"
     transform="translate(-543.35178,41.92341)">
    <path
       inkscape:connector-curvature="0"
       style="fill:none;fill-opacity:1;stroke:#000000;stroke-opacity:1"
       d="m 674.44082,158.77655 14.71174,0 0,-24.3 0,-24.3 -19.35,0 -19.35,0 0,2.11691 c 0,3.10038 -3.61561,7.96932 -7.45043,10.03309 l -3.34471,1.8 -0.003,7.32871 c -0.003,7.94614 -0.3083,8.42129 -5.41745,8.42129 -1.41229,0 -3.58515,0.38679 -4.82858,0.85955 -1.88268,0.71579 -2.35417,0.56528 -2.81924,-0.9 -0.36078,-1.13757 -1.36614,-1.75955 -2.84383,-1.75955 -1.8461,0 -2.14969,0.30288 -1.57872,1.575 0.71324,1.5891 0.73962,3.82825 0.10337,8.775 -0.23919,1.85972 0.10081,2.89039 1.09251,3.31174 1.25601,0.53366 1.23875,0.61982 -0.13522,0.675 -2.95008,0.11848 -1.77285,2.76326 1.22997,2.76326 2.36187,0 2.73061,-0.28435 2.33426,-1.8 -0.2589,-0.99 -0.10363,-1.8 0.34503,-1.8 0.44866,0 0.81574,1.0125 0.81574,2.25 0,1.97143 -0.38999,2.25 -3.15,2.25 -2.02633,0 -3.15,0.42843 -3.15,1.20101 0,0.91045 1.79638,1.18263 7.425,1.125 l 7.425,-0.0761 0.28339,-3.9608 c 0.18188,-2.54226 -0.14044,-4.2485 -0.90001,-4.76412 -0.81513,-0.55335 -0.48323,-0.72113 1.06662,-0.5392 2.03561,0.23896 2.27573,0.70894 2.52007,4.93243 0.32426,5.60522 0.61931,5.72977 12.24319,5.16858 4.4073,-0.21279 14.63355,-0.38689 22.725,-0.38689 z"
       id="new_build_a_3"
       inkscape:label="#path6861" />
    <path
       inkscape:connector-curvature="0"
       style="fill:none;fill-opacity:1;stroke:#000000;stroke-opacity:1"
       d="m 543.35178,98.477332 0,30.148438 0,30.15039 17.10156,0 17.09961,0 0,-19.34961 c 0,-18.32 0.0898,-19.34961 1.6875,-19.34961 1.13669,0 1.85436,-0.84016 2.20117,-2.57422 0.28318,-1.41589 1.58488,-3.84628 2.89258,-5.40039 2.11555,-2.5142 2.19524,-2.83832 0.72266,-2.94531 -0.91025,-0.0661 0.3707,-0.42776 2.8457,-0.80274 2.475,-0.375 6.8713,-0.46097 9.76953,-0.1914 l 5.26953,0.49023 -1.31836,-2.61328 c -0.72501,-1.4372 -1.58571,-3.72664 -1.91211,-5.08789 l -0.59375,-2.474608 -27.88281,0 -27.88281,0 z m 47.625,10.806638 c -3.31584,0.14096 -8.92383,6.03518 -8.92383,11.19727 0,1.26208 -0.36321,2.29492 -0.80664,2.29492 -0.44439,0 -0.8459,7.87716 -0.89453,17.55078 -0.0732,14.54693 0.12939,17.54883 1.18164,17.54883 0.69821,0 1.50617,-0.50625 1.79492,-1.125 0.42,-0.9 0.62884,-0.9 1.04883,0 0.28876,0.61875 0.99868,1.11217 1.57617,1.0957 0.5775,-0.0165 0.10916,-0.81248 -1.03906,-1.76953 -1.46212,-1.21868 -2.0003,-2.4917 -1.79883,-4.24609 0.25195,-2.19384 0.71461,-2.53867 3.73438,-2.78711 l 3.44921,-0.28516 -0.16015,3.43359 c -0.0881,1.88852 -0.12215,3.93985 -0.0742,4.5586 0.065,0.83784 3.07361,1.125 11.78711,1.125 l 11.70117,0 0,-7.4336 c 0,-6.4588 -0.23681,-7.57991 -1.80078,-8.55664 -2.50429,-1.56395 -2.37018,-5.43747 0.22461,-6.48046 1.55151,-0.62362 1.6579,-0.8274 0.45117,-0.8711 -0.90728,-0.0329 -1.54484,-0.72553 -1.50391,-1.63281 0.0425,-0.9409 0.25421,-1.12129 0.5254,-0.44922 1.02863,2.54924 2.10351,0.83785 2.10351,-3.34766 0,-3.60513 -0.26124,-4.37076 -1.34961,-3.95312 -0.85485,0.32804 -1.35156,-0.0119 -1.35156,-0.92773 3e-5,-0.79547 -0.40344,-1.44727 -0.89844,-1.44727 -0.495,0 -0.90039,1.17657 -0.90039,2.61523 0,2.17265 -0.30569,2.53745 -1.80078,2.14649 -1.51565,-0.39636 -1.79883,-0.0279 -1.79883,2.33398 0,3.36442 2.3271,3.87226 3.57031,0.7793 0.55081,-1.37036 0.8325,-1.55181 0.8711,-0.56055 0.0759,1.94732 -2.27687,3.81781 -3.98047,3.16406 -0.99291,-0.381 -1.36133,-1.89838 -1.36133,-5.60546 l 0,-5.08204 -6.00781,0.38282 c -3.3045,0.21041 -5.59368,0.24341 -5.08594,0.0742 0.87061,-0.2902 0.74293,-7.03742 -0.22266,-11.72266 -0.3033,-1.47172 -1.15448,-2.06456 -2.25976,-2.01758 z"
       id="new_build_a_4"
       inkscape:label="#path6857" />
    <path
       inkscape:connector-curvature="0"
       style="fill:none;fill-opacity:1;stroke:#000000;stroke-opacity:1"
       d="m 689.15256,45.376552 0,-24.3 -27.34984,0 -27.34984,0 -0.57381,3.0587 c -0.73177,3.90066 -3.65269,7.61745 -7.20018,9.16203 l -2.77633,1.20882 2.55,0.0352 c 1.63415,0.0226 2.41221,0.43928 2.16634,1.16022 -0.21101,0.61875 -1.25726,0.99829 -2.32499,0.84343 -1.28046,-0.18571 -1.94135,0.19727 -1.94135,1.125 0,0.77361 0.35777,1.40657 0.79504,1.40657 1.49147,0 1.84761,4.00349 0.53442,6.00767 -1.79964,2.7466 -0.82056,4.63691 2.57214,4.96602 2.36462,0.22939 2.8484,0.65847 2.8484,2.52631 0,1.95035 -0.44948,2.2872 -3.375,2.52934 -4.62036,0.38239 -4.27398,1.95397 0.45,2.04172 2.10375,0.0391 3.31875,0.27533 2.7,0.525 -0.72209,0.29136 -1.125,2.36105 -1.125,5.77894 l 0,5.325 4.92375,0 4.92374,0 -0.0169,-10.54857 c -0.0109,-6.78372 -0.3759,-10.77042 -1.02269,-11.17016 -1.0049,-0.62107 -1.12787,-7.91618 -0.18383,-10.90627 0.27349,-0.86625 1.27996,-1.575 2.2366,-1.575 1.65968,0 1.73935,0.80398 1.73935,17.55 l 0,17.55 23.4,0 23.4,0 0,-24.3 z"
       id="new_build_a_2"
       inkscape:label="#path6689" />
    <path
       inkscape:connector-curvature="0"
       style="fill:none;fill-opacity:1;stroke:#000000;stroke-opacity:1"
       d="m 625.41699,14.614172 c 3.80294,-0.17407 7.21678,-0.61882 7.58631,-0.98835 1.19474,-1.19474 -2.24279,-6.9099504 -5.26412,-8.7520704 -1.61514,-0.98476 -2.48499,-1.79199 -1.93299,-1.79383 3.03231,-0.0102 8.44637,6.88174 8.44637,10.7519404 0,1.81927 0.37831,1.84469 27.45,1.84469 l 27.45,0 0,-24.3000004 0,-24.2999996 -23.4,0 -23.4,0 0,17.55 c 0,16.7460196 -0.0797,17.5499996 -1.73935,17.5499996 -1.96265,0 -2.52329,-1.37835003 -2.92865,-7.2 -0.1551,-2.2275 -0.687,-4.34755 -1.182,-4.71122 -0.495,-0.3636696 -0.002,-0.6674196 1.09553,-0.6749996 1.9495,-0.0135 1.99535,-0.26285 1.98783,-10.81378 l -0.008,-10.8 -4.91283,0 -4.91283,0 0,4.5 c 0,2.475 0.34884,4.5 0.77519,4.5 0.42636,0 0.63639,-1.11375 0.46673,-2.475 -0.30101,-2.41507 -0.29164,-2.42051 0.3867,-0.225 0.4173,1.35065 1.48983,2.36496 2.68327,2.53759 1.09346,0.15818 1.98811,0.66443 1.98811,1.125 0,1.04743 -0.97157,1.04941 -2.62097,0.005 -0.82466,-0.52202 -1.71633,-0.35917 -2.53928,0.46378 -0.69717,0.69749 -2.45399,1.26823 -3.90364,1.26823 -1.44963,0 -2.63571,0.405 -2.63571,0.9 0,0.495 1.43021,0.9 3.17824,0.9 2.00677,0 3.37083,0.50183 3.7007,1.36146 0.8059,2.10015 -1.50939,4.23837 -4.16699,3.84832 -1.88453,-0.27659 -2.32806,0.0153 -2.27686,1.49835 0.035,1.01303 0.58766,2.7802796 1.22821,3.9272196 0.97806,1.75129 0.93812,2.43106 -0.24933,4.24333 -0.77769,1.1869 -1.41397,2.37474 -1.41397,2.63966 0,1.00287997 3.47046,0.43097997 3.90395,-0.64334 0.24967,-0.61875 0.48592,-0.0361 0.525,1.29485997 0.0641,2.18379003 -0.31372,2.47755003 -3.87327,3.01133003 -7.31432,1.09685 -7.07204,1.53174 -6.91159,-12.40619 0.0935,-8.1189996 -0.18196,-12.3749996 -0.80082,-12.3749996 -0.62935,0 -0.94327,6.64665 -0.94327,19.9720196 0,16.1482604 0.21539,19.6953604 1.125,18.5270504 0.81339,-1.04472 3.04025,-1.53263 8.03943,-1.76145 z"
       id="new_build_a_1"
       inkscape:label="#path6651" />
    <path
       inkscape:connector-curvature="0"
       style="fill:none;fill-opacity:1;stroke:#000000;stroke-opacity:1"
       d="m 1194.9526,145.74288 c 0,-3.81452 0.3131,-4.96633 1.35,-4.96633 1.02,0 1.35,1.1 1.35,4.5 l 0,4.5 7.65,0 c 6.2426,0 7.65,-0.25151 7.65,-1.36714 0,-1.03024 -0.589,-1.21933 -2.3901,-0.76729 -1.731,0.43446 -2.7066,0.16693 -3.5382,-0.97034 -1.6483,-2.25418 -0.5856,-4.09523 2.3639,-4.09523 2.9115,0 4.4125,-2.84364 2.6328,-4.98802 -1.0507,-1.26606 -0.8867,-3.72799 0.4621,-6.93698 0.5482,-1.3041 0.1811,-1.575 -2.1343,-1.575 -1.757,0 -2.7126,0.41811 -2.5712,1.125 0.1293,0.64696 -0.6355,1.09768 -1.8,1.06071 -1.1138,-0.0354 -4.05,-0.1366 -6.525,-0.225 l -4.5,-0.16071 0,-8.0266 0,-8.02659 -2.925,-1.82229 c -3.3521,-2.08837 -5.243,-4.80341 -6.0413,-8.67452 l -0.5569,-2.7 -25.8384,-0.23881 -25.8384,-0.23879 0,24.72341 0,24.72342 30.6,0.0567 30.6,0.0567 0,-4.96632 z"
       id="new_build_a_6"
       inkscape:label="#path5873" />
    <path
       inkscape:connector-curvature="0"
       style="fill:none;fill-opacity:1;stroke:#000000;stroke-opacity:1"
       d="m 1263.1726,149.59655 c 0.84,-0.84 1.08,-0.8367 1.08,0.0149 0,0.81674 3.4292,1.06289 13.5,0.969 l 13.5,-0.12584 0,-24.57192 0,-24.57192 -13.5,-0.0824 c -10.306,-0.063 -13.5169,0.18735 -13.5711,1.05792 -0.056,0.9018 -0.166,0.90501 -0.525,0.0154 -0.3179,-0.78776 -2.9841,-1.125 -8.8943,-1.125 l -8.4403,0 -0.9493,3.375 c -1.1352,4.03614 -2.7358,6.26606 -6.081,8.47185 l -2.489,1.64128 2.475,0.006 2.475,0.006 0,8.1 0,8.1 -3.9915,0 c -2.1952,0 -5.0302,0.39498 -6.3,0.87773 -2.2211,0.84448 -2.7902,0.37259 -2.4151,-2.00273 0.059,-0.37202 -1.1084,-0.67577 -2.5934,-0.67577 -2.6708,0 -3.7738,1.93018 -1.8,3.15 1.1598,0.71684 1.1699,4.67691 0.014,5.39149 -0.4875,0.30124 -0.8041,1.54015 -0.7037,2.75311 0.1543,1.86508 0.6475,2.2054 3.196,2.2054 2.7564,0 2.9892,0.21109 2.7287,2.475 -0.2176,1.89088 -0.8158,2.52598 -2.5348,2.69104 -2.2172,0.21288 -2.2205,0.20346 -0.225,-0.64601 2.9831,-1.26988 2.6033,-3.62003 -0.585,-3.62003 -2.3829,0 -2.61,0.27414 -2.61,3.15 l 0,3.15 7.56,0 7.56,0 0,-3.87 c 0,-2.1285 -0.4357,-4.30571 -0.9683,-4.83824 -0.6909,-0.69099 -0.3044,-0.84135 1.35,-0.52509 2.1491,0.41082 2.3183,0.79683 2.3183,5.28825 l 0,4.84508 10.17,0 c 6.71,0 10.5374,-0.36743 11.25,-1.08 z"
       id="new_build_a_5"
       inkscape:label="#path5869" />
    <path
       style="fill:none;fill-opacity:1;stroke:#000000;stroke-opacity:1"
       d="m 1201.1602,11.629222 -46.3371,0.44719 -21.0708,0 0,24.31629 0,24.31629 21.375,-0.24129 47.0885,-0.91208 c -0.2731,-18.05678 -0.015,-31.87109 -1.0556,-47.9264 z"
       id="new_build_a_7"
       inkscape:connector-curvature="0"
       sodipodi:nodetypes="cccccccc"
       inkscape:label="#path5673" />
    <path
       inkscape:connector-curvature="0"
       style="fill:none;fill-opacity:1;stroke:#000000;stroke-opacity:1"
       d="m 1133.7522,-41.923058 0,24.31641 0,24.3163996 20.9257,-0.24218 20.9239,-0.24024 0.01,-1.44531 23.1133,0 0,-46.2831996 -22.9473,0 0,-0.42188 -21.0117,0 -21.0118,0 z"
       id="new_build_a_8"
       inkscape:label="#path5633" />
    <path
       inkscape:connector-curvature="0"
       style="fill:none;fill-opacity:1;stroke:#000000;stroke-opacity:1"
       d="m 1235.1403,4.5888416 c 1.1641,-1.16415 -2.3252,-6.90064 -5.3011,-8.71509 -1.6152,-0.98476 -2.485,-1.79199 -1.933,-1.79383 3.0336,-0.0102 8.4464,6.88200997 8.4464,10.75488 0,1.82442 0.3449,1.8469 27.45,1.78861 l 27.45,-0.059 0,-24.2439096 0,-24.24392 -13.5,0 c -10.1927,0 -13.5034,0.27562 -13.5138,1.125 -0.011,0.8728 -0.1787,0.86509 -0.7494,-0.0344 -0.5374,-0.84698 -3.0961,-1.0895 -9.4954,-0.9 l -8.7599,0.25941 -0.1657,17.1 c -0.1648,16.9909996 -0.1788,17.1018296 -2.1908,17.3875896 -1.1138,0.15818 -2.0446,-0.0443 -2.0684,-0.45 -0.4027,-6.8487496 -0.7977,-10.2640696 -1.2767,-11.0391496 -0.3224,-0.52164 0.028,-0.94844 0.7798,-0.94844 1.1449,0 1.3672,-1.74735 1.3736,-10.8 l 0.01,-10.8 -4.9205,0 -4.9205,0 0,5.325 c 0,3.41789 0.4029,5.48758 1.125,5.77895 0.6187,0.24966 -0.5963,0.48591 -2.7,0.52499 -4.724,0.0878 -5.0704,1.65933 -0.45,2.04172 2.9255,0.24214 3.375,0.57899 3.375,2.52934 0,1.88061 -0.4803,2.2963 -2.925,2.53202 -1.6088,0.15512 -2.925,0.66137 -2.925,1.125 0,0.46364 -0.81,0.84298 -1.8,0.84298 -1.6035,0 -1.8,0.6 -1.8,5.49453 l 0,5.4945296 3.6,-0.34331 c 2.9341,-0.27982 3.6,-0.0578 3.6,1.20032 0,1.1399 -1.0611,1.70275 -4.0568,2.15199 -2.2312,0.33458 -4.8637,0.39732 -5.85,0.1394 -1.6677,-0.43612 -1.7932,-0.0177 -1.7932,5.97678997 l 0,6.44573003 7.6264,-0.5064 c 4.1945,-0.27853 7.9121,-0.79211 8.2613,-1.14129 z"
       id="new_build_a_9"
       inkscape:label="#path5625" />
    <path
       inkscape:connector-curvature="0"
       style="opacity:0.81999966;fill:none;fill-opacity:1;stroke:#000000;stroke-opacity:1"
       d="m 1221.8189,14.087112 69.2857,0 0,48.21429 -69.2857,0 z"
       id="new_build_a_10"
       inkscape:label="#rect9906" />
  </g>
</svg>
