<?xml version="1.0" encoding="UTF-8" standalone="no"?>
<!-- Created with Inkscape (http://www.inkscape.org/) -->

<svg
   xmlns:dc="http://purl.org/dc/elements/1.1/"
   xmlns:cc="http://creativecommons.org/ns#"
   xmlns:rdf="http://www.w3.org/1999/02/22-rdf-syntax-ns#"
   xmlns:svg="http://www.w3.org/2000/svg"
   xmlns="http://www.w3.org/2000/svg"
   xmlns:sodipodi="http://sodipodi.sourceforge.net/DTD/sodipodi-0.dtd"
   xmlns:inkscape="http://www.inkscape.org/namespaces/inkscape"
   width="339.13144mm"
   height="243.78294mm"
   viewBox="0 0 1201.6469 863.79782"
   id="svg12954"
   version="1.1"
   inkscape:version="0.91 r13725"
   sodipodi:docname="new-build-k-l-m-n-o-p_rooms.svg">
  <defs
     id="defs12956" />
  <sodipodi:namedview
     id="base"
     pagecolor="#ffffff"
     bordercolor="#666666"
     borderopacity="1.0"
     inkscape:pageopacity="0.0"
     inkscape:pageshadow="2"
     inkscape:zoom="0.49497475"
     inkscape:cx="143.8983"
     inkscape:cy="320.46744"
     inkscape:document-units="px"
     inkscape:current-layer="layer1"
     showgrid="false"
     fit-margin-top="0"
     fit-margin-left="0"
     fit-margin-right="0"
     fit-margin-bottom="0"
     inkscape:window-width="1600"
     inkscape:window-height="837"
     inkscape:window-x="-8"
     inkscape:window-y="-8"
     inkscape:window-maximized="1" />
  <metadata
     id="metadata12959">
    <rdf:RDF>
      <cc:Work
         rdf:about="">
        <dc:format>image/svg+xml</dc:format>
        <dc:type
           rdf:resource="http://purl.org/dc/dcmitype/StillImage" />
        <dc:title></dc:title>
      </cc:Work>
    </rdf:RDF>
  </metadata>
  <g
     inkscape:label="Layer 1"
     inkscape:groupmode="layer"
     id="layer1"
     transform="translate(-408.66765,78.467827)">
    <path
       inkscape:connector-curvature="0"
       style="opacity:0.81999966;fill:none;fill-opacity:1;stroke:#000000;stroke-opacity:1"
       d="m 419.7391,-69.669997 58.22478,0 0,58.65808 -58.22478,0 z"
       id="new_build_p_1"
       inkscape:label="#rect12419" />
    <path
       style="opacity:0.81999966;fill:none;fill-opacity:1;stroke:#000000;stroke-opacity:1"
       d="m 507.0049,-70.711197 0.50512,-7.07107 17.13308,-0.68556 0.40276,8.36431 40.54789,-0.60768 0,48.9924 -58.58885,0 z"
       id="new_build_p_2"
       inkscape:connector-curvature="0"
       sodipodi:nodetypes="cccccccc"
       inkscape:label="#rect12422" />
    <path
       style="opacity:0.81999966;fill:none;fill-opacity:1;stroke:#000000;stroke-opacity:1"
       d="m 419.12166,74.750783 67.68023,0 0,46.467017 -67.68023,0 -0.32236,-13.68679 -9.09277,0.12959 0.0712,-24.323517 9.34391,0 z"
       id="new_build_o_3"
       inkscape:connector-curvature="0"
       sodipodi:nodetypes="ccccccccc"
       inkscape:label="#rect12425" />
    <path
       style="opacity:0.81999966;fill:none;fill-opacity:1;stroke:#000000;stroke-opacity:1"
       d="m 420.60654,151.02509 53.75166,1.07143 -0.35714,7.53845 -13.82698,0.046 1.0306,6.23283 10.47831,-0.11632 c 0.144,-1.46914 0.288,6.13322 0.43199,8.97696 l 18.86721,-0.0666 0.29182,36.1849 -71.02461,0.17086 -0.32236,-13.68679 -9.09277,0.12959 0.0712,-24.32352 9.34391,0 z"
       id="new_build_o_2"
       inkscape:connector-curvature="0"
       sodipodi:nodetypes="ccccccccccccccc"
       inkscape:label="#rect12425" />
    <path
       style="opacity:0.81999966;fill:none;fill-opacity:1;stroke:#000000;stroke-opacity:1"
       d="m 494.0248,162.47288 72.5,-0.71429 0,16.07142 13.92857,0.35715 0.0888,24.68051 -14.36156,-0.0154 0.34414,8.19202 -72.5,-0.71429 z"
       id="new_build_o_1"
       inkscape:connector-curvature="0"
       sodipodi:nodetypes="ccccccccc"
       inkscape:label="#rect12443" />
    <path
       style="opacity:0.81999966;fill:none;fill-opacity:1;stroke:#000000;stroke-opacity:1"
       d="m 420.81051,306.0443 64.28571,0 0,47.85714 -64.28571,0 0.20094,-7.39995 -9.70777,-0.0297 -0.49317,-23.99893 10,0 z"
       id="new_build_n_1"
       inkscape:connector-curvature="0"
       sodipodi:nodetypes="ccccccccc"
       inkscape:label="#rect12446" />
    <path
       style="opacity:0.81999966;fill:none;fill-opacity:1;stroke:#000000;stroke-opacity:1"
       d="m 420.81051,503.5443 69.28574,0 0,58.57143 -69.28574,0 -0.38506,-22.8431 -11.26062,-0.31483 -0.49718,-23.62779 12.5,0.35715 z"
       id="new_build_l_2"
       inkscape:connector-curvature="0"
       sodipodi:nodetypes="ccccccccc"
       inkscape:label="#rect12449" />
    <path
       style="opacity:0.81999966;fill:none;fill-opacity:1;stroke:#000000;stroke-opacity:1"
       d="m 496.5248,504.25859 68.92857,0 0,7.85714 10.71429,0 0.2528,22.92672 -10.42765,0.16772 -0.53944,15.83413 -68.92857,0 z"
       id="new_build_l_3"
       inkscape:connector-curvature="0"
       sodipodi:nodetypes="ccccccccc"
       inkscape:label="#rect12452" />
    <path
       style="opacity:0.81999966;fill:none;fill-opacity:1;stroke:#000000;stroke-opacity:1"
       d="m 420.81051,592.47288 65.35714,0 0,47.5 -65.35714,0 -0.01,-9.98844 -10.56824,0.002 -0.13647,-22.87087 10.71429,0 z"
       id="new_build_l_1"
       inkscape:connector-curvature="0"
       sodipodi:nodetypes="ccccccccc"
       inkscape:label="#rect12455" />
    <path
       inkscape:connector-curvature="0"
       style="opacity:0.81999966;fill:none;fill-opacity:1;stroke:#000000;stroke-opacity:1"
       d="m 421.16765,724.61571 42.5,0 0,60.71428 -42.5,0 z"
       id="new_build_k_2"
       inkscape:label="#rect12458" />
    <path
       style="opacity:0.81999966;fill:none;fill-opacity:1;stroke:#000000;stroke-opacity:1"
       d="m 517.59622,735.68718 48.57143,0 0,49.28571 -40.35714,0 -0.37637,-31.261 -8.19506,-0.16759 z"
       id="new_build_k_1"
       inkscape:connector-curvature="0"
       sodipodi:nodetypes="ccccccc"
       inkscape:label="#rect12461" />
    <path
       inkscape:connector-curvature="0"
       style="opacity:0.81999966;fill:none;fill-opacity:1;stroke:#000000;stroke-opacity:1"
       d="m 970.09624,733.90147 70.71436,0 0,47.85715 -70.71436,0 z"
       id="new_build_k_4"
       inkscape:label="#rect12464" />
    <path
       inkscape:connector-curvature="0"
       style="opacity:0.81999966;fill:none;fill-opacity:1;stroke:#000000;stroke-opacity:1"
       d="m 1047.2391,734.2586 69.6429,0 0,47.85715 -69.6429,0 z"
       id="new_build_k_3"
       inkscape:label="#rect12464" />
    <path
       inkscape:connector-curvature="0"
       style="opacity:0.81999966;fill:none;fill-opacity:1;stroke:#000000;stroke-opacity:1"
       d="m 1049.0248,644.97289 67.1429,0 0,47.85715 -67.1429,0 z"
       id="new_build_k_6"
       inkscape:label="#rect12464" />
    <path
       inkscape:connector-curvature="0"
       style="opacity:0.81999966;fill:none;fill-opacity:1;stroke:#000000;stroke-opacity:1"
       d="m 971.52474,646.04432 67.50006,0 0,45.00001 -67.50006,0 z"
       id="new_build_k_5"
       inkscape:label="#rect12464" />
    <path
       inkscape:connector-curvature="0"
       style="opacity:0.81999966;fill:none;fill-opacity:1;stroke:#000000;stroke-opacity:1"
       d="m 1049.3819,590.68717 67.5,0 0,47.50001 -67.5,0 z"
       id="new_build_l_4"
       inkscape:label="#rect12464" />
    <path
       inkscape:connector-curvature="0"
       style="opacity:0.81999966;fill:none;fill-opacity:1;stroke:#000000;stroke-opacity:1"
       d="m 1049.5606,448.72289 66.4286,0 0,45.7143 -66.4286,0 z"
       id="new_build_m_3"
       inkscape:label="#rect12464" />
    <path
       inkscape:connector-curvature="0"
       style="opacity:0.81999966;fill:none;fill-opacity:1;stroke:#000000;stroke-opacity:1"
       d="m 972.06044,448.72289 69.64296,0 0,45.35715 -69.64296,0 z"
       id="new_build_m_4"
       inkscape:label="#rect12464" />
    <path
       inkscape:connector-curvature="0"
       style="opacity:0.81999966;fill:none;fill-opacity:1;stroke:#000000;stroke-opacity:1"
       d="m 971.70334,358.72288 68.57146,0 0,44.28573 -68.57146,0 z"
       id="new_build_m_1"
       inkscape:label="#rect12464" />
    <path
       inkscape:connector-curvature="0"
       style="opacity:0.81999966;fill:none;fill-opacity:1;stroke:#000000;stroke-opacity:1"
       d="m 1048.132,358.72289 67.8571,0 0,46.78572 -67.8571,0 z"
       id="new_build_m_2"
       inkscape:label="#rect12464" />
    <path
       inkscape:connector-curvature="0"
       style="opacity:0.81999966;fill:none;fill-opacity:1;stroke:#000000;stroke-opacity:1"
       d="m 1048.4891,304.79431 67.5,0 0,46.42859 -67.5,0 z"
       id="new_build_n_4"
       inkscape:label="#rect12464" />
    <path
       inkscape:connector-curvature="0"
       style="opacity:0.81999966;fill:none;fill-opacity:1;stroke:#000000;stroke-opacity:1"
       d="m 1048.8463,216.58003 66.7857,0 0,45.7143 -66.7857,0 z"
       id="new_build_n_3"
       inkscape:label="#rect12464" />
    <path
       inkscape:connector-curvature="0"
       style="opacity:0.81999966;fill:none;fill-opacity:1;stroke:#000000;stroke-opacity:1"
       d="m 970.98904,216.58003 67.50006,0 0,44.28572 -67.50006,0 z"
       id="new_build_n_2"
       inkscape:label="#rect12464" />
    <path
       inkscape:connector-curvature="0"
       style="opacity:0.81999966;fill:none;fill-opacity:1;stroke:#000000;stroke-opacity:1"
       d="m 1048.8462,71.937173 67.1429,0 0,46.785717 -67.1429,0 z"
       id="new_build_o_7"
       inkscape:label="#rect12464" />
    <path
       inkscape:connector-curvature="0"
       style="opacity:0.81999966;fill:none;fill-opacity:1;stroke:#000000;stroke-opacity:1"
       d="m 1047.7749,18.008602 67.8571,0 0,47.857151 -67.8571,0 z"
       id="new_build_p_3"
       inkscape:label="#rect12464" />
    <path
       inkscape:connector-curvature="0"
       style="opacity:0.81999966;fill:none;fill-opacity:1;stroke:#000000;stroke-opacity:1"
       d="m 971.34624,18.365742 68.21436,0 0,45.357151 -68.21436,0 z"
       id="new_build_p_4"
       inkscape:label="#rect12464" />
    <path
       inkscape:connector-curvature="0"
       style="opacity:0.81999966;fill:none;fill-opacity:1;stroke:#000000;stroke-opacity:1"
       d="m 1048.4891,-71.634257 67.5,0 0,47.50001 -67.5,0 z"
       id="new_build_p_6"
       inkscape:label="#rect12464" />
    <path
       inkscape:connector-curvature="0"
       style="opacity:0.81999966;fill:none;fill-opacity:1;stroke:#000000;stroke-opacity:1"
       d="m 972.06054,-70.919977 67.50006,0 0,46.42858 -67.50006,0 z"
       id="new_build_p_5"
       inkscape:label="#rect12464" />
    <path
       inkscape:connector-curvature="0"
       style="opacity:0.81999966;fill:none;fill-opacity:1;stroke:#000000;stroke-opacity:1"
       d="m 1530.9891,-71.991397 67.5,0 0,47.50001 -67.5,0 z"
       id="new_build_p_10"
       inkscape:label="#rect12464" />
    <path
       inkscape:connector-curvature="0"
       style="opacity:0.81999966;fill:none;fill-opacity:1;stroke:#000000;stroke-opacity:1"
       d="m 1454.2034,-71.991397 67.8571,0 0,46.78572 -67.8571,0 z"
       id="new_build_p_9"
       inkscape:label="#rect12464" />
    <path
       inkscape:connector-curvature="0"
       style="opacity:0.81999966;fill:none;fill-opacity:1;stroke:#000000;stroke-opacity:1"
       d="m 1530.9892,16.937172 67.5,0 0,47.500011 -67.5,0 z"
       id="new_build_p_7"
       inkscape:label="#rect12464" />
    <path
       inkscape:connector-curvature="0"
       style="opacity:0.81999966;fill:none;fill-opacity:1;stroke:#000000;stroke-opacity:1"
       d="m 1454.9177,17.294322 67.5,0 0,46.071441 -67.5,0 z"
       id="new_build_p_8"
       inkscape:label="#rect12464" />
    <path
       inkscape:connector-curvature="0"
       style="opacity:0.81999966;fill:none;fill-opacity:1;stroke:#000000;stroke-opacity:1"
       d="m 1530.9892,70.865743 67.5,0 0,47.500007 -67.5,0 z"
       id="new_build_o_11"
       inkscape:label="#rect12464" />
    <path
       inkscape:connector-curvature="0"
       style="opacity:0.81999966;fill:none;fill-opacity:1;stroke:#000000;stroke-opacity:1"
       d="m 1532.7748,216.58002 65.7143,0 0,45.00001 -65.7143,0 z"
       id="new_build_n_7"
       inkscape:label="#rect12464" />
    <path
       inkscape:connector-curvature="0"
       style="opacity:0.81999966;fill:none;fill-opacity:1;stroke:#000000;stroke-opacity:1"
       d="m 1454.5605,216.22289 68.5714,0 0,45.00001 -68.5714,0 z"
       id="new_build_n_6"
       inkscape:label="#rect12464" />
    <path
       inkscape:connector-curvature="0"
       style="opacity:0.81999966;fill:none;fill-opacity:1;stroke:#000000;stroke-opacity:1"
       d="m 1530.632,303.0086 67.5,0 0,47.50001 -67.5,0 z"
       id="new_build_n_8"
       inkscape:label="#rect12464" />
    <path
       inkscape:connector-curvature="0"
       style="opacity:0.81999966;fill:none;fill-opacity:1;stroke:#000000;stroke-opacity:1"
       d="m 1530.632,356.22289 67.5,0 0,47.50001 -67.5,0 z"
       id="new_build_m_6"
       inkscape:label="#rect12464" />
    <path
       inkscape:connector-curvature="0"
       style="opacity:0.81999966;fill:none;fill-opacity:1;stroke:#000000;stroke-opacity:1"
       d="m 1454.5606,357.65146 67.8571,0 0,45.71429 -67.8571,0 z"
       id="new_build_m_5"
       inkscape:label="#rect12464" />
    <path
       inkscape:connector-curvature="0"
       style="opacity:0.81999966;fill:none;fill-opacity:1;stroke:#000000;stroke-opacity:1"
       d="m 1531.3463,446.22289 67.5,0 0,47.50001 -67.5,0 z"
       id="new_build_m_7"
       inkscape:label="#rect12464" />
    <path
       inkscape:connector-curvature="0"
       style="opacity:0.81999966;fill:none;fill-opacity:1;stroke:#000000;stroke-opacity:1"
       d="m 1454.9177,447.29431 68.2143,0 0,45.7143 -68.2143,0 z"
       id="new_build_m_8"
       inkscape:label="#rect12464" />
    <path
       inkscape:connector-curvature="0"
       style="opacity:0.81999966;fill:none;fill-opacity:1;stroke:#000000;stroke-opacity:1"
       d="m 1530.9891,589.08003 67.5,0 0,47.50001 -67.5,0 z"
       id="new_build_l_8"
       inkscape:label="#rect12464" />
    <path
       inkscape:connector-curvature="0"
       style="opacity:0.81999966;fill:none;fill-opacity:1;stroke:#000000;stroke-opacity:1"
       d="m 1530.9892,643.0086 67.5,0 0,47.50001 -67.5,0 z"
       id="new_build_k_10"
       inkscape:label="#rect12464" />
    <path
       inkscape:connector-curvature="0"
       style="opacity:0.81999966;fill:none;fill-opacity:1;stroke:#000000;stroke-opacity:1"
       d="m 1454.9177,644.08003 67.1429,0 0,46.42858 -67.1429,0 z"
       id="new_build_k_9"
       inkscape:label="#rect12464" />
    <path
       inkscape:connector-curvature="0"
       style="opacity:0.81999966;fill:none;fill-opacity:1;stroke:#000000;stroke-opacity:1"
       d="m 1530.9892,732.29431 67.5,0 0,47.50001 -67.5,0 z"
       id="new_build_k_7"
       inkscape:label="#rect12464"
       inkscape:transform-center-x="-6.4285712"
       inkscape:transform-center-y="3.2143044" />
    <path
       inkscape:connector-curvature="0"
       style="opacity:0.81999966;fill:none;fill-opacity:1;stroke:#000000;stroke-opacity:1"
       d="m 1453.4891,731.93717 67.5,0 0,47.50001 -67.5,0 z"
       id="new_build_k_8"
       inkscape:label="#rect12464" />
    <path
       style="opacity:0.81999966;fill:none;fill-opacity:1;stroke:#000000;stroke-opacity:1"
       d="m 1454.0249,588.90147 67.5,0 0,47.5 -67.5,0 -0.1046,-9.00884 -11.2251,-0.0487 -0.099,-23.44246 11.4286,0 z"
       id="new_build_l_9"
       inkscape:connector-curvature="0"
       sodipodi:nodetypes="ccccccccc"
       inkscape:label="#rect12689" />
    <path
       style="opacity:0.81999966;fill:none;fill-opacity:1;stroke:#000000;stroke-opacity:1"
       d="m 1454.3081,303.63623 67.5,0 0,48.00508 -67.5,0 -0.1046,-8.34702 -11.2251,0.20333 -0.099,-23.43919 11.5549,0.12627 z"
       id="new_buld_n_9"
       inkscape:connector-curvature="0"
       sodipodi:nodetypes="ccccccccc"
       inkscape:label="#rect12689" />
    <path
       style="opacity:0.81999966;fill:none;fill-opacity:1;stroke:#000000;stroke-opacity:1"
       d="m 971.41864,591.17988 67.50006,0 0,47.5 -67.50006,0 -0.1046,-9.00884 -11.2251,-0.0487 -0.099,-23.44246 11.4286,0 z"
       id="new_build_l_5"
       inkscape:connector-curvature="0"
       sodipodi:nodetypes="ccccccccc"
       inkscape:label="#rect12689" />
    <path
       style="opacity:0.81999966;fill:none;fill-opacity:1;stroke:#000000;stroke-opacity:1"
       d="m 971.19094,304.88098 67.50006,0 0,47.5 -67.50006,0 -0.1046,-7.49361 -11.2251,0.20383 -0.099,-24.45261 11.4286,0.12627 z"
       id="new_build_n_5"
       inkscape:connector-curvature="0"
       sodipodi:nodetypes="ccccccccc"
       inkscape:label="#rect12689" />
    <path
       style="opacity:0.81999966;fill:none;fill-opacity:1;stroke:#000000;stroke-opacity:1"
       d="m 971.04364,71.594073 67.21216,0.006 0.089,48.354707 -66.92266,0 c 0,-1.84274 -0.1409,-14.88714 -0.1409,-14.88714 l -11.1058,0.0268 -0.054,-23.525517 10.9854,0.0631 z"
       id="new_build_o_6"
       inkscape:connector-curvature="0"
       sodipodi:nodetypes="ccccccccc"
       inkscape:label="#rect12764" />
    <path
       style="opacity:0.81999966;fill:none;fill-opacity:1;stroke:#000000;stroke-opacity:1"
       d="m 971.67114,501.52884 67.50006,0 0,47.5 -67.50006,0 -0.1046,-11.02915 -11.2251,-0.17496 -0.099,-24.57889 11.4286,0 z"
       id="new_build_l_6"
       inkscape:connector-curvature="0"
       sodipodi:nodetypes="ccccccccc"
       inkscape:label="#rect12689-7" />
    <path
       style="opacity:0.81999966;fill:none;fill-opacity:1;stroke:#000000;stroke-opacity:1"
       d="m 1454.1775,160.29087 67.5,0 0,47.5 -67.5,0 0.022,-12.54437 -11.3514,-0.30124 -0.099,-23.40439 11.5549,-0.16434 z"
       id="new_build_o_9"
       inkscape:connector-curvature="0"
       sodipodi:nodetypes="ccccccccc"
       inkscape:label="#rect12689-7" />
    <path
       style="opacity:0.81999966;fill:none;fill-opacity:1;stroke:#000000;stroke-opacity:1"
       d="m 1454.0249,70.687183 67.5,0 0,47.499997 -67.5,0 -0.1046,-13.42826 -11.2251,-0.30124 -0.099,-24.452607 11.4286,-0.12627 z"
       id="new_build_o_10"
       inkscape:connector-curvature="0"
       sodipodi:nodetypes="ccccccccc"
       inkscape:label="#rect12689-7" />
    <path
       style="opacity:0.81999966;fill:none;fill-opacity:1;stroke:#000000;stroke-opacity:1"
       d="m 1453.5885,499.85778 67.5,0 0,48.2576 -67.5,0 -0.1046,-11.78676 -11.2251,-0.17496 -0.099,-24.70515 11.4286,0.12626 z"
       id="new_build_l_10"
       inkscape:connector-curvature="0"
       sodipodi:nodetypes="ccccccccc"
       inkscape:label="#rect12689-7" />
    <path
       style="opacity:0.81999966;fill:none;fill-opacity:1;stroke:#000000;stroke-opacity:1"
       d="m 971.41864,160.85489 67.50006,0 0,47.5 -67.50006,0 -0.1046,-11.53422 -11.2251,-0.0487 0.1535,-24.57888 11.1761,0 z"
       id="new_build_o_5"
       inkscape:connector-curvature="0"
       sodipodi:nodetypes="ccccccccc"
       inkscape:label="#rect12689-7-9" />
    <path
       style="opacity:0.81999966;fill:none;fill-opacity:1;stroke:#000000;stroke-opacity:1"
       d="m 1116.4511,209.34239 -67.5,0.0527 -0.036,-48.63518 67.5,-0.0527 -0.013,16.73428 11.0989,0.16747 0.1177,23.39863 -11.1761,0.009 z"
       id="new_build_o_4"
       inkscape:connector-curvature="0"
       sodipodi:nodetypes="ccccccccc"
       inkscape:label="#rect12689-7-9-3" />
    <path
       style="opacity:0.81999966;fill:none;fill-opacity:1;stroke:#000000;stroke-opacity:1"
       d="m 1116.3862,549.98324 -67.5,0.0527 -0.036,-48.63518 67.5,-0.0527 -0.013,8.58993 11.0989,0.16747 0.244,23.96684 -11.1761,0.009 z"
       id="new_build_l_7"
       inkscape:connector-curvature="0"
       sodipodi:nodetypes="ccccccccc"
       inkscape:label="#rect12689-7-9-3" />
    <path
       style="opacity:0.81999966;fill:none;fill-opacity:1;stroke:#000000;stroke-opacity:1"
       d="m 1599.0206,548.33802 -67.5,0.0527 -0.036,-48.63518 67.5,-0.0527 -0.013,8.58993 11.0989,0.16747 0.244,23.96684 -11.1761,0.009 z"
       id="new_build_l_11"
       inkscape:connector-curvature="0"
       sodipodi:nodetypes="ccccccccc"
       inkscape:label="#rect12689-7-9-3" />
    <path
       style="opacity:0.81999966;fill:none;fill-opacity:1;stroke:#000000;stroke-opacity:1"
       d="m 1598.6376,208.1927 -67.5,0.0527 -0.036,-48.63518 67.5,-0.0527 -0.013,16.73428 11.0989,0.16747 0.1177,23.39863 -11.1761,0.009 z"
       id="new_build_o_8"
       inkscape:connector-curvature="0"
       sodipodi:nodetypes="ccccccccc"
       inkscape:label="#rect12689-7-9-3" />
  </g>
</svg>
