<?xml version="1.0" encoding="UTF-8" standalone="no"?>
<!-- Created with Inkscape (http://www.inkscape.org/) -->

<svg
   xmlns:dc="http://purl.org/dc/elements/1.1/"
   xmlns:cc="http://creativecommons.org/ns#"
   xmlns:rdf="http://www.w3.org/1999/02/22-rdf-syntax-ns#"
   xmlns:svg="http://www.w3.org/2000/svg"
   xmlns="http://www.w3.org/2000/svg"
   xmlns:sodipodi="http://sodipodi.sourceforge.net/DTD/sodipodi-0.dtd"
   xmlns:inkscape="http://www.inkscape.org/namespaces/inkscape"
   width="339.41818mm"
   height="244.07065mm"
   viewBox="0 0 1202.6629 864.81725"
   id="svg12954"
   version="1.1"
   inkscape:version="0.91 r13725"
   sodipodi:docname="new-build-k-l-m-n-o-p_rooms.svg">
  <defs
     id="defs12956" />
  <sodipodi:namedview
     id="base"
     pagecolor="#ffffff"
     bordercolor="#666666"
     borderopacity="1.0"
     inkscape:pageopacity="0.0"
     inkscape:pageshadow="2"
     inkscape:zoom="0.35"
     inkscape:cx="-433.66566"
     inkscape:cy="152.39891"
     inkscape:document-units="px"
     inkscape:current-layer="layer1"
     showgrid="false"
     fit-margin-top="0"
     fit-margin-left="0"
     fit-margin-right="0"
     fit-margin-bottom="0"
     inkscape:window-width="1600"
     inkscape:window-height="837"
     inkscape:window-x="-8"
     inkscape:window-y="-8"
     inkscape:window-maximized="1" />
  <metadata
     id="metadata12959">
    <rdf:RDF>
      <cc:Work
         rdf:about="">
        <dc:format>image/svg+xml</dc:format>
        <dc:type
           rdf:resource="http://purl.org/dc/dcmitype/StillImage" />
        <dc:title></dc:title>
      </cc:Work>
    </rdf:RDF>
  </metadata>
  <g
     inkscape:label="Layer 1"
     inkscape:groupmode="layer"
     id="layer1"
     transform="translate(-387.23709,180.05614)">
    <path
       inkscape:connector-curvature="0"
       style="opacity:0.81999966;fill:none;fill-opacity:0.84023665;stroke:#000000;stroke-opacity:1"
       d="m 398.81948,-170.73888 58.22478,0 0,58.65808 -58.22478,0 z"
       id="new_build_p_1"
       inkscape:label="#rect12419" />
    <path
       style="opacity:0.81999966;fill:none;fill-opacity:0.84023665;stroke:#000000;stroke-opacity:1"
       d="m 486.08528,-171.78008 0.50512,-7.07107 17.13308,-0.68556 0.40276,8.36431 40.54789,-0.60768 0,48.9924 -58.58885,0 z"
       id="new_build_p_2"
       inkscape:connector-curvature="0"
       sodipodi:nodetypes="cccccccc"
       inkscape:label="#rect12422" />
    <path
       style="opacity:0.81999966;fill:none;fill-opacity:0.63905323;stroke:#000000;stroke-opacity:1"
       d="m 398.20204,-26.318095 67.68023,0 0,46.46702 -67.68023,0 -0.32236,-13.6867903 -9.09277,0.12959 0.0712,-24.3235197 9.34391,0 z"
       id="new_build_o_3"
       inkscape:connector-curvature="0"
       sodipodi:nodetypes="ccccccccc"
       inkscape:label="#rect12425" />
    <path
       style="opacity:0.81999966;fill:none;fill-opacity:0.63905323;stroke:#000000;stroke-opacity:1"
       d="m 399.68692,49.956215 53.75166,1.07143 -0.35714,7.53845 -13.82698,0.046 1.0306,6.23283 10.47831,-0.11632 c 0.144,-1.46914 0.288,6.13322 0.43199,8.97696 l 18.86721,-0.0666 0.29182,36.184895 -71.02461,0.17086 -0.32236,-13.686785 -9.09277,0.12959 0.0712,-24.32352 9.34391,0 z"
       id="new_build_o_2"
       inkscape:connector-curvature="0"
       sodipodi:nodetypes="ccccccccccccccc"
       inkscape:label="#rect12425" />
    <path
       style="opacity:0.81999966;fill:none;fill-opacity:0.63905323;stroke:#000000;stroke-opacity:1"
       d="m 473.10518,61.404005 72.5,-0.71429 0,16.07142 13.92857,0.35715 0.0888,24.680505 -14.36156,-0.0154 0.34414,8.19202 -72.5,-0.71429 z"
       id="new_build_o_1"
       inkscape:connector-curvature="0"
       sodipodi:nodetypes="ccccccccc"
       inkscape:label="#rect12443" />
    <path
       style="opacity:0.81999966;fill:none;fill-opacity:0.63905323;stroke:#000000;stroke-opacity:1"
       d="m 399.89089,204.97542 64.28571,0 0,47.85714 -64.28571,0 0.20094,-7.39995 -9.70777,-0.0297 -0.49317,-23.99893 10,0 z"
       id="new_build_n_1"
       inkscape:connector-curvature="0"
       sodipodi:nodetypes="ccccccccc"
       inkscape:label="#rect12446" />
    <path
       style="opacity:0.81999966;fill:none;fill-opacity:0.71597637;stroke:#000000;stroke-opacity:1"
       d="m 399.89089,402.47542 69.28574,0 0,58.57143 -69.28574,0 -0.38506,-22.8431 -11.26062,-0.31483 -0.49718,-23.62779 12.5,0.35715 z"
       id="new_build_l_2"
       inkscape:connector-curvature="0"
       sodipodi:nodetypes="ccccccccc"
       inkscape:label="#rect12449" />
    <path
       style="opacity:0.81999966;fill:none;fill-opacity:0.71597637;stroke:#000000;stroke-opacity:1"
       d="m 475.60518,403.18971 68.92857,0 0,7.85714 10.71429,0 0.2528,22.92672 -10.42765,0.16772 -0.53944,15.83413 -68.92857,0 z"
       id="new_build_l_3"
       inkscape:connector-curvature="0"
       sodipodi:nodetypes="ccccccccc"
       inkscape:label="#rect12452" />
    <path
       style="opacity:0.81999966;fill:none;fill-opacity:0.71597637;stroke:#000000;stroke-opacity:1"
       d="m 399.89089,491.404 65.35714,0 0,47.5 -65.35714,0 -0.01,-9.98844 -10.56824,0.002 -0.13647,-22.87087 10.71429,0 z"
       id="rect12455"
       inkscape:connector-curvature="0"
       sodipodi:nodetypes="ccccccccc" />
    <path
       inkscape:connector-curvature="0"
       style="opacity:0.81999966;fill:none;fill-opacity:0.71597637;stroke:#000000;stroke-opacity:1"
       d="m 400.24803,623.54683 42.5,0 0,60.71428 -42.5,0 z"
       id="new_build_k_2"
       inkscape:label="#rect12458" />
    <path
       style="opacity:0.81999966;fill:none;fill-opacity:0.71597637;stroke:#000000;stroke-opacity:1"
       d="m 496.6766,634.6183 48.57143,0 0,49.28571 -40.35714,0 -0.37637,-31.261 -8.19506,-0.16759 z"
       id="new_build_k_1"
       inkscape:connector-curvature="0"
       sodipodi:nodetypes="ccccccc"
       inkscape:label="#rect12461" />
    <path
       inkscape:connector-curvature="0"
       style="opacity:0.81999966;fill:none;fill-opacity:0.71597637;stroke:#000000;stroke-opacity:1"
       d="m 949.17664,632.83259 70.71426,0 0,47.85715 -70.71426,0 z"
       id="new_build_k_4"
       inkscape:label="#rect12464" />
    <path
       inkscape:connector-curvature="0"
       style="opacity:0.81999966;fill:none;fill-opacity:0.71597637;stroke:#000000;stroke-opacity:1"
       d="m 1026.3194,633.18972 69.6429,0 0,47.85715 -69.6429,0 z"
       id="new_build_k_3"
       inkscape:label="#rect12464" />
    <path
       inkscape:connector-curvature="0"
       style="opacity:0.81999966;fill:none;fill-opacity:0.71597637;stroke:#000000;stroke-opacity:1"
       d="m 1028.1051,543.90401 67.1429,0 0,47.85715 -67.1429,0 z"
       id="new_build_k_6"
       inkscape:label="#rect12464" />
    <path
       inkscape:connector-curvature="0"
       style="opacity:0.81999966;fill:none;fill-opacity:0.71597637;stroke:#000000;stroke-opacity:1"
       d="m 950.60514,544.97544 67.49996,0 0,45.00001 -67.49996,0 z"
       id="new_build_k_5"
       inkscape:label="#rect12464" />
    <path
       inkscape:connector-curvature="0"
       style="opacity:0.81999966;fill:none;fill-opacity:0.71597637;stroke:#000000;stroke-opacity:1"
       d="m 1028.4622,489.61829 67.5,0 0,47.50001 -67.5,0 z"
       id="new_build_l_4"
       inkscape:label="#rect12464" />
    <path
       inkscape:connector-curvature="0"
       style="opacity:0.81999966;fill:none;fill-opacity:0.71597637;stroke:#000000;stroke-opacity:1"
       d="m 1028.6409,347.65401 66.4286,0 0,45.7143 -66.4286,0 z"
       id="new_build_m_3"
       inkscape:label="#rect12464" />
    <path
       inkscape:connector-curvature="0"
       style="opacity:0.81999966;fill:none;fill-opacity:0.71597637;stroke:#000000;stroke-opacity:1"
       d="m 951.14084,347.65401 69.64286,0 0,45.35715 -69.64286,0 z"
       id="new_build_m_4"
       inkscape:label="#rect12464" />
    <path
       inkscape:connector-curvature="0"
       style="opacity:0.81999966;fill:none;fill-opacity:0.71597637;stroke:#000000;stroke-opacity:1"
       d="m 950.78374,257.654 68.57136,0 0,44.28573 -68.57136,0 z"
       id="new_build_m_1"
       inkscape:label="#rect12464" />
    <path
       inkscape:connector-curvature="0"
       style="opacity:0.81999966;fill:none;fill-opacity:0.71597637;stroke:#000000;stroke-opacity:1"
       d="m 1027.2123,257.65401 67.8571,0 0,46.78572 -67.8571,0 z"
       id="new_build_m_2"
       inkscape:label="#rect12464" />
    <path
       inkscape:connector-curvature="0"
       style="opacity:0.81999966;fill:none;fill-opacity:0.71597637;stroke:#000000;stroke-opacity:1"
       d="m 1027.5694,203.72543 67.5,0 0,46.42859 -67.5,0 z"
       id="new_build_n_4"
       inkscape:label="#rect12464" />
    <path
       inkscape:connector-curvature="0"
       style="opacity:0.81999966;fill:none;fill-opacity:0.71597637;stroke:#000000;stroke-opacity:1"
       d="m 1027.9266,115.51115 66.7857,0 0,45.7143 -66.7857,0 z"
       id="new_build_n_3"
       inkscape:label="#rect12464" />
    <path
       inkscape:connector-curvature="0"
       style="opacity:0.81999966;fill:none;fill-opacity:0.71597637;stroke:#000000;stroke-opacity:1"
       d="m 950.06944,115.51115 67.49996,0 0,44.28572 -67.49996,0 z"
       id="new_build_n_2"
       inkscape:label="#rect12464" />
    <path
       inkscape:connector-curvature="0"
       style="opacity:0.81999966;fill:none;fill-opacity:0.71597637;stroke:#000000;stroke-opacity:1"
       d="m 1027.9265,-29.131705 67.1429,0 0,46.78572 -67.1429,0 z"
       id="new_build_o_7"
       inkscape:label="#rect12464" />
    <path
       inkscape:connector-curvature="0"
       style="opacity:0.81999966;fill:none;fill-opacity:0.71597637;stroke:#000000;stroke-opacity:1"
       d="m 1026.8552,-83.060275 67.8571,0 0,47.85715 -67.8571,0 z"
       id="new_build_l_4-5"
       inkscape:label="#rect12464" />
    <path
       inkscape:connector-curvature="0"
       style="opacity:0.81999966;fill:none;fill-opacity:0.71597637;stroke:#000000;stroke-opacity:1"
       d="m 950.42664,-82.703135 68.21426,0 0,45.35715 -68.21426,0 z"
       id="new_build_p_4"
       inkscape:label="#rect12464" />
    <path
       inkscape:connector-curvature="0"
       style="opacity:0.81999966;fill:none;fill-opacity:0.71597637;stroke:#000000;stroke-opacity:1"
       d="m 1027.5694,-172.70314 67.5,0 0,47.50001 -67.5,0 z"
       id="new_build_p_6"
       inkscape:label="#rect12464" />
    <path
       inkscape:connector-curvature="0"
       style="opacity:0.81999966;fill:none;fill-opacity:0.71597637;stroke:#000000;stroke-opacity:1"
       d="m 951.14094,-171.98886 67.49996,0 0,46.42858 -67.49996,0 z"
       id="new_build_p_5"
       inkscape:label="#rect12464" />
    <path
       inkscape:connector-curvature="0"
       style="opacity:0.81999966;fill:none;fill-opacity:0.71597637;stroke:#000000;stroke-opacity:1"
       d="m 1510.0694,-173.06028 67.5,0 0,47.50001 -67.5,0 z"
       id="new_build_p_10"
       inkscape:label="#rect12464" />
    <path
       inkscape:connector-curvature="0"
       style="opacity:0.81999966;fill:none;fill-opacity:0.71597637;stroke:#000000;stroke-opacity:1"
       d="m 1433.2837,-173.06028 67.8571,0 0,46.78572 -67.8571,0 z"
       id="new_build_p_9"
       inkscape:label="#rect12464" />
    <path
       inkscape:connector-curvature="0"
       style="opacity:0.81999966;fill:none;fill-opacity:0.71597637;stroke:#000000;stroke-opacity:1"
       d="m 1510.0695,-84.131705 67.5,0 0,47.50001 -67.5,0 z"
       id="new_build_p_7"
       inkscape:label="#rect12464" />
    <path
       inkscape:connector-curvature="0"
       style="opacity:0.81999966;fill:none;fill-opacity:0.71597637;stroke:#000000;stroke-opacity:1"
       d="m 1433.998,-83.774555 67.5,0 0,46.07144 -67.5,0 z"
       id="new_build_p_8"
       inkscape:label="#rect12464" />
    <path
       inkscape:connector-curvature="0"
       style="opacity:0.81999966;fill:none;fill-opacity:0.71597637;stroke:#000000;stroke-opacity:1"
       d="m 1510.0695,-30.203135 67.5,0 0,47.50001 -67.5,0 z"
       id="new_build_o_11"
       inkscape:label="#rect12464" />
    <path
       inkscape:connector-curvature="0"
       style="opacity:0.81999966;fill:none;fill-opacity:0.71597637;stroke:#000000;stroke-opacity:1"
       d="m 1511.8551,115.51114 65.7143,0 0,45.00001 -65.7143,0 z"
       id="new_build_n_7"
       inkscape:label="#rect12464" />
    <path
       inkscape:connector-curvature="0"
       style="opacity:0.81999966;fill:none;fill-opacity:0.71597637;stroke:#000000;stroke-opacity:1"
       d="m 1433.6408,115.15401 68.5714,0 0,45.00001 -68.5714,0 z"
       id="new_build_n_6"
       inkscape:label="#rect12464" />
    <path
       inkscape:connector-curvature="0"
       style="opacity:0.81999966;fill:none;fill-opacity:0.71597637;stroke:#000000;stroke-opacity:1"
       d="m 1509.7123,201.93972 67.5,0 0,47.50001 -67.5,0 z"
       id="new_build_n_8"
       inkscape:label="#rect12464" />
    <path
       inkscape:connector-curvature="0"
       style="opacity:0.81999966;fill:none;fill-opacity:0.71597637;stroke:#000000;stroke-opacity:1"
       d="m 1509.7123,255.15401 67.5,0 0,47.50001 -67.5,0 z"
       id="new_build_m_6"
       inkscape:label="#rect12464" />
    <path
       inkscape:connector-curvature="0"
       style="opacity:0.81999966;fill:none;fill-opacity:0.71597637;stroke:#000000;stroke-opacity:1"
       d="m 1433.6409,256.58258 67.8571,0 0,45.71429 -67.8571,0 z"
       id="new_build_m_5"
       inkscape:label="#rect12464" />
    <path
       inkscape:connector-curvature="0"
       style="opacity:0.81999966;fill:none;fill-opacity:0.71597637;stroke:#000000;stroke-opacity:1"
       d="m 1510.4266,345.15401 67.5,0 0,47.50001 -67.5,0 z"
       id="new_build_m_7"
       inkscape:label="#rect12464" />
    <path
       inkscape:connector-curvature="0"
       style="opacity:0.81999966;fill:none;fill-opacity:0.71597637;stroke:#000000;stroke-opacity:1"
       d="m 1433.998,346.22543 68.2143,0 0,45.7143 -68.2143,0 z"
       id="new_build_m_8"
       inkscape:label="#rect12464" />
    <path
       inkscape:connector-curvature="0"
       style="opacity:0.81999966;fill:none;fill-opacity:0.71597637;stroke:#000000;stroke-opacity:1"
       d="m 1510.0694,488.01115 67.5,0 0,47.50001 -67.5,0 z"
       id="new_build_l_8"
       inkscape:label="#rect12464" />
    <path
       inkscape:connector-curvature="0"
       style="opacity:0.81999966;fill:none;fill-opacity:0.71597637;stroke:#000000;stroke-opacity:1"
       d="m 1510.0695,541.93972 67.5,0 0,47.50001 -67.5,0 z"
       id="new_build_k_10"
       inkscape:label="#rect12464" />
    <path
       inkscape:connector-curvature="0"
       style="opacity:0.81999966;fill:none;fill-opacity:0.71597637;stroke:#000000;stroke-opacity:1"
       d="m 1433.998,543.01115 67.1429,0 0,46.42858 -67.1429,0 z"
       id="new_build_k_9"
       inkscape:label="#rect12464" />
    <path
       inkscape:connector-curvature="0"
       style="opacity:0.81999966;fill:none;fill-opacity:0.71597637;stroke:#000000;stroke-opacity:1"
       d="m 1510.0695,631.22543 67.5,0 0,47.50001 -67.5,0 z"
       id="new_build_k_7"
       inkscape:label="#rect12464"
       inkscape:transform-center-x="-6.4285712"
       inkscape:transform-center-y="3.2143044" />
    <path
       inkscape:connector-curvature="0"
       style="opacity:0.81999966;fill:none;fill-opacity:0.71597637;stroke:#000000;stroke-opacity:1"
       d="m 1432.5694,630.86829 67.5,0 0,47.50001 -67.5,0 z"
       id="new_build_k_8"
       inkscape:label="#rect12464" />
    <path
       style="opacity:0.81999966;fill:none;fill-opacity:0.71597637;stroke:#000000;stroke-opacity:1"
       d="m 1433.1052,487.83259 67.5,0 0,47.5 -67.5,0 -0.1046,-9.00884 -11.2251,-0.0487 -0.099,-23.44246 11.4286,0 z"
       id="new_build_l_9"
       inkscape:connector-curvature="0"
       sodipodi:nodetypes="ccccccccc"
       inkscape:label="#rect12689" />
    <path
       style="opacity:0.81999966;fill:none;fill-opacity:0.71597637;stroke:#000000;stroke-opacity:1"
       d="m 1433.3884,202.56735 67.5,0 0,48.00508 -67.5,0 -0.1046,-8.34702 -11.2251,0.20333 -0.099,-23.43919 11.5549,0.12627 z"
       id="new_buld_n_9"
       inkscape:connector-curvature="0"
       sodipodi:nodetypes="ccccccccc"
       inkscape:label="#rect12689" />
    <path
       style="opacity:0.81999966;fill:none;fill-opacity:0.71597637;stroke:#000000;stroke-opacity:1"
       d="m 950.49904,490.111 67.49996,0 0,47.5 -67.49996,0 -0.1046,-9.00884 -11.2251,-0.0487 -0.099,-23.44246 11.4286,0 z"
       id="new_build_l_5"
       inkscape:connector-curvature="0"
       sodipodi:nodetypes="ccccccccc"
       inkscape:label="#rect12689" />
    <path
       style="opacity:0.81999966;fill:none;fill-opacity:0.71597637;stroke:#000000;stroke-opacity:1"
       d="m 950.27134,203.8121 67.49996,0 0,47.5 -67.49996,0 -0.1046,-7.49361 -11.2251,0.20383 -0.099,-24.45261 11.4286,0.12627 z"
       id="new_build_n_5"
       inkscape:connector-curvature="0"
       sodipodi:nodetypes="ccccccccc"
       inkscape:label="#rect12689" />
    <path
       style="opacity:0.81999966;fill:none;fill-opacity:0.71597637;stroke:#000000;stroke-opacity:1"
       d="m 950.12404,-29.474805 67.21206,0.006 0.089,48.35471 -66.92256,0 c 0,-1.84274 -0.1409,-14.8871403 -0.1409,-14.8871403 l -11.1058,0.0268 -0.054,-23.5255197 10.9854,0.0631 z"
       id="new_build_o_6"
       inkscape:connector-curvature="0"
       sodipodi:nodetypes="ccccccccc"
       inkscape:label="#rect12764" />
    <path
       style="opacity:0.81999966;fill:none;fill-opacity:0.71597637;stroke:#000000;stroke-opacity:1"
       d="m 950.75154,400.45996 67.49996,0 0,47.5 -67.49996,0 -0.1046,-11.02915 -11.2251,-0.17496 -0.099,-24.57889 11.4286,0 z"
       id="new_build_l_6"
       inkscape:connector-curvature="0"
       sodipodi:nodetypes="ccccccccc"
       inkscape:label="#rect12689-7" />
    <path
       style="opacity:0.81999966;fill:none;fill-opacity:0.71597637;stroke:#000000;stroke-opacity:1"
       d="m 1433.2578,59.221995 67.5,0 0,47.499995 -67.5,0 0.022,-12.544365 -11.3514,-0.30124 -0.099,-23.40439 11.5549,-0.16434 z"
       id="new_build_o_9"
       inkscape:connector-curvature="0"
       sodipodi:nodetypes="ccccccccc"
       inkscape:label="#rect12689-7" />
    <path
       style="opacity:0.81999966;fill:none;fill-opacity:0.71597637;stroke:#000000;stroke-opacity:1"
       d="m 1433.1052,-30.381695 67.5,0 0,47.5 -67.5,0 -0.1046,-13.4282603 -11.2251,-0.30124 -0.099,-24.4526097 11.4286,-0.12627 z"
       id="new_build_o_10"
       inkscape:connector-curvature="0"
       sodipodi:nodetypes="ccccccccc"
       inkscape:label="#rect12689-7" />
    <path
       style="opacity:0.81999966;fill:none;fill-opacity:0.71597637;stroke:#000000;stroke-opacity:1"
       d="m 1432.6688,398.7889 67.5,0 0,48.2576 -67.5,0 -0.1046,-11.78676 -11.2251,-0.17496 -0.099,-24.70515 11.4286,0.12626 z"
       id="new_build_l_10"
       inkscape:connector-curvature="0"
       sodipodi:nodetypes="ccccccccc"
       inkscape:label="#rect12689-7" />
    <path
       style="opacity:0.81999966;fill:none;fill-opacity:0.71597637;stroke:#000000;stroke-opacity:1"
       d="m 950.49904,59.786015 67.49996,0 0,47.499995 -67.49996,0 -0.1046,-11.534215 -11.2251,-0.0487 0.1535,-24.57888 11.1761,0 z"
       id="new_build_o_5"
       inkscape:connector-curvature="0"
       sodipodi:nodetypes="ccccccccc"
       inkscape:label="#rect12689-7-9" />
    <path
       style="opacity:0.81999966;fill:none;fill-opacity:0.71597637;stroke:#000000;stroke-opacity:1"
       d="m 1095.5314,108.27351 -67.5,0.0527 -0.036,-48.635175 67.5,-0.0527 -0.013,16.73428 11.0989,0.16747 0.1177,23.39863 -11.1761,0.009 z"
       id="new_build_o_4"
       inkscape:connector-curvature="0"
       sodipodi:nodetypes="ccccccccc"
       inkscape:label="#rect12689-7-9-3" />
    <path
       style="opacity:0.81999966;fill:none;fill-opacity:0.71597637;stroke:#000000;stroke-opacity:1"
       d="m 1095.4665,448.91436 -67.5,0.0527 -0.036,-48.63518 67.5,-0.0527 -0.013,8.58993 11.0989,0.16747 0.244,23.96684 -11.1761,0.009 z"
       id="new_build_l_7"
       inkscape:connector-curvature="0"
       sodipodi:nodetypes="ccccccccc"
       inkscape:label="#rect12689-7-9-3" />
    <path
       style="opacity:0.81999966;fill:none;fill-opacity:0.71597637;stroke:#000000;stroke-opacity:1"
       d="m 1578.1009,447.26914 -67.5,0.0527 -0.036,-48.63518 67.5,-0.0527 -0.013,8.58993 11.0989,0.16747 0.244,23.96684 -11.1761,0.009 z"
       id="new_build_l_11"
       inkscape:connector-curvature="0"
       sodipodi:nodetypes="ccccccccc"
       inkscape:label="#rect12689-7-9-3" />
    <path
       style="opacity:0.81999966;fill:none;fill-opacity:0.71597637;stroke:#000000;stroke-opacity:1"
       d="m 1577.7179,107.12382 -67.5,0.0527 -0.036,-48.635175 67.5,-0.0527 -0.013,16.73428 11.0989,0.16747 0.1177,23.39863 -11.1761,0.009 z"
       id="new_build_o_8"
       inkscape:connector-curvature="0"
       sodipodi:nodetypes="ccccccccc"
       inkscape:label="#rect12689-7-9-3" />
    <path
       inkscape:label="#rect12419"
       id="path13624"
       d="m 398.81948,-170.73888 58.22478,0 0,58.65808 -58.22478,0 z"
       style="opacity:0.81999966;fill:none;fill-opacity:0.84023665;stroke:#000000;stroke-opacity:1"
       inkscape:connector-curvature="0" />
    <path
       inkscape:label="#rect12422"
       sodipodi:nodetypes="cccccccc"
       inkscape:connector-curvature="0"
       id="path13626"
       d="m 486.08528,-171.78008 0.50512,-7.07107 17.13308,-0.68556 0.40276,8.36431 40.54789,-0.60768 0,48.9924 -58.58885,0 z"
       style="opacity:0.81999966;fill:none;fill-opacity:0.84023665;stroke:#000000;stroke-opacity:1" />
    <path
       inkscape:label="#rect12425"
       sodipodi:nodetypes="ccccccccc"
       inkscape:connector-curvature="0"
       id="path13628"
       d="m 398.20204,-26.318095 67.68023,0 0,46.46702 -67.68023,0 -0.32236,-13.6867903 -9.09277,0.12959 0.0712,-24.3235197 9.34391,0 z"
       style="opacity:0.81999966;fill:none;fill-opacity:0.63905323;stroke:#000000;stroke-opacity:1" />
    <path
       inkscape:label="#rect12425"
       sodipodi:nodetypes="ccccccccccccccc"
       inkscape:connector-curvature="0"
       id="path13630"
       d="m 399.68692,49.956215 53.75166,1.07143 -0.35714,7.53845 -13.82698,0.046 1.0306,6.23283 10.47831,-0.11632 c 0.144,-1.46914 0.288,6.13322 0.43199,8.97696 l 18.86721,-0.0666 0.29182,36.184895 -71.02461,0.17086 -0.32236,-13.686785 -9.09277,0.12959 0.0712,-24.32352 9.34391,0 z"
       style="opacity:0.81999966;fill:none;fill-opacity:0.63905323;stroke:#000000;stroke-opacity:1" />
    <path
       inkscape:label="#rect12443"
       sodipodi:nodetypes="ccccccccc"
       inkscape:connector-curvature="0"
       id="path13632"
       d="m 473.10518,61.404005 72.5,-0.71429 0,16.07142 13.92857,0.35715 0.0888,24.680505 -14.36156,-0.0154 0.34414,8.19202 -72.5,-0.71429 z"
       style="opacity:0.81999966;fill:none;fill-opacity:0.63905323;stroke:#000000;stroke-opacity:1" />
    <path
       inkscape:label="#rect12446"
       sodipodi:nodetypes="ccccccccc"
       inkscape:connector-curvature="0"
       id="path13634"
       d="m 399.89089,204.97542 64.28571,0 0,47.85714 -64.28571,0 0.20094,-7.39995 -9.70777,-0.0297 -0.49317,-23.99893 10,0 z"
       style="opacity:0.81999966;fill:none;fill-opacity:0.63905323;stroke:#000000;stroke-opacity:1" />
    <path
       inkscape:label="#rect12449"
       sodipodi:nodetypes="ccccccccc"
       inkscape:connector-curvature="0"
       id="path13636"
       d="m 399.89089,402.47542 69.28574,0 0,58.57143 -69.28574,0 -0.38506,-22.8431 -11.26062,-0.31483 -0.49718,-23.62779 12.5,0.35715 z"
       style="opacity:0.81999966;fill:none;fill-opacity:0.71597637;stroke:#000000;stroke-opacity:1" />
    <path
       inkscape:label="#rect12452"
       sodipodi:nodetypes="ccccccccc"
       inkscape:connector-curvature="0"
       id="path13638"
       d="m 475.60518,403.18971 68.92857,0 0,7.85714 10.71429,0 0.2528,22.92672 -10.42765,0.16772 -0.53944,15.83413 -68.92857,0 z"
       style="opacity:0.81999966;fill:none;fill-opacity:0.71597637;stroke:#000000;stroke-opacity:1" />
    <path
       sodipodi:nodetypes="ccccccccc"
       inkscape:connector-curvature="0"
       id="path13640"
       d="m 399.89089,491.404 65.35714,0 0,47.5 -65.35714,0 -0.01,-9.98844 -10.56824,0.002 -0.13647,-22.87087 10.71429,0 z"
       style="opacity:0.81999966;fill:none;fill-opacity:0.71597637;stroke:#000000;stroke-opacity:1" />
    <path
       inkscape:label="#rect12458"
       id="path13642"
       d="m 400.24803,623.54683 42.5,0 0,60.71428 -42.5,0 z"
       style="opacity:0.81999966;fill:none;fill-opacity:0.71597637;stroke:#000000;stroke-opacity:1"
       inkscape:connector-curvature="0" />
    <path
       inkscape:label="#rect12461"
       sodipodi:nodetypes="ccccccc"
       inkscape:connector-curvature="0"
       id="path13644"
       d="m 496.6766,634.6183 48.57143,0 0,49.28571 -40.35714,0 -0.37637,-31.261 -8.19506,-0.16759 z"
       style="opacity:0.81999966;fill:none;fill-opacity:0.71597637;stroke:#000000;stroke-opacity:1" />
    <path
       inkscape:label="#rect12464"
       id="path13646"
       d="m 949.17664,632.83259 70.71426,0 0,47.85715 -70.71426,0 z"
       style="opacity:0.81999966;fill:none;fill-opacity:0.71597637;stroke:#000000;stroke-opacity:1"
       inkscape:connector-curvature="0" />
    <path
       inkscape:label="#rect12464"
       id="path13648"
       d="m 1026.3194,633.18972 69.6429,0 0,47.85715 -69.6429,0 z"
       style="opacity:0.81999966;fill:none;fill-opacity:0.71597637;stroke:#000000;stroke-opacity:1"
       inkscape:connector-curvature="0" />
    <path
       inkscape:label="#rect12464"
       id="path13650"
       d="m 1028.1051,543.90401 67.1429,0 0,47.85715 -67.1429,0 z"
       style="opacity:0.81999966;fill:none;fill-opacity:0.71597637;stroke:#000000;stroke-opacity:1"
       inkscape:connector-curvature="0" />
    <path
       inkscape:label="#rect12464"
       id="path13652"
       d="m 950.60514,544.97544 67.49996,0 0,45.00001 -67.49996,0 z"
       style="opacity:0.81999966;fill:none;fill-opacity:0.71597637;stroke:#000000;stroke-opacity:1"
       inkscape:connector-curvature="0" />
    <path
       inkscape:label="#rect12464"
       id="path13654"
       d="m 1028.4622,489.61829 67.5,0 0,47.50001 -67.5,0 z"
       style="opacity:0.81999966;fill:none;fill-opacity:0.71597637;stroke:#000000;stroke-opacity:1"
       inkscape:connector-curvature="0" />
    <path
       inkscape:label="#rect12464"
       id="path13656"
       d="m 1028.6409,347.65401 66.4286,0 0,45.7143 -66.4286,0 z"
       style="opacity:0.81999966;fill:none;fill-opacity:0.71597637;stroke:#000000;stroke-opacity:1"
       inkscape:connector-curvature="0" />
    <path
       inkscape:label="#rect12464"
       id="path13658"
       d="m 951.14084,347.65401 69.64286,0 0,45.35715 -69.64286,0 z"
       style="opacity:0.81999966;fill:none;fill-opacity:0.71597637;stroke:#000000;stroke-opacity:1"
       inkscape:connector-curvature="0" />
    <path
       inkscape:label="#rect12464"
       id="path13660"
       d="m 950.78374,257.654 68.57136,0 0,44.28573 -68.57136,0 z"
       style="opacity:0.81999966;fill:none;fill-opacity:0.71597637;stroke:#000000;stroke-opacity:1"
       inkscape:connector-curvature="0" />
    <path
       inkscape:label="#rect12464"
       id="path13662"
       d="m 1027.2123,257.65401 67.8571,0 0,46.78572 -67.8571,0 z"
       style="opacity:0.81999966;fill:none;fill-opacity:0.71597637;stroke:#000000;stroke-opacity:1"
       inkscape:connector-curvature="0" />
    <path
       inkscape:label="#rect12464"
       id="path13664"
       d="m 1027.5694,203.72543 67.5,0 0,46.42859 -67.5,0 z"
       style="opacity:0.81999966;fill:none;fill-opacity:0.71597637;stroke:#000000;stroke-opacity:1"
       inkscape:connector-curvature="0" />
    <path
       inkscape:label="#rect12464"
       id="path13666"
       d="m 1027.9266,115.51115 66.7857,0 0,45.7143 -66.7857,0 z"
       style="opacity:0.81999966;fill:none;fill-opacity:0.71597637;stroke:#000000;stroke-opacity:1"
       inkscape:connector-curvature="0" />
    <path
       inkscape:label="#rect12464"
       id="path13668"
       d="m 950.06944,115.51115 67.49996,0 0,44.28572 -67.49996,0 z"
       style="opacity:0.81999966;fill:none;fill-opacity:0.71597637;stroke:#000000;stroke-opacity:1"
       inkscape:connector-curvature="0" />
    <path
       inkscape:label="#rect12464"
       id="path13670"
       d="m 1027.9265,-29.131705 67.1429,0 0,46.78572 -67.1429,0 z"
       style="opacity:0.81999966;fill:none;fill-opacity:0.71597637;stroke:#000000;stroke-opacity:1"
       inkscape:connector-curvature="0" />
    <path
       inkscape:label="#rect12464"
       id="path13672"
       d="m 1026.8552,-83.060275 67.8571,0 0,47.85715 -67.8571,0 z"
       style="opacity:0.81999966;fill:none;fill-opacity:0.71597637;stroke:#000000;stroke-opacity:1"
       inkscape:connector-curvature="0" />
    <path
       inkscape:label="#rect12464"
       id="path13674"
       d="m 950.42664,-82.703135 68.21426,0 0,45.35715 -68.21426,0 z"
       style="opacity:0.81999966;fill:none;fill-opacity:0.71597637;stroke:#000000;stroke-opacity:1"
       inkscape:connector-curvature="0" />
    <path
       inkscape:label="#rect12464"
       id="path13676"
       d="m 1027.5694,-172.70314 67.5,0 0,47.50001 -67.5,0 z"
       style="opacity:0.81999966;fill:none;fill-opacity:0.71597637;stroke:#000000;stroke-opacity:1"
       inkscape:connector-curvature="0" />
    <path
       inkscape:label="#rect12464"
       id="path13678"
       d="m 951.14094,-171.98886 67.49996,0 0,46.42858 -67.49996,0 z"
       style="opacity:0.81999966;fill:none;fill-opacity:0.71597637;stroke:#000000;stroke-opacity:1"
       inkscape:connector-curvature="0" />
    <path
       inkscape:label="#rect12464"
       id="path13680"
       d="m 1510.0694,-173.06028 67.5,0 0,47.50001 -67.5,0 z"
       style="opacity:0.81999966;fill:none;fill-opacity:0.71597637;stroke:#000000;stroke-opacity:1"
       inkscape:connector-curvature="0" />
    <path
       inkscape:label="#rect12464"
       id="path13682"
       d="m 1433.2837,-173.06028 67.8571,0 0,46.78572 -67.8571,0 z"
       style="opacity:0.81999966;fill:none;fill-opacity:0.71597637;stroke:#000000;stroke-opacity:1"
       inkscape:connector-curvature="0" />
    <path
       inkscape:label="#rect12464"
       id="path13684"
       d="m 1510.0695,-84.131705 67.5,0 0,47.50001 -67.5,0 z"
       style="opacity:0.81999966;fill:none;fill-opacity:0.71597637;stroke:#000000;stroke-opacity:1"
       inkscape:connector-curvature="0" />
    <path
       inkscape:label="#rect12464"
       id="path13686"
       d="m 1433.998,-83.774555 67.5,0 0,46.07144 -67.5,0 z"
       style="opacity:0.81999966;fill:none;fill-opacity:0.71597637;stroke:#000000;stroke-opacity:1"
       inkscape:connector-curvature="0" />
    <path
       inkscape:label="#rect12464"
       id="path13688"
       d="m 1510.0695,-30.203135 67.5,0 0,47.50001 -67.5,0 z"
       style="opacity:0.81999966;fill:none;fill-opacity:0.71597637;stroke:#000000;stroke-opacity:1"
       inkscape:connector-curvature="0" />
    <path
       inkscape:label="#rect12464"
       id="path13690"
       d="m 1511.8551,115.51114 65.7143,0 0,45.00001 -65.7143,0 z"
       style="opacity:0.81999966;fill:none;fill-opacity:0.71597637;stroke:#000000;stroke-opacity:1"
       inkscape:connector-curvature="0" />
    <path
       inkscape:label="#rect12464"
       id="path13692"
       d="m 1433.6408,115.15401 68.5714,0 0,45.00001 -68.5714,0 z"
       style="opacity:0.81999966;fill:none;fill-opacity:0.71597637;stroke:#000000;stroke-opacity:1"
       inkscape:connector-curvature="0" />
    <path
       inkscape:label="#rect12464"
       id="path13694"
       d="m 1509.7123,201.93972 67.5,0 0,47.50001 -67.5,0 z"
       style="opacity:0.81999966;fill:none;fill-opacity:0.71597637;stroke:#000000;stroke-opacity:1"
       inkscape:connector-curvature="0" />
    <path
       inkscape:label="#rect12464"
       id="path13696"
       d="m 1509.7123,255.15401 67.5,0 0,47.50001 -67.5,0 z"
       style="opacity:0.81999966;fill:none;fill-opacity:0.71597637;stroke:#000000;stroke-opacity:1"
       inkscape:connector-curvature="0" />
    <path
       inkscape:label="#rect12464"
       id="path13698"
       d="m 1433.6409,256.58258 67.8571,0 0,45.71429 -67.8571,0 z"
       style="opacity:0.81999966;fill:none;fill-opacity:0.71597637;stroke:#000000;stroke-opacity:1"
       inkscape:connector-curvature="0" />
    <path
       inkscape:label="#rect12464"
       id="path13700"
       d="m 1510.4266,345.15401 67.5,0 0,47.50001 -67.5,0 z"
       style="opacity:0.81999966;fill:none;fill-opacity:0.71597637;stroke:#000000;stroke-opacity:1"
       inkscape:connector-curvature="0" />
    <path
       inkscape:label="#rect12464"
       id="path13702"
       d="m 1433.998,346.22543 68.2143,0 0,45.7143 -68.2143,0 z"
       style="opacity:0.81999966;fill:none;fill-opacity:0.71597637;stroke:#000000;stroke-opacity:1"
       inkscape:connector-curvature="0" />
    <path
       inkscape:label="#rect12464"
       id="path13704"
       d="m 1510.0694,488.01115 67.5,0 0,47.50001 -67.5,0 z"
       style="opacity:0.81999966;fill:none;fill-opacity:0.71597637;stroke:#000000;stroke-opacity:1"
       inkscape:connector-curvature="0" />
    <path
       inkscape:label="#rect12464"
       id="path13706"
       d="m 1510.0695,541.93972 67.5,0 0,47.50001 -67.5,0 z"
       style="opacity:0.81999966;fill:none;fill-opacity:0.71597637;stroke:#000000;stroke-opacity:1"
       inkscape:connector-curvature="0" />
    <path
       inkscape:label="#rect12464"
       id="path13708"
       d="m 1433.998,543.01115 67.1429,0 0,46.42858 -67.1429,0 z"
       style="opacity:0.81999966;fill:none;fill-opacity:0.71597637;stroke:#000000;stroke-opacity:1"
       inkscape:connector-curvature="0" />
    <path
       inkscape:transform-center-y="3.2143044"
       inkscape:transform-center-x="-6.4285712"
       inkscape:label="#rect12464"
       id="path13710"
       d="m 1510.0695,631.22543 67.5,0 0,47.50001 -67.5,0 z"
       style="opacity:0.81999966;fill:none;fill-opacity:0.71597637;stroke:#000000;stroke-opacity:1"
       inkscape:connector-curvature="0" />
    <path
       inkscape:label="#rect12464"
       id="path13712"
       d="m 1432.5694,630.86829 67.5,0 0,47.50001 -67.5,0 z"
       style="opacity:0.81999966;fill:none;fill-opacity:0.71597637;stroke:#000000;stroke-opacity:1"
       inkscape:connector-curvature="0" />
    <path
       inkscape:label="#rect12689"
       sodipodi:nodetypes="ccccccccc"
       inkscape:connector-curvature="0"
       id="path13714"
       d="m 1433.1052,487.83259 67.5,0 0,47.5 -67.5,0 -0.1046,-9.00884 -11.2251,-0.0487 -0.099,-23.44246 11.4286,0 z"
       style="opacity:0.81999966;fill:none;fill-opacity:0.71597637;stroke:#000000;stroke-opacity:1" />
    <path
       inkscape:label="#rect12689"
       sodipodi:nodetypes="ccccccccc"
       inkscape:connector-curvature="0"
       id="path13716"
       d="m 1433.3884,202.56735 67.5,0 0,48.00508 -67.5,0 -0.1046,-8.34702 -11.2251,0.20333 -0.099,-23.43919 11.5549,0.12627 z"
       style="opacity:0.81999966;fill:none;fill-opacity:0.71597637;stroke:#000000;stroke-opacity:1" />
    <path
       inkscape:label="#rect12689"
       sodipodi:nodetypes="ccccccccc"
       inkscape:connector-curvature="0"
       id="path13718"
       d="m 950.49904,490.111 67.49996,0 0,47.5 -67.49996,0 -0.1046,-9.00884 -11.2251,-0.0487 -0.099,-23.44246 11.4286,0 z"
       style="opacity:0.81999966;fill:none;fill-opacity:0.71597637;stroke:#000000;stroke-opacity:1" />
    <path
       inkscape:label="#rect12689"
       sodipodi:nodetypes="ccccccccc"
       inkscape:connector-curvature="0"
       id="path13720"
       d="m 950.27134,203.8121 67.49996,0 0,47.5 -67.49996,0 -0.1046,-7.49361 -11.2251,0.20383 -0.099,-24.45261 11.4286,0.12627 z"
       style="opacity:0.81999966;fill:none;fill-opacity:0.71597637;stroke:#000000;stroke-opacity:1" />
    <path
       inkscape:label="#rect12764"
       sodipodi:nodetypes="ccccccccc"
       inkscape:connector-curvature="0"
       id="path13722"
       d="m 950.12404,-29.474805 67.21206,0.006 0.089,48.35471 -66.92256,0 c 0,-1.84274 -0.1409,-14.8871403 -0.1409,-14.8871403 l -11.1058,0.0268 -0.054,-23.5255197 10.9854,0.0631 z"
       style="opacity:0.81999966;fill:none;fill-opacity:0.71597637;stroke:#000000;stroke-opacity:1" />
    <path
       inkscape:label="#rect12689-7"
       sodipodi:nodetypes="ccccccccc"
       inkscape:connector-curvature="0"
       id="path13724"
       d="m 950.75154,400.45996 67.49996,0 0,47.5 -67.49996,0 -0.1046,-11.02915 -11.2251,-0.17496 -0.099,-24.57889 11.4286,0 z"
       style="opacity:0.81999966;fill:none;fill-opacity:0.71597637;stroke:#000000;stroke-opacity:1" />
    <path
       inkscape:label="#rect12689-7"
       sodipodi:nodetypes="ccccccccc"
       inkscape:connector-curvature="0"
       id="path13726"
       d="m 1433.2578,59.221995 67.5,0 0,47.499995 -67.5,0 0.022,-12.544365 -11.3514,-0.30124 -0.099,-23.40439 11.5549,-0.16434 z"
       style="opacity:0.81999966;fill:none;fill-opacity:0.71597637;stroke:#000000;stroke-opacity:1" />
    <path
       inkscape:label="#rect12689-7"
       sodipodi:nodetypes="ccccccccc"
       inkscape:connector-curvature="0"
       id="path13728"
       d="m 1433.1052,-30.381695 67.5,0 0,47.5 -67.5,0 -0.1046,-13.4282603 -11.2251,-0.30124 -0.099,-24.4526097 11.4286,-0.12627 z"
       style="opacity:0.81999966;fill:none;fill-opacity:0.71597637;stroke:#000000;stroke-opacity:1" />
    <path
       inkscape:label="#rect12689-7"
       sodipodi:nodetypes="ccccccccc"
       inkscape:connector-curvature="0"
       id="path13730"
       d="m 1432.6688,398.7889 67.5,0 0,48.2576 -67.5,0 -0.1046,-11.78676 -11.2251,-0.17496 -0.099,-24.70515 11.4286,0.12626 z"
       style="opacity:0.81999966;fill:none;fill-opacity:0.71597637;stroke:#000000;stroke-opacity:1" />
    <path
       inkscape:label="#rect12689-7-9"
       sodipodi:nodetypes="ccccccccc"
       inkscape:connector-curvature="0"
       id="path13732"
       d="m 950.49904,59.786015 67.49996,0 0,47.499995 -67.49996,0 -0.1046,-11.534215 -11.2251,-0.0487 0.1535,-24.57888 11.1761,0 z"
       style="opacity:0.81999966;fill:none;fill-opacity:0.71597637;stroke:#000000;stroke-opacity:1" />
    <path
       inkscape:label="#rect12689-7-9-3"
       sodipodi:nodetypes="ccccccccc"
       inkscape:connector-curvature="0"
       id="path13734"
       d="m 1095.5314,108.27351 -67.5,0.0527 -0.036,-48.635175 67.5,-0.0527 -0.013,16.73428 11.0989,0.16747 0.1177,23.39863 -11.1761,0.009 z"
       style="opacity:0.81999966;fill:none;fill-opacity:0.71597637;stroke:#000000;stroke-opacity:1" />
    <path
       inkscape:label="#rect12689-7-9-3"
       sodipodi:nodetypes="ccccccccc"
       inkscape:connector-curvature="0"
       id="path13736"
       d="m 1095.4665,448.91436 -67.5,0.0527 -0.036,-48.63518 67.5,-0.0527 -0.013,8.58993 11.0989,0.16747 0.244,23.96684 -11.1761,0.009 z"
       style="opacity:0.81999966;fill:none;fill-opacity:0.71597637;stroke:#000000;stroke-opacity:1" />
    <path
       inkscape:label="#rect12689-7-9-3"
       sodipodi:nodetypes="ccccccccc"
       inkscape:connector-curvature="0"
       id="path13738"
       d="m 1578.1009,447.26914 -67.5,0.0527 -0.036,-48.63518 67.5,-0.0527 -0.013,8.58993 11.0989,0.16747 0.244,23.96684 -11.1761,0.009 z"
       style="opacity:0.81999966;fill:none;fill-opacity:0.71597637;stroke:#000000;stroke-opacity:1" />
    <path
       inkscape:label="#rect12689-7-9-3"
       sodipodi:nodetypes="ccccccccc"
       inkscape:connector-curvature="0"
       id="path13740"
       d="m 1577.7179,107.12382 -67.5,0.0527 -0.036,-48.635175 67.5,-0.0527 -0.013,16.73428 11.0989,0.16747 0.1177,23.39863 -11.1761,0.009 z"
       style="opacity:0.81999966;fill:none;fill-opacity:0.71597637;stroke:#000000;stroke-opacity:1" />
  </g>
</svg>
