<?xml version="1.0" encoding="UTF-8" standalone="no"?>
<!-- Created with Inkscape (http://www.inkscape.org/) -->

<svg
   xmlns:dc="http://purl.org/dc/elements/1.1/"
   xmlns:cc="http://creativecommons.org/ns#"
   xmlns:rdf="http://www.w3.org/1999/02/22-rdf-syntax-ns#"
   xmlns:svg="http://www.w3.org/2000/svg"
   xmlns="http://www.w3.org/2000/svg"
   xmlns:sodipodi="http://sodipodi.sourceforge.net/DTD/sodipodi-0.dtd"
   xmlns:inkscape="http://www.inkscape.org/namespaces/inkscape"
   width="344.07178mm"
   height="243.81227mm"
   viewBox="0 0 1219.152 863.90174"
   id="svg25163"
   version="1.1"
   inkscape:version="0.91 r13725"
   sodipodi:docname="new-build-e-f-g-h-i-j-stair_rooms.svg">
  <defs
     id="defs25165" />
  <sodipodi:namedview
     id="base"
     pagecolor="#ffffff"
     bordercolor="#666666"
     borderopacity="1.0"
     inkscape:pageopacity="0.0"
     inkscape:pageshadow="2"
     inkscape:zoom="0.7"
     inkscape:cx="641.3017"
     inkscape:cy="443.07445"
     inkscape:document-units="px"
     inkscape:current-layer="layer1"
     showgrid="false"
     fit-margin-top="0"
     fit-margin-left="0"
     fit-margin-right="0"
     fit-margin-bottom="0"
     inkscape:window-width="1600"
     inkscape:window-height="837"
     inkscape:window-x="-8"
     inkscape:window-y="-8"
     inkscape:window-maximized="1" />
  <metadata
     id="metadata25168">
    <rdf:RDF>
      <cc:Work
         rdf:about="">
        <dc:format>image/svg+xml</dc:format>
        <dc:type
           rdf:resource="http://purl.org/dc/dcmitype/StillImage" />
        <dc:title></dc:title>
      </cc:Work>
    </rdf:RDF>
  </metadata>
  <g
     inkscape:label="Layer 1"
     inkscape:groupmode="layer"
     id="layer1"
     transform="translate(-133.28114,-263.26847)">
    <path
       style="fill:none;fill-opacity:1;stroke:#000000;stroke-opacity:1"
       d="m 187.56729,1101.3328 0,-23.5678 -2.68967,-0.5907 c -1.47933,-0.3249 2.68967,0.5907 -3.20312,-1.4215 0,0 -8.6388,-9.9222 -18.91033,-9.9222 l -18.39688,0 0,33.6914 c 0,13.53 0.24922,24.8492 0.55382,25.1538 0.3046,0.3047 10.0246,0.4798 21.6,0.3893 l 21.04618,-0.1646 z"
       id="new_build_e_2"
       inkscape:connector-curvature="0"
       sodipodi:nodetypes="ccccscscscc"
       inkscape:label="#path18171" />
    <path
       inkscape:connector-curvature="0"
       style="fill:none;fill-opacity:1;stroke:#000000;stroke-opacity:1"
       d="m 188.64526,976.597 c 0.19739,-3.42848 0.63421,-4.725 1.59195,-4.725 1.01153,0 1.25849,0.9988 1.05702,4.275 l -0.26289,4.275 7.71798,0 c 4.54531,0 7.71797,-0.36996 7.71797,-0.9 0,-0.495 -1.22771,-0.9 -2.72824,-0.9 -3.07406,0 -4.37977,-1.99197 -2.66224,-4.06146 0.61099,-0.7362 1.97254,-1.29817 3.02568,-1.24883 1.69415,0.0794 1.65607,0.1617 -0.33047,0.71447 -1.2349,0.34361 -2.37835,1.31573 -2.54099,2.16028 -0.22847,1.1863 0.3523,1.53554 2.55357,1.53554 l 2.84928,0 -0.30829,-4.83726 c -0.20487,-3.21449 0.0188,-4.71113 0.6667,-4.46127 0.5706,0.22004 0.97501,-0.77602 0.97501,-2.40147 0,-1.81597 -0.38016,-2.63158 -1.09814,-2.35607 -0.71117,0.2729 -0.93847,-0.18917 -0.64503,-1.31127 0.35238,-1.34751 -0.0203,-1.73572 -1.67687,-1.74644 -2.69737,-0.0175 -5.3414,-1.71574 -3.70497,-2.37973 0.68557,-0.27819 1.125,-2.18494 1.125,-4.88149 l 0,-4.425 -5.4,0 -5.4,0 0,4.95 c 0,2.88391 0.39783,4.95 0.95312,4.95 0.52421,0 0.66603,0.46451 0.31515,1.03225 -0.45864,0.74208 0.51478,0.90231 3.46295,0.57001 4.55496,-0.51341 7.42092,0.51629 5.27912,1.89672 -1.14927,0.74072 -5.88091,0.55386 -10.68534,-0.42197 -1.90848,-0.38764 -2.025,-0.85047 -2.025,-8.04416 l 0,-7.63285 11.925,-0.0395 c 11.40167,-0.0378 11.76702,-0.0954 8.325,-1.31315 -4.41351,-1.56144 -7.3778,-4.8312 -8.16005,-9.0009 l -0.59027,-3.14644 -27.79984,0 -27.79984,0 0,24.3 0,24.3 22.00297,0 22.00296,0 0.27204,-4.725 z"
       id="new_build_f_1"
       inkscape:label="#path17583" />
    <path
       inkscape:connector-curvature="0"
       style="fill:none;fill-opacity:1;stroke:#000000;stroke-opacity:1"
       d="m 144.3669,843.62278 0,6.52344 0,6.52539 0.68945,8.23828 c -0.37386,-0.58643 -0.66799,0.0381 -0.67578,1.4375 l 0.68558,27.21444 10.10153,-0.43905 17.26758,0 17.26953,0 -2.32422,-2.47656 c -1.27794,-1.36125 -2.60045,-3.78969 -2.93945,-5.39844 -0.43636,-2.0707 -1.12205,-2.92578 -2.34571,-2.92578 -1.60631,0 -1.7281,-0.74667 -1.73242,-10.57422 -0.003,-5.81625 -0.26634,-14.52531 -0.58593,-19.35156 l -0.58204,-8.77344 -17.41406,0 z m 40.49219,0.89844 c -1.75319,0 -1.8056,0.54055 -1.71289,17.55078 0.0533,9.77996 0.45505,17.55078 0.9082,17.55078 0.44724,0 0.81455,1.11336 0.81641,2.47461 0.002,1.36125 0.80738,3.79492 1.79101,5.4082 1.69608,2.78179 6.59562,6.50642 8.56836,6.51368 0.50219,0.002 1.02739,-2.5293 1.16602,-5.62305 0.38897,-8.68118 0.45358,-8.77344 6.08203,-8.77344 l 4.88867,0 0,-4.97851 c 0,-3.6135 0.37311,-5.12275 1.36133,-5.50196 1.86624,-0.71614 4.05813,1.29072 3.94922,3.61524 -0.0794,1.69415 -0.16209,1.65647 -0.71485,-0.33008 -0.34361,-1.23489 -1.3156,-2.37838 -2.16015,-2.54102 -1.29908,-0.25019 -1.53516,0.47517 -1.53516,4.71875 0,3.85866 0.31109,5.01758 1.34961,5.01758 1.62785,0 1.81546,-3.26237 0.22461,-3.9043 -0.67207,-0.27119 -0.48973,-0.48294 0.45117,-0.52539 1.09895,-0.0496 1.57422,0.60977 1.57422,2.17969 0,1.8 0.45,2.25 2.25,2.25 2.18571,0 2.25,-0.18078 2.25,-6.30078 0,-4.96398 -0.28183,-6.30078 -1.33203,-6.30078 -0.73307,0 -1.604,-1.07937 -1.93555,-2.40039 -0.46095,-1.83657 -0.14808,-2.77218 1.33203,-3.97071 1.69222,-1.37027 1.93555,-2.48265 1.93555,-8.84765 l 0,-7.28125 -11.69922,0 c -8.71349,0 -11.72216,0.28716 -11.78711,1.125 -0.048,0.61875 -0.0175,2.64375 0.0684,4.5 0.0858,1.85625 -0.20913,3.375 -0.65625,3.375 -0.44712,0 -0.63592,-1.21422 -0.41797,-2.69922 0.36791,-2.50673 0.19726,-2.69922 -2.4043,-2.69922 -1.54118,0 -2.75588,-0.30453 -2.69726,-0.67578 0.31455,-1.99212 -0.29501,-2.92578 -1.91406,-2.92578 z"
       id="new_build_f_2"
       inkscape:label="#path16997"
       sodipodi:nodetypes="ccccccccccsscccccssscscsscsscscssscssssssscsccssssss" />
    <path
       inkscape:connector-curvature="0"
       style="fill:none;fill-opacity:1;stroke:#000000;stroke-opacity:1"
       d="m 144.3669,502.52122 0,5.85156 0,5.84961 -5.42578,0 -5.42383,0 0.25,12.23633 0.25,12.23828 4.69531,0.36523 4.69336,0.36524 0.28906,-9.67774 c 0.204,-6.82334 0.3457,-4.96595 0.48047,6.29688 l 0.19141,15.97461 18,0 18,0 0,-19.4336 c 0,-18.67735 0.0709,-19.45191 1.80078,-19.90429 1.4018,-0.36657 1.79883,-1.22806 1.79883,-3.89258 0,-6.58782 1.03655,-6.26953 -20.3457,-6.26953 l -19.25391,0 z m 44.44531,0 c -2.29656,0 -2.64686,0.88755 -3.34375,8.4375 -0.22268,2.41248 -0.81409,4.6392 -1.31445,4.94922 -0.55502,0.34389 -0.9467,7.14448 -1.00391,17.43945 -0.0907,16.32334 -0.0356,16.875 1.71094,16.875 1.0049,0 1.80664,-0.59824 1.80664,-1.34961 0,-0.9 0.89922,-1.35156 2.69922,-1.35156 2.38705,0 2.70117,-0.30593 2.70117,-2.64258 0,-2.30736 -0.37221,-2.68897 -2.92578,-3.00586 -2.87984,-0.35739 -2.87367,-0.36406 0.44922,-0.50586 l 3.375,-0.14453 0,4.5 0,4.5 11.70117,0 11.69922,0 0,-7.65039 c 0,-6.15626 -0.25943,-7.65039 -1.33203,-7.65039 -0.73307,0 -1.604,-1.08132 -1.93555,-2.40234 -0.46095,-1.83657 -0.14808,-2.77023 1.33203,-3.96875 1.5974,-1.2935 1.93555,-2.52394 1.93555,-7.04688 0,-5.24612 -0.0963,-5.48242 -2.25,-5.48242 -1.65,0 -2.25,0.48078 -2.25,1.80078 0,1.23112 -0.59997,1.80078 -1.89844,1.80078 -1.63232,0 -1.84696,0.43182 -1.53711,3.08594 0.19821,1.69778 0.04,2.88847 -0.35156,2.64648 -0.39155,-0.242 -0.71289,-2.47704 -0.71289,-4.96679 l 0,-4.52539 -5.23438,0.30468 c -4.96101,0.28902 -5.21412,0.20306 -4.85742,-1.65234 0.97744,-5.08405 -3.8981,-11.99414 -8.46289,-11.99414 z"
       id="new_build_i_2"
       inkscape:label="#path15391" />
    <path
       inkscape:connector-curvature="0"
       style="fill:none;fill-opacity:1;stroke:#000000;stroke-opacity:1"
       d="m 200.45556,461.22713 c -0.94826,-3.62612 4.81527,-10.68096 9.05811,-11.08756 1.04699,-0.10033 -3.15888,-0.40408 -9.34638,-0.675 l -11.25,-0.49257 0,-7.65 0,-7.65 5.46574,-0.52345 c 3.00615,-0.2879 6.00619,-0.85748 6.66677,-1.26574 0.9037,-0.55851 1.07539,-0.26181 0.69352,1.19846 -0.43712,1.67158 -0.13018,1.94073 2.2132,1.94073 2.4167,0 2.64709,-0.22627 2.06181,-2.025 -0.78065,-2.39918 -0.77059,-4.59861 0.0388,-8.48605 0.5681,-2.72855 0.45592,-2.87445 -2.42207,-3.15 -2.28378,-0.21867 -3.03928,-0.72675 -3.10622,-2.08895 -0.0673,-1.37019 9e-4,-1.42391 0.2876,-0.225 0.5693,2.38439 5.65085,2.18206 5.65085,-0.225 0,-1.33782 -0.63549,-1.82734 -2.475,-1.90648 l -2.475,-0.10649 2.7,-0.68703 c 2.54483,-0.64755 2.57068,-0.6969 0.45,-0.85861 -1.2375,-0.0944 -4.68,-0.24354 -7.65,-0.33149 l -5.4,-0.1599 -0.2864,2.98379 c -0.15753,1.64109 0.19581,3.56484 0.78519,4.275 0.88453,1.06579 0.65956,1.29121 -1.28859,1.29121 -2.21575,0 -2.36016,-0.26164 -2.35967,-4.275 l 5.2e-4,-4.275 -21.82552,0.21657 -21.82553,0.21656 -0.2397,23.85844 -0.2397,23.85843 28.28045,0 c 27.25262,0 28.26433,-0.0616 27.83722,-1.69487 z"
       id="new_build_i_3"
       inkscape:label="#path14795" />
    <path
       inkscape:connector-curvature="0"
       style="fill:none;fill-opacity:1;stroke:#000000;stroke-opacity:1"
       d="m 154.26729,316.672 c 0,-2.19999 -0.40714,-3.15 -1.35,-3.15 -0.94286,0 -1.35,-0.95 -1.35,-3.15 0,-2.19999 0.40714,-3.15 1.35,-3.15 0.84004,0 1.40094,-0.93493 1.48485,-2.475 l 0.13485,-2.475 0.37493,2.475 c 0.26016,1.71739 0.90762,2.475 2.11515,2.475 1.38883,0 1.74022,0.63607 1.74022,3.15 0,2.55 -0.34285,3.15 -1.8,3.15 -1.45714,0 -1.8,0.60001 -1.8,3.15 l 0,3.15 19.58381,0 19.58381,0 -0.009,-5.625 -0.009,-5.625 4.04117,0 c 3.76187,0 4.08106,0.1866 4.61851,2.7 0.34528,1.6147 0.62022,-0.55591 0.684,-5.4 l 0.10665,-8.1 -11.28635,0.30396 -11.28635,0.30395 0.26119,-7.95395 0.26156,-7.95396 5.0468,-0.54265 c 2.77574,-0.29846 5.57207,-0.86729 6.21406,-1.26406 0.76895,-0.47524 0.94813,-0.36684 0.52508,0.31765 -0.35319,0.57149 -0.18937,1.03906 0.36406,1.03906 0.55343,0 0.75593,0.405 0.45,0.9 -0.32452,0.52508 0.59065,0.9 2.19688,0.9 2.71942,0 3.84743,-1.91745 1.85312,-3.15 -0.495,-0.30592 -0.85962,-1.44358 -0.81029,-2.52811 0.0846,-1.85853 0.12479,-1.84638 0.69983,0.21139 0.98094,3.51028 2.63046,3.25942 2.63046,-0.40003 0,-2.163 -0.36265,-3.11759 -1.07984,-2.84238 -0.70848,0.27187 -1.01787,-0.48068 -0.89964,-2.18825 0.19535,-2.82181 0.36684,-2.76926 -9.99052,-3.06098 -4.40262,-0.124 -5.32352,0.27386 -4.08583,1.76519 0.73893,0.89036 0.44702,1.05012 -1.3063,0.71495 -1.24182,-0.23738 -2.25787,-0.7894 -2.25787,-1.2267 0,-0.43729 -5.4675,-0.79508 -12.15,-0.79508 l -12.15,0 -0.20044,14.175 -0.20043,14.175 -0.27242,-14.175 -0.27242,-14.175 -5.82714,0 -5.82715,0 0,13.95 0,13.95 5.4,0 c 5.03094,0 5.39287,0.13841 5.2956,2.025 -0.0786,1.52386 -0.20626,1.63522 -0.51599,0.45 -0.32822,-1.25595 -1.40096,-1.575 -5.2956,-1.575 l -4.88401,0 0,10.35 0,10.35 4.95,0 4.95,0 0,-3.15 z"
       id="new_build_j_1" />
    <path
       style="opacity:0.81999966;fill:none;fill-opacity:1;stroke:#000000;stroke-opacity:1"
       d="m 221.62444,519.97919 17.34184,-4.40612 9.63104,-11.60989 40.88426,-1.12684 0,47.14286 -67.49999,0 z"
       id="new_build_i_1"
       inkscape:connector-curvature="0"
       sodipodi:nodetypes="ccccccc"
       inkscape:label="#rect18878" />
    <path
       inkscape:connector-curvature="0"
       style="opacity:0.81999966;fill:none;fill-opacity:1;stroke:#000000;stroke-opacity:1"
       d="m 223.17598,844.83262 65.15484,0 0,43.94164 -65.15484,0 z"
       id="new_build_f_3"
       inkscape:label="#rect22116" />
    <path
       style="opacity:0.81999966;fill:none;fill-opacity:1;stroke:#000000;stroke-opacity:1"
       d="m 249.94503,1075.1474 38.3858,0 0,47.9822 -38.3858,0 0.15153,-28.3347 -11.76828,-0.4546 z"
       id="new_build_e_1"
       inkscape:connector-curvature="0"
       sodipodi:nodetypes="ccccccc"
       inkscape:label="#rect22127" />
    <path
       inkscape:connector-curvature="0"
       style="opacity:0.81999966;fill:none;fill-opacity:0.63905323;stroke:#000000;stroke-opacity:1"
       d="m 681.28017,983.22352 69.19545,0 0,46.97208 -69.19545,0 z"
       id="new_build_e_5" />
    <path
       style="opacity:0.81999966;fill:none;fill-opacity:0.63905323;stroke:#000000;stroke-opacity:1"
       d="m 758.55684,983.22347 68.18529,0 0,47.98223 -68.18529,0 z"
       id="new_build_e_6"
       inkscape:label="#rect22629"
       inkscape:connector-curvature="0"
       sodipodi:nodetypes="ccccc" />
    <path
       style="opacity:0.81999966;fill:none;fill-opacity:0.63905323;stroke:#000000;stroke-opacity:1"
       d="m 680.7751,1071.6118 49.83594,-0.3749 11.38481,-0.2983 -1.21452,9.2651 0.23614,11.2253 -10.23982,0.3859 0.8907,17.3135 18.80727,0.8692 0,17.1726 -17.85214,-0.3135 -0.15639,-6.9595 -51.69199,0.202 z"
       id="new_build_e_4"
       inkscape:connector-curvature="0"
       sodipodi:nodetypes="ccccccccccccc"
       inkscape:label="#rect22640" />
    <path
       style="opacity:0.81999966;fill:none;fill-opacity:0.63905323;stroke:#000000;stroke-opacity:1"
       d="m 764.61778,1072.622 61.61931,0 0,47.9823 -51.8392,0.058 -0.14126,6.0107 -15.19469,-0.5129 -0.0283,-14.6502 19.69304,-1.4445 -1.94363,-16.0563 -11.82729,-1.8119 z"
       id="new_build_e_3"
       inkscape:connector-curvature="0"
       sodipodi:nodetypes="ccccccccccc"
       inkscape:label="#rect22651" />
    <path
       style="opacity:0.81999966;fill:none;fill-opacity:0.63905323;stroke:#000000;stroke-opacity:1"
       d="m 681.28017,929.18031 70.2056,0 0,48.9924 -70.2056,0 0.0929,-11.19329 -12.12224,0.31744 0.0446,-23.47124 11.98477,0.002 z"
       id="new_build_f_5"
       inkscape:connector-curvature="0"
       sodipodi:nodetypes="ccccccccc" />
    <rect
       style="opacity:0.81999966;fill:none;fill-opacity:0.63905323;stroke:#000000;stroke-opacity:1"
       id="new_build_f_4"
       width="69.19545"
       height="46.972092"
       x="756.5365"
       y="930.69562"
       inkscape:label="#rect22657" />
    <path
       style="opacity:0.81999966;fill:none;fill-opacity:0.63905323;stroke:#000000;stroke-opacity:1"
       d="m 759.56697,840.79204 65.65991,0 0,7.57612 10.10153,0 0.0976,24.90848 -9.66846,-0.34057 -0.53068,16.84836 -65.65991,0 z"
       id="new_build_f_7"
       inkscape:connector-curvature="0"
       sodipodi:nodetypes="ccccccccc"
       inkscape:label="#rect22659" />
    <path
       style="opacity:0.81999966;fill:none;fill-opacity:0.63905323;stroke:#000000;stroke-opacity:1"
       d="m 682.29032,839.78184 69.70052,0 0,49.49748 -71.81324,-1.49635 0.52048,-11.67295 -10.02453,-0.46776 -0.25311,-23.8138 11.6406,0.14559 z"
       id="new_build_f_6"
       inkscape:connector-curvature="0"
       sodipodi:nodetypes="ccccccccc" />
    <path
       inkscape:connector-curvature="0"
       style="opacity:0.81999966;fill:none;fill-opacity:0.78698222;stroke:#000000;stroke-opacity:1"
       d="m 680.27003,555.929 70.71068,0 0,46.46702 -70.71068,0 z"
       id="new_build_h_2" />
    <path
       inkscape:connector-curvature="0"
       style="opacity:0.81999966;fill:none;fill-opacity:0.78698222;stroke:#000000;stroke-opacity:1"
       d="m 759.0619,555.42393 66.67007,0 0,45.96194 -66.67007,0 z"
       id="new_build_h_3" />
    <path
       inkscape:connector-curvature="0"
       style="opacity:0.81999966;fill:none;fill-opacity:0.78698222;stroke:#000000;stroke-opacity:1"
       d="m 761.58733,641.79197 64.14468,0 0,48.48733 -64.14468,0 z"
       id="new_build_h_4" />
    <path
       style="opacity:0.81999966;fill:none;fill-opacity:0.78698222;stroke:#000000;stroke-opacity:1"
       d="m 680.7751,643.3072 64.14469,0 -0.27135,11.19261 2.02159,-0.56896 0.27007,36.85352 -66.165,1.51523 -0.0931,-8.99435 -9.68853,-0.38642 -0.31994,-22.94412 10.10153,0 z"
       id="new_build_h_5"
       inkscape:connector-curvature="0"
       sodipodi:nodetypes="ccccccccccc"
       inkscape:label="#rect24698" />
    <path
       inkscape:connector-curvature="0"
       style="opacity:0.81999966;fill:none;fill-opacity:0.78698222;stroke:#000000;stroke-opacity:1"
       d="m 761.83984,696.84531 64.14468,0 0,48.48733 -64.14468,0 z"
       id="new_build_g_2"
       inkscape:label="#new_build_h_4-4" />
    <path
       inkscape:connector-curvature="0"
       style="opacity:0.81999966;fill:none;fill-opacity:0.78698222;stroke:#000000;stroke-opacity:1"
       d="m 762.34491,784.72858 64.14468,0 0,48.48733 -64.14468,0 z"
       id="new_build_g_3"
       inkscape:label="#new_build_h_4-3" />
    <path
       inkscape:connector-curvature="0"
       style="opacity:0.81999966;fill:none;fill-opacity:0.78698222;stroke:#000000;stroke-opacity:1"
       d="m 682.54287,784.72858 64.14468,0 0,48.48733 -64.14468,0 z"
       id="new_build_g_4"
       inkscape:label="#new_build_h_4-5" />
    <path
       inkscape:connector-curvature="0"
       style="opacity:0.81999966;fill:none;fill-opacity:0.78698222;stroke:#000000;stroke-opacity:1"
       d="m 680.52256,696.8453 64.14468,0 0,48.48733 -64.14468,0 z"
       id="new_build_g_1"
       inkscape:label="#new_build_h_4-4" />
    <path
       inkscape:connector-curvature="0"
       style="opacity:0.81999966;fill:none;fill-opacity:0.78698222;stroke:#000000;stroke-opacity:1"
       d="m 762.84999,266.01524 64.14468,0 0,48.48734 -64.14468,0 z"
       id="new_build_j_6"
       inkscape:label="#new_build_h_4-7" />
    <path
       inkscape:connector-curvature="0"
       style="opacity:0.81999966;fill:none;fill-opacity:0.78698222;stroke:#000000;stroke-opacity:1"
       d="m 762.84999,356.92898 64.14468,0 0,48.48733 -64.14468,0 z"
       id="new_build_j_3"
       inkscape:label="#new_build_h_4-1" />
    <path
       inkscape:connector-curvature="0"
       style="opacity:0.81999966;fill:none;fill-opacity:0.78698222;stroke:#000000;stroke-opacity:1"
       d="m 681.53271,356.4239 64.14468,0 0,48.48733 -64.14468,0 z"
       id="new_build_j_4"
       inkscape:label="#new_build_h_4-3" />
    <path
       inkscape:connector-curvature="0"
       style="opacity:0.81999966;fill:none;fill-opacity:0.78698222;stroke:#000000;stroke-opacity:1"
       d="m 681.02763,267.0254 66.16499,0 0,48.48733 -66.16499,0 z"
       id="new_build_j_5"
       inkscape:label="#new_build_h_4-1" />
    <path
       style="opacity:0.81999966;fill:none;fill-opacity:0.63905323;stroke:#000000;stroke-opacity:1"
       d="m 680.77511,410.46706 70.71067,-0.50507 0,49.49748 -71.81324,-1.49635 -0.48968,-12.17802 -10.5296,0.0373 0.25197,-24.82395 11.6406,0.14559 z"
       id="new_build_i_6"
       inkscape:connector-curvature="0"
       sodipodi:nodetypes="ccccccccc"
       inkscape:label="#new_build_f_6-4" />
    <path
       style="opacity:0.81999966;fill:none;fill-opacity:0.63905323;stroke:#000000;stroke-opacity:1"
       d="m 680.7751,498.85541 69.70052,0 1.51523,50.50763 -71.81324,-1.49635 0.0154,-11.16787 -9.51945,-0.97284 -0.25311,-23.8138 10.63045,0.14559 z"
       id="new_build_i_5"
       inkscape:connector-curvature="0"
       sodipodi:nodetypes="ccccccccc"
       inkscape:label="#new_build_f_6-1" />
    <path
       style="opacity:0.81999966;fill:none;fill-opacity:0.63905323;stroke:#000000;stroke-opacity:1"
       d="m 761.08223,499.61303 65.65991,0 0.50508,15.65734 10.6066,0.50507 0.0976,23.39326 -10.67861,0.1645 -0.53068,9.27222 -65.65991,0 z"
       id="new_build_i_4"
       inkscape:connector-curvature="0"
       sodipodi:nodetypes="ccccccccc"
       inkscape:label="#rect22659" />
    <path
       inkscape:connector-curvature="0"
       style="opacity:0.81999966;fill:none;fill-opacity:0.78698222;stroke:#000000;stroke-opacity:1"
       d="m 761.83984,409.45691 64.14468,0 0,48.48733 -64.14468,0 z"
       id="new_build_i_7"
       inkscape:label="#new_build_h_4-3" />
    <path
       inkscape:connector-curvature="0"
       style="opacity:0.81999966;fill:none;fill-opacity:0.78698222;stroke:#000000;stroke-opacity:1"
       d="m 1194.1851,268.03555 64.1447,0 0,48.48733 -64.1447,0 z"
       id="new_build_j_9"
       inkscape:label="#new_build_h_4-3" />
    <path
       inkscape:connector-curvature="0"
       style="opacity:0.81999966;fill:none;fill-opacity:0.78698222;stroke:#000000;stroke-opacity:1"
       d="m 1275.5023,267.0254 64.1447,0 0,48.48733 -64.1447,0 z"
       id="new_build_j_10"
       inkscape:label="#new_build_h_4-3" />
    <path
       inkscape:connector-curvature="0"
       style="opacity:0.81999966;fill:none;fill-opacity:0.78698222;stroke:#000000;stroke-opacity:1"
       d="m 1275.5024,357.43405 64.1446,0 0,48.48733 -64.1446,0 z"
       id="new_build_j_7"
       inkscape:label="#new_build_h_4-3" />
    <path
       inkscape:connector-curvature="0"
       style="opacity:0.81999966;fill:none;fill-opacity:0.78698222;stroke:#000000;stroke-opacity:1"
       d="m 1194.6902,356.92898 64.1446,0 0,48.48733 -64.1446,0 z"
       id="new_build_j_8"
       inkscape:label="#new_build_h_4-3" />
    <path
       inkscape:connector-curvature="0"
       style="opacity:0.81999966;fill:none;fill-opacity:0.78698222;stroke:#000000;stroke-opacity:1"
       d="m 1276.0074,410.46706 64.1447,0 0,48.48733 -64.1447,0 z"
       id="new_build_i_11"
       inkscape:label="#new_build_h_4-3" />
    <path
       inkscape:connector-curvature="0"
       style="opacity:0.81999966;fill:none;fill-opacity:0.78698222;stroke:#000000;stroke-opacity:1"
       d="m 1272.472,555.42395 67.6801,0 0,47.47718 -67.6801,0 z"
       id="new_build_h_7"
       inkscape:label="#new_build_h_4-3" />
    <path
       inkscape:connector-curvature="0"
       style="opacity:0.81999966;fill:none;fill-opacity:0.78698222;stroke:#000000;stroke-opacity:1"
       d="m 1194.4377,554.91888 67.6801,0 0,47.47718 -67.6801,0 z"
       id="new_build_h_6"
       inkscape:label="#new_build_h_4-3" />
    <path
       inkscape:connector-curvature="0"
       style="opacity:0.81999966;fill:none;fill-opacity:0.78698222;stroke:#000000;stroke-opacity:1"
       d="m 1272.7244,643.8123 67.6801,0 0,47.47718 -67.6801,0 z"
       id="new_build_h_8"
       inkscape:label="#new_build_h_4-3" />
    <path
       inkscape:connector-curvature="0"
       style="opacity:0.81999966;fill:none;fill-opacity:0.78698222;stroke:#000000;stroke-opacity:1"
       d="m 1272.2194,697.35038 67.6801,0 0,47.47718 -67.6801,0 z"
       id="new_build_g_6"
       inkscape:label="#new_build_h_4-3" />
    <path
       inkscape:connector-curvature="0"
       style="opacity:0.81999966;fill:none;fill-opacity:0.78698222;stroke:#000000;stroke-opacity:1"
       d="m 1271.7143,785.73873 67.6801,0 0,47.47718 -67.6801,0 z"
       id="new_build_g_7"
       inkscape:label="#new_build_h_4-3" />
    <path
       inkscape:connector-curvature="0"
       style="opacity:0.81999966;fill:none;fill-opacity:0.78698222;stroke:#000000;stroke-opacity:1"
       d="m 1194.9428,786.24381 67.6801,0 0,47.47718 -67.6801,0 z"
       id="new_build_g_8"
       inkscape:label="#new_build_h_4-3" />
    <path
       inkscape:connector-curvature="0"
       style="opacity:0.81999966;fill:none;fill-opacity:0.78698222;stroke:#000000;stroke-opacity:1"
       d="m 1192.9225,697.35038 67.6801,0 0,47.47718 -67.6801,0 z"
       id="new_build_g_5"
       inkscape:label="#new_build_h_4-3" />
    <path
       inkscape:connector-curvature="0"
       style="opacity:0.81999966;fill:none;fill-opacity:0.78698222;stroke:#000000;stroke-opacity:1"
       d="m 1271.7143,929.18039 67.6801,0 0,47.47718 -67.6801,0 z"
       id="new_build_f_8"
       inkscape:label="#new_build_h_4-3" />
    <path
       inkscape:connector-curvature="0"
       style="opacity:0.81999966;fill:none;fill-opacity:0.78698222;stroke:#000000;stroke-opacity:1"
       d="m 1271.7143,982.71847 67.6801,0 0,47.98223 -67.6801,0 z"
       id="new_build_e_10"
       inkscape:label="#new_build_h_4-3"
       inkscape:transform-center-x="-0.50507628"
       inkscape:transform-center-y="-2.0417607" />
    <path
       inkscape:connector-curvature="0"
       style="opacity:0.81999966;fill:none;fill-opacity:0.78698222;stroke:#000000;stroke-opacity:1"
       d="m 1194.4377,983.22356 67.6801,0 0,47.47714 -67.6801,0 z"
       id="new_build_e_9"
       inkscape:label="#new_build_h_4-3" />
    <path
       inkscape:connector-curvature="0"
       style="opacity:0.81999966;fill:none;fill-opacity:0.78698222;stroke:#000000;stroke-opacity:1"
       d="m 1194.9428,1072.117 67.68,0 0,47.4772 -67.68,0 z"
       id="new_build_e_8"
       inkscape:label="#new_build_h_4-3" />
    <path
       inkscape:connector-curvature="0"
       style="opacity:0.81999966;fill:none;fill-opacity:0.78698222;stroke:#000000;stroke-opacity:1"
       d="m 1271.2093,1072.6221 69.1953,0 0,48.4873 -69.1953,0 z"
       id="new_build_e_7"
       inkscape:label="#new_build_h_4-3" />
    <path
       style="opacity:0.81999966;fill:none;fill-opacity:0.63905323;stroke:#000000;stroke-opacity:1"
       d="m 1194.9427,409.45691 69.7004,0 1.5153,50.50763 -72.3183,0.0189 -0.4901,-13.69325 -10.0245,0.0373 -0.2531,-24.31888 12.1457,-0.35948 z"
       id="new_build_i_10"
       inkscape:connector-curvature="0"
       sodipodi:nodetypes="ccccccccc"
       inkscape:label="#new_build_f_6-1" />
    <path
       style="opacity:0.81999966;fill:none;fill-opacity:0.63905323;stroke:#000000;stroke-opacity:1"
       d="m 1194.4376,498.85541 69.7005,0 1.5152,50.50763 -71.8131,-1.49635 -0.4901,-12.6831 -9.0144,0.0373 -0.2531,-23.30872 10.6304,0.14559 z"
       id="new_build_i_9"
       inkscape:connector-curvature="0"
       sodipodi:nodetypes="ccccccccc"
       inkscape:label="#new_build_f_6-1" />
    <path
       style="opacity:0.81999966;fill:none;fill-opacity:0.63905323;stroke:#000000;stroke-opacity:1"
       d="m 1340.3825,548.72057 -70.1749,-1.2157 -0.4873,-47.15746 69.5533,-0.63428 0.064,16.97178 11.8162,0.14004 0.2023,24.0933 -11.1051,-0.0832 z"
       id="new_build_i_8"
       inkscape:connector-curvature="0"
       sodipodi:nodetypes="ccccccccc"
       inkscape:label="#new_build_f_6-1" />
    <path
       style="opacity:0.81999966;fill:none;fill-opacity:0.63905323;stroke:#000000;stroke-opacity:1"
       d="m 1340.4496,888.02421 -67.397,-0.45809 -0.4873,-47.15746 67.533,-0.1292 0.5687,7.62786 10.8061,0.64512 -0.05,24.59838 -10.6,-0.0832 z"
       id="new_build_f_11"
       inkscape:connector-curvature="0"
       sodipodi:nodetypes="ccccccccc"
       inkscape:label="#new_build_f_6-1" />
    <path
       style="opacity:0.81999966;fill:none;fill-opacity:0.63905323;stroke:#000000;stroke-opacity:1"
       d="m 1193.2403,644.31737 69.7004,-0.71428 0,47.5892 -69.2265,-0.006 -0.3417,-7.23929 -9.8767,-0.4065 -0.9673,-23.66586 10.9009,-0.0636 z"
       id="new_build_h_9"
       inkscape:connector-curvature="0"
       sodipodi:nodetypes="ccccccccc"
       inkscape:label="#new_build_f_6-1" />
    <path
       style="opacity:0.81999966;fill:none;fill-opacity:1;stroke:#000000;stroke-opacity:1"
       d="m 1194.7347,840.3436 67.6801,0.0433 0.2525,46.57905 -67.9638,1.00365 -0.3417,-11.78498 -10.6342,-0.4065 -0.2098,-24.17093 11.1535,-0.31614 z"
       id="new_build_f_10"
       inkscape:connector-curvature="0"
       sodipodi:nodetypes="ccccccccc"
       inkscape:label="#new_build_f_6-1" />
    <path
       style="opacity:0.81999966;fill:none;fill-opacity:0.63905323;stroke:#000000;stroke-opacity:1"
       d="m 1194.4903,930.59952 69.7004,-0.71428 0.505,47.08413 -69.7315,0.49857 -0.3417,-9.76467 -9.8766,-0.65904 0.043,-22.6557 9.1331,-0.0636 z"
       id="new_build_f_9"
       inkscape:connector-curvature="0"
       sodipodi:nodetypes="ccccccccc"
       inkscape:label="#new_build_f_6-1" />
    <path
       style="opacity:0.81999966;fill:none;fill-opacity:0.63905323;stroke:#000000;stroke-opacity:1"
       d="m 145.06436,647.94807 62.55762,-0.71428 0.44377,46.57905 -62.88459,1.00365 -1.05603,-7.23929 -9.8766,-0.76364 -0.96739,-23.30872 11.97236,-0.0636 z"
       id="new_build_h_9-4"
       inkscape:connector-curvature="0"
       sodipodi:nodetypes="ccccccccc"
       inkscape:label="#new_build_f_6-1" />
    <path
       style="opacity:0.81999966;fill:none;fill-opacity:1;stroke:#000000;stroke-opacity:1"
       d="m 231.53777,270.81602 -0.28055,-7.07107 18.08811,-0.47648 0.30569,7.66532 40.54483,-0.11777 0,47.02034 -58.65808,0 z"
       id="rect25055"
       inkscape:connector-curvature="0"
       sodipodi:nodetypes="cccccccc" />
  </g>
</svg>
