<?xml version="1.0" encoding="UTF-8" standalone="no"?>
<!-- Created with Inkscape (http://www.inkscape.org/) -->

<svg
   xmlns:dc="http://purl.org/dc/elements/1.1/"
   xmlns:cc="http://creativecommons.org/ns#"
   xmlns:rdf="http://www.w3.org/1999/02/22-rdf-syntax-ns#"
   xmlns:svg="http://www.w3.org/2000/svg"
   xmlns="http://www.w3.org/2000/svg"
   xmlns:sodipodi="http://sodipodi.sourceforge.net/DTD/sodipodi-0.dtd"
   xmlns:inkscape="http://www.inkscape.org/namespaces/inkscape"
   width="211.07422mm"
   height="56.813305mm"
   viewBox="0 0 747.90078 201.30698"
   id="svg8431"
   version="1.1"
   inkscape:version="0.91 r13725"
   sodipodi:docname="new-build-a-stair_rooms.svg">
  <defs
     id="defs8433" />
  <sodipodi:namedview
     id="base"
     pagecolor="#ffffff"
     bordercolor="#666666"
     borderopacity="1.0"
     inkscape:pageopacity="0.0"
     inkscape:pageshadow="2"
     inkscape:zoom="0.35"
     inkscape:cx="-9.6210404"
     inkscape:cy="-82.203625"
     inkscape:document-units="px"
     inkscape:current-layer="layer1"
     showgrid="false"
     fit-margin-top="0"
     fit-margin-left="0"
     fit-margin-right="0"
     fit-margin-bottom="0"
     inkscape:window-width="1600"
     inkscape:window-height="837"
     inkscape:window-x="-8"
     inkscape:window-y="-8"
     inkscape:window-maximized="1" />
  <metadata
     id="metadata8436">
    <rdf:RDF>
      <cc:Work
         rdf:about="">
        <dc:format>image/svg+xml</dc:format>
        <dc:type
           rdf:resource="http://purl.org/dc/dcmitype/StillImage" />
        <dc:title></dc:title>
      </cc:Work>
    </rdf:RDF>
  </metadata>
  <g
     inkscape:label="Layer 1"
     inkscape:groupmode="layer"
     id="layer1"
     transform="translate(36.807531,-248.8516)">
    <path
       inkscape:connector-curvature="0"
       style="fill:none;fill-opacity:1;stroke:#000000;stroke-opacity:1"
       d="m 94.281509,449.5516 14.711741,0 0,-24.3 0,-24.3 -19.350001,0 -19.35,0 0,2.1169 c 0,3.1004 -3.61561,7.9693 -7.45044,10.0331 l -3.3447,1.8 -0.003,7.3287 c -0.003,7.9462 -0.30831,8.4213 -5.41745,8.4213 -1.41229,0 -3.58515,0.3868 -4.82858,0.8596 -1.88269,0.7157 -2.35418,0.5652 -2.81924,-0.9 -0.36078,-1.1376 -1.36614,-1.7596 -2.84383,-1.7596 -1.8461,0 -2.1497,0.3029 -1.57872,1.575 0.71324,1.5891 0.73962,3.8283 0.10336,8.775 -0.23919,1.8597 0.10081,2.8904 1.09251,3.3117 1.25602,0.5337 1.23876,0.6199 -0.13521,0.675 -2.95008,0.1185 -1.77286,2.7633 1.22997,2.7633 2.36187,0 2.7306,-0.2843 2.33425,-1.8 -0.25889,-0.99 -0.10362,-1.8 0.34504,-1.8 0.44866,0 0.81574,1.0125 0.81574,2.25 0,1.9714 -0.39,2.25 -3.15,2.25 -2.02633,0 -3.15,0.4284 -3.15,1.201 0,0.9105 1.79638,1.1826 7.425,1.125 l 7.425,-0.076 0.28338,-3.9608 c 0.18189,-2.5422 -0.14043,-4.2485 -0.9,-4.7641 -0.81514,-0.5534 -0.48324,-0.7211 1.06662,-0.5392 2.03561,0.239 2.27573,0.7089 2.52007,4.9324 0.32426,5.6052 0.61931,5.7298 12.24319,5.1686 4.4073,-0.2128 14.63355,-0.3869 22.725,-0.3869 z"
       id="new_build_a_3"
       inkscape:label="#path6861" />
    <path
       inkscape:connector-curvature="0"
       style="fill:none;fill-opacity:1;stroke:#000000;stroke-opacity:1"
       d="m -36.807531,389.2524 0,30.1484 0,30.1504 17.10156,0 17.0996096,0 0,-19.3496 c 0,-18.32 0.0898,-19.3496 1.68749997,-19.3496 1.13669,0 1.85436,-0.8402 2.20117003,-2.5742 0.28318,-1.4159 1.58488,-3.8463 2.89258,-5.4004 2.11555,-2.5142 2.19524,-2.8383 0.72266,-2.9453 -0.91025,-0.066 0.3707,-0.4278 2.8457,-0.8028 2.4750004,-0.375 6.8713004,-0.4609 9.7695304,-0.1914 l 5.26953,0.4903 -1.31836,-2.6133 c -0.72501,-1.4372 -1.58571,-3.7267 -1.91211,-5.0879 l -0.59375,-2.4746 -27.8828104,0 -27.8828096,0 z m 47.625,10.8066 c -3.3158404,0.141 -8.9238304,6.0352 -8.9238304,11.1973 0,1.2621 -0.36321,2.2949 -0.80664,2.2949 -0.44439003,0 -0.84590003,7.8772 -0.89453003,17.5508 -0.0732,14.5469 0.12939,17.5488 1.18164003,17.5488 0.69821,0 1.50617,-0.5062 1.79492,-1.125 0.42,-0.9 0.62884,-0.9 1.04883,0 0.28876,0.6188 0.99868,1.1122 1.57617,1.0957 0.5775,-0.016 0.10916,-0.8125 -1.03906,-1.7695 -1.46212,-1.2187 -2.0003,-2.4917 -1.79883,-4.2461 0.25195,-2.1938 0.71461,-2.5387 3.73438,-2.7871 l 3.4492104,-0.2852 -0.1601504,3.4336 c -0.0881,1.8885 -0.12215,3.9399 -0.0742,4.5586 0.065,0.8379 3.0736104,1.125 11.7871104,1.125 l 11.70117,0 0,-7.4336 c 0,-6.4588 -0.23681,-7.5799 -1.80078,-8.5566 -2.50429,-1.564 -2.37018,-5.4375 0.22461,-6.4805 1.55151,-0.6236 1.6579,-0.8274 0.45117,-0.8711 -0.90728,-0.033 -1.54484,-0.7255 -1.50391,-1.6328 0.0425,-0.9409 0.25421,-1.1213 0.5254,-0.4492 1.02863,2.5492 2.10351,0.8378 2.10351,-3.3477 0,-3.6051 -0.26124,-4.3707 -1.34961,-3.9531 -0.85485,0.3281 -1.35156,-0.012 -1.35156,-0.9277 3e-5,-0.7955 -0.40344,-1.4473 -0.89844,-1.4473 -0.495,0 -0.90039,1.1766 -0.90039,2.6152 0,2.1727 -0.30569,2.5375 -1.80078,2.1465 -1.51565,-0.3963 -1.79883,-0.028 -1.79883,2.334 0,3.3644 2.3271,3.8723 3.57031,0.7793 0.55081,-1.3703 0.8325,-1.5518 0.8711,-0.5605 0.0759,1.9473 -2.27687,3.8178 -3.98047,3.164 -0.99291,-0.381 -1.36133,-1.8984 -1.36133,-5.6054 l 0,-5.0821 -6.00781,0.3828 c -3.3045,0.2105 -5.59368,0.2435 -5.08594,0.074 0.87061,-0.2902 0.74293,-7.0374 -0.22266,-11.7226 -0.3033,-1.4717 -1.15448,-2.0646 -2.25976,-2.0176 z"
       id="new_build_a_4"
       inkscape:label="#path6857" />
    <path
       inkscape:connector-curvature="0"
       style="fill:none;fill-opacity:1;stroke:#000000;stroke-opacity:1"
       d="m 108.99325,336.1516 0,-24.3 -27.349841,0 -27.34984,0 -0.57381,3.0587 c -0.73177,3.9007 -3.6527,7.6175 -7.20018,9.162 l -2.77633,1.2089 2.55,0.035 c 1.63414,0.023 2.4122,0.4392 2.16634,1.1602 -0.21101,0.6187 -1.25726,0.9983 -2.325,0.8434 -1.28045,-0.1857 -1.94134,0.1973 -1.94134,1.125 0,0.7736 0.35777,1.4066 0.79503,1.4066 1.49147,0 1.84761,4.0035 0.53442,6.0076 -1.79964,2.7466 -0.82056,4.637 2.57215,4.9661 2.36461,0.2294 2.8484,0.6584 2.8484,2.5263 0,1.9503 -0.44949,2.2872 -3.375,2.5293 -4.62037,0.3824 -4.27398,1.954 0.45,2.0417 2.10375,0.039 3.31875,0.2754 2.7,0.525 -0.72209,0.2914 -1.125,2.3611 -1.125,5.779 l 0,5.325 4.92375,0 4.92373,0 -0.0169,-10.5486 c -0.0109,-6.7837 -0.37589,-10.7704 -1.02268,-11.1702 -1.00491,-0.621 -1.12788,-7.9161 -0.18384,-10.9062 0.27349,-0.8663 1.27996,-1.575 2.23661,-1.575 1.65967,0 1.73935,0.804 1.73935,17.55 l 0,17.55 23.4,0 23.400001,0 0,-24.3 z"
       id="new_build_a_2"
       inkscape:label="#path6689" />
    <path
       inkscape:connector-curvature="0"
       style="fill:none;fill-opacity:1;stroke:#000000;stroke-opacity:1"
       d="m 45.257679,305.3892 c 3.80294,-0.174 7.21677,-0.6188 7.58631,-0.9883 1.19474,-1.1948 -2.2428,-6.91 -5.26412,-8.7521 -1.61514,-0.9848 -2.48499,-1.792 -1.933,-1.7938 3.03232,-0.01 8.44638,6.8817 8.44638,10.7519 0,1.8193 0.3783,1.8447 27.45,1.8447 l 27.450001,0 0,-24.3 0,-24.3 -23.400001,0 -23.4,0 0,17.55 c 0,16.746 -0.0797,17.55 -1.73935,17.55 -1.96265,0 -2.52329,-1.3783 -2.92865,-7.2 -0.1551,-2.2275 -0.687,-4.3475 -1.182,-4.7112 -0.495,-0.3637 -0.002,-0.6674 1.09552,-0.675 1.94951,-0.014 1.99536,-0.2629 1.98783,-10.8138 l -0.008,-10.8 -4.91283,0 -4.91283,0 0,4.5 c 0,2.475 0.34884,4.5 0.7752,4.5 0.42636,0 0.63638,-1.1137 0.46672,-2.475 -0.301,-2.4151 -0.29163,-2.4205 0.38671,-0.225 0.4173,1.3507 1.48983,2.365 2.68326,2.5376 1.09347,0.1582 1.98811,0.6644 1.98811,1.125 0,1.0474 -0.97156,1.0494 -2.62096,0.01 -0.82466,-0.522 -1.71633,-0.3592 -2.53929,0.4638 -0.69716,0.6975 -2.45398,1.2682 -3.90363,1.2682 -1.44964,0 -2.63571,0.405 -2.63571,0.9 0,0.495 1.43021,0.9 3.17824,0.9 2.00677,0 3.37082,0.5018 3.70069,1.3615 0.80591,2.1001 -1.50938,4.2383 -4.16699,3.8483 -1.88453,-0.2766 -2.32806,0.015 -2.27685,1.4983 0.035,1.0131 0.58766,2.7803 1.22821,3.9273 0.97805,1.7512 0.93811,2.431 -0.24934,4.2433 -0.77768,1.1869 -1.41396,2.3747 -1.41396,2.6396 0,1.0029 3.47045,0.431 3.90395,-0.6433 0.24967,-0.6187 0.48592,-0.036 0.52499,1.2949 0.0641,2.1838 -0.31372,2.4775 -3.87326,3.0113 -7.31432,1.0968 -7.07204,1.5317 -6.9116,-12.4062 0.0935,-8.119 -0.18196,-12.375 -0.80082,-12.375 -0.62934,0 -0.94326,6.6467 -0.94326,19.972 0,16.1483 0.21539,19.6954 1.125,18.5271 0.81338,-1.0447 3.04024,-1.5327 8.03943,-1.7615 z"
       id="new_build_a_1"
       inkscape:label="#path6651" />
    <path
       inkscape:connector-curvature="0"
       style="fill:none;fill-opacity:1;stroke:#000000;stroke-opacity:1"
       d="m 614.79325,436.5179 c 0,-3.8145 0.3131,-4.9663 1.35,-4.9663 1.02,0 1.35,1.1 1.35,4.5 l 0,4.5 7.65,0 c 6.24264,0 7.65,-0.2515 7.65,-1.3671 0,-1.0303 -0.58898,-1.2194 -2.39003,-0.7673 -1.73107,0.4344 -2.7066,0.1669 -3.53819,-0.9704 -1.6483,-2.2541 -0.58561,-4.0952 2.36386,-4.0952 2.91154,0 4.41248,-2.8436 2.63281,-4.988 -1.05075,-1.2661 -0.88675,-3.728 0.4621,-6.937 0.54816,-1.3041 0.18107,-1.575 -2.13426,-1.575 -1.75703,0 -2.71267,0.4181 -2.57129,1.125 0.12939,0.647 -0.63546,1.0977 -1.8,1.0607 -1.11375,-0.035 -4.05,-0.1366 -6.525,-0.225 l -4.5,-0.1607 0,-8.0266 0,-8.0266 -2.925,-1.8223 c -3.35209,-2.0883 -5.24297,-4.8034 -6.0413,-8.6745 l -0.55682,-2.7 -25.83844,-0.2388 -25.83844,-0.2388 0,24.7234 0,24.7234 30.6,0.057 30.6,0.057 0,-4.9663 z"
       id="new_build_a_6"
       inkscape:label="#path5873" />
    <path
       inkscape:connector-curvature="0"
       style="fill:none;fill-opacity:1;stroke:#000000;stroke-opacity:1"
       d="m 683.01325,440.3716 c 0.84,-0.84 1.08,-0.8367 1.08,0.015 0,0.8167 3.42929,1.0629 13.5,0.969 l 13.5,-0.1258 0,-24.572 0,-24.5719 -13.5,-0.082 c -10.306,-0.063 -13.51681,0.1874 -13.57105,1.0579 -0.0562,0.9018 -0.16603,0.9051 -0.525,0.015 -0.31787,-0.7877 -2.98411,-1.125 -8.89426,-1.125 l -8.44031,0 -0.94929,3.375 c -1.13525,4.0362 -2.73588,6.2661 -6.08103,8.4719 l -2.48906,1.6413 2.475,0.01 2.475,0.01 0,8.1 0,8.1 -3.99141,0 c -2.19528,0 -5.03028,0.395 -6.3,0.8777 -2.22115,0.8445 -2.79022,0.3726 -2.41517,-2.0027 0.0586,-0.372 -1.10842,-0.6758 -2.59342,-0.6758 -2.67075,0 -3.77371,1.9302 -1.8,3.15 1.15987,0.7168 1.16998,4.6769 0.0138,5.3915 -0.48742,0.3012 -0.80409,1.5401 -0.7037,2.7531 0.15436,1.8651 0.64753,2.2054 3.19601,2.2054 2.75647,0 2.98919,0.2111 2.7287,2.475 -0.21757,1.8909 -0.8158,2.526 -2.53478,2.691 -2.21719,0.2129 -2.22048,0.2035 -0.225,-0.646 2.9831,-1.2698 2.6033,-3.62 -0.585,-3.62 -2.38286,0 -2.61,0.2741 -2.61,3.15 l 0,3.15 7.56,0 7.56,0 0,-3.87 c 0,-2.1285 -0.43571,-4.3057 -0.96824,-4.8382 -0.69099,-0.691 -0.30441,-0.8414 1.35,-0.5251 2.14902,0.4108 2.31824,0.7968 2.31824,5.2882 l 0,4.8451 10.17,0 c 6.71,0 10.53743,-0.3674 11.25,-1.08 z"
       id="new_build_a_5"
       inkscape:label="#path5869" />
    <path
       style="fill:none;fill-opacity:1;stroke:#000000;stroke-opacity:1"
       d="m 621.00089,302.4043 -46.33711,0.4472 -21.07078,0 0,24.3163 0,24.3162 21.375,-0.2412 47.08852,-0.9121 c -0.27315,-18.0568 -0.0146,-31.8711 -1.05563,-47.9264 z"
       id="new_build_a_7"
       inkscape:connector-curvature="0"
       sodipodi:nodetypes="cccccccc"
       inkscape:label="#path5673" />
    <path
       inkscape:connector-curvature="0"
       style="fill:none;fill-opacity:1;stroke:#000000;stroke-opacity:1"
       d="m 553.59286,248.852 0,24.3164 0,24.3164 20.92578,-0.2422 20.92383,-0.2402 0.006,-1.4453 23.11328,0 0,-46.2832 -22.94727,0 0.002,-0.4219 -21.01172,0 -21.01172,0 z"
       id="new_build_a_8"
       inkscape:label="#path5633" />
    <path
       inkscape:connector-curvature="0"
       style="fill:none;fill-opacity:1;stroke:#000000;stroke-opacity:1"
       d="m 654.98097,295.3639 c 1.16415,-1.1642 -2.32517,-6.9006 -5.3011,-8.7151 -1.61514,-0.9848 -2.48499,-1.792 -1.93299,-1.7938 3.03358,-0.01 8.44637,6.882 8.44637,10.7549 0,1.8244 0.34492,1.8469 27.45,1.7886 l 27.45,-0.059 0,-24.2439 0,-24.244 -13.5,0 c -10.19265,0 -13.50338,0.2757 -13.51378,1.125 -0.0107,0.8728 -0.17869,0.8651 -0.74938,-0.034 -0.53738,-0.8469 -3.09614,-1.0895 -9.49543,-0.9 l -8.75982,0.2594 -0.16579,17.1 c -0.16475,16.991 -0.17871,17.1019 -2.1908,17.3876 -1.11375,0.1582 -2.04451,-0.044 -2.06837,-0.45 -0.40268,-6.8487 -0.79766,-10.264 -1.27669,-11.0391 -0.32239,-0.5217 0.0285,-0.9485 0.77977,-0.9485 1.14495,0 1.36719,-1.7473 1.37364,-10.8 l 0.008,-10.8 -4.92053,0 -4.92052,0 0,5.325 c 0,3.4179 0.40291,5.4876 1.125,5.779 0.61875,0.2497 -0.59625,0.4859 -2.7,0.525 -4.72399,0.088 -5.07037,1.6593 -0.45,2.0417 2.92551,0.2421 3.375,0.579 3.375,2.5293 0,1.8807 -0.48021,2.2963 -2.925,2.5321 -1.60875,0.1551 -2.925,0.6613 -2.925,1.125 0,0.4636 -0.81,0.8429 -1.8,0.8429 -1.60344,0 -1.8,0.6 -1.8,5.4946 l 0,5.4945 3.6,-0.3433 c 2.93415,-0.2798 3.6,-0.058 3.6,1.2003 0,1.1399 -1.06104,1.7028 -4.05675,2.152 -2.23122,0.3346 -4.86372,0.3973 -5.85,0.1394 -1.66773,-0.4361 -1.79325,-0.018 -1.79325,5.9768 l 0,6.4457 7.62641,-0.5064 c 4.19453,-0.2785 7.91211,-0.7921 8.2613,-1.1413 z"
       id="new_build_a_9"
       inkscape:label="#path5625" />
  </g>
</svg>
