<?xml version="1.0" encoding="UTF-8" standalone="no"?>
<!-- Created with Inkscape (http://www.inkscape.org/) -->

<svg
   xmlns:dc="http://purl.org/dc/elements/1.1/"
   xmlns:cc="http://creativecommons.org/ns#"
   xmlns:rdf="http://www.w3.org/1999/02/22-rdf-syntax-ns#"
   xmlns:svg="http://www.w3.org/2000/svg"
   xmlns="http://www.w3.org/2000/svg"
   xmlns:sodipodi="http://sodipodi.sourceforge.net/DTD/sodipodi-0.dtd"
   xmlns:inkscape="http://www.inkscape.org/namespaces/inkscape"
   width="424.27676mm"
   height="146.20738mm"
   viewBox="0 0 1503.3429 518.05765"
   id="svg27756"
   version="1.1"
   inkscape:version="0.91 r13725"
   sodipodi:docname="wyng-floor-b_rooms.svg">
  <defs
     id="defs27758" />
  <sodipodi:namedview
     id="base"
     pagecolor="#ffffff"
     bordercolor="#666666"
     borderopacity="1.0"
     inkscape:pageopacity="0.0"
     inkscape:pageshadow="2"
     inkscape:zoom="0.35"
     inkscape:cx="507.27145"
     inkscape:cy="259.12905"
     inkscape:document-units="px"
     inkscape:current-layer="layer1"
     showgrid="false"
     fit-margin-top="0"
     fit-margin-left="0"
     fit-margin-right="0"
     fit-margin-bottom="0"
     inkscape:window-width="1600"
     inkscape:window-height="837"
     inkscape:window-x="-8"
     inkscape:window-y="-8"
     inkscape:window-maximized="1" />
  <metadata
     id="metadata27761">
    <rdf:RDF>
      <cc:Work
         rdf:about="">
        <dc:format>image/svg+xml</dc:format>
        <dc:type
           rdf:resource="http://purl.org/dc/dcmitype/StillImage" />
        <dc:title></dc:title>
      </cc:Work>
    </rdf:RDF>
  </metadata>
  <g
     inkscape:label="Layer 1"
     inkscape:groupmode="layer"
     id="layer1"
     transform="translate(553.70002,-273.43363)">
    <path
       inkscape:connector-curvature="0"
       style="fill:none;fill-opacity:1;stroke:#000000;stroke-opacity:1"
       d="m -439.23689,709.92815 0,-81.56264 -10.81542,0 -10.81542,0 0,-35.40355 c 0,-32.53697 -0.60718,-41.40468 -2.16976,-31.68702 -2.118,13.17183 -14.8431,24.98508 -26.89664,24.96926 l -3.37982,-0.004 0,-14.34068 c 0,-8.96293 -0.33798,-14.34069 -0.90128,-14.34069 -0.57415,0 -0.90129,7.31974 -0.90129,20.16659 l 0,20.16658 -4.34586,0 c -11.58061,0 -22.10644,8.32624 -24.07777,19.04622 l -0.61808,3.3611 12.71829,0 c 7.87801,0 12.71829,0.34112 12.71829,0.89629 0,0.49296 0.81115,0.89629 1.80257,0.89629 1.45923,0 1.80256,0.59754 1.80256,3.13703 l 0,3.13702 -29.29175,0 -29.29175,0 0,81.56263 0,81.5627 57.23158,0 57.23155,0 0,-81.5627 z"
       id="wyng_b_19"
       inkscape:label="#path25623" />
    <path
       inkscape:connector-curvature="0"
       style="fill:none;fill-opacity:1;stroke:#000000;stroke-opacity:1"
       d="m -313.95832,709.92815 0,-81.56264 -29.2917,0 -29.2918,0 0,-3.13702 c 0,-2.53949 0.3434,-3.13702 1.8026,-3.13702 0.9914,0 1.8026,-0.40334 1.8026,-0.8963 0,-0.55508 4.8307,-0.89629 12.6895,-0.89629 l 12.6896,0 -0.6322,-2.91295 c -2.314,-10.66141 -12.9495,-19.43028 -23.6203,-19.47468 l -4.7318,-0.0197 0,-20.16659 c 0,-17.32831 -0.1902,-20.16658 -1.3519,-20.16658 -1.1458,0 -1.3519,2.20488 -1.3519,14.46607 l 0,14.46608 -4.842,-0.49697 c -11.80389,-1.21152 -22.04719,-10.82329 -24.48777,-22.97784 -0.54107,-2.69486 -1.46368,-5.05882 -2.05012,-5.25324 -0.80905,-0.26817 -1.06642,8.20966 -1.06642,35.12477 l 0,35.47825 -10.36477,0 -10.36478,0 0,81.56263 0,81.56265 57.23156,0 57.2316,0 0,-81.56265 z"
       id="wyng_b_17"
       inkscape:label="#path25613" />
    <path
       inkscape:connector-curvature="0"
       style="fill:none;fill-opacity:1;stroke:#000000;stroke-opacity:1"
       d="m -188.67972,709.92815 0,-81.56264 -10.8154,0 -10.8154,0 0,-35.40355 c 0,-20.87235 -0.3393,-35.40356 -0.8266,-35.40356 -0.4547,0 -1.2634,2.02534 -1.7972,4.50075 -2.1619,10.02468 -8.3127,17.7506 -17.5294,22.01822 -2.5778,1.19367 -6.3309,2.14877 -8.4626,2.15364 l -3.8305,0.009 0,-14.34068 c 0,-8.96293 -0.338,-14.34068 -0.9013,-14.34068 -0.5739,0 -0.9013,7.27958 -0.9013,20.04615 l 0,20.04616 -6.0907,0.43338 c -3.35,0.23836 -7.4004,1.10676 -9.0008,1.92978 -6.8499,3.52265 -12.1549,10.20332 -13.7947,17.37206 l -0.6663,2.91295 12.9737,0 c 8.0483,0 12.9737,0.34028 12.9737,0.89629 0,0.49296 0.8112,0.8963 1.8026,0.8963 1.4593,0 1.8025,0.59753 1.8025,3.13702 l 0,3.13702 -29.2917,0 -29.2918,0 0,81.56263 0,81.56259 57.2316,0 57.2316,0 0,-81.56259 z"
       id="wyng_b_15"
       inkscape:label="#path25601" />
    <path
       inkscape:connector-curvature="0"
       style="fill:none;fill-opacity:1;stroke:#000000;stroke-opacity:1"
       d="m 312.43458,701.86151 0,-73.496 -10.8154,0 -10.8154,0 0,-35.40355 c 0,-20.87235 -0.3393,-35.40356 -0.8266,-35.40356 -0.4547,0 -1.2634,2.02534 -1.7973,4.50075 -2.8002,12.9848 -12.9383,22.69847 -24.9803,23.93443 l -4.8421,0.49697 0,-14.46608 c 0,-9.04652 -0.3377,-14.46607 -0.9013,-14.46607 -0.574,0 -0.9013,7.27959 -0.9013,20.04615 l 0,20.04616 -6.0836,0.43428 c -7.3461,0.52441 -12.1797,2.79633 -16.8228,7.90729 -3.3664,3.70554 -5.1391,7.04681 -6.2826,11.8418 l -0.5877,2.4648 13.0858,0 c 8.123,0 13.0858,0.33993 13.0858,0.89629 0,0.49296 0.8112,0.8963 1.8026,0.8963 1.4591,0 1.8025,0.59753 1.8025,3.13702 l 0,3.13702 -29.2917,0 -29.2918,0 0,73.496 0,73.49607 57.2316,0 57.2316,0 0,-73.49607 z"
       id="wyng_b_9"
       inkscape:label="#path25417" />
    <path
       inkscape:connector-curvature="0"
       style="fill:none;fill-opacity:1;stroke:#000000;stroke-opacity:1"
       d="m 437.71318,701.86151 0,-73.496 -29.7424,0 -29.7424,0 0,-3.13702 c 0,-2.53949 0.3434,-3.13702 1.8025,-3.13702 0.9914,0 1.8026,-0.40334 1.8026,-0.8963 0,-0.55484 4.8069,-0.89629 12.618,-0.89629 12.5716,0 12.618,-0.007 12.618,-2.06475 0,-3.43947 -4.4423,-11.18533 -8.2962,-14.46588 -4.3711,-3.72074 -10.3139,-5.87668 -16.199,-5.87668 l -4.3459,0 0,-20.16659 c 0,-12.84685 -0.3272,-20.16658 -0.9013,-20.16658 -0.5633,0 -0.9013,5.37775 -0.9013,14.34068 l 0,14.34068 -3.8305,-7.1e-4 c -5.4566,-8.9e-4 -13.8179,-4.21029 -18.5566,-9.34187 -4.3154,-4.67321 -6.8517,-9.72569 -7.7954,-15.52954 -1.6419,-10.09485 -2.2638,-1.41487 -2.2638,31.59432 l 0,35.40355 -10.3647,0 -10.3648,0 0,73.496 0,73.49607 57.2316,0 57.2316,0 0,-73.49607 z"
       id="wyng_b_7"
       inkscape:label="#path25385" />
    <path
       inkscape:connector-curvature="0"
       style="fill:none;fill-opacity:1;stroke:#000000;stroke-opacity:1"
       d="m 687.36898,701.86151 0,-73.496 -10.3648,0 -10.3647,0 0,-35.40355 c 0,-33.00919 -0.6219,-41.68917 -2.2638,-31.59432 -0.9437,5.80385 -3.48,10.85633 -7.7954,15.52954 -4.7387,5.13158 -13.0999,9.34088 -18.5566,9.34187 l -3.8305,7.1e-4 0,-14.34068 c 0,-8.96293 -0.338,-14.34068 -0.9013,-14.34068 -0.574,0 -0.9013,7.27959 -0.9013,20.04615 l 0,20.04616 -6.0908,0.43338 c -3.35,0.23836 -7.4003,1.10676 -9.0008,1.92978 -6.8498,3.52266 -12.1548,10.20332 -13.7946,17.37206 l -0.6664,2.91295 12.9738,0 c 8.0483,0 12.9737,0.34028 12.9737,0.89629 0,0.49296 0.8112,0.8963 1.8026,0.8963 1.4592,0 1.8025,0.59753 1.8025,3.13702 l 0,3.13702 -29.7423,0 -29.7424,0 0,73.496 0,73.49607 57.2315,0 57.2316,0 0,-73.49607 z"
       id="wyng_b_5"
       inkscape:label="#path25347" />
    <path
       inkscape:connector-curvature="0"
       style="fill:none;fill-opacity:1;stroke:#000000;stroke-opacity:1"
       d="m 61.877376,699.17263 0,-70.80712 -10.3647,0 -10.3648,0 0,-35.40355 c 0,-29.37854 -0.2101,-35.40356 -1.2347,-35.40356 -0.791,0 -1.3957,1.42018 -1.6827,3.95215 -1.4002,12.35401 -14.6156,24.72921 -26.4081,24.72921 l -3.1208003,0 0,-14.34068 c 0,-12.14975 -0.2064,-14.34068 -1.3519,-14.34068 -1.1616,0 -1.3519,2.83827 -1.3519,20.16658 l 0,20.16659 -4.7318,0.0682 c -9.4526,0.13623 -17.0009997,4.89402 -21.2824997,13.41473 -4.6148,9.1838 -4.8994,8.92438 9.7912,8.92438 7.8110997,0 12.6179997,0.34145 12.6179997,0.89629 0,0.49296 0.8111,0.8963 1.8025,0.8963 1.4593,0 1.8026,0.59753 1.8026,3.13702 l 0,3.13702 -29.2917997,0 -29.2917,0 0,70.80712 0,70.80715 57.2315997,0 57.2315003,0 0,-70.80715 z"
       id="wyng_b_13"
       inkscape:label="#path25327" />
    <path
       inkscape:connector-curvature="0"
       style="fill:none;fill-opacity:1;stroke:#000000;stroke-opacity:1"
       d="m 187.15598,699.17263 0,-70.80712 -29.2917,0 -29.2918,0 0,-3.13702 c 0,-2.53949 0.3434,-3.13702 1.8026,-3.13702 0.9914,0 1.8025,-0.40334 1.8025,-0.8963 0,-0.5549 4.8126,-0.89629 12.6353,-0.89629 l 12.6351,0 -0.5878,-2.4648 c -1.1434,-4.79499 -2.9161,-8.13626 -6.2824,-11.8418 -4.5025,-4.95611 -9.4459,-7.34358 -16.3457,-7.89436 l -5.6596,-0.45177 0,-20.04387 c 0,-17.21926 -0.1905,-20.04388 -1.3519,-20.04388 -1.1459,0 -1.3519,2.20488 -1.3519,14.46607 l 0,14.46608 -4.842,-0.49697 c -11.8793,-1.21926 -23.063104,-11.92612 -24.756804,-23.70086 -0.3273,-2.27538 -1.1019,-4.30506 -1.7213,-4.51038 -0.8881,-0.29439 -1.1262,7.12761 -1.1262,35.10493 l 0,35.47824 -10.3648,0 -10.3647,0 0,70.80712 0,70.80715 57.231504,0 57.2316,0 0,-70.80715 z"
       id="wyng_b_11"
       inkscape:label="#path25317" />
    <path
       inkscape:connector-curvature="0"
       style="fill:none;fill-opacity:1;stroke:#000000;stroke-opacity:1"
       d="m 812.64758,699.17263 0,-70.80712 -29.2918,0 -29.2917,0 0,-3.13702 c 0,-2.53949 0.3434,-3.13702 1.8025,-3.13702 0.9915,0 1.8026,-0.40334 1.8026,-0.8963 0,-0.55636 4.9628,-0.89629 13.0859,-0.89629 l 13.0857,0 -0.5877,-2.4648 c -1.1434,-4.79499 -2.9162,-8.13626 -6.2826,-11.8418 -4.6431,-5.11096 -9.4767,-7.38288 -16.8227,-7.90729 l -6.0837,-0.43428 0,-20.04616 c 0,-12.76656 -0.3273,-20.04615 -0.9013,-20.04615 -0.5637,0 -0.9013,5.41955 -0.9013,14.46607 l 0,14.46608 -4.8421,-0.49697 c -11.9092,-1.22233 -22.2001,-11.04262 -24.9541,-23.81279 -0.5482,-2.54232 -1.3688,-4.62239 -1.8235,-4.62239 -0.4874,0 -0.8265,14.53121 -0.8265,35.40356 l 0,35.40355 -10.8155,0 -10.8154,0 0,70.80712 0,70.80715 57.2316,0 57.2316,0 0,-70.80715 z"
       id="wyng_b_3"
       inkscape:label="#path25305" />
    <path
       inkscape:connector-curvature="0"
       style="fill:none;fill-opacity:1;stroke:#000000;stroke-opacity:1"
       d="m 851.40278,768.65638 c 35.9856,-4.8996 64.9999,-25.48687 81.0437,-57.50508 8.5118,-16.98669 10.8056,-28.89723 11.4987,-59.70625 l 0.5192,-23.07954 -8.2261,0 -8.2263,0 0,-35.45039 0,-35.4504 -4.6645,0.27091 -4.6645,0.27091 -0.9908,4.95449 c -2.4405,12.20334 -12.666,21.81849 -24.4947,23.03255 l -4.842,0.49697 0,-14.46608 0,-14.46607 -3.1545,0 -3.1545,0 0,18.374 0,18.37399 -3.8922,0 c -12.9303,0 -24.6235,9.44406 -27.5097,22.21815 l -0.8528,3.77434 14.3248,0 c 8.9489,0 14.3248,0.33637 14.3248,0.89629 0,0.49296 0.8111,0.8963 1.8025,0.8963 1.4592,0 1.8026,0.59753 1.8026,3.13702 l 0,3.13702 -29.2917,0 -29.2918,0 0,70.80712 0,70.80715 9.2382,-0.018 c 5.0809,-0.01 13.4967,-0.5973 18.7016,-1.306 z"
       id="wyng_b_1"
       inkscape:label="#path25295" />
    <path
       inkscape:connector-curvature="0"
       style="fill:none;fill-opacity:1;stroke:#000000;stroke-opacity:1"
       d="m -493.31395,471.61021 c 0,-16.15529 -0.0931,-15.96383 7.00008,-14.383 11.99899,2.67413 21.72471,12.92778 23.33347,24.60001 1.46421,10.6233 2.11267,0.99235 2.11267,-31.37578 l 0,-35.40356 10.81542,0 10.81542,0 0,-70.80713 0,-70.80712 -57.23155,0 -57.23158,0 0,70.80712 0,70.80713 29.29175,0 29.29175,0 0,3.02498 c 0,2.67096 -0.32963,3.09055 -2.81651,3.58518 -1.54908,0.30809 -8.03833,0.56018 -14.42056,0.56018 -11.56559,0 -11.60404,0.007 -11.60404,2.09757 0,3.5151 5.23215,12.79347 8.69589,15.42076 4.39724,3.33536 11.21481,5.78528 16.09912,5.78528 l 4.0461,0 0,20.16658 c 0,12.84685 0.32714,20.16659 0.90129,20.16659 0.56305,0 0.90128,-5.3458 0.90128,-14.24479 z"
       id="wyng_b_20"
       inkscape:label="#path24591" />
    <path
       inkscape:connector-curvature="0"
       style="fill:none;fill-opacity:1;stroke:#000000;stroke-opacity:1"
       d="m -405.02853,481.14946 c 1.50474,-7.00975 4.10665,-11.66917 9.1207,-16.33327 5.24277,-4.87682 11.07211,-7.6906 16.41751,-7.92461 l 3.794,-0.1661 0.2477,14.56476 c 0.2063,12.12892 0.47,14.56476 1.5772,14.56476 1.1323,0 1.3296,-2.974 1.3296,-20.0421 l 0,-20.0421 5.2477,-0.47322 c 11.5192,-1.03873 20.6841,-9.03852 23.1033,-20.16641 l 0.6333,-2.91295 -11.6756,0 c -6.4216,0 -12.9431,-0.25209 -14.4922,-0.56018 -2.4868,-0.49463 -2.8165,-0.91422 -2.8165,-3.58518 l 0,-3.02498 29.2918,0 29.2917,0 0,-70.80713 0,-70.80712 -57.2316,0 -57.23156,0 0,70.80712 0,70.80713 10.36478,0 10.36477,0 0,35.40356 c 0,20.87234 0.33928,35.40356 0.82668,35.40356 0.45455,0 1.28112,-2.1175 1.83672,-4.70554 z"
       id="wyng_b_18"
       inkscape:label="#path24577" />
    <path
       inkscape:connector-curvature="0"
       style="fill:none;fill-opacity:1;stroke:#000000;stroke-opacity:1"
       d="m -242.75682,471.57471 c 0,-16.3907 -0.1441,-16.13371 7.8635,-14.02359 6.0297,1.58893 9.9049,3.99795 14.6281,9.09364 4.157,4.48485 5.8652,7.91327 7.3323,14.71614 0.5331,2.47175 1.3411,4.4941 1.7958,4.4941 0.4873,0 0.8266,-14.53122 0.8266,-35.40356 l 0,-35.40356 10.8154,0 10.8154,0 0,-70.80713 0,-70.80712 -57.2316,0 -57.2316,0 0,70.80712 0,70.80713 29.2918,0 29.2917,0 0,3.02498 c 0,2.67096 -0.3295,3.09055 -2.8165,3.58518 -1.549,0.30809 -8.198,0.56018 -14.7753,0.56018 l -11.9589,0 0.8567,3.80924 c 2.4453,10.87138 11.3809,18.35775 23.0204,19.28687 l 5.6736,0.45291 0,20.04387 c 0,12.76506 0.3274,20.04389 0.9013,20.04389 0.5632,0 0.9013,-5.35763 0.9013,-14.28029 z"
       id="wyng_b_16"
       inkscape:label="#path24567" />
    <path
       inkscape:connector-curvature="0"
       style="fill:none;fill-opacity:1;stroke:#000000;stroke-opacity:1"
       d="m 7.8003757,471.61021 c 0,-16.12954 -0.081,-15.96106 6.9045003,-14.4043 9.0539,2.0178 16.1735,7.51644 20.1607,15.57087 1.5511,3.13339 3.0443,7.35782 3.3181,9.38764 0.2738,2.02981 0.8499,3.69058 1.2803,3.69058 0.4305,0 0.7826,-15.93161 0.7826,-35.40356 l 0,-35.40356 10.8154,0 10.8154,0 0,-70.80713 0,-70.80712 -57.2315003,0 -57.2315997,0 0,70.80712 0,70.80713 29.2917,0 29.2917997,0 0,3.02498 c 0,2.67096 -0.3296,3.09055 -2.8165,3.58518 -1.549,0.30809 -8.0383,0.56018 -14.4205997,0.56018 l -11.604,0 0,2.26951 c 0,1.24824 0.6026,3.7038 1.3392,5.45681 3.6673,8.72856 11.9516997,14.58141 21.74599971,15.36324 l 5.75589999,0.45946 0,20.04387 c 0,12.76506 0.3274,20.04389 0.9013,20.04389 0.5631,0 0.9013,-5.3458 0.9013,-14.24479 z"
       id="wyng_b_14"
       inkscape:label="#path24555" />
    <path
       inkscape:connector-curvature="0"
       style="fill:none;fill-opacity:1;stroke:#000000;stroke-opacity:1"
       d="m 96.252976,481.23767 c 0.8206,-5.70489 4.461004,-12.32861 9.126004,-16.60486 4.9192,-4.50915 6.3744,-5.30156 12.7877,-6.96273 7.9007,-2.0465 7.702,-2.40631 7.702,13.94013 0,12.06449 0.2068,14.24479 1.3519,14.24479 1.1614,0 1.3519,-2.82443 1.3519,-20.0421 l 0,-20.0421 5.4206,-0.48881 c 11.4437,-1.03192 20.5051,-8.99484 22.9304,-20.15082 l 0.6333,-2.91295 -11.6756,0 c -6.4216,0 -12.9431,-0.25209 -14.4922,-0.56018 -2.4868,-0.49463 -2.8165,-0.91422 -2.8165,-3.58518 l 0,-3.02498 29.2918,0 29.2917,0 0,-70.80713 0,-70.80712 -57.2316,0 -57.231504,0 0,70.80712 0,70.80713 10.3647,0 10.3648,0 0,35.47824 c 0,27.97732 0.2381,35.39932 1.1262,35.10493 0.6194,-0.20532 1.3864,-2.18233 1.7044,-4.39338 z"
       id="wyng_b_12"
       inkscape:label="#path24539" />
    <path
       inkscape:connector-curvature="0"
       style="fill:none;fill-opacity:1;stroke:#000000;stroke-opacity:1"
       d="m 258.35748,471.57471 c 0,-16.3907 -0.1441,-16.13371 7.8635,-14.02359 6.0297,1.58893 9.9049,3.99795 14.6281,9.09364 4.157,4.48485 5.8652,7.91327 7.3323,14.71614 0.5331,2.47175 1.3411,4.4941 1.7958,4.4941 0.4873,0 0.8266,-14.53122 0.8266,-35.40356 l 0,-35.40356 10.8154,0 10.8154,0 0,-70.80713 0,-70.80712 -57.2316,0 -57.2316,0 0,70.80712 0,70.80713 29.2918,0 29.2917,0 0,3.02498 c 0,2.67096 -0.3295,3.09055 -2.8165,3.58518 -1.5491,0.30809 -8.2733,0.56018 -14.9428,0.56018 l -12.1263,0 0.6333,2.91295 c 2.4733,11.37581 11.5893,19.22611 23.423,20.17075 l 5.8293,0.46532 0,20.04387 c 0,12.76506 0.3273,20.04389 0.9013,20.04389 0.5632,0 0.9013,-5.35763 0.9013,-14.28029 z"
       id="wyng_b_10"
       inkscape:label="#path24529" />
    <path
       inkscape:connector-curvature="0"
       style="fill:none;fill-opacity:1;stroke:#000000;stroke-opacity:1"
       d="m 346.15268,482.03963 c 1.8094,-11.99896 11.3769,-22.16117 23.3832,-24.83696 6.9687,-1.55306 6.8899,-1.71796 6.8899,14.40757 0,8.89899 0.3383,14.24479 0.9013,14.24479 0.574,0 0.9013,-7.27883 0.9013,-20.04389 l 0,-20.04387 5.7558,-0.45946 c 9.7943,-0.78183 18.0788,-6.63468 21.7462,-15.36324 0.7364,-1.75301 1.3391,-4.20857 1.3391,-5.45681 l 0,-2.26951 -11.6041,0 c -6.3822,0 -12.8714,-0.25209 -14.4205,-0.56019 -2.487,-0.49462 -2.8165,-0.91421 -2.8165,-3.58517 l 0,-3.02498 29.2917,0 29.2918,0 0,-70.80713 0,-70.80712 -56.781,0 -56.7809,0 0,70.80712 0,70.80713 10.3648,0 10.3647,0 0,35.40356 c 0,32.56325 0.6348,41.7903 2.1732,31.58816 z"
       id="wyng_b_8"
       inkscape:label="#path24489" />
    <path
       inkscape:connector-curvature="0"
       style="fill:none;fill-opacity:1;stroke:#000000;stroke-opacity:1"
       d="m 634.19318,471.61024 c 0,-16.12553 -0.079,-15.96063 6.8898,-14.40757 12.0537,2.68631 21.3381,12.58475 23.3021,24.84311 1.6273,10.15686 2.2544,1.36773 2.2544,-31.59431 l 0,-35.40356 10.3647,0 10.3648,0 0,-70.80713 0,-70.80712 -56.7809,0 -56.781,0 0,70.80712 0,70.80713 29.2918,0 29.2917,0 0,3.02498 c 0,2.67096 -0.3295,3.09055 -2.8165,3.58517 -1.549,0.3081 -8.198,0.56019 -14.7753,0.56019 l -11.959,0 0.8568,3.80924 c 2.4453,10.87138 11.3808,18.35775 23.0203,19.28687 l 5.6737,0.45291 0,20.04387 c 0,12.76506 0.3273,20.04389 0.9013,20.04389 0.563,0 0.9013,-5.3458 0.9013,-14.24479 z"
       id="wyng_b_6"
       inkscape:label="#path24475" />
    <path
       inkscape:connector-curvature="0"
       style="fill:none;fill-opacity:1;stroke:#000000;stroke-opacity:1"
       d="m 722.43758,481.36093 c 1.4671,-6.80287 3.1753,-10.23129 7.3324,-14.71614 4.7231,-5.09569 8.5983,-7.50471 14.6281,-9.09364 8.0075,-2.11012 7.8634,-2.36711 7.8634,14.02359 0,8.92266 0.3382,14.28029 0.9013,14.28029 0.5741,0 0.9013,-7.31974 0.9013,-20.16659 l 0,-20.16658 3.9523,0 c 12.0612,0 22.7376,-8.60465 25.3,-20.39066 l 0.6333,-2.91295 -12.1263,0 c -6.6695,0 -13.3937,-0.25209 -14.9428,-0.56019 -2.487,-0.49462 -2.8165,-0.91421 -2.8165,-3.58517 l 0,-3.02498 29.2917,0 29.2918,0 0,-70.80713 0,-70.80712 -57.2316,0 -57.2316,0 0,70.80712 0,70.80713 10.8154,0 10.8155,0 0,35.40356 c 0,20.87234 0.3391,35.40356 0.8265,35.40356 0.4547,0 1.2628,-2.02235 1.7958,-4.4941 z"
       id="wyng_b_4"
       inkscape:label="#path24457" />
    <path
       inkscape:connector-curvature="0"
       style="fill:none;fill-opacity:1;stroke:#000000;stroke-opacity:1"
       d="m 888.35548,471.57474 c 0,-16.7101 -0.2054,-16.40949 9.2326,-13.51055 10.3461,3.17789 18.9185,12.95201 20.3899,23.24807 l 0.5852,4.09462 4.7244,0.27091 4.7244,0.27091 0,-35.4504 0,-35.45039 10.8154,0 10.8155,0 0,-70.80713 0,-70.80712 -63.09,0 -63.0899,0 0,70.80712 0,70.80713 29.2918,0 29.2917,0 0,3.02498 c 0,2.67096 -0.3296,3.09055 -2.8165,3.58517 -1.549,0.3081 -8.8394,0.56019 -16.2006,0.56019 l -13.3841,0 0.5393,2.91295 c 1.5917,8.59889 8.8595,17.91571 16.5383,21.20071 2.4415,1.04452 6.8882,2.15369 9.8813,2.46481 l 5.4423,0.56567 0,18.24632 0,18.24632 3.1545,0 3.1545,0 0,-14.28029 z"
       id="wyng_b_2"
       inkscape:label="#path24445" />
  </g>
</svg>
