<?xml version="1.0" encoding="UTF-8" standalone="no"?>
<!-- Created with Inkscape (http://www.inkscape.org/) -->

<svg
   xmlns:dc="http://purl.org/dc/elements/1.1/"
   xmlns:cc="http://creativecommons.org/ns#"
   xmlns:rdf="http://www.w3.org/1999/02/22-rdf-syntax-ns#"
   xmlns:svg="http://www.w3.org/2000/svg"
   xmlns="http://www.w3.org/2000/svg"
   xmlns:sodipodi="http://sodipodi.sourceforge.net/DTD/sodipodi-0.dtd"
   xmlns:inkscape="http://www.inkscape.org/namespaces/inkscape"
   width="349.88928mm"
   height="145.14191mm"
   viewBox="0 0 1239.7652 514.28235"
   id="svg22262"
   version="1.1"
   inkscape:version="0.91 r13725"
   sodipodi:docname="wyng-floor-a_rooms.svg">
  <defs
     id="defs22264" />
  <sodipodi:namedview
     id="base"
     pagecolor="#ffffff"
     bordercolor="#666666"
     borderopacity="1.0"
     inkscape:pageopacity="0.0"
     inkscape:pageshadow="2"
     inkscape:zoom="0.49497475"
     inkscape:cx="257.75175"
     inkscape:cy="178.3727"
     inkscape:document-units="px"
     inkscape:current-layer="layer1"
     showgrid="false"
     fit-margin-top="0"
     fit-margin-left="0"
     fit-margin-right="0"
     fit-margin-bottom="0"
     inkscape:window-width="1600"
     inkscape:window-height="837"
     inkscape:window-x="-8"
     inkscape:window-y="-8"
     inkscape:window-maximized="1" />
  <metadata
     id="metadata22267">
    <rdf:RDF>
      <cc:Work
         rdf:about="">
        <dc:format>image/svg+xml</dc:format>
        <dc:type
           rdf:resource="http://purl.org/dc/dcmitype/StillImage" />
        <dc:title></dc:title>
      </cc:Work>
    </rdf:RDF>
  </metadata>
  <g
     inkscape:label="Layer 1"
     inkscape:groupmode="layer"
     id="layer1"
     transform="translate(10.940823,-278.66767)">
    <path
       inkscape:connector-curvature="0"
       style="fill:none;fill-opacity:1;stroke:#000000;stroke-opacity:1"
       d="m 102.06299,712.08803 0,-80.86216 -10.645284,0 -10.64527,0 -0.1676,-35.17487 c -0.0927,-19.43818 -0.71658,-32.90179 -1.39463,-30.09391 -2.92054,12.09395 -15.00054,23.22063 -25.21013,23.22063 -4.168,0 -4.22338,-0.16461 -4.76289,-14.15086 -0.47791,-12.39013 -0.58776,-11.68584 -0.88261,5.66035 l -0.33678,19.81119 -4.97846,0 c -10.5021,0 -21.20999,8.29684 -23.78541,18.42979 l -1.07045,4.21148 12.3266,0 c 14.45573,0 17.50772,0.87601 17.50772,5.02476 0,2.89054 -1.6472,3.06144 -29.47923,3.06144 l -29.47922,0 0,80.86216 0,80.862 56.50186,0 56.501834,0 0,-80.862 z"
       id="wyng_a_15"
       inkscape:label="#path16941" />
    <path
       inkscape:connector-curvature="0"
       style="fill:none;fill-opacity:1;stroke:#000000;stroke-opacity:1"
       d="m 228.16856,712.08803 0,-80.86216 -29.47923,0 c -27.83205,0 -29.47922,-0.17072 -29.47922,-3.06144 0,-4.14516 3.05262,-5.02476 17.44053,-5.02476 11.93697,0 12.23141,-0.0951 11.19521,-3.63861 -2.7822,-9.51323 -11.83945,-17.20388 -21.81718,-18.52543 l -6.81856,-0.90313 -0.33679,-19.59822 c -0.29878,-17.387 -0.39838,-18.00163 -0.88264,-5.44742 -0.53514,13.87375 -0.62605,14.15086 -4.64166,14.15086 -5.65428,0 -16.06341,-5.50728 -20.18229,-10.67807 -1.88361,-2.36462 -4.34847,-7.2973 -5.47746,-10.9615 -1.81312,-5.88448 -2.10426,-2.55616 -2.49407,28.51285 l -0.44139,35.17487 -10.61334,0 -10.61334,0 0,80.86216 0,80.862 57.32071,0 57.32072,0 0,-80.862 z"
       id="wyng_a_13"
       inkscape:label="#path16939" />
    <path
       inkscape:connector-curvature="0"
       style="fill:none;fill-opacity:1;stroke:#000000;stroke-opacity:1"
       d="m 352.63637,712.08803 0,-80.86216 -10.64528,0 -10.64527,0 -0.10955,-35.17487 c -0.10021,-32.17823 -0.29985,-34.57246 -2.34333,-28.10262 -3.73301,11.81903 -15.32665,21.22934 -26.15484,21.22934 -3.64753,0 -4.14693,0.68164 -4.14693,5.66034 0,5.30733 -0.33196,5.66049 -5.32264,5.66285 -10.68583,0.005 -24.15659,10.95915 -24.15659,19.64345 0,2.61759 1.39408,2.99818 11.0547,3.01742 14.17613,0.0287 18.42453,1.18542 18.42453,5.01829 0,2.87023 -1.70035,3.0458 -29.47923,3.0458 l -29.47921,0 0,80.86216 0,80.862 56.50183,0 56.50183,0 0,-80.862 z"
       id="wyng_a_11"
       inkscape:label="#path16937" />
    <path
       inkscape:connector-curvature="0"
       style="fill:none;fill-opacity:1;stroke:#000000;stroke-opacity:1"
       d="m 853.78319,704.00183 0,-72.77596 -10.6453,0 -10.6453,0 -0.05,-35.17485 -0.05,-35.17496 -3.6346,8.74285 c -4.4182,10.62795 -12.8089,17.83765 -22.2084,19.0826 l -6.6775,0.88442 -0.5489,-14.35494 c -0.4903,-12.82325 -0.5848,-12.24106 -0.8856,5.45625 l -0.3368,19.8112 -4.147,0 c -10.0274,0 -21.7397,9.22174 -24.1346,19.00262 -0.8625,3.52235 -0.5075,3.63861 11.1047,3.63861 14.1218,0 17.1769,0.89379 17.1769,5.02476 0,2.88714 -1.6318,3.06144 -28.6604,3.06144 l -28.6604,0 0,72.77596 0,72.7758 56.5019,0 56.5018,0 0,-72.7758 z"
       id="wyng_a_5"
       inkscape:label="#path16731" />
    <path
       inkscape:connector-curvature="0"
       style="fill:none;fill-opacity:1;stroke:#000000;stroke-opacity:1"
       d="m 978.25099,704.00183 0,-72.77596 -29.4793,0 c -27.7788,0 -29.4791,-0.1761 -29.4791,-3.0458 0,-3.83287 4.2483,-4.9899 18.4244,-5.01829 12.8037,-0.0253 13.8311,-1.70547 7.0604,-11.54474 -4.5136,-6.55927 -12.883,-11.1186 -20.4097,-11.1186 -4.7083,0 -5.0751,-0.40911 -5.0751,-5.66035 0,-5.2571 -0.3633,-5.66033 -5.0997,-5.66033 -11.0597,0 -23.0654,-10.68415 -26.0928,-23.22063 -0.678,-2.80788 -1.302,10.65573 -1.3946,30.09389 l -0.1676,35.17485 -10.6453,0 -10.6452,0 0,72.77596 0,72.7758 56.5018,0 56.5018,0 0,-72.7758 z"
       id="wyng_a_3"
       inkscape:label="#path16729" />
    <path
       inkscape:connector-curvature="0"
       style="fill:none;fill-opacity:1;stroke:#000000;stroke-opacity:1"
       d="m 1104.3565,704.00183 0,-72.77596 -29.4791,0 c -27.8322,0 -29.4794,-0.17072 -29.4794,-3.06144 0,-4.14516 3.0527,-5.02476 17.4406,-5.02476 11.937,0 12.2315,-0.0951 11.1952,-3.63861 -2.7822,-9.51319 -11.8394,-17.20384 -21.8171,-18.52541 l -6.8187,-0.90311 -0.3367,-19.59823 c -0.2988,-17.387 -0.3983,-18.00164 -0.8826,-5.44741 -0.5352,13.87375 -0.6262,14.15086 -4.6418,14.15086 -10.4186,0 -21.9001,-9.91267 -25.8101,-22.28347 -1.5968,-5.05169 -1.9731,-0.36907 -2.3436,29.15673 l -0.4415,35.17485 -9.7943,0 -9.79461,0 0,72.77596 0,72.7758 56.50191,0 56.5018,0 0,-72.7758 z"
       id="wyng_a_2"
       inkscape:label="#path16727" />
    <path
       inkscape:connector-curvature="0"
       style="fill:none;fill-opacity:1;stroke:#000000;stroke-opacity:1"
       d="m 1228.8243,704.00183 0,-72.77596 -10.6453,0 -10.645,0 -0.1101,-35.17485 c -0.098,-32.17821 -0.2998,-34.57245 -2.3433,-28.10261 -3.7331,11.81904 -15.3267,21.22935 -26.155,21.22935 -3.6475,0 -4.1469,0.68164 -4.1469,5.66033 0,5.31341 -0.3276,5.66035 -5.3482,5.66035 -10.4057,0 -24.131,11.17425 -24.131,19.64592 0,2.61759 1.3941,2.99818 11.0548,3.01742 14.176,0.0287 18.4244,1.18542 18.4244,5.01829 0,2.87023 -1.7003,3.0458 -29.4792,3.0458 l -29.4792,0 0,72.77596 0,72.7758 56.5019,0 56.5018,0 0,-72.7758 z"
       id="wyng_a_1"
       inkscape:label="#path16725" />
    <path
       inkscape:connector-curvature="0"
       style="fill:none;fill-opacity:1;stroke:#000000;stroke-opacity:1"
       d="m 603.20979,701.57603 0,-70.35016 -10.6453,0 -10.6453,0 -0.1095,-35.17485 c -0.1002,-32.17821 -0.2999,-34.57245 -2.34333,-28.10261 -3.72339,11.78843 -15.32635,21.22935 -26.09111,21.22935 -3.99972,0 -4.09433,-0.28923 -4.62904,-14.15086 -0.48425,-12.55423 -0.58384,-11.93959 -0.88261,5.44741 l -0.33678,19.59823 -6.61333,0.87594 c -8.21866,1.08855 -13.88726,4.66206 -18.02476,11.36282 -5.79261,9.3813 -4.70648,10.82837 8.12678,10.82837 13.45066,0 16.51131,0.93153 16.51131,5.02476 0,2.88714 -1.63174,3.06144 -28.66036,3.06144 l -28.66036,0 0,70.35016 0,70.3498 56.50184,0 56.50185,0 0,-70.3498 z"
       id="path16717" />
    <path
       inkscape:connector-curvature="0"
       style="fill:none;fill-opacity:1;stroke:#000000;stroke-opacity:1"
       d="m 729.31529,701.57603 0,-70.35016 -29.4792,0 c -28.2929,0 -29.4792,-0.12939 -29.4792,-3.20358 0,-3.80968 3.1561,-4.7123 18.4621,-5.27992 l 11.0923,-0.41114 -3.7225,-7.18306 c -4.5943,-8.86512 -10.1373,-12.99687 -19.0133,-14.17252 l -6.8186,-0.90311 -0.3368,-19.59823 c -0.2987,-17.387 -0.3983,-18.00164 -0.8826,-5.44741 -0.5347,13.86163 -0.6293,14.15086 -4.629,14.15086 -10.7986,0 -22.4737,-9.82951 -26.371,-22.20221 -1.6073,-5.10276 -1.9419,-0.35141 -2.0472,29.07547 l -0.1259,35.17485 -10.6452,0 -10.6453,0 0,70.35016 0,70.3498 57.3207,0 57.3207,0 0,-70.3498 z"
       id="wyng_a_9"
       inkscape:label="#path16715" />
    <path
       inkscape:connector-curvature="0"
       style="fill:none;fill-opacity:1;stroke:#000000;stroke-opacity:1"
       d="m 51.110176,459.79853 c 2.99846,0 12.75868,3.93052 16.99444,6.84382 4.88128,3.35728 9.22281,10.46171 11.13631,18.22341 0.65789,2.66842 1.27156,-10.97702 1.36377,-30.32327 l 0.16758,-35.17495 10.64529,0 10.645264,0 0,-70.34996 0,-70.34991 -56.501834,0 -56.50185,0 0,70.34991 0,70.34996 29.47923,0 c 27.83203,0 29.47922,0.17105 29.47922,3.06143 0,4.14884 -3.052,5.02475 -17.50771,5.02475 l -12.32661,0 1.05412,4.44743 c 1.73998,7.3412 12.4414,16.14169 21.20664,17.43966 l 7.57356,1.12153 0.33991,19.62757 c 0.32222,18.60789 0.36795,18.85038 0.88031,4.66809 0.29722,-8.22771 1.13978,-14.95947 1.87231,-14.95947 z"
       id="wyng_a_16"
       inkscape:label="#path16485" />
    <path
       inkscape:connector-curvature="0"
       style="fill:none;fill-opacity:1;stroke:#000000;stroke-opacity:1"
       d="m 144.98141,469.93257 c 4.47672,-4.73346 10.03731,-7.72155 17.20522,-9.24548 l 5.25967,-1.11824 0.54195,15.07432 c 0.51887,14.43191 0.55645,14.23775 0.88186,-4.55691 l 0.33991,-19.63121 6.08489,-1.12726 c 11.61293,-2.1513 19.40104,-8.47141 22.47095,-18.23527 1.11622,-3.5501 0.84532,-3.6388 -11.11531,-3.6388 -14.38793,0 -17.44053,-0.87947 -17.44053,-5.02475 0,-2.89039 1.64718,-3.06143 29.47921,-3.06143 l 29.47923,0 0,-70.34996 0,-70.34991 -57.32072,0 -57.3207,0 0,70.34991 0,70.34996 10.64526,0 10.6453,0 0.0766,35.17495 0.0765,35.17499 3.12682,-7.90626 c 1.71977,-4.34845 4.81747,-9.69382 6.88378,-11.87865 z"
       id="wyng_a_14"
       inkscape:label="#path16479" />
    <path
       inkscape:connector-curvature="0"
       style="fill:none;fill-opacity:1;stroke:#000000;stroke-opacity:1"
       d="m 342.02294,419.36754 10.61335,0 0,-70.34996 0,-70.34991 -56.50183,0 -56.50185,0 0,70.34991 0,70.34996 29.47921,0 c 27.77888,0 29.47922,0.17573 29.47922,3.04583 0,3.83284 -4.24839,4.98998 -18.4245,5.0183 -12.43316,0.025 -13.70723,1.67713 -7.94647,10.30561 4.22913,6.33442 11.06861,10.45906 19.38546,11.69063 6.36684,0.94283 6.98551,1.44786 6.98551,5.70253 0,3.36161 0.80214,4.6725 2.86604,4.68389 1.57633,0.009 6.66526,1.7626 11.30877,3.89763 8.85184,4.06991 16.52399,13.86256 17.31793,22.10449 0.20669,2.14557 0.58956,-11.92771 0.85082,-31.27396 l 0.475,-35.17495 10.61334,0 z"
       id="wyng_a_12"
       inkscape:label="#path16477" />
    <path
       inkscape:connector-curvature="0"
       style="fill:none;fill-opacity:1;stroke:#000000;stroke-opacity:1"
       d="m 552.09194,459.81433 c 5.40997,0.0303 19.34876,7.65551 22.39958,12.25334 1.69483,2.55426 4.01008,7.57037 5.14499,11.14697 1.80408,5.68522 2.07728,2.08016 2.17308,-28.67215 l 0.1095,-35.17495 10.6453,0 10.6453,0 0,-70.34996 0,-70.34991 -56.50188,0 -56.50184,0 0,70.34991 0,70.34996 28.66036,0 c 27.02861,0 28.66035,0.1743 28.66035,3.06143 0,4.09333 -3.06063,5.02475 -16.51129,5.02475 -9.70295,0 -11.32863,0.4065 -11.31942,2.83018 0.0291,7.64159 10.94892,17.27903 21.58953,19.05425 l 6.24118,1.04124 0.3399,19.66904 c 0.32147,18.60134 0.36925,18.85698 0.88032,4.70957 0.46401,-12.8439 0.93706,-14.95724 3.34503,-14.94367 z"
       id="wyng_a_10"
       inkscape:label="#path16473" />
    <path
       inkscape:connector-curvature="0"
       style="fill:none;fill-opacity:1;stroke:#000000;stroke-opacity:1"
       d="m 643.03599,472.60417 c 3.1443,-4.73875 12.6739,-10.34268 20.2974,-11.93604 l 5.2597,-1.09928 0.5419,15.07432 c 0.5189,14.43191 0.5565,14.23775 0.8819,-4.55691 l 0.3399,-19.63121 6.0849,-1.12726 c 8.9876,-1.66496 14.9526,-5.21432 18.5474,-11.03622 5.7988,-9.39124 4.7148,-10.83785 -8.121,-10.83785 -13.4506,0 -16.5113,-0.93142 -16.5113,-5.02475 0,-2.88713 1.6318,-3.06143 28.6604,-3.06143 l 28.6603,0 0,-70.34996 0,-70.34991 -56.5018,0 -56.5019,0 0,70.34991 0,70.34996 10.6453,0 10.6453,0 0.1095,35.17495 c 0.096,30.75231 0.369,34.35737 2.1731,28.67215 1.1349,-3.5766 3.29,-8.35127 4.789,-10.61047 z"
       id="wyng_a_8"
       inkscape:label="#path16467" />
    <path
       inkscape:connector-curvature="0"
       style="fill:none;fill-opacity:1;stroke:#000000;stroke-opacity:1"
       d="m 805.12349,460.68709 c 12.075,2.56724 21.3822,10.76949 24.9161,21.95803 2.0435,6.46982 2.2432,4.07557 2.3434,-28.10263 l 0.1095,-35.17495 10.6453,0 10.6453,0 0,-70.34996 0,-70.34991 -57.3207,0 -57.3208,0 0,70.34991 0,70.34996 29.4793,0 c 28.2929,0 29.4792,0.12883 29.4792,3.20367 0,3.80293 -3.1552,4.71067 -18.352,5.27982 l -10.9822,0.41132 3.1077,6.83985 c 3.4877,7.67609 10.4546,12.64588 19.9477,14.22967 l 6.2788,1.04752 0.3399,19.66904 c 0.3247,18.78898 0.3641,18.99457 0.8819,4.59474 l 0.5419,-15.07432 5.2597,1.11824 z"
       id="wyng_a_6"
       inkscape:label="#path16465" />
    <path
       inkscape:connector-curvature="0"
       style="fill:none;fill-opacity:1;stroke:#000000;stroke-opacity:1"
       d="m 891.97119,474.88552 c 3.4678,-6.57276 10.1266,-11.21653 19.7148,-13.74887 6.651,-1.75661 7.6065,-2.55318 7.6065,-6.34162 0,-3.91245 0.7345,-4.44146 7.5735,-5.45422 8.7653,-1.29797 19.4666,-10.09846 21.2066,-17.43966 l 1.0542,-4.44743 -11.2323,-0.0219 c -14.3534,-0.0284 -18.602,-1.17444 -18.602,-5.01836 0,-2.87015 1.7003,-3.04585 29.4791,-3.04585 l 29.4793,0 0,-70.34994 0,-70.34993 -56.5018,0 -56.5019,0 0,70.34993 0,70.34994 10.6453,0 10.6453,0 0.1676,35.17497 c 0.092,19.34623 0.7059,32.99169 1.3637,30.32326 0.6579,-2.66845 2.4138,-7.15955 3.902,-9.98024 z"
       id="wyng_a_4"
       inkscape:label="#path16459" />
  </g>
</svg>
