<?xml version="1.0" encoding="UTF-8" standalone="no"?>
<!-- Created with Inkscape (http://www.inkscape.org/) -->

<svg
   xmlns:dc="http://purl.org/dc/elements/1.1/"
   xmlns:cc="http://creativecommons.org/ns#"
   xmlns:rdf="http://www.w3.org/1999/02/22-rdf-syntax-ns#"
   xmlns:svg="http://www.w3.org/2000/svg"
   xmlns="http://www.w3.org/2000/svg"
   xmlns:sodipodi="http://sodipodi.sourceforge.net/DTD/sodipodi-0.dtd"
   xmlns:inkscape="http://www.inkscape.org/namespaces/inkscape"
   width="871.96674mm"
   height="435.53104mm"
   viewBox="0 0 3089.6459 1543.2202"
   id="svg8509"
   version="1.1"
   inkscape:version="0.91 r13725"
   sodipodi:docname="boho-c-floor_rooms.svg">
  <defs
     id="defs8511" />
  <sodipodi:namedview
     id="base"
     pagecolor="#ffffff"
     bordercolor="#666666"
     borderopacity="1.0"
     inkscape:pageopacity="0.0"
     inkscape:pageshadow="2"
     inkscape:zoom="0.35"
     inkscape:cx="1049.823"
     inkscape:cy="540.18152"
     inkscape:document-units="px"
     inkscape:current-layer="layer1"
     showgrid="false"
     fit-margin-top="0"
     fit-margin-left="0"
     fit-margin-right="0"
     fit-margin-bottom="0"
     inkscape:window-width="1600"
     inkscape:window-height="837"
     inkscape:window-x="-8"
     inkscape:window-y="-8"
     inkscape:window-maximized="1" />
  <metadata
     id="metadata8514">
    <rdf:RDF>
      <cc:Work
         rdf:about="">
        <dc:format>image/svg+xml</dc:format>
        <dc:type
           rdf:resource="http://purl.org/dc/dcmitype/StillImage" />
        <dc:title></dc:title>
      </cc:Work>
    </rdf:RDF>
  </metadata>
  <g
     inkscape:label="Layer 1"
     inkscape:groupmode="layer"
     id="layer1"
     transform="translate(1096.2516,470.67643)">
    <path
       inkscape:connector-curvature="0"
       style="fill:none;fill-opacity:1;stroke:#000000;stroke-opacity:1"
       d="m -1078.152,469.18904 c -8.5879,0 -15.6376,0.4218 -15.666,0.9375 -1.066,19.4037 2.0573,388.50313 3.3047,390.52153 0.3539,0.5725 12.9158,1.041 27.916,1.041 20.6777,0 27.5957,0.3888 28.6055,1.6055 0.8998,1.0843 1.1743,13.1576 0.8438,37.2168 -0.2691,19.5874 -0.021,36.3745 0.5527,37.3027 0.8539,1.3816 8.4172,1.5748 41.72265,1.0684 28.015,-0.426 41.09636,-0.2024 42.01758,0.7187 0.73573,0.7358 1.33789,4.7873 1.33789,9.0039 0,4.2167 0.39426,8.0623 0.87695,8.5449 1.02195,1.022 198.90506,0.7073 228.49805,-0.3632 l 20,-0.7227 0.36523,-8.916 c 0.36191,-8.8575 0.38988,-8.9217 4.21875,-9.6875 2.11994,-0.424 10.81446,-0.7715 19.32227,-0.7715 l 15.46875,0 0.0781,-12.1875 c 0.13452,-21.1222 -0.21814,-109.9025 -0.67578,-170.3125 -0.24219,-31.9688 -0.4885,-86.9532 -0.54687,-122.1875 l -0.10545,-64.0625 -7.96484,0 c -4.38059,0 -13.36539,-1.3704 -19.9668,-3.0449 -38.93495,-9.8767 -69.65945,-41.55803 -76.47266,-78.85743 -1.12741,-6.172 -2.29476,-12.4884 -2.5957,-14.0352 l -0.54688,-2.8125 -134.30859,0 c -133.02785,0 -134.31935,0.024 -135.64455,2.5 -1.1714,2.1888 -2.6181,2.5 -11.6191,2.5 -8.9266,0 -10.4842,-0.3293 -11.8399,-2.5 -1.4259,-2.2833 -2.9151,-2.5 -17.1758,-2.5 z m 387.50982,493.12503 -87.5,0.4375 c -141.36384,0.7068 -175.28102,1.0769 -176.66406,1.9316 -1.47794,0.9135 -2.07764,105.97123 -0.61328,107.43563 0.47623,0.4762 23.40067,0.5659 50.94531,0.1992 27.54463,-0.3669 86.58094,-0.9046 131.19141,-1.1953 44.61045,-0.2906 81.60095,-1.0188 82.20117,-1.6191 0.60021,-0.6001 0.94506,-24.9639 0.76562,-54.1407 l -0.32617,-53.04883 z"
       id="boho_c_9"
       inkscape:label="#path5553" />
    <path
       inkscape:connector-curvature="0"
       style="fill:none;fill-opacity:1;stroke:#000000;stroke-opacity:1"
       d="m -495.79648,521.79064 c -29.47711,0.08 -54.52955,0.3925 -55.67187,0.6953 -1.43374,0.38 -2.35343,2.552 -2.9668,7.01173 -2.2996,16.7201 -9.60989,31.3081 -21.78906,43.4766 -13.57925,13.5674 -29.2842,20.8442 -48.15625,22.3125 l -9.99024,0.7773 0.33204,101.875 c 0.1827,56.0312 0.56459,118.75 0.8496,139.375 0.28501,20.625 0.55371,51.4169 0.59571,68.4258 l 0.0762,30.9238 59.0625,0.3262 59.0625,0.3242 0.37109,9.2461 0.3711,9.2461 105.2539,-0.7949 c 57.88972,-0.4372 114.11328,-0.8012 124.94138,-0.8086 l 19.6875,-0.014 0,-8.5977 c 0,-5.5745 0.5779,-9.0753 1.6426,-9.9589 0.934,-0.7752 8.3448,-1.5162 17.1875,-1.7168 l 15.5449,-0.3516 -0.3809,-120.625 c -0.6232,-197.5172 -1.4115,-289.16753 -2.498,-290.25393 -0.5635,-0.5635 -23.7708,-0.879 -51.5723,-0.6992 l -50.54877,0.3281 -0.625,48.12503 -0.625,48.125 -10.08008,-0.1211 c -17.46925,-0.2085 -40.26559,-9.0993 -56.54687,-22.0547 -19.92417,-15.8541 -36.49805,-45.8624 -36.49805,-66.084 0,-3.40273 -0.7107,-6.39933 -1.7168,-7.23433 -1.23352,-1.0238 -16.82537,-1.3843 -55.3125,-1.2793 z m 239.5293,437.12303 -127.1875,0.834 c -69.95312,0.4587 -128.73437,1.1272 -130.625,1.4863 l -3.4375,0.6543 -0.22266,20.8379 c -0.12275,11.461 -0.17829,23.93163 -0.12304,27.71293 0.0553,3.7812 0.1552,18.6142 0.22265,32.9629 l 0.12305,26.0898 50.9375,-0.7617 c 28.01562,-0.4192 80.46875,-0.8982 116.5625,-1.0625 36.09375,-0.1644 71.9531,-0.4868 79.6875,-0.7168 l 14.0625,-0.4179 0,-53.8106 0,-53.80863 z"
       id="boho_c_8"
       inkscape:label="#path5547" />
    <path
       inkscape:connector-curvature="0"
       style="fill:none;fill-opacity:1;stroke:#000000;stroke-opacity:1"
       d="m 745.19374,522.88634 c -11.3168,-0.098 -22.7021,0.2766 -23.2832,1.2168 -0.3955,0.64 -0.1733,40.71813 0.4942,89.06253 1.2684,91.8629 2.4587,212.2826 2.7422,277.2734 0.091,20.9687 0.4338,38.8281 0.7597,39.6875 0.4279,1.1283 4.6955,1.5625 15.3574,1.5625 8.1202,0 15.6528,0.3424 16.7403,0.7598 1.5319,0.5878 1.9765,2.6523 1.9765,9.166 0,4.6244 0.3781,8.7863 0.8399,9.248 0.4617,0.4617 55.4461,0.6948 122.1875,0.5196 l 121.34956,-0.3184 0.625,-9.375 0.625,-9.375 56.875,-0.625 56.875,-0.625 -0.4141,-26.25 c -0.2273,-14.4375 -0.6279,-35.25 -0.8906,-46.25 -0.2628,-11 -0.6136,-69.7813 -0.7812,-130.625 -0.1677,-60.8438 -0.5126,-131.8594 -0.7657,-157.8125 l -0.4609,-47.18753 -54.2813,0 -54.2812,0 0,26.91413 c 0,22.7686 -0.289,27.0261 -1.875,27.6347 -3.4368,1.3188 -16.87306,-1.8904 -25.35736,-6.0566 -10.5025,-5.1572 -20.8812,-15.4934 -25.8926,-25.7852 -2.0625,-4.2358 -4.0679,-7.7015 -4.457,-7.7031 -0.3891,0 -2.0185,3.1554 -3.6192,7.0176 -4.0187,9.696 -15.6458,21.8864 -25.4922,26.7265 -7.8725,3.8698 -21.8324,7.086 -25.1816,5.8008 -1.5802,-0.6063 -1.8784,-4.7044 -1.8945,-26.0722 -0.013,-13.9435 -0.4797,-26.07713 -1.043,-26.96493 -0.7417,-1.1693 -4.0955,-1.5138 -12.168,-1.25 l -11.1445,0.3633 -0.959,8.68953 c -5.1536,46.6722 -42.0268,82.5366 -88.9355,86.5019 l -9.4805,0.8008 -0.027,-14.8711 c -0.043,-23.5758 -1.3387,-78.46523 -1.8926,-80.18363 -0.3055,-0.9479 -11.5524,-1.5174 -22.8692,-1.6152 z m 186.0625,432.43753 c -74.3701,0.027 -173.3092,0.4809 -173.7578,1.0703 -0.9686,1.2725 0.7429,104.73733 1.7598,106.38283 0.926,1.4983 253.13416,0.4893 254.81046,-1.0195 0.9555,-0.8601 -1.069,-104.96943 -2.0605,-105.96103 -0.3522,-0.3521 -36.12986,-0.4889 -80.75196,-0.4726 z"
       id="boho_c_7"
       inkscape:label="#path5535" />
    <path
       inkscape:connector-curvature="0"
       style="fill:none;fill-opacity:1;stroke:#000000;stroke-opacity:1"
       d="m 1379.9828,522.84924 -12.1875,0.3574 -12.1875,0.3574 -0.8555,7.74803 c -5.0923,46.1644 -42.2162,82.4234 -89.2695,87.1875 -5.4773,0.5545 -7.9968,0.3198 -8.9434,-0.832 -0.8309,-1.0108 -1.3307,-11.5355 -1.3515,-28.4785 -0.019,-14.7812 -0.071,-35.7392 -0.1192,-46.5742 l -0.086,-19.70123 -57.8125,0.3262 -57.8125,0.3242 0.2051,27.50003 c 0.1138,15.125 0.6064,97.8125 1.0957,183.75 0.4892,85.9375 1.2411,165.25 1.6699,176.25 l 0.7793,20 17.5,0.334 c 20.3281,0.3882 20.625,0.5557 20.625,11.5722 0,3.879 0.3757,7.4286 0.834,7.8868 0.4583,0.4584 55.8645,0.832 123.125,0.832 l 122.291,0 0,-9.3613 0,-9.3633 57.6543,-0.3242 57.6523,-0.3262 -0.1621,-23.75 c -0.089,-13.0625 -0.4148,-78.0313 -0.7265,-144.375 -0.7517,-160.0745 -1.8945,-239.05313 -3.4785,-240.62503 -0.8458,-0.8396 -1.0087,10.91733 -0.4961,35.80273 0.6037,29.3092 0.4289,37.3291 -0.836,38.3789 -1.1066,0.9184 -4.2753,0.9482 -10.291,0.098 -11.9712,-1.6932 -16.2536,-2.9814 -24.9414,-7.5 -17.8591,-9.2888 -27.8588,-19.5472 -36.5117,-37.4551 -3.2931,-6.8154 -6.3499,-12.4042 -6.791,-12.4199 -0.4411,-0.016 -1.1692,1.4375 -1.6192,3.2305 -0.4501,1.7931 -2.8127,7.4066 -5.25,12.4726 -10.9868,22.8371 -34.6474,38.9882 -62.1445,42.4238 -9.4024,1.1748 -9.8138,0.1827 -9.543,-22.9472 0.1174,-10.0832 0.1626,-26.0883 0.1,-35.5664 l -0.1152,-17.23243 z m -146.0469,431.91013 c -23.8168,0.017 -41.2706,0.116 -45.498,0.3242 l -10.9199,0.5391 0.5937,12.7207 c 0.641,13.7458 1.824,67.52833 1.8535,84.26173 l 0.016,10.291 31.5625,0.334 c 17.3594,0.1837 75.4375,0.334 129.0625,0.334 l 97.5,0 -0.4746,-31.25 0,0 c -0.6413,-42.22053 -1.8779,-75.26853 -2.8516,-76.24223 -0.6783,-0.6784 -129.3953,-1.3637 -200.8457,-1.3125 z"
       id="boho_c_6"
       inkscape:label="#path5533" />
    <path
       inkscape:connector-curvature="0"
       style="fill:none;fill-opacity:1;stroke:#000000;stroke-opacity:1"
       d="m -939.69101,-470.67424 c -14.94505,0.0354 -23.98456,0.50067 -24.24023,1.38867 -0.73671,2.55879 0.71374,104.44641 1.49804,105.22852 1.27582,1.27228 67.8327,3.1454 141.16602,3.97265 39.53125,0.44593 72.11989,1.0379 72.41992,1.31641 0.30001,0.27851 12.11251,0.35536 26.25,0.16992 l 25.70508,-0.33789 0.32617,-30 c 0.17978,-16.5 -0.0235,-40.47756 -0.45117,-53.2832 l -0.77734,-23.28321 -27.04883,-0.77929 c -14.87692,-0.42939 -50.11133,-1.12601 -78.29883,-1.54688 -28.1875,-0.42087 -62.78125,-1.1659 -76.875,-1.65625 -23.87838,-0.83077 -44.72878,-1.22489 -59.67383,-1.18945 z m -15.2207,112.36328 -0.36524,9.6875 -0.36523,9.6875 -41.5625,-0.48633 -41.56252,-0.48828 -0.1406,7.36328 c -0.077,4.049 -0.3239,20.86133 -0.5469,37.36133 -0.2229,16.5 -0.441,30.42187 -0.4844,30.9375 -0.043,0.51562 -12.7307,0.9375 -28.1953,0.9375 l -28.1172,0 0.6895,93.4375 c 0.3793,51.39062 0.824,139.11883 0.9883,194.95312 0.1643,55.83429 0.5735,101.79225 0.9101,102.12891 0.3367,0.33667 7.7953,0.71939 16.5742,0.84961 15.0375,0.22305 16.0706,0.0817 17.8379,-2.44141 1.6204,-2.31338 3.0943,-2.67773 10.8204,-2.67773 7.9337,0 9.233,0.34253 11.4921,3.03125 l 2.5469,3.03125 113.10549,0.80273 c 62.20794,0.44176 113.20969,0.90585 113.33789,1.03125 0.1282,0.12539 9.13476,0.22852 20.01367,0.22852 l 19.7793,0 0.92578,-7.39648 c 4.46111,-35.65746 25.99296,-64.91638 58.81836,-79.92774 10.79561,-4.93694 26.58049,-8.69691 37.01758,-8.81836 l 9.24609,-0.10742 -0.82617,-115.625 c -0.94917,-132.72609 -2.19417,-251.71553 -2.63867,-252.2207 -0.16745,-0.1903 -8.11675,-0.63823 -17.66602,-0.99414 -9.54928,-0.35591 -18.0664,-0.8842 -18.92578,-1.17578 -1.04967,-0.35614 -1.5625,-3.38841 -1.5625,-9.23633 0,-7.219 -0.37341,-8.81168 -2.1875,-9.33008 -1.20312,-0.3438 -33.40625,-0.977 -71.5625,-1.4082 -38.15625,-0.43119 -90.1875,-1.30759 -115.625,-1.94727 -25.4375,-0.63966 -49.74181,-1.16912 -54.00977,-1.17578 l -7.75976,-0.0117 z"
       id="boho_c_10"
       inkscape:label="#path4899" />
    <path
       inkscape:connector-curvature="0"
       style="fill:none;fill-opacity:1;stroke:#000000;stroke-opacity:1"
       d="m 751.85784,-457.68596 -0.3262,54.0625 c -0.1793,29.73437 -0.1793,54.19358 0,54.35352 0.4813,0.42968 241.6647,1.64125 249.61526,1.2539 3.734,-0.18192 6.9417,-0.48459 7.1289,-0.67187 0.6189,-0.61883 1.0476,-106.94939 0.4336,-107.51367 -0.3308,-0.30394 -58.25776,-0.76356 -128.72656,-1.01954 l -128.125,-0.46484 z m 42.582,111.95898 c -30.8301,0.0414 -38.3465,0.4538 -39.1191,1.38477 -0.7999,0.96379 -1.6255,5.38769 -1.834,9.83008 l -0.3789,8.07617 -56.875,0.625 -56.875,0.625 -0.1973,204.76953 -0.1972,204.77149 2.6972,1.04687 c 3.3034,1.28291 91.9768,1.52808 98.9473,0.27344 l 5,-0.90039 0.9023,-9.03125 c 1.0821,-10.82343 5.3939,-24.01383 11.7442,-35.92969 6.7077,-12.58596 25.2899,-30.7321602 38.6328,-37.7265602 12.0161,-6.29898 25.341,-10.19981 38.4082,-11.24414 8.9194,-0.71282 9.699,-0.58696 9.8418,1.59765 0.085,1.30503 0.3382,22.2811102 0.5605,46.6132802 0.2224,24.33218 0.6746,44.9471 1.0059,45.81055 0.4717,1.22937 11.9371,1.52982 52.8496,1.38477 l 52.2442,-0.18555 0.8671,-3.125 c 0.4771,-1.71875 1.521,-6.75151 2.3184,-11.18359 3.823,-21.25018 20.6714,-42.60631 41.498,-52.59961 11.09126,-5.32197 28.56146,-9.3764802 34.24806,-7.94922 l 3.0039,0.7539 0.1133,-97.94921 c 0.062,-53.87141 0.2034,-129.72852 0.3125,-168.57227 l 0.1992,-70.625 -15.1191,-0.11914 c -8.315,-0.0652 -15.7681,-0.52078 -16.5625,-1.01172 -0.8679,-0.53641 -1.4434,-4.35447 -1.4434,-9.56836 0,-4.77193 -0.1406,-8.72361 -0.3125,-8.78125 -0.1719,-0.0576 -55.17636,-0.40146 -122.23046,-0.76562 -38.8625,-0.21106 -65.7519,-0.31977 -84.25,-0.29493 z"
       id="boho_c_2" />
    <path
       inkscape:connector-curvature="0"
       style="fill:none;fill-opacity:1;stroke:#000000;stroke-opacity:1"
       d="m 1414.1859,-458.16643 c -7.5628,-6.8e-4 -17.57,0.10305 -30.3125,0.30664 -26.5457,0.42412 -84.1181,0.80139 -127.9375,0.83789 -76.8466,0.064 -79.7164,0.14993 -80.9375,2.43164 -0.7964,1.48809 -1.2656,21.62184 -1.2656,54.27735 l 0,51.91211 12.1875,0.35742 c 6.7031,0.19676 25.125,0.3007 40.9375,0.23047 15.8125,-0.0703 68.2262,-0.24602 116.4746,-0.39063 70.09,-0.2101 87.9935,-0.58965 89.0684,-1.88476 1.4919,-1.79768 2.0401,-104.81526 0.5703,-107.19336 -0.367,-0.59388 -6.1804,-0.88364 -18.7852,-0.88477 z m 11.4219,112.98047 -123.7188,0.38672 c -68.0459,0.21249 -123.9573,0.62151 -124.246,0.91016 -0.2887,0.28867 -0.4247,4.14891 -0.3028,8.57812 0.1374,4.99398 -0.3296,8.39444 -1.2304,8.95117 -0.799,0.49377 -26.4681,1.06345 -57.0411,1.26563 -30.5731,0.20217 -55.9518,0.73312 -56.3984,1.17968 -1.0005,1.00042 -1.9607,406.19016 -0.9687,408.7754 0.6171,1.60841 7.6948,1.81192 52.9355,1.52929 l 52.2207,-0.32617 0.625,-47.5 0.625,-47.5000002 8.7578,0.15234 c 17.9177,0.31292 39.9439,9.13251998 56.1074,22.4648502 18.7447,15.4615 31.5182,39.60885 34.3028,64.84765 l 0.832,7.53516 11.25,0 11.25,0 0.625,-40.625 0.625,-40.6250002 8.3652,0.1875 c 9.2683,0.20865 17.8331,2.64172 29.1348,8.2734402 19.1886,9.56179 33.8103,26.20754 40.9238,46.58984 1.55,4.44102 3.1011,8.07289 3.4473,8.07031 0.346,-0.002 1.6355,-2.67445 2.8652,-5.9375 1.2297,-3.26305 4.0422,-9.57158 6.25,-14.01757 11.5978,-23.35513 42.0917,-43.0516602 68.1309,-44.0078202 2.9518,-0.10838 5.5813,-0.54422 5.8437,-0.96875 0.9092,-1.47117 1.8616,-73.8041498 2.6543,-201.4843698 l 0.7969,-128.29297 -16.3262,-0.0273 c -8.9793,-0.0153 -16.9666,-0.42406 -17.75,-0.90821 -0.9074,-0.5608 -1.2728,-3.89351 -1.0058,-9.17968 l 0.4199,-8.29688 z"
       id="boho_c_3" />
    <path
       inkscape:connector-curvature="0"
       style="fill:none;fill-opacity:1;stroke:#000000;stroke-opacity:1"
       d="m 499.74064,-459.16838 c -15.1112,-0.0187 -31.5617,-0.0142 -48.6445,0.0156 l -124.2383,0.2168 0,53.69336 0,53.69336 3.125,0.78125 c 1.7188,0.42959 59.7451,0.90931 128.9473,1.06641 l 125.8222,0.2871 0.5332,-3.51171 c 0.2933,-1.93069 0.4856,-26.27309 0.4278,-54.09571 l -0.1055,-50.58789 -5.1367,-0.88086 c -2.1189,-0.36329 -35.3968,-0.62148 -80.7305,-0.67773 z m -168.5078,111.77148 -0.127,3.60547 c -0.07,1.98303 -0.028,5.42002 0.094,7.63867 0.1212,2.21865 -0.1407,5.17178 -0.582,6.5625 -0.7902,2.48941 -1.685,2.5293 -57.791,2.5293 l -56.9903,0 0.832,39.6875 c 0.4574,21.82812 0.9004,84.96875 0.9844,140.3125 0.1276,84.08661 1.2569,166.28351 2.1094,153.5703098 0.2952,-4.40337 2.491,-5.02062 12.6895,-3.57422 22.5386,3.19656 42.3363,14.4482602 55.8847,31.7636802 6.3103,8.06466 13.2036,20.92166 14.9512,27.88476 1.1282,4.49538 2.5746,3.38753 4.8398,-3.70703 7.9343,-24.84804 31.9161,-46.58006 59.0645,-53.5234402 5.1926,-1.32815 12.4438,-2.41406 16.1152,-2.41406 l 6.6758,0 0.2227,32.1875002 c 0.183,26.52229 0.5018,42.89745 0.9609,49.38672 0.037,0.52236 26.62,0.80361 59.0742,0.625 l 59.0078,-0.32422 1.5782,-10.16797 c 4.2573,-27.43841 20.1129,-53.01099 41.8164,-67.4394502 15.6393,-10.39709 32.5586,-16.25418 49.2148,-17.03906 l 7.5,-0.3535198 0.625,26.25 c 0.4754,19.96766 0.8511,24.45505 1.5723,18.75 0.6913,-5.46893 0.4893,-311.7726 -0.2344,-355.3125 l -0.088,-5.3125 -15.4727,0 c -18.2781,0 -18.5999,-0.19713 -18.1523,-11.16602 0.1698,-4.1609 0.028,-7.84862 -0.3164,-8.19336 -0.3448,-0.34473 -55.8501,-0.98568 -123.3438,-1.42578 l -122.7149,-0.80078 z"
       id="boho_c_1" />
    <path
       inkscape:connector-curvature="0"
       style="fill:none;fill-opacity:1;stroke:#000000;stroke-opacity:1"
       d="m -98.142183,-460.18596 0.373,48.125 c 0.2048,26.46875 0.6785,50.79103 1.0528,54.04883 l 0.67972,5.92187 49.5722,0.32813 c 27.2647,0.1797 85.1504,0.53503 128.6348,0.79101 l 79.062503,0.4668 0.039,-22.3418 0,0 c 0.1063,-59.25032 -0.1994,-84.86783 -1.0195,-85.63281 -0.4935,-0.46035 -58.834,-1.03203 -129.646503,-1.27148 l -128.75002,-0.43555 z m 5.00002,112.5 -0.1641,8.31836 c -0.091,4.57474 -0.5984,9.016 -1.1269,9.87109 -0.7506,1.21444 -13.297417,1.44714 -57.334017,1.0586 l -56.375,-0.49805 0.1113,52.5 c 0.061,28.875 0.4815,78.9375 0.9336,111.25 0.4521,32.3125 1.1819,101.21875 1.6231,153.125 0.4411,51.90625 1.2375,94.65625 1.7695,95 1.9058,1.23135 63.7458,1.30638 66.0371,0.0801 1.6366,-0.87588 2.5023,-3.26979 3.0586,-8.46289 2.6296,-24.54661 16.4748,-49.75596 35.564497,-64.7558602 8.25752,-6.48844 21.03372,-13.46558 30.82422,-16.83399 7.3433,-2.52649 29.7832,-5.6477098 32.6621,-4.5429598 1.4635,0.56156 1.8158,8.6549198 2.0879,47.9082 l 0.3281,47.23242 59.7227,0.32422 c 47.1788,0.25646 59.8139,-0.006 60.1601,-1.25 0.241,-0.86605 1.032,-6.10448 1.7578,-11.64258 2.7739,-21.16242 11.2751,-38.47165 26.673903,-54.30664 9.0667,-9.3235302 15.2185,-13.9212202 25.5,-19.0585902 15.4257,-7.7077798 24.7753,-10.2093998 38.3613,-10.2656298 l 12.1758,-0.0508 -0.6211,-93.125 c -0.3418,-51.21875 -0.8935,-115.34375 -1.2266,-142.5 -0.3331,-27.15625 -0.6108,-55.98437 -0.6172,-64.0625 l -0.012,-14.6875 -16.2891,0 c -11.885,0 -16.4487,-0.42246 -16.8769,-1.5625 -0.3229,-0.85938 -0.7543,-5.21875 -0.959,-9.6875 l -0.3711,-8.125 -16.1894,-0.625 c -8.904,-0.34375 -64.564503,-0.625 -123.689503,-0.625 l -107.5,0 z"
       id="boho_c_12"
       inkscape:label="#path4789" />
    <path
       inkscape:connector-curvature="0"
       style="fill:none;fill-opacity:1;stroke:#000000;stroke-opacity:1"
       d="m -513.4957,-463.96526 c -6.49228,-0.006 -10.59647,0.065 -11.23242,0.22461 l -3.08203,0.77539 0.75781,53.14649 c 0.41698,29.23094 0.95277,53.34144 1.19141,53.58008 0.23864,0.23864 36.94786,0.79191 81.57617,1.22851 44.62832,0.4366 81.30526,0.92474 81.50391,1.08594 0.19865,0.16119 22.38526,0.22468 49.30469,0.14062 l 48.94528,-0.15234 -0.3144,-52.45703 c -0.2083,-34.8547 -0.7591,-52.99554 -1.6446,-54.0625 -1.0564,-1.27289 -16.1367,-1.61146 -72.74214,-1.63086 -39.2752,-0.0135 -96.38651,-0.5635 -126.91211,-1.22461 -19.0785,-0.41319 -36.53109,-0.64366 -47.35157,-0.6543 z m -8.91015,111.54492 -0.36719,9.86719 -0.36914,9.86719 -58.64062,-0.45898 -58.64258,-0.45704 0.83203,82.95704 c 0.45749,45.62695 1.18538,122.05273 1.61719,169.83398 0.43181,47.78125 0.9261,87.0441498 1.0996,87.2499998 0.17352,0.20585 5.02291,0.86425 10.7754,1.46289 18.66485,1.94234 28.56029,6.8475802 47.21679,23.4121102 11.71502,10.40141 20.10609,26.33586 22.42188,42.57227 l 0.8457,5.92773 9.98828,0.79102 c 5.49285,0.43488 31.08008,0.71613 56.86133,0.625 l 46.875,-0.16602 0.0566,-46.25 c 0.031,-25.4375002 0.17166,-47.03396 0.3125,-47.99219 0.20568,-1.39946 2.17233,-1.58217 9.99609,-0.92969 35.85287,2.99001 67.92219,24.61972 83.31446,56.19336 4.32383,8.86936 9.44531,26.00373 9.44531,31.59766 0,1.56403 0.54826,4.28533 1.21875,6.04883 l 1.21879,3.20703 51.2813,0 51.2812,0 0.023,-12.8125 c 0.086,-48.4423 -0.2451,-140.33315 -0.6211,-172.8125 -0.2467,-21.3125 -0.7974,-73.0625 -1.2246,-115 -0.8197,-80.48543 -1.4954,-108.9135 -2.6328,-110.75391 -0.3809,-0.61634 -7.6573,-1.12109 -16.1699,-1.12109 -10.2322,0 -15.7755,-0.48226 -16.3574,-1.42383 -0.4841,-0.78332 -0.8202,-4.98184 -0.7461,-9.33008 0.074,-4.34824 -0.2659,-8.14489 -0.7559,-8.43554 -0.4899,-0.29065 -35.48435,-0.87019 -77.7656,-1.28907 -42.28125,-0.41887 -98.36468,-1.1253 -124.63086,-1.57031 l -47.75781,-0.81055 z"
       id="boho_c_11"
       inkscape:label="#path4767" />
    <path
       style="opacity:0.81999966;fill:none;fill-opacity:0.45562134;stroke:#000000;stroke-opacity:1"
       d="m 1486.8046,-326.30247 118.1878,0 0,-130.30968 255.3488,-2.39322 -0.066,127.99401 75.0372,-1.35203 -0.2743,79.73002 56.8521,0.843 -2.0295,388.13778 -54.4941,-0.35009 0.03,-44.85624 -106.4074,0.9236 1.4833,73.77353 -98.373,0.12878 -101.8916,-5.70739 -144.4137,-0.67868 z"
       id="boho_c_4"
       inkscape:connector-curvature="0"
       sodipodi:nodetypes="ccccccccccccccccc"
       inkscape:label="#rect8416" />
    <path
       style="opacity:0.81999966;fill:none;fill-opacity:0.45562134;stroke:#000000;stroke-opacity:1"
       d="m 1565.5966,440.40328 62.0775,1.2763 106.3522,0.3027 0.2178,109.65009 256.6267,-0.1123 2.0203,304.0559 -55.0964,0.8265 0.9312,78.2873 -81.2615,-0.6148 1.6723,131.62403 -253.5524,-1.3014 -2.8571,-131.75413 -35.1102,0.7143 z"
       id="boho_c_5"
       inkscape:connector-curvature="0"
       sodipodi:nodetypes="cccccccccccccc"
       inkscape:label="#rect8419" />
  </g>
</svg>
