<?xml version="1.0" encoding="UTF-8" standalone="no"?>
<!-- Created with Inkscape (http://www.inkscape.org/) -->

<svg
   xmlns:dc="http://purl.org/dc/elements/1.1/"
   xmlns:cc="http://creativecommons.org/ns#"
   xmlns:rdf="http://www.w3.org/1999/02/22-rdf-syntax-ns#"
   xmlns:svg="http://www.w3.org/2000/svg"
   xmlns="http://www.w3.org/2000/svg"
   xmlns:sodipodi="http://sodipodi.sourceforge.net/DTD/sodipodi-0.dtd"
   xmlns:inkscape="http://www.inkscape.org/namespaces/inkscape"
   width="888.85461mm"
   height="447.39633mm"
   viewBox="0 0 3149.4849 1585.2626"
   id="svg8357"
   version="1.1"
   inkscape:version="0.91 r13725"
   sodipodi:docname="Boho-floor-B_rooms.svg">
  <defs
     id="defs8359" />
  <sodipodi:namedview
     id="base"
     pagecolor="#ffffff"
     bordercolor="#666666"
     borderopacity="1.0"
     inkscape:pageopacity="0.0"
     inkscape:pageshadow="2"
     inkscape:zoom="0.35"
     inkscape:cx="806.81344"
     inkscape:cy="484.05454"
     inkscape:document-units="px"
     inkscape:current-layer="layer1"
     showgrid="false"
     fit-margin-top="0"
     fit-margin-left="0"
     fit-margin-right="0"
     fit-margin-bottom="0"
     inkscape:window-width="1600"
     inkscape:window-height="837"
     inkscape:window-x="-8"
     inkscape:window-y="-8"
     inkscape:window-maximized="1" />
  <metadata
     id="metadata8362">
    <rdf:RDF>
      <cc:Work
         rdf:about="">
        <dc:format>image/svg+xml</dc:format>
        <dc:type
           rdf:resource="http://purl.org/dc/dcmitype/StillImage" />
        <dc:title></dc:title>
      </cc:Work>
    </rdf:RDF>
  </metadata>
  <g
     inkscape:label="Layer 1"
     inkscape:groupmode="layer"
     id="layer1"
     transform="translate(826.17201,340.27443)">
    <path
       inkscape:connector-curvature="0"
       style="fill:none;fill-opacity:1;stroke:#000000;stroke-opacity:1"
       d="m 1874.33,597.51454 0,212.49996 c 0,116.8749 0.2813,230.7813 0.625,253.125 l 0.625,40.625 14.375,0.7734 c 7.9063,0.4253 16.7656,0.8471 19.6875,0.9375 l 5.3125,0.1641 0,9.3008 c 0,5.1156 0.4219,9.5493 0.9375,9.8515 1.2561,0.7358 69.7696,1.9211 165.9375,2.8711 43.3125,0.4279 78.983,0.9912 79.2695,1.252 0.2864,0.2609 2.9582,0.4746 5.9375,0.4746 l 5.418,0 0,-9.3008 c 0,-5.4419 0.5727,-9.6567 1.3809,-10.1562 1.1438,-0.707 37.5657,-0.6494 72.3691,0.1132 13.6949,0.3002 12.4075,4.53 11.8164,-38.8085 -0.5088,-37.3043 -0.4704,-38.0623 2.0371,-39.4043 1.6904,-0.9046 11.3886,-1.2329 28.6211,-0.9688 14.335,0.2198 26.3272,0.1197 26.6484,-0.2246 1.4548,-1.5567 3.3196,-311.7253 1.8829,-313.1621 -0.2159,-0.2158 -22.8902,-0.5721 -50.3868,-0.791 l -49.9941,-0.3965 -0.014,31.2363 c 0,17.1806 -0.5057,32.0156 -1.1133,32.9668 -1.5577,2.4389 -16.6917,1.0678 -26.3769,-2.3906 -18.708,-6.6801 -35.2015,-21.6472 -41.8164,-37.9453 l -2.8926,-7.1289 -4.5098,9.1172 c -6.0792,12.2953 -20.0352,26.3838 -31.6484,31.9453 -8.8156,4.2217 -14.9307,5.9202 -25.6348,7.123 -5.5958,0.6288 -6.6866,0.3918 -7.8046,-1.6972 -0.8564,-1.6001 -1.0513,-12.9046 -0.5743,-33.1524 l 0.7266,-30.7246 -10.4219,-0.02 c -5.7314,-0.01 -11.1401,-0.4752 -12.0195,-1.0332 -1.231,-0.7812 -1.7047,-10.6268 -2.0566,-42.793 -0.2516,-22.97826 -0.5605,-46.84176 -0.6876,-53.02926 l -0.2304,-11.25 -1.7324,8.125 c -7.4624,34.9999 -30.5868,61.39006 -65.5684,74.82616 -9.3516,3.5919 -23.6472,6.4238 -32.4219,6.4238 l -7.2578,0 -0.8926,-14.9492 c -0.4908,-8.2226 -0.7149,-30.58196 -0.5,-49.68746 l 0.3907,-34.7383 -33.7227,0 -33.7207,0 z m 37.0918,534.07616 0.4277,19.8359 c 0.2353,10.9104 0.4667,35.1284 0.5157,53.8164 0.081,31.251 0.2654,34.0264 2.2773,34.586 1.2031,0.3346 27.7813,0.938 59.0625,1.3398 119.2106,1.5307 168.1378,2.2856 168.5,2.6016 0.2063,0.1798 9.3469,0.4136 20.3125,0.5195 l 19.9375,0.1934 0,-54.2911 0,-54.2929 -17.8125,-0.7422 c -26.1765,-1.0899 -76.1319,-1.9093 -169.8926,-2.7871 l -83.3281,-0.7793 z"
       id="boho_b_5"
       inkscape:label="#path8288" />
    <path
       inkscape:connector-curvature="0"
       style="fill:none;fill-opacity:1;stroke:#000000;stroke-opacity:1"
       d="m 1433.705,681.8895 -0.016,50.9375 c -0.012,46.1006 1.2605,157.2346 3.5468,309.6875 l 0.8438,56.25 18.75,0.625 18.75,0.625 0.3652,9.6875 c 0.2459,6.5264 0.8578,9.6908 1.875,9.6992 25.233,0.208 224.3972,2.8202 245.5723,3.2207 l 5.3125,0.1 0,-9.791 c 0,-6.9653 0.451,-9.8095 1.5625,-9.8555 10.861,-0.4503 114.0551,0.3804 115.4863,0.9297 1.7571,0.6742 1.9047,-15.9595 1.5117,-171.1875 -0.2394,-94.5638 -0.781,-171.3771 -1.2031,-170.6953 -0.9164,1.4801 -12.1961,0.3442 -22.9824,-2.3144 -8.6544,-2.1332 -23.353,-9.6881 -31.7207,-16.3047 -10.7433,-8.4949 -19.4427,-20.7403 -25.957,-36.5371 -1.1679,-2.8318 -1.6365,-2.2573 -6.6465,8.125 -4.4385,9.1981 -7.2938,13.075 -16.1582,21.9394 -8.7921,8.7922 -12.7165,11.6952 -21.3926,15.8203 -12.1751,5.7889 -24.1972,9.0391 -33.4336,9.0391 -7.8085,0 -8.1725,-0.7531 -7.7793,-16.0527 0.1529,-5.9523 0.2071,-22.4942 0.1211,-36.7598 l -0.1578,-25.9379 -11.1035,0 -11.1055,0 -0.8965,8.4375 c -1.0271,9.663 -5.7455,25.5469 -10.3027,34.6875 -5.0348,10.0982 -16.0192,23.8467 -24.9141,31.1836 -9.46,7.8031 -27.5436,17.2698 -38.5527,20.1816 -4.125,1.0911 -12.9844,2.2901 -19.6875,2.6641 -12.169,0.6789 -12.1882,0.6743 -12.332,-2.3008 -0.079,-1.6388 -0.274,-3.541 -0.4336,-4.2285 -0.1598,-0.6875 -0.3777,-21.6406 -0.4824,-46.5625 l -0.1895,-45.3125 -58.125,0 -58.125,0 z m 39.8809,444.375 0.2031,44.375 c 0.2369,51.6684 0.4433,60.9452 1.3789,61.8809 0.378,0.378 28.1891,1.0179 61.8008,1.4238 33.6116,0.4059 82.4863,1.1499 108.6113,1.6523 26.125,0.5022 57.3438,0.8584 69.375,0.791 l 21.875,-0.123 -0.3809,-53.125 c -0.2098,-29.2187 -0.7723,-53.507 -1.25,-53.9746 -0.8508,-0.833 -163.8819,-2.9004 -228.7402,-2.9004 l -32.873,0 z"
       id="boho_b_6"
       inkscape:label="#path8264" />
    <path
       inkscape:connector-curvature="0"
       style="fill:none;fill-opacity:1;stroke:#000000;stroke-opacity:1"
       d="m -492.64067,626.70004 -133.64844,0.4063 c -129.3569,0.3943 -133.7033,0.4831 -135.375,2.7695 -1.3437,1.8379 -3.80922,2.4967 -11.10352,2.9649 -9.4826,0.6085 -14.77429,-0.7557 -14.77929,-3.8086 0,-2.4469 -28.46454,-2.108 -30.02344,0.3574 -1.5006,2.3731 -1.49441,6.3165 0.11719,66.24996 0.7302,27.1562 1.47791,104.2188 1.66211,171.25 0.2365,86.0526 0.75235,123.3446 1.75195,126.875 0.7788,2.75 1.75537,10.3438 2.17187,16.875 l 0.75782,11.875 27.15625,-0.4316 c 21.6446,-0.3438 27.4285,-0.09 28.5039,1.25 1.1041,1.3758 2.74792,42.7746 2.88282,72.6054 l 0.0215,4.6719 40.74219,-0.078 c 22.4077,-0.043 41.10041,0.284 41.54101,0.7246 0.4406,0.4406 1.0162,5.063 1.2793,10.2734 l 0.47852,9.4727 52.66796,-0.8028 c 28.9666,-0.4422 84.86922,-1.172 124.22852,-1.621 l 71.56248,-0.8166 0.0195,-8.248 c 0.01,-4.5373 0.45478,-8.9377 0.98828,-9.7773 0.6728,-1.059 6.50557,-1.6333 19.04297,-1.875 l 18.07422,-0.3477 -0.043,-34.375 c -0.067,-54.2134 -1.81676,-234.9142 -2.47656,-255.625 -0.3285,-10.3125 -0.94103,-32.5965 -1.36133,-49.5195 l -0.76562,-30.7696 -9.8125,-0.8183 c -5.3977,-0.4502 -13.63424,-1.9707 -18.30274,-3.3809 -10.0504,-3.0358 -29.6091,-12.3942 -34.3125,-16.4179 -1.8278,-1.5638 -5.84785,-4.9335 -8.93555,-7.4883 -3.0876,-2.5549 -9.1367,-9.3049 -13.4414,-15 -11.2466,-14.8796 -17.11346,-28.69916 -19.25586,-45.35546 -0.4421,-3.4375 -1.0758,-7.5591 -1.4082,-9.1582 l -0.60547,-2.9063 z m 59.68359,498.92776 c -11.55761,-0.017 -29.69321,0.1553 -58.2168,0.4414 -89.514,0.8979 -173.70609,2.0763 -180.12109,2.5195 l -4.375,0.3008 0.11719,25.5625 c 0.2153,46.9335 0.66953,79.6828 1.11133,80.125 0.2405,0.2408 5.12411,0.3623 10.85351,0.2695 5.7294,-0.092 55.69927,-0.5625 111.04297,-1.0429 55.3437,-0.4803 105.4062,-1.08 111.25,-1.3321 5.8437,-0.2523 15.03794,-0.4855 20.43164,-0.5195 l 9.80664,-0.062 -0.36719,-50.9375 c -0.2021,-28.0156 -0.6248,-52.0022 -0.9375,-53.3027 -0.3455,-1.4367 -1.33301,-1.9928 -20.5957,-2.0215 z"
       id="boho_b_9"
       inkscape:label="#path8262" />
    <path
       inkscape:connector-curvature="0"
       style="fill:none;fill-opacity:1;stroke:#000000;stroke-opacity:1"
       d="m 42.085929,679.3543 -36.3770004,0.5372 c -20.0080296,0.2948 -42.8476496,0.5823 -50.7538996,0.6406 l -14.375,0.1074 0,48.4375 0,48.4375 -6.76367,0.3848 c -14.67043,0.8346 -37.378269,-6.2519 -53.242189,-16.6153 -17.2168,-11.2471 -34.32343,-33.2635 -40.32617,-51.9004 -3.11933,-9.6846 -5.29297,-19.9749 -5.29297,-25.0566 l 0,-3.6875 -56.25,0 -56.25,0 0,4.1133 c 0,11.9915 -8.68199,32.0476 -18.92969,43.7305 -12.1845,13.8907 -32.4649,23.9763 -51.4082,25.5644 l -8.75781,0.7324 0.77343,48.9024 c 0.4255,26.8962 1.13824,90.5116 1.58204,141.3672 0.4438,50.8556 1.15723,105.9648 1.58593,122.4648 l 0.7793,30 57.63672,-0.4766 c 34.2577,-0.2837 57.92555,-0.013 58.34766,0.6719 0.39049,0.6319 0.85309,4.7835 1.02929,9.2266 0.1762,4.4432 0.5702,8.5628 0.875,9.1543 0.3048,0.5914 14.16889,0.7393 30.8086,0.33 16.63977,-0.4092 63.11391,-0.7837 103.277339,-0.8339 40.16344,-0.05 82.16602,-0.4255 93.3378896,-0.8321 l 20.3125004,-0.7382 0,-8.3145 c 0,-4.7993 0.6341,-8.9465 1.5,-9.8125 1.0056,-1.0055 6.6149,-1.5 17.0176,-1.5 l 15.5176,0 -0.7735,-63.4375 c -0.4259,-34.8906 -1.0535,-83.125 -1.3945,-107.1875 -0.341,-24.0625 -0.8849,-62.875 -1.209,-86.25 -0.324,-23.375 -0.9697,-68.5236 -1.4336,-100.3301 l -0.8437,-57.8301 z m -20.8809,442.3282 -54.0625,0.6894 c -29.73437,0.3798 -83.312499,0.7693 -119.062499,0.8653 -35.75,0.096 -69.66082,0.4676 -75.35742,0.8261 l -10.35742,0.6524 0.27539,38.9004 c 0.151,21.3946 0.50205,45.2541 0.78125,53.0214 l 0.50781,14.1211 20.82422,-0.6386 c 11.45402,-0.3517 23.07617,-0.2076 25.82617,0.3203 5.4007,1.0369 14.6222,0.9732 40,-0.2774 19.59984,-0.9659 85.208429,-1.9275 135.238279,-1.9824 l 36.48632,-0.041 -0.5605,-25.3125 c -0.3086,-13.9218 -0.557,-37.8745 -0.5508,-53.2285 l 0.012,-27.916 z"
       id="boho_b_8"
       inkscape:label="#path8252" />
    <path
       inkscape:connector-curvature="0"
       style="fill:none;fill-opacity:1;stroke:#000000;stroke-opacity:1"
       d="m 1026.5448,681.2684 c -7.2005,-0.024 -13.2605,0.08 -15.0039,0.3242 l -4.039,0.5684 0.5976,37.0527 c 0.3288,20.379 1.1649,105.959 1.8594,190.1778 0.6945,84.2187 1.596,160.5218 2.002,169.5644 l 0.7363,16.4414 16.7051,0.8945 16.7031,0.8946 0.3613,9.539 0.3633,9.5411 107.5,0.3125 c 99.5809,0.2902 133.936,0.6128 137.7617,1.2929 1.0588,0.1883 1.6208,-2.8213 1.875,-10.0429 0.3566,-10.1312 0.4182,-10.3096 3.4883,-10.1133 1.7188,0.11 27.875,0.2932 58.125,0.4082 l 55,0.209 0,-10.4082 c 0,-24.174 -1.9474,-199.6975 -2.5977,-234.1582 -1.1801,-62.5358 -1.5806,-94.4667 -1.6816,-134.0625 l -0.096,-37.8125 -53.7266,0 -53.7246,0 -0.3379,27.8125 -0.3359,27.8125 -4.6797,0.3867 c -6.4846,0.5369 -21.1942,-3.8574 -29.3808,-8.7774 -8.6237,-5.1826 -16.613,-13.9723 -21.3907,-23.5332 l -3.7129,-7.4277 -2.8164,5.9258 c -5.6271,11.8381 -14.9967,21.7585 -25.6797,27.1875 -6.9525,3.5331 -25.2727,7.684 -28.4804,6.4531 -1.7293,-0.6636 -1.9844,-4.3007 -1.9844,-28.3008 l 0,-27.539 -11.0684,0 -11.0683,0 -0.75,8.4375 c -3.1738,35.7494 -27.6138,68.0706 -62.0528,82.0644 -10.6082,4.3105 -19.5014,6.1251 -30.6679,6.2559 l -10.0176,0.1172 -0.7734,-9.375 c -0.4258,-5.1563 -0.8477,-26.9532 -0.9375,-48.4375 l -0.1641,-39.0625 -4.0625,-0.1758 c -6.3066,-0.2715 -14.6471,-0.4234 -21.8477,-0.4473 z m 16.5352,441.4883 0.3418,51.7539 c 0.1877,28.4647 0.5825,52.4312 0.877,53.2598 0.7567,2.1293 4.236,2.1964 138.4374,2.6386 l 119.6543,0.3946 -0.7656,-52.8946 c -0.4212,-29.0919 -0.93,-53.0894 -1.1308,-53.3281 -0.2008,-0.2386 -58.2022,-0.7465 -128.8907,-1.1289 l -128.5234,-0.6953 z"
       id="boho_b_7"
       inkscape:label="#path8248" />
    <path
       inkscape:connector-curvature="0"
       style="fill:none;fill-opacity:1;stroke:#000000;stroke-opacity:1"
       d="m -694.09575,-329.67882 0.89844,53.59766 c 0.4942,29.47802 1.10818,53.81438 1.36328,54.08008 0.2551,0.2657 24.80935,0.739 54.56445,1.05273 29.7552,0.31372 78.28711,0.98976 107.84961,1.50195 29.5625,0.51218 64.2969,1.02129 77.1875,1.13282 l 23.4375,0.20312 0.0312,-4.0625 c 0.033,-4.39606 -0.45142,-85.90799 -0.57813,-97.1875 l -0.0781,-6.875 -38.125,-0.77929 c -20.9688,-0.42914 -80.52089,-1.20503 -132.33789,-1.72266 l -94.21289,-0.94141 z m 9.34766,115.06445 0.29101,8.16602 c 0.1598,4.49188 -0.13991,8.86362 -0.66601,9.71484 -0.73541,1.18988 -10.51428,1.47679 -42.29688,1.24219 l -41.33984,-0.30469 -0.33008,39.15625 -0.33008,39.1543 -28.125,0 -28.125,0 0.18555,45.625005 c 0.2098,51.72314 1.75136,204.184545 2.25586,223.124995 0.1831,6.875 0.41111,38.23437 0.50781,69.6875 l 0.17578,57.1875 15.47852,0 c 14.428,0 15.52341,-0.16979 16.13281,-2.5 0.5957,-2.27815 1.705,-2.5 12.5,-2.5 10.795,0 11.9042,0.22185 12.5,2.5 0.6255,2.3919 1.78098,2.50701 26.70898,2.67383 22.8277,0.15277 75.98783,0.68778 206.29883,2.07617 l 35.24414,0.37695 0.74024,-4.75195 c 3.9646,-25.42375 8.88799,-38.37951 20.15429,-53.03906 18.2359,-23.72831 43.40936,-36.96958 74.88086,-39.38867 l 10.92774,-0.83985 -0.79297,-43.24219 c -2.0687,-112.740395 -4.37929,-254.08754 -4.74219,-290.11523 -0.142,-14.09375 -0.48236,-29.14062 -0.75586,-33.4375 l -0.49805,-7.8125 -17.85937,0 c -12.8006,0 -18.21004,-0.44268 -19.08985,-1.5625 -0.67519,-0.85937 -1.34031,-5.20507 -1.47851,-9.6582 -0.1381,-4.45313 -0.35808,-8.17968 -0.48828,-8.28125 -0.5434,-0.42392 -96.97659,-1.86362 -169.77539,-2.53321 l -78.28906,-0.71875 z"
       id="boho_b_10"
       inkscape:label="#path5396" />
    <path
       inkscape:connector-curvature="0"
       style="fill:none;fill-opacity:1;stroke:#000000;stroke-opacity:1"
       d="m 1296.205,-324.61436 -54.0625,0.78125 c -29.7344,0.42928 -60.8125,1.0328 -69.0625,1.34179 -8.25,0.30899 -33,0.90208 -55,1.31836 -22,0.41628 -42.8125,0.9672 -46.25,1.22461 -3.4375,0.2574 -13.4219,0.49445 -22.1875,0.52735 l -15.9375,0.0605 0,53.95312 0,53.95312 59.0625,-0.8457 c 32.4844,-0.46535 72,-1.11993 87.8125,-1.45313 23.3747,-0.49253 101.6,-1.7681 112.8125,-1.83984 l 2.8125,-0.0176 0,-54.50194 0,-54.50196 z m -7.6055,115.27734 -51.5097,0.64648 c -28.3307,0.35565 -59.666,0.89779 -69.6348,1.20508 -9.9688,0.30729 -42.0312,0.88938 -71.25,1.29492 -29.2188,0.40554 -54.4175,1.00092 -55.9961,1.32227 -2.727,0.5551 -2.8265,0.95625 -2.0254,8.03711 0.5905,5.21981 0.3744,8.01646 -0.7207,9.33593 -1.3515,1.62851 -9.3471,1.88477 -58.97847,1.88477 l -57.416,0 0.7148,175.312505 c 0.3934,96.42187 1.0517,190.621605 1.461,209.332025 l 0.7421,34.01758 12.0469,0.35742 c 20.3598,0.60177 89.87717,0.0609 91.12307,-0.70898 0.6461,-0.39935 1.5232,-4.85019 1.9492,-9.89063 3.1901,-37.73907 34.2301,-73.87496 73.3496,-85.39062 9.3435,-2.75047 26.3839,-4.47401 28.3223,-2.86524 1.3516,1.12175 1.6777,10.87989 1.6777,50.16797 l 0,48.77735 50.3125,-0.7793 c 27.6719,-0.42883 51.7767,-0.7909 53.5664,-0.80469 3.0619,-0.0236 3.3427,-0.55514 4.7363,-8.99414 6.2045,-37.56954 38.2252,-67.46539 72.6348,-67.8125 l 9.375,-0.0937 0.1348,-172.154295 0.1347,-172.152345 -17.0097,-0.34766 -17.0098,-0.3457 -0.3652,-9.67578 -0.3653,-9.67578 z"
       id="boho_b_2"
       inkscape:label="#path5194" />
    <path
       inkscape:connector-curvature="0"
       style="fill:none;fill-opacity:1;stroke:#000000;stroke-opacity:1"
       d="m 175.80073,-319.64561 0.8223,23.58007 c 0.4532,12.96917 0.8262,37.2124 0.8281,53.87305 l 0,30.29101 33.4375,0.35352 c 18.3906,0.19481 76.5912,0.48632 129.334,0.64648 l 95.8965,0.29102 -0.7559,-53.4375 c -0.4151,-29.39062 -0.8666,-53.57767 -1.0019,-53.75 -0.1354,-0.17232 -58.3682,-0.66018 -129.4063,-1.08203 l -129.1582,-0.76562 z m 5.5176,113.63281 -0.3692,9.88867 -0.3691,9.88867 -57.5,0.2832 -57.500001,0.28125 0.2695,49.09375 c 0.2662,48.419075 2.7324,303.44625 3.3457,345.9668 l 0.3164,21.875 33.970701,0.33203 33.9727,0.33399 0,-6.07032 c 0,-7.02538 3.8245,-23.04722 7.6621,-32.0957 3.2643,-7.69684 11.6676,-20.74997 17.832,-27.70117 16.0317,-18.07779 47.452,-32.36382 69.1055,-31.41992 l 8.5254,0.37109 0.3262,49.07422 0.3281,49.07422 59.6719,-0.32422 59.6738,-0.32422 0.1973,-5.18359 c 0.8191,-21.55521 13.2808,-48.42282 30.4453,-65.63868 17.2085,-17.25995 45.7242,-29.80273 67.7558,-29.80273 l 6.3614,0 -0.8321,-78.437495 c -0.4575,-43.14062 -0.8406,-108.53125 -0.8515,-145.3125 -0.013,-36.781255 -0.368,-72.624725 -0.793,-79.652345 l -0.7715,-12.77735 -16.3808,-0.34765 -16.3809,-0.34766 -0.3652,-9.6875 -0.3653,-9.6875 -82.2422,0 c -45.2338,0 -100.8737,-0.37184 -123.6425,-0.82617 l -41.3965,-0.82617 z"
       id="boho_b_12"
       inkscape:label="#path5164" />
    <path
       inkscape:connector-curvature="0"
       style="fill:none;fill-opacity:1;stroke:#000000;stroke-opacity:1"
       d="m 863.08003,-319.98546 -39.375,0.25586 c -21.6562,0.14067 -79.7638,0.62962 -129.127,1.08789 l -89.75,0.83399 0.2559,48.2871 c 0.1408,26.55732 0.5092,50.66684 0.8184,53.57813 l 0.5625,5.29297 35.1816,0.33203 c 49.257,0.46446 218.6014,-0.23902 220.5098,-0.91602 1.2417,-0.44048 1.5067,-12.02899 1.25,-54.65625 l -0.3262,-54.0957 z m -6.875,114.4375 -3.4375,0.63477 c -1.8906,0.34869 -57.4057,0.7565 -123.3672,0.90625 l -119.9297,0.27148 0.3282,7.10742 c 0.6167,13.31576 5.9298,12.1958 -59.5684,12.56836 l -57.1504,0.32422 0.4863,90.625005 c 0.2674,49.84375 0.623,97.0937497 0.791,105 0.1679,7.90625 0.3708,41.67774 0.4512,75.04688 l 0.1465,60.669915 12.8125,1.41992 c 30.68,3.39916 55.2112,21.13672 69.3437,50.13867 l 5.6758,11.65039 3.1641,-7.90039 c 12.132,-30.30625 39.4903,-50.44063 73.5879,-54.15625 6.9311,-0.75527 7.8459,-0.58584 9.0625,1.6875 0.8902,1.66353 1.3535,16.2415 1.3535,42.61133 l 0,40.08203 59.8164,0 59.8164,0 0.8008,-9.4668 c 1.0331,-12.22144 3.6926,-21.26329 9.8984,-33.65429 9.7224,-19.41209 25.6932,-35.35266 45.5157,-45.43164 9.1352,-4.64487 26.4779,-8.99144 37.0703,-9.29102 l 9.916,-0.28125 -0.7774,-46.249995 c -0.4272,-25.4375 -0.7826,-97.5781203 -0.791,-160.3125 l -0.016,-114.062505 -16.7422,0 c -19.1931,0 -18.2578,0.61202 -18.2578,-11.94531 l 0,-7.99219 z"
       id="boho_b_1"
       inkscape:label="#path5128" />
    <path
       inkscape:connector-curvature="0"
       style="fill:none;fill-opacity:1;stroke:#000000;stroke-opacity:1"
       d="m -238.70122,-323.11827 c -15.99547,0.0134 -17.67295,0.49835 -17.21289,1.69727 0.4371,1.13918 0.84656,25.12049 0.91016,53.29101 0.086,38.06088 0.4969,51.4608 1.5996,52.1582 2.2133,1.39976 65.22312,2.23633 168.359379,2.23633 l 91.8749996,0 -0.3672,-50 c -0.2022,-27.5 -0.6505,-51.46368 -0.9961,-53.25195 l -0.6289,-3.25 -65.8788896,-0.82031 c -36.23347,-0.45062 -95.081529,-1.1829 -130.773439,-1.62696 -22.53807,-0.2804 -37.28944,-0.44162 -46.88672,-0.43359 z m -11.34375,113.48437 0,8.73438 c 0,6.16826 -0.5411,9.1822 -1.8418,10.26172 -1.3834,1.14813 -8.1494,1.34863 -27.1875,0.80664 -19.5836,-0.5575 -77.01848,-1.0911 -88.30078,-0.82032 -1.4312,0.0344 -1.55737,12.82916 -0.79297,79.72852 0.5008,43.828125 1.06496,79.968755 1.25586,80.312505 0.1908,0.34375 0.77914,27.6249997 1.30664,60.625 0.5276,33 1.03476,62.53125 1.12696,65.625 0.092,3.09375 0.28388,17.859365 0.42578,32.812495 l 0.25781,27.1875 5.3125,0.0215 c 9.291,0.038 22.49139,3.52401 33.05469,8.73047 22.221,10.95238 39.68887,34.95482 42.63867,58.58594 l 0.87891,7.03711 43.74414,0.625 c 40.4773,0.57831 64.60884,0.64553 67.3789,0.1875 0.67072,-0.11088 0.8133,-19.57665 0.34961,-47.68359 -0.43093,-26.12233 -0.45735,-48.34108 -0.0605,-49.375 2.14612,-5.59273 34.8167,1.40636 52.35937,11.21679 29.298489,16.38464 49.961899,46.67494 52.888669,77.5293 l 0.83008,8.75 51.66406,0.19141 51.666,0.18945 -0.709,-22.06445 c -0.3898,-12.13619 -1.0243,-69.87891 -1.4082,-128.316405 -0.3839,-58.4375 -0.9428,-118.34375 -1.2422,-133.125 -0.2994,-14.78125 -0.643,-46.28125 -0.7656,-70.000005 -0.1228,-23.71875 -0.4734,-48.04688 -0.7793,-54.0625 l -0.5567,-10.9375 -16.0488,0 c -10.8584004,0 -16.3388004,-0.47051 -16.94730043,-1.45508 -0.4946,-0.80032 -0.95093,-5.15131 -1.01358,-9.66992 -0.0873,-6.29372 -0.55147997,-8.27512 -1.98632997,-8.46875 -1.03016,-0.13901 -55.0292996,-0.57649 -119.9980486,-0.9707 -64.96875,-0.3942 -120.2343,-1.05231 -122.8125,-1.46289 l -4.68754,-0.74612 z"
       id="boho_b_11"
       inkscape:label="#path5098" />
    <path
       inkscape:connector-curvature="0"
       style="fill:none;fill-opacity:1;stroke:#000000;stroke-opacity:1"
       d="m 1733.705,-329.14171 -119.0625,0.53321 c -117.3405,0.52658 -143.009,0.90164 -144.2168,2.10937 -0.6772,0.67728 -1.3467,108.34682 -0.6777,109.01562 0.2297,0.22977 8.1047,0.19373 17.5,-0.0781 9.3951,-0.27184 60.6758,-0.7838 113.957,-1.13867 53.2812,-0.35488 104.8906,-0.64822 114.6875,-0.65235 l 17.8125,-0.008 0,-54.89062 0,-54.89063 z m -7.5,116.03125 -75.3125,0.17188 c -41.4219,0.095 -98.375,0.51692 -126.5625,0.9375 l -51.25,0.76562 -0.625,9.375 -0.625,9.375 -21.25,0.80469 c -11.6875,0.44228 -38.0076,1.07435 -58.4902,1.40625 -20.4825,0.3319 -37.5053,0.86854 -37.8282,1.1914 -0.6611,0.66114 -1.2337,244.604225 -0.8242,351.28516 l 0.2676,69.6875 53.75,0 53.75,0 0.037,-25.3125 c 0.02,-13.92188 0.1611,-36.28125 0.3125,-49.6875 l 0.2754,-24.375 9.4863,0.13867 c 28.7416,0.42307 57.4777,15.53764 75.7735,39.85352 10.69,14.20749 18.4248,33.39909 19.9121,49.40039 l 0.8125,8.73242 11.0527,0 11.0547,0 0.3281,-42.1875 0.3301,-42.1875 8.125,0.23438 c 21.1788,0.61314 45.6664,13.9817 60.7246,33.14843 6.0391,7.68674 15.4396,25.35271 15.6328,29.37891 0.073,1.49968 0.423,1.19849 1.0645,-0.91211 0.5269,-1.73317 2.9957,-7.35817 5.4843,-12.5 13.2385,-27.3524 38.9937,-46.0345 69.5489,-50.44531 l 10.6699,-1.53907 0,-168.683585 0,-168.681645 -16.8242,-0.35156 c -11.5368,-0.24041 -17.1289,-0.82973 -17.793,-1.875 -0.5327,-0.83841 -0.9778,-5.03906 -0.9883,-9.33594 l -0.019,-7.8125 z"
       id="boho_b_3"
       inkscape:label="#path5070" />
    <path
       inkscape:connector-curvature="0"
       style="fill:none;fill-opacity:1;stroke:#000000;stroke-opacity:1"
       d="m 363.36653,-207.61591 c -0.4154,-0.41536 -1.4935,-0.45976 -2.3959,-0.0986 -0.9971,0.39902 -0.701,0.69522 0.7553,0.7552 1.3176,0.0542 2.056,-0.24117 1.6406,-0.65653 z"
       id="path4700" />
    <path
       inkscape:connector-curvature="0"
       style="fill:none;fill-opacity:1;stroke:#000000;stroke-opacity:1"
       d="m 2186.2304,-339.7589 -28.4492,0.86524 c -15.6479,0.47647 -41.67,1.1833 -57.8262,1.57031 -16.1562,0.38701 -42.5937,1.12011 -58.75,1.62891 -16.1562,0.5088 -47.375,1.05389 -69.375,1.21094 -36.6337,0.26153 -59.3479,0.92989 -60.1895,1.77148 -0.256,0.25598 -0.7346,106.85638 -0.4921,109.61328 0.061,0.69222 14.0311,0.60716 95.6816,-0.58984 52.2964,-0.76668 120.0931,-2.56495 159.375,-4.22657 l 19.375,-0.82031 0.3262,-55.51172 0.3242,-55.51172 z m -10.5606,117.72071 -264.3105,4.01367 1.4629,19.01758 -122.8672,-0.17579 0,510 145.6406,-3.55468 216.7207,7.54883 -2.3808,-75.6543 115.7187,-1.31641 0.016,42.97656 57.1426,-2.85546 0,-402.85743 -56.1504,-3.93164 -3.832,-78.48632 -86.0059,5.60742 -1.1543,-20.33203 z"
       id="boho_b_4"
       inkscape:label="#path4582" />
  </g>
</svg>
