<?xml version="1.0" encoding="UTF-8" standalone="no"?>
<!-- Created with Inkscape (http://www.inkscape.org/) -->

<svg
   xmlns:dc="http://purl.org/dc/elements/1.1/"
   xmlns:cc="http://creativecommons.org/ns#"
   xmlns:rdf="http://www.w3.org/1999/02/22-rdf-syntax-ns#"
   xmlns:svg="http://www.w3.org/2000/svg"
   xmlns="http://www.w3.org/2000/svg"
   xmlns:sodipodi="http://sodipodi.sourceforge.net/DTD/sodipodi-0.dtd"
   xmlns:inkscape="http://www.inkscape.org/namespaces/inkscape"
   width="951.15802mm"
   height="477.14966mm"
   viewBox="0 0 3370.245 1690.6878"
   id="svg9678"
   version="1.1"
   inkscape:version="0.91 r13725"
   sodipodi:docname="Boho-A_rooms.svg">
  <defs
     id="defs9680" />
  <sodipodi:namedview
     id="base"
     pagecolor="#ffffff"
     bordercolor="#666666"
     borderopacity="1.0"
     inkscape:pageopacity="0.0"
     inkscape:pageshadow="2"
     inkscape:zoom="0.35"
     inkscape:cx="1424.4082"
     inkscape:cy="825.34388"
     inkscape:document-units="px"
     inkscape:current-layer="layer1"
     showgrid="false"
     fit-margin-top="0"
     fit-margin-left="0"
     fit-margin-right="0"
     fit-margin-bottom="0"
     inkscape:window-width="1600"
     inkscape:window-height="837"
     inkscape:window-x="-8"
     inkscape:window-y="-8"
     inkscape:window-maximized="1" />
  <metadata
     id="metadata9683">
    <rdf:RDF>
      <cc:Work
         rdf:about="">
        <dc:format>image/svg+xml</dc:format>
        <dc:type
           rdf:resource="http://purl.org/dc/dcmitype/StillImage" />
        <dc:title></dc:title>
      </cc:Work>
    </rdf:RDF>
  </metadata>
  <g
     inkscape:label="Layer 1"
     inkscape:groupmode="layer"
     id="layer1"
     transform="translate(1470.8368,332.98168)">
    <path
       inkscape:connector-curvature="0"
       style="fill:none;stroke:#000000;stroke-opacity:1"
       d="m -1404.2932,699.88351 -3.8847,2.8653 c -3.3161,2.4466 -5.4059,2.8671 -14.2676,2.8671 -8.766,0 -10.7758,-0.3949 -12.918,-2.5371 -2.325,-2.325 -3.8657,-2.5078 -18.4375,-2.1875 l -15.9004,0.3496 0.5215,105.625 c 0.2868,58.0937 0.6405,108.1562 0.7852,111.25 0.1447,3.0937 0.6869,51.1875 1.207,106.87499 0.5201,55.6875 1.1335,101.4657 1.3613,101.7286 0.2279,0.2627 13.9376,0.3689 30.4668,0.2363 27.973,-0.2245 30.1146,-0.086 30.9395,2.0215 0.4875,1.2449 0.8886,20.4506 0.8925,42.6797 l 0.012,40.4179 45.4317,-0.3515 c 38.562,-0.298 45.6065,-0.079 46.5781,1.457 0.6296,0.9952 1.1536,5.919 1.1641,10.9414 l 0.018,9.1328 19.0625,-0.6484 c 10.4842,-0.356 51.6861,-1.0135 91.5605,-1.461 39.875,-0.4474 88.8125,-0.9732 108.75,-1.1699 19.9375,-0.1967 39.0625,-0.4154 42.5,-0.4844 l 6.25,-0.125 0,-8.5585 c 0,-12.7875 -0.1693,-12.6915 22.4512,-12.6915 l 19.0215,0 0.78709,-62.8125 c 0.6748,-53.8826 0.58014,-118.296 -0.43949,-303.74999 l -0.1894,-34.6875 -4.3262,0 c -12.7786,0 -37.035,-5.9272 -49.4355,-12.08 -11.2242,-5.5692 -25.3289,-16.2215 -34.543,-26.0879 -6.7961,-7.2772 -10.3783,-12.6186 -15.7207,-23.4414 -7.4091,-15.0096 -8.8758,-19.6461 -11.1504,-35.2657 l -1.4551,-10 -143.5449,-0.055 -143.5469,-0.053 z m 370.2168,538.17579 -9.6875,0.6309 c -5.3281,0.3467 -65.6563,1.0152 -134.0625,1.4863 -68.4063,0.4711 -126.0625,0.9783 -128.125,1.1269 -2.0625,0.1485 -5.8416,0.337 -8.3965,0.418 l -4.6445,0.1465 -0.059,57.666 -0.059,57.666 69.7031,-0.8554 c 38.3375,-0.47 93.0489,-1.3539 121.5801,-1.9649 28.5312,-0.611 52.7187,-1.0551 53.75,-0.9883 1.0312,0.068 10.5937,0.032 21.25,-0.076 l 19.375,-0.1973 -0.166,-23.4375 c -0.091,-12.8905 -0.2315,-38.7768 -0.3125,-57.5273 l -0.1465,-34.0938 z"
       id="boho_a_9"
       inkscape:label="#path9591" />
    <path
       inkscape:connector-curvature="0"
       style="fill:none;stroke:#000000;stroke-opacity:1"
       d="m 1765.0916,699.53781 c -20.0361,0 -46.5477,0.059 -81.6777,0.1367 l -143.1153,0.3184 -0.8613,7.8125 c -2.0774,18.8333 -10.2596,38.6057 -22.7754,55.041 -18.2295,23.9388 -52.4189,41.4364 -81.9883,41.959 l -10.625,0.1875 -0.3262,-51.8262 c -0.2018,-32.0369 -0.7984,-52.2985 -1.5624,-53.0625 -0.8145,-0.8145 -1.2776,-0.6184 -1.3575,0.5762 -0.2507,3.7471 0.391,324.82369 0.6719,336.18749 0.1615,6.5312 0.745,45.0625 1.2969,85.625 0.552,40.5625 1.3525,76.2812 1.7793,79.375 l 0.7754,5.625 17.4863,0.3047 c 24.591,0.4276 23.1113,-0.2716 23.1113,10.8945 0,5.6966 0.5597,9.6248 1.4512,10.1758 0.7985,0.4935 56.0641,1.147 122.8125,1.4531 66.7484,0.3062 121.4816,0.666 121.6289,0.7989 0.1471,0.1327 6.3346,0.2008 13.75,0.1503 l 13.4824,-0.094 0.3653,-10.4609 0.3671,-10.459 46.1602,0.9023 46.1602,0.9024 -0.7774,-41.8282 -0.7793,-41.8281 2.8613,-0.9082 c 1.5738,-0.4995 15.2999,-0.7052 30.502,-0.457 l 27.6406,0.4531 -0.2851,-28.125 c -1.385,-136.43769 -1.6248,-291.24999 -0.4512,-291.24999 0.2552,0 0.4763,1.5013 0.6719,4.3047 l -0.3594,-16.8125 c 0,2e-4 0,0.01 0,0.01 -0.5708,0 -1.1608,-21.2175 -1.3106,-47.1504 -0.052,-8.9921 -0.1266,-16.9705 -0.2089,-24.1817 l -0.5,-23.4062 0,0 c -0.2404,-0.2405 -8.079,-0.5135 -17.42,-0.6055 -15.3922,-0.1516 -17.1483,0.058 -18.7324,2.2247 -1.5184,2.0764 -3.1211,2.3455 -12.1992,2.0566 -8.6323,-0.2748 -10.7796,-0.756 -12.3359,-2.7656 -1.3877,-1.7917 -3.214,-2.2609 -63.3223,-2.252 z m 124.0098,1.3438 c 0.1571,0.157 0.3448,9.8205 0.5,23.4062 l 1.5234,71.3223 c 0.5688,-0.1043 1.0281,-21.2306 1.0156,-47.0488 0,-9.7803 0.045,-18.43 0.1133,-26.0489 l -3.1523,-21.6308 z m 3.1523,21.6308 1.1074,7.5918 c -0.1034,-17.3757 -0.3275,-29.5124 -0.5879,-29.2519 -0.2223,0.2223 -0.4069,9.1167 -0.5195,21.6601 z m 1.1074,7.5918 c 0.039,6.4702 0.062,13.5235 0.062,21.1407 0,28.0729 0.2283,50.8062 0.5078,50.5175 0.2795,-0.2864 0.8403,-26.9227 1.2461,-59.1933 l -1.8164,-12.4649 z m -1.8769,82.3184 0.9023,42.209 c -0.1825,-21.6602 -0.4663,-35.9588 -0.9023,-42.209 z m 0.9023,42.209 c 0.032,3.839 0.074,6.938 0.1,11.2988 l 0.3379,57.8125 0.1992,-39.2305 -0.6367,-29.8808 z m 0.6367,29.8808 4.1895,196.09769 c -0.096,-34.7146 -0.4098,-65.3672 -0.6973,-68.1172 -0.2875,-2.75 -0.8117,-49.94679 -1.166,-104.88089 -0.3544,-54.9343 -0.9329,-100.1692 -1.2852,-100.5214 -0.3522,-0.3522 -0.7765,25.7506 -0.9414,58.0058 l -0.1,19.416 z m -383.0761,350.98639 c -10.8059,0.01 -21.8217,0.032 -33.086,0.072 l -13.4375,0.047 0,57.4258 c 0,44.0174 0.3576,57.6483 1.5332,58.375 1.8319,1.1321 13.7691,1.3458 134.7168,2.4199 51.2188,0.4548 104.6563,1.1816 118.75,1.6152 14.0938,0.4337 27.502,0.5078 29.7969,0.1641 l 4.1738,-0.625 -0.123,-23.125 c -0.1503,-28.4385 -1.3548,-69.7028 -2.4258,-83.125 l -0.7969,-10 -30.625,-0.7852 c -67.5279,-1.7307 -132.8354,-2.5084 -208.4765,-2.4589 z"
       id="boho_a_5"
       inkscape:label="#path9581" />
    <path
       inkscape:connector-curvature="0"
       style="fill:none;stroke:#000000;stroke-opacity:1"
       d="m 954.33775,755.61791 0.7988,110.9375 c 1.36,188.76459 3.157,336.84769 4.0996,337.79689 0.3496,0.3522 9.4514,0.9218 20.2246,1.2656 l 19.5879,0.625 0.625,10 0.62495,10 70.625,0.625 c 38.8438,0.3437 99.3125,0.625 134.375,0.625 l 63.75,0 -0.4297,-8.4824 c -0.2857,-5.6558 0.1098,-9.1298 1.1856,-10.4258 1.4282,-1.721 8.6981,-1.8945 63.4629,-1.5176 l 61.8515,0.4258 0.7891,-3.125 c 0.794,-3.1406 -0.4728,-94.9103 -1.7773,-128.75 -0.3844,-9.9688 -0.7417,-66.2188 -0.795,-124.99999 -0.054,-58.7813 -0.4785,-107.7188 -0.9433,-108.75 -0.6288,-1.3953 -3.0823,-1.8969 -9.5938,-1.957 -29.1886,-0.2697 -60.3539,-22.7661 -74.4785,-53.7637 l -3.9434,-8.6543 -2.041,5.625 c -9.127,25.1591 -32.5929,46.9133 -57.8476,53.6309 -11.5378,3.069 -23.6008,4.3165 -26.0645,2.6953 -1.5815,-1.0407 -1.9729,-7.6473 -2.5,-42.2168 l -0.625,-40.9844 -11.4062,-0.3574 c -12.7555,-0.3997 -12.9127,-0.28 -12.9512,9.8437 -0.03,7.8371 -4.8045,23.8798 -10.627,35.709 -8.8183,17.9157 -19.4821,30.6687 -33.7656,40.3809 -17.2192,11.7082 -28.885,16.3429 -48.75,19.3652 -10.7507,1.6356 -17.5085,1.4448 -18.7285,-0.5293 -0.311,-0.5032 -0.5998,-19.1401 -0.6426,-41.4141 -0.043,-22.2741 -0.42,-45.7011 -0.8379,-52.0605 l -0.7597,-11.5625 -61.2461,0 -61.24605,0 z m 42.6719,478.12499 0.1015,50 c 0.055,27.5 0.4486,53.486 0.8731,57.7461 0.7505,7.5316 0.8789,7.7593 4.66785,8.2402 2.1433,0.272 65.209,0.4423 140.1465,0.3789 l 136.25,-0.1152 -0.334,-30.625 c -0.1835,-16.8438 -0.6707,-42.8301 -1.082,-57.748 l -0.7461,-27.1231 -17.6699,-0.3769 c -9.7178,-0.2071 -72.6893,-0.377 -139.9375,-0.377 l -122.26945,0 z"
       id="boho_a_6"
       inkscape:label="#path9567" />
    <path
       inkscape:connector-curvature="0"
       style="fill:none;stroke:#000000;stroke-opacity:1"
       d="m 529.42755,755.42261 c -3.5477,-0.013 -7.4393,0 -11.5234,0.035 l -17.3926,0.1602 0.8359,134.6875 c 1.3058,210.19239 2.1812,306.94199 2.8028,309.99999 0.5584,2.7467 0.9585,2.8125 17.1719,2.8125 11.2452,0 17.0854,0.4839 18.1015,1.5 0.8923,0.8922 1.5,5.1916 1.5,10.6094 l 0,9.1094 43.4375,0.3281 c 23.8907,0.1809 83.375,0.3281 132.1875,0.3281 l 88.75,0 -0.4219,-7.6914 c -0.7745,-14.1672 -6.8588,-12.9336 63.7911,-12.9336 l 61.4062,0 -0.8359,-70.3125 c -0.4592,-38.6719 -1.1225,-111.0938 -1.4746,-160.93749 -0.352,-49.8438 -0.8963,-113.9688 -1.209,-142.5 -0.3129,-28.5313 -0.5823,-57.0781 -0.5996,-63.4375 l -0.031,-11.5625 -57.5,0 -57.5,0 -0.064,7.8125 c -0.036,4.2969 -0.1767,17.6562 -0.3125,29.6875 l -0.2481,21.875 -4.3457,0.4141 c -6.5471,0.6219 -20.9678,-3.2956 -29.4043,-7.9864 -11.5157,-6.4029 -22.5241,-18.3109 -26.8008,-28.9902 -0.8948,-2.2344 -2.0012,-4.0625 -2.457,-4.0625 -0.4558,0 -2.4961,3.5145 -4.5351,7.8086 -8.9272,18.8004 -31.9714,33.4414 -52.6348,33.4414 -5.0738,0 -7.2836,-1.9456 -6.5918,-5.8066 0.105,-0.5868 0.1235,-13.0215 0.041,-27.6309 l -0.1465,-26.5625 -11.875,0 -11.875,0 0,5.0527 c 0,7.1813 -3.2334,21.9042 -6.8203,31.0567 -13.0626,33.3319 -39.7927,57.1691 -73.7734,65.789 -13.2878,3.3707 -27.904,4.1538 -28.7246,1.5391 -0.2697,-0.8594 -0.8437,-24.3245 -1.2754,-52.1465 -0.4319,-27.8221 -0.8969,-50.6886 -1.0332,-50.8125 -0.4209,-0.3826 -7.976,-0.6347 -18.6192,-0.6738 z m 7.5821,476.44529 0.8711,56.5625 c 0.4782,31.1094 1.3756,57.2033 1.9941,57.9863 0.8286,1.0489 37.3098,1.4299 138.6484,1.4473 l 137.5254,0.023 -0.7285,-47.6972 c -0.4003,-26.2334 -1.0405,-52.3379 -1.4238,-58.0098 l -0.6973,-10.3125 -138.0937,0 -138.0957,0 z"
       id="boho_a_7"
       inkscape:label="#path9561" />
    <path
       inkscape:connector-curvature="0"
       id="boho_a_8"
       style="fill:none;fill-opacity:1;stroke:#000000;stroke-opacity:1"
       d="m -638.1898,1226.8689 65.262,0 0.363,-10.3125 0.3631,-10.3125 18.125,-0.625 18.125,-0.625 0,-207.49999 c 0,-114.125 -0.1711,-215.2344 -0.3802,-224.6875 l -0.3801,-17.1875 -54.9188,0 -54.9188,0 -0.326,52.8125 -0.3261,52.8125 -6.0793,0.3867 c -16.8759,1.0738 -42.7145,-7.0622 -60.1707,-18.9462 -26.969,-18.3602 -45.6638,-50.2802 -48.4299,-82.6905 l -0.3201,-3.75 -56.651,-0.3253 c -31.1581,-0.1789 -58.4394,0.1374 -60.625,0.703 -3.6501,0.9445 -4.0377,1.5435 -4.755,7.3487 -4.6974,38.0158 -36.6212,68.2491 -76.6423,72.5841 l -8.6733,0.9395 0.4318,63.125 c 0.2375,34.7187 0.3414,114.87499 0.2307,178.12499 -0.1106,63.25 0.1211,118.0937 0.5151,121.875 l 0.7163,6.875 62.0156,-0.3358 c 34.1085,-0.1847 62.4351,0.096 62.948,0.625 0.5128,0.5284 1.0728,4.3358 1.2444,8.4608 0.5754,13.8267 -8.1374,12.3962 69.7559,11.4534 37.5313,-0.4543 97.6067,-0.8265 133.5007,-0.8272 z m 0.6756,123.5948 72.1875,-0.08 0.079,-8.945 c 0.044,-4.9198 0.1843,-30.8077 0.3125,-57.5288 l 0.2333,-48.5837 -138.9857,0.486 c -76.4421,0.2674 -139.4373,0.9377 -139.9892,1.4897 -0.552,0.552 -1.1727,26.2282 -1.3794,57.0583 -0.3552,52.9855 -0.2531,56.0919 1.8643,56.7303 1.232,0.3715 31.7713,0.4005 67.865,0.065 36.0938,-0.336 98.1094,-0.647 137.8125,-0.6911 z"
       inkscape:label="#path9205" />
    <path
       inkscape:connector-curvature="0"
       style="fill:none;fill-opacity:1;stroke:#000000;stroke-opacity:1"
       d="m -1294.9592,-327.42112 c -16.4215,0.0118 -27.0021,0.12633 -28.1797,0.37305 -2.0439,0.42821 -2.1875,4.13017 -2.1875,56.42579 l 0,55.96874 2.8985,0.72851 c 1.5946,0.40023 19.7352,0.84486 40.3125,0.98828 20.5772,0.14342 48.664,0.58226 62.414,0.97461 13.75,0.39234 59.7882,0.87667 102.3086,1.07813 l 77.3106,0.36718 -0.8809,-56.62108 c -0.4842,-31.14105 -1.0796,-56.95333 -1.3242,-57.36133 -0.6723,-1.12154 -181.5119,-2.97295 -252.6719,-2.92188 z m -4.1094,121.86914 c -14.2401,-0.039 -17.5816,0.35572 -17.664,1.28711 -0.085,0.96357 -0.035,4.65148 0.1093,8.19531 0.1445,3.54382 -0.4074,7.69605 -1.2265,9.22656 l -1.4903,2.78125 -43.9296,-0.47461 -43.9317,-0.47656 -0.668,41.25 c -0.3673,22.6875 -0.7892,41.45409 -0.9375,41.70508 -0.1483,0.25099 -13.9101,0.25099 -30.582,0 l -30.3125,-0.45508 -0.2929,52.500005 c -0.613,109.66636 -0.3511,370.832205 0.373,372.003905 0.4584,0.7417 6.9147,1.00823 16.3789,0.67773 14.1325,-0.4935 15.7981,-0.79553 17.4668,-3.17773 1.6547,-2.3625 2.9978,-2.62147 13.0508,-2.51367 10.8257,0.11599 13.8053,1.06625 15.0996,4.81835 0.3512,1.018 186.1772,3.19141 272.9199,3.19141 l 17.4961,0 0.9316,-8.75 c 1.0272,-9.6436 6.0553,-27.2138 10.0157,-35 17.9437,-35.2779 53.4574,-58.84807 92.6836,-61.51367 l 11.1211,-0.75586 -0.8477,-130.740225 c -0.4663,-71.90728 -1.1008,-143.39649 -1.4102,-158.86524 -0.3093,-15.46875 -0.9028,-46.406255 -1.3203,-68.750005 -0.4175,-22.34375 -0.9885,-40.85693 -1.2695,-41.14062 -0.281,-0.28369 -9.2462,-0.781 -19.9219,-1.10547 -12.2818,-0.37329 -19.7442,-1.10217 -20.3183,-1.98438 -0.499,-0.76684 -0.9063,-5.33203 -0.9063,-10.14453 l 0,-8.75 -77.5,-0.77148 c -42.625,-0.42409 -102.9531,-1.21249 -134.0625,-1.75196 -18.0424,-0.31287 -30.5106,-0.49224 -39.0547,-0.51562 z"
       id="boho_a_10"
       inkscape:label="#path5909" />
    <path
       inkscape:connector-curvature="0"
       style="fill:none;stroke:#000000;stroke-opacity:1"
       d="m 124.19515,-323.24338 c -12.886,0.0104 -24.875503,0.0325 -35.459003,0.0684 l -12.8125,0.043 0,57.25 c 0,34.49288 0.472,57.72203 1.1875,58.43749 0.7357,0.73565 53.650403,1.1875 139.062503,1.1875 l 137.875,0 0.3594,-57.64647 0.3574,-57.64649 -3.7539,-0.75195 c -2.5308,-0.50616 -136.6141,-1.01423 -226.8164,-0.94141 z m -43.271503,123.84765 0,8.65429 c 0,4.75942 -0.3423,9.54339 -0.7597,10.63086 -0.6776,1.76596 -7.3383,1.97657 -62.3379,1.97657 l -61.5801,0 -0.7344,7.1875 c -0.4043,3.95312 -0.491,29.40625 -0.1914,56.5625 0.2995,27.156255 0.5582,104.8382347 0.5742,172.626955 l 0.029,123.251945 10.0625,0.77539 c 10.3407,0.7974 22.9787,4.01283 32.7343998,8.32813 8.8175,3.9005 22.1413002,14.29435 30.0488002,23.43945 8.7782,10.1517 13.21,17.88043 18.4629,32.20313 l 1.375,3.75 2.3867,-6.76563 c 5.9759,-16.9411 20.7044,-35.4342 36.5899,-45.9414 11.4418,-7.5682 29.346003,-13.79881 42.851503,-14.91211 7.954,-0.6557 10.3764,-0.46498 11.25,0.89062 1.0907,1.6926 1.5399,19.54173 1.6719,66.39453 l 0.066,23.41602 56.5625,-0.0332 c 31.1094,-0.018 59.3767,-0.33679 62.8164,-0.70899 l 6.2539,-0.67578 2.0996,-12.70703 c 5.8835,-35.6114 27.7853,-65.51982 59.1426,-80.76172 15.7747,-7.6676 27.0797,-10.66374 40.3067,-10.68164 l 10.3066,-0.0137 0.019,-54.375 c 0.013,-29.906265 0.3778,-107.3906253 0.8164,-172.187495 l 0.7969,-117.812505 -16.748,-0.0195 c -9.2117,-0.01 -17.4261,-0.4485 -18.2539,-0.97461 -0.9105,-0.57877 -1.6511,-4.89274 -1.875,-10.91993 l -0.3692,-9.96093 -132.1875,-0.31836 -132.187503,-0.31836 z"
       id="boho_a_1"
       inkscape:label="#path5661" />
    <path
       inkscape:connector-curvature="0"
       style="fill:none;stroke:#000000;stroke-opacity:1"
       d="m 812.79865,-322.50705 -137.5,0.45507 c -75.625,0.25036 -137.9218,0.70588 -138.4375,1.01172 -1.4831,0.87968 -1.1608,115.12543 0.3262,115.62109 2.0022,0.66739 274.2906,-0.38275 274.9863,-1.06055 0.3438,-0.33487 0.625,-26.57844 0.625,-58.31835 l 0,-57.70898 z m -8.2324,122.74022 -82.7598,0.80665 c -45.5173,0.44277 -105.1171,0.80852 -132.4453,0.81445 l -49.6875,0.0117 0,8.64843 c 0,4.75628 -0.3424,9.53753 -0.7597,10.625 -0.6777,1.76598 -7.3407,1.97657 -62.375,1.97657 l -61.6192,0 -0.5215,84.687505 c -0.2872,46.57812 -0.6463,147.82813 -0.7968,224.999995 l -0.2735,140.3125 55.5117,0 55.5118,0 0.8828,-7.8125 c 4.1556,-36.7333 26.2876,-69.4044 58.5761,-86.4668 13.3383,-7.0484 25.0688,-10.33376 44.3262,-12.41406 9.6845,-1.0462 9.2953,-3.45914 8.8262,54.69726 l -0.4141,51.3711 56.8203,-0.18555 56.8223,-0.18555 1.627,-9.81445 c 1.6902,-10.1902 2.489,-12.72484 7.6113,-24.14844 5.546,-12.3684 17.9578,-26.577 30.2441,-34.625 12.029,-7.8794 31.4098,-14.16601 43.6719,-14.16601 l 4.7598,0 0.7754,-30.9375 c 0.4265,-17.0156 1.1338,-99.687385 1.5703,-183.714845 l 0.7929,-152.777345 -17.9726,-0.34766 -17.9727,-0.34765 -0.3672,-10.50391 -0.3652,-10.50389 z"
       id="boho_a_2"
       inkscape:label="#path5629" />
    <path
       inkscape:connector-curvature="0"
       style="fill:none;stroke:#000000;stroke-opacity:1"
       d="m 1280.9236,-328.45237 -39.6875,0.77149 c -21.8281,0.42429 -85.3105,1.13884 -141.0722,1.58789 l -101.38475,0.81641 -0.8027,15.75976 c -1.0704,21.02389 -1.1811,99.76116 -0.1426,101.4414 0.5619,0.90913 11.13525,1.12834 33.51755,0.69531 17.9832,-0.34792 66.7285,-1.01062 108.3222,-1.47265 41.5938,-0.46202 89.9597,-1.19073 107.4805,-1.6211 l 31.8555,-0.7832 0.8847,-5 c 0.4867,-2.75 0.9174,-29.1191 0.9571,-58.59765 l 0.072,-53.59766 z m -8.5722,123.83593 -58.5274,0.7461 c -32.1896,0.41061 -71.7441,1.03377 -87.9004,1.38476 -34.6659,0.75307 -110.3279,1.95009 -119.6367,1.89258 l -6.51165,-0.041 -0.3633,10.3125 -0.3633,10.3125 -61.6054,0.77343 c -33.8832,0.42488 -61.9071,1.07123 -62.2735,1.4375 -1.1809,1.18092 -1.5135,25.77526 -2.3437,173.0937547 -0.4487,79.5823003 -0.9878,174.3584853 -1.1993,210.6132853 l -0.3847,65.91796 33.9023,0.33204 c 18.6468,0.1827 43.8669,0.45566 56.043,0.60546 12.1762,0.1498 22.447,-0.22759 22.8242,-0.83789 0.3773,-0.6103 1.0196,-24.07773 1.4277,-52.14843 0.8527,-58.625 -0.046,-54.73338 12.3262,-53.42578 20.06455,2.12069 39.81255,9.34725 54.82415,20.06445 24.7105,17.6415 40.684,43.88059 45.0274,73.96679 l 1.5664,10.85743 11.1836,0 11.1816,0 0.625,-45 0.625,-45 6.1543,-0.38867 c 3.3848,-0.21441 10.3792,0.54836 15.543,1.69726 19.3216,4.2986 37.0944,15.12941 49.5508,30.19531 7.3016,8.8312 18.1269,28.68675 18.1269,33.24805 0,3.84 1.7795,1.37535 5.2364,-7.25195 4.3829,-10.9385 13.8723,-24.5998 22.6835,-32.6543 17.3279,-15.8398 35.0634,-24.02063 57.4161,-26.48633 l 7.789,-0.85937 0.7774,-29.375 c 0.4278,-16.1563 1.1386,-70.718745 1.5781,-121.249995 0.4395,-50.53125 1.1488,-118.73438 1.5762,-151.562505 l 0.7754,-59.6875 -18.2168,0 c -13.0909,0 -18.4856,-0.43363 -19.17,-1.54102 -0.5238,-0.8476 -0.7997,-5.68184 -0.6113,-10.74219 l 0.3438,-9.19922 z"
       id="boho_a_3"
       inkscape:label="#path5591" />
    <path
       inkscape:connector-curvature="0"
       style="fill:none;stroke:#000000;stroke-opacity:1"
       d="m -343.14855,-325.27658 c -26.0571,0.0155 -43.4573,0.14124 -43.584,0.41601 -0.2799,0.60696 -0.218,26.97852 0.1367,58.60352 l 0.6445,57.49999 71.25,0.625 c 39.1875,0.34375 102.0469,0.79794 139.6875,1.00977 l 68.4375,0.38476 0,-58.12304 c 0,-31.96812 -0.4219,-58.37972 -0.9375,-58.69141 -1.3773,-0.83255 -157.4636,-1.77106 -235.6347,-1.7246 z m 122.7187,121.04882 c -0.4342,-0.0179 -0.9297,0.0616 -1.3809,0.24218 -0.9971,0.39903 -0.7004,0.69589 0.7559,0.75586 1.3176,0.0543 2.056,-0.24089 1.6406,-0.65625 -0.2077,-0.20768 -0.5813,-0.32392 -1.0156,-0.34179 z m -27.9785,3.49414 c -66.2095,-0.0217 -132.4172,0.18467 -132.8731,0.64062 -0.4786,0.4786 -0.6967,4.66464 -0.4824,9.30274 0.2984,6.45987 -0.065,8.81098 -1.5566,10.04882 -1.5641,1.2981 -14.0261,1.45197 -63.3633,0.78516 l -61.41805,-0.83008 0.8496,104.763685 c 0.4674,57.62006 1.0613,111.51367 1.3184,119.76367 0.2571,8.25 0.6211,51.56245 0.8105,96.249995 0.1894,44.6875 0.5455,92.34896 0.7911,105.91406 l 0.4472,24.66406 27.7168,0.36133 c 15.24455,0.1987 28.90465,0.49044 30.35555,0.64844 1.4509,0.1581 5.1999,-0.063 8.332,-0.49219 l 0,-0.002 5.6953,-0.7793 0.8809,-7.6582 c 4.4824,-38.9511 30.8447,-74.61571 65.6953,-88.87891 15.8278,-6.4779 43.1704,-10.68178 45.4531,-6.98828 0.9319,1.5078 1.9082,40.47206 1.92,76.66016 l 0.01,28.44921 64.0625,-0.32421 64.0625,-0.32422 0.3399,-6.25 c 0.8509,-15.6385 8.1726,-36.57824 18.3515,-52.49024 12.1983,-19.0691 34.9914,-36.65391 56.3965,-43.50781 10.2508,-3.2823 26.750197,-6.131 32.744197,-5.6543 l 5.6503,0.44922 -0.6718,-170.4121053 c -0.3688,-93.7263547 -0.9537,-170.6959247 -1.3008,-171.0429747 -0.347,-0.34704 -8.3296,-0.77702 -17.7383,-0.95703 -13.156697,-0.25172 -17.367797,-0.73778 -18.240197,-2.10547 -0.624,-0.97807 -1.0682,-5.59797 -0.9864,-10.26562 0.081,-4.66766 -0.088,-8.72307 -0.3769,-9.01172 -0.4562,-0.45621 -66.6655,-0.70488 -132.875,-0.72656 z"
       id="boho_a_12"
       inkscape:label="#path5551" />
    <path
       inkscape:connector-curvature="0"
       style="fill:none;fill-opacity:1;stroke:#000000;stroke-opacity:1"
       d="m -572.82638,-326.93869 -141.25,0.11914 -141.25,0.11914 -0.0488,7.09765 c -0.06,8.89601 0.31568,54.13811 0.54688,65.84571 0.095,4.8125 0.30379,16.47255 0.46289,25.91015 l 0.28906,17.1582 22.8125,0.3418 c 12.5469,0.18739 75.9687,0.33984 140.9375,0.33984 l 118.125,0 -0.2012,-34.37499 c -0.1104,-18.90625 -0.2511,-45.21667 -0.3125,-58.4668 l -0.11133,-24.08984 z m -276.875,124.42968 0.34961,8.57617 c 0.2108,5.15166 -0.22384,9.26911 -1.08984,10.3125 -1.1937,1.43841 -11.88676,1.74001 -62.22657,1.75586 -33.4315,0.01 -61.54591,0.50283 -62.47851,1.09375 -1.7274,1.09451 -1.69864,8.55141 0.44727,115.136725 0.3114,15.46875 0.92819,78.75 1.37109,140.625 0.4428,61.875005 1.05066,112.921895 1.35156,113.437495 0.3009,0.5156 3.77094,0.9375 7.71094,0.9375 24.4571,0 53.0886,17.91538 67.25,42.08007 4.4408,7.57771 9.39193,22.19573 10.30273,30.41993 l 0.76172,6.875 29.375,0.33984 c 16.1562,0.1868 30.5,0.468 31.875,0.625 1.375,0.157 10.375,0.1555 20,0 9.625,-0.1588 22.74119,-0.2994 29.14649,-0.3125 l 0,-0.004 11.64453,-0.0234 -0.32422,-51.60352 c -0.179,-28.3816 0.098,-52.2879 0.61523,-53.125 2.5514,-4.1282 32.28144,0.64923 47.55274,7.64063 17.5615,8.04 37.45759,24.81926 47.77929,40.29296 9.56,14.3319 17.86435,36.96726 17.93164,48.88086 0.056,9.9637 -4.93104,9.16407 57.19336,9.16407 l 55.64844,0 -0.78125,-122.8125 c -0.8657,-135.984545 -1.6781,-217.974665 -2.8164,-284.375 l -0.75586,-44.0625 -16.49024,0 c -11.2529,0 -17.1508,-0.49629 -18.5664,-1.5625 -1.5436,-1.16261 -2.16399,-3.96185 -2.42579,-10.9375 l -0.35156,-9.375 -135,0 -135,0 z"
       id="boho_a_11"
       inkscape:label="#path5503" />
    <path
       inkscape:connector-curvature="0"
       style="fill:none;stroke:#000000;stroke-opacity:1"
       d="m 1757.4744,-332.48166 -86.7129,0.004 c -81.9835,0.003 -198.621,1.46108 -202.0254,2.52734 -1.2205,0.38228 -1.5625,13.19891 -1.5625,58.56641 l 0,58.07811 2.8125,0.63867 c 1.5469,0.35155 30.0938,0.27366 63.4375,-0.17382 33.3438,-0.44748 96.1752,-0.83711 139.625,-0.86524 50.9607,-0.033 79.4286,-0.49445 80.2071,-1.30078 0.6637,-0.6875 1.5848,-14.1875 2.0488,-29.99999 0.464,-15.8125 0.9975,-31 1.1855,-33.75 0.1879,-2.75 0.4858,-15.964 0.6621,-29.36328 l 0.3223,-24.36133 z m -286.9766,124.34374 1.8809,22.58008 -132.1113,0.23633 -2.0196,545.48242 81.8653,-0.35938 123.209,-32.80078 353.539,-4.21484 2.0449,-429.45313 -59.623,-3.90234 -0.541,-75.12891 -92.3946,-0.85351 -1.5136,-18.97266 -274.336,-2.61328 z"
       id="boho_a_4"
       inkscape:label="#path4659" />
  </g>
</svg>
