<?xml version="1.0" encoding="UTF-8" standalone="no"?>
<!-- Created with Inkscape (http://www.inkscape.org/) -->

<svg
   xmlns:dc="http://purl.org/dc/elements/1.1/"
   xmlns:cc="http://creativecommons.org/ns#"
   xmlns:rdf="http://www.w3.org/1999/02/22-rdf-syntax-ns#"
   xmlns:svg="http://www.w3.org/2000/svg"
   xmlns="http://www.w3.org/2000/svg"
   xmlns:sodipodi="http://sodipodi.sourceforge.net/DTD/sodipodi-0.dtd"
   xmlns:inkscape="http://www.inkscape.org/namespaces/inkscape"
   width="394.9921mm"
   height="129.29504mm"
   viewBox="0 0 1399.5783 458.13204"
   id="svg41655"
   version="1.1"
   inkscape:version="0.91 r13725"
   sodipodi:docname="wyng-floor-d_rooms.svg">
  <defs
     id="defs41657" />
  <sodipodi:namedview
     id="base"
     pagecolor="#ffffff"
     bordercolor="#666666"
     borderopacity="1.0"
     inkscape:pageopacity="0.0"
     inkscape:pageshadow="2"
     inkscape:zoom="0.49497475"
     inkscape:cx="985.6209"
     inkscape:cy="-29.199814"
     inkscape:document-units="px"
     inkscape:current-layer="layer1"
     showgrid="false"
     fit-margin-top="0"
     fit-margin-left="0"
     fit-margin-right="0"
     fit-margin-bottom="0"
     inkscape:window-width="1600"
     inkscape:window-height="837"
     inkscape:window-x="-8"
     inkscape:window-y="-8"
     inkscape:window-maximized="1" />
  <metadata
     id="metadata41660">
    <rdf:RDF>
      <cc:Work
         rdf:about="">
        <dc:format>image/svg+xml</dc:format>
        <dc:type
           rdf:resource="http://purl.org/dc/dcmitype/StillImage" />
        <dc:title></dc:title>
      </cc:Work>
    </rdf:RDF>
  </metadata>
  <g
     inkscape:label="Layer 1"
     inkscape:groupmode="layer"
     id="layer1"
     transform="translate(249.26112,-152.55489)">
    <path
       inkscape:connector-curvature="0"
       style="fill:none;fill-opacity:1;stroke:#000000;stroke-opacity:1"
       d="m 1061.9351,608.49981 c 37.7509,-6.06686 70.6226,-34.31578 82.188,-70.62991 3.9352,-12.35623 5.1712,-21.5158 5.6999,-42.24082 l 0.4942,-19.37411 -53.8586,-0.14255 c -29.6223,-0.0784 -52.5435,-0.30423 -50.9359,-0.50182 2.6703,-0.32824 2.9227,-0.62799 2.9227,-3.47004 l 0,-3.11079 -9.2179,0.10314 c -5.0698,0.0567 -24.8996,0.0789 -44.06632,0.0495 l -34.8483,-0.0535 0,-2.67229 c 0,-2.07845 0.3997,-2.67229 1.7986,-2.67229 0.9893,0 1.7986,-0.40085 1.7986,-0.89076 l -3.5972,-24.3044 0,-19.4699 c 0,-12.3861 -0.3271,-19.4699 -0.8993,-19.4699 -0.5621,0 -0.8993,5.34459 -0.8993,14.25222 l 0,14.25221 -3.1139,0 c -4.7414,0 -12.4364,-3.22816 -16.8336,-7.06192 -4.6807,-4.08088 -8.4094,-10.50246 -9.7835,-16.84863 -0.547,-2.52664 -1.3658,-4.59388 -1.8195,-4.59388 -0.4861,0 -0.8247,14.26628 -0.8247,34.73978 l 0,34.73976 -10.7918,0 -10.7917,0 0,44.09278 0,44.09277 2.9227,0.14256 2.9228,0.14255 -2.9228,0.35927 -2.9227,0.35927 0,9.28292 0,9.28292 64.7504,0.004 64.75042,0.004 0.1035,-2.88472 c 0.1004,-2.80255 0.1246,-2.78323 0.8475,0.67832 0.4092,1.95969 0.7673,10.86167 0.7959,19.78223 l 0.052,16.21915 9.2179,-0.4787 c 5.0698,-0.26328 12.6578,-1.03151 16.8621,-1.70717 z"
       id="wyng_d_1"
       sodipodi:nodetypes="csscscscsscssccssscsscsscccccccccccccccscscc"
       inkscape:label="#path39370" />
    <path
       inkscape:connector-curvature="0"
       style="fill:none;fill-opacity:1;stroke:#000000;stroke-opacity:1"
       d="m -105.37128,567.54626 0,-9.34128 -3.37241,-0.14974 -3.37242,-0.14974 3.37242,-0.3494 3.37241,-0.34942 0,-44.03901 0,-44.039 -29.22762,0 -29.22763,0 0,-2.67229 c 0,-2.07845 0.3997,-2.67229 1.79863,-2.67229 0.98924,0 1.79863,-0.40084 1.79863,-0.89077 l -3.59726,-24.29588 0,-19.47415 c 0,-16.71651 -0.19101,-19.47416 -1.34896,-19.47416 -1.14335,0 -1.34897,2.19122 -1.34897,14.37629 l 0,14.37628 -4.42645,-0.51925 c -12.26255,-1.43851 -23.69895,-12.54046 -25.03778,-24.30555 l -0.44696,-3.92777 -15.17134,0 -15.17134,0 0,34.73977 0,34.73977 -2.24828,0 c -1.69572,0 -2.27837,0.49257 -2.37074,2.00422 l -0.12247,2.00421 -0.38975,-2.00421 c -0.36946,-1.90002 -0.80729,-2.00422 -8.42098,-2.00422 l -8.03126,0 0,7.51504 0,7.51506 2.92277,0.35926 c 2.87763,0.35372 2.87068,0.36148 -0.44966,0.50182 l -3.37242,0.14256 0,21.37831 0,21.37832 3.37242,0.14255 c 3.32034,0.14035 3.32729,0.1481 0.44966,0.50182 l -2.92277,0.35927 0,23.28156 c 0,18.10788 0.23982,23.04402 1.07918,22.21263 1.8309,-1.81349 2.89663,-1.17813 1.17834,0.70251 -1.61411,1.76663 -1.42614,1.77141 69.55727,1.76978 l 71.17574,-0.002 0,-9.34127 z"
       id="wyng_d_15"
       sodipodi:nodetypes="ccccccccccssccssscsscccccssccscccsscccsscssssccc"
       inkscape:label="#path39166" />
    <path
       inkscape:connector-curvature="0"
       style="fill:none;fill-opacity:1;stroke:#000000;stroke-opacity:1"
       d="m 21.653395,567.53652 0,-9.33156 -2.51685,-0.13345 -2.51686,-0.13346 2.51686,-0.37109 2.51685,-0.37108 0,-44.0336 0,-44.03363 -10.98263,0 -10.98263001,0 0,-34.73977 c 0,-19.10686 -0.34631,-34.73977 -0.76957999,-34.73977 -0.42329,0 -1.25458,2.10443 -1.84733,4.67651 -3.00306,13.0308 -15.57806,23.82792 -27.75145,23.82792 l -2.57955,0 0,-14.2522 c 0,-8.90764 -0.34322,-14.25223 -0.91523,-14.25223 -0.58222,0 -0.91521,7.08381 -0.91521,19.46991 l 0,19.4699 c 0,0 -1.83043,25.19515 -3.66088,24.30438 0,0.48993 0.8237,0.89077 1.83045,0.89077 1.42366,0 1.83043,0.59384 1.83043,2.67229 l 0,2.67229 -29.74463,0 -29.74463,0 0,44.09278 0,44.09277 2.97446,0.14256 2.97446,0.14256 -2.97446,0.35926 -2.97446,0.35927 0,9.29114 0,9.29115 58.11643,-0.016 58.11644,-0.016 0,-9.33155 z"
       id="wyng_d_13"
       sodipodi:nodetypes="ccccccccccsssscsssccssccccccccccccccc"
       inkscape:label="#path39100" />
    <path
       inkscape:connector-curvature="0"
       style="fill:none;fill-opacity:1;stroke:#000000;stroke-opacity:1"
       d="m 271.66199,567.53674 0,-9.33156 -2.4621,-0.13345 -2.4622,-0.13347 2.4622,-0.37108 2.4621,-0.37107 0,-44.03362 0,-44.03362 -10.74399,0 -10.744,0 0,-34.73976 c 0,-31.99091 -0.60695,-40.68123 -2.16426,-30.99187 -2.0073,12.4889 -12.91587,22.98364 -25.42159,24.45719 l -4.64626,0.54747 0,-14.37628 c 0,-8.99034 -0.33543,-14.37629 -0.89534,-14.37629 -0.56957,0 -0.89533,7.08476 -0.89533,19.47273 l 0,19.47271 -3.58134,24.29876 c 1.88126,1.50529 3.56241,1.16132 3.58134,3.56305 l 0,2.67229 -29.09837,0 -29.09837,0 0,44.09278 0,44.09277 2.90983,0.14256 2.90984,0.14255 -2.90984,0.35927 -2.90983,0.35927 0,9.29113 0,9.29115 56.85374,-0.016 56.85377,-0.016 0,-9.33155 z"
       id="wyng_d_11"
       sodipodi:nodetypes="ccccccccccssscssscccccccccccccccccc"
       inkscape:label="#path39018" />
    <path
       inkscape:connector-curvature="0"
       style="fill:none;fill-opacity:1;stroke:#000000;stroke-opacity:1"
       d="m 394.64599,567.55309 0,-9.34791 -3.3724,-0.14974 -3.3724,-0.14975 3.3724,-0.34939 3.3724,-0.34942 0,-10.63539 0,-10.63539 -16.1876,0 -16.1876,0 0,-33.40362 0,-33.40361 -13.04,0 -13.04,0 0,-2.67229 c 0,-2.07845 0.3997,-2.67229 1.7986,-2.67229 0.9893,0 1.7986,-0.40085 1.7986,-0.89076 l -3.5972,-24.29589 0,-19.47416 c 0,-16.7165 -0.1911,-19.47415 -1.349,-19.47415 -1.1435,0 -1.3489,2.19122 -1.3489,14.37629 l 0,14.37628 -4.4266,-0.51926 c -12.1895,-1.42995 -22.9833,-11.73362 -25.0886,-23.94974 -0.3507,-2.034 -1.1376,-3.8633 -1.7488,-4.06512 -0.8695,-0.28709 -1.1113,7.20606 -1.1113,34.44709 l 0,34.814 -10.342,0 -10.3421,0 0,44.09278 0,44.09277 2.0234,0.12131 2.0235,0.12131 -2.0235,0.38603 c -1.9438,0.37082 -2.0234,0.75094 -2.0234,9.65531 l 0,9.26929 57.1063,0.0166 57.1062,0.0166 0,-9.34788 z"
       id="wyng_d_9"
       sodipodi:nodetypes="ccccccccccccccssccssscsccscccccccssccccc"
       inkscape:label="#path38980" />
    <path
       inkscape:connector-curvature="0"
       style="fill:none;fill-opacity:1;stroke:#000000;stroke-opacity:1"
       d="m 521.16549,567.53674 0,-9.33156 -2.484,-0.13345 -2.4841,-0.13347 2.4841,-0.37108 2.484,-0.37107 0,-44.03362 0,-44.03362 -10.8394,0 -10.8395,0 0,-34.73976 c 0,-20.4735 -0.3403,-34.73978 -0.8286,-34.73978 -0.4556,0 -1.2779,2.06724 -1.8274,4.59388 -2.7166,12.49143 -13.1641,22.20844 -25.4164,23.63943 l -4.446,0.51926 0,-14.37628 c 0,-12.18507 -0.2066,-14.37629 -1.3549,-14.37629 -1.1631,0 -1.355,2.75765 -1.355,19.47415 l 0,19.47416 c 0,0 -1.3549,25.18665 -2.7098,24.29589 0,0.48991 0.6096,0.89076 1.3549,0.89076 0.9033,0 1.3549,0.89076 1.3549,2.67229 l 0,2.67229 -28.9052,0 -28.9051,0 0,44.09278 0,44.09277 2.9356,0.14256 2.9358,0.14255 -2.9358,0.35927 -2.9356,0.35927 0,9.29113 0,9.29115 57.3587,-0.016 57.3588,-0.016 0,-9.33155 z"
       id="wyng_d_7"
       sodipodi:nodetypes="ccccccccccsscscsssccssccccccccccccccc"
       inkscape:label="#path38944" />
    <path
       inkscape:connector-curvature="0"
       style="fill:none;fill-opacity:1;stroke:#000000;stroke-opacity:1"
       d="m 644.65459,567.55309 0,-9.34791 -3.3724,-0.14974 -3.3724,-0.14975 3.3724,-0.34939 3.3724,-0.34942 0,-44.03902 0,-44.03899 -29.6772,0 -29.6773,0 0,-2.67229 c 0,-2.07845 0.3997,-2.67229 1.7986,-2.67229 0.9893,0 1.7986,-0.40085 1.7986,-0.89076 l -3.5972,-24.28073 0,-19.48174 c 0,-12.39398 -0.3272,-19.48173 -0.8993,-19.48173 -0.5625,0 -0.8993,5.38595 -0.8993,14.37629 l 0,14.37628 -4.4514,-0.52218 c -12.5992,-1.47802 -23.3295,-11.86438 -25.7138,-24.89001 -1.6313,-8.9104 -2.2101,-0.68673 -2.2101,31.3994 l 0,34.73976 -10.342,0 -10.3421,0 0,44.09278 0,44.09277 2.0234,0.12131 2.0235,0.12131 -2.0235,0.38603 c -1.9438,0.37082 -2.0234,0.75094 -2.0234,9.65531 l 0,9.26929 57.1063,0.0166 57.1062,0.0166 0,-9.34788 z"
       id="wyng_d_5"
       sodipodi:nodetypes="ccccccccccssccssscscscccccccssccccc"
       inkscape:label="#path38888" />
    <path
       inkscape:connector-curvature="0"
       style="fill:none;fill-opacity:1;stroke:#000000;stroke-opacity:1"
       d="m 803.99348,574.04098 0.1458,-2.87024 0.3676,2.87024 0.3674,2.87024 22.2679,0 22.2674,0 0.1459,-2.87024 0.1459,-2.87024 0.3675,2.87024 0.3675,2.87024 23.1791,0 23.1788,0 0,-9.27307 0,-9.27307 -2.9615,-0.14134 -2.9615,-0.14132 2.9615,-0.35621 2.9615,-0.35618 0,-43.65992 0,-43.65992 -10.4793,0 -10.4793,0 0,-34.51641 c 0,-27.00818 -0.2449,-34.43727 -1.126,-34.15264 -0.6194,0.2001 -1.4168,2.01376 -1.7719,4.03037 -2.1644,12.28751 -13.2925,22.69135 -25.4859,23.82684 l -4.4208,0.41171 0,-14.24275 c 0,-12.07145 -0.2083,-14.24275 -1.367,-14.24275 -1.1731,0 -1.3668,2.73408 -1.3668,19.30768 l 0,19.3077 c 0,0 -1.3668,24.97136 -2.7338,24.08821 0,0.48572 0.6152,0.88315 1.367,0.88315 0.9113,0 1.3668,0.88314 1.3668,2.64944 l 0,2.64945 -29.6153,0 -29.6154,0 0,43.71588 0,43.71586 2.5059,0.13233 2.5059,0.13232 -2.5059,0.36791 -2.5059,0.36792 0,9.21439 0,9.21442 11.3906,0 11.3905,0 z"
       id="wyng_d_3"
       sodipodi:nodetypes="ccccccccccccccccccccccsscscsssccsscccccccccccccc"
       inkscape:label="#path38806" />
    <path
       inkscape:connector-curvature="0"
       style="fill:none;fill-opacity:1;stroke:#000000;stroke-opacity:1"
       d="m -196.62765,323.14452 c 2.07062,-9.74959 6.07745,-16.59912 12.05062,-20.60015 4.33817,-2.90585 11.86226,-5.69454 15.36429,-5.69454 l 2.68828,0 0,14.34255 c 0,12.16946 0.20439,14.34257 1.34897,14.34257 1.15886,0 1.34896,-2.73886 1.34896,-19.4342 l 0,-19.43421 c -0.36299,-4.24844 1.79863,-24.58657 1.79863,-24.58657 -1.39893,0 -1.79863,-0.5795 -1.79863,-2.60773 l 0,-2.60774 29.22763,0 29.22762,0 0,-43.02769 0,-43.02769 -3.37241,-0.14612 -3.37242,-0.14613 3.37242,-0.34096 3.37241,-0.34098 0,-8.63999 0,-8.63999 -70.77581,0 c -55.04786,0 -70.536,0.2318 -69.69664,1.0431 1.8368,1.77539 1.18633,2.79707 -0.71945,1.13002 -1.79426,-1.56951 -1.79863,-1.51825 -1.79863,21.10673 l 0,22.68005 2.92277,0.35059 c 2.87763,0.34518 2.87068,0.35273 -0.44966,0.48969 l -3.37242,0.13913 0,21.29651 0,21.29654 3.37242,0.13911 c 3.32034,0.13696 3.32729,0.14451 0.44966,0.48969 l -2.92277,0.3506 0,6.8989 0,6.89889 8.09381,0 c 7.75774,0 8.09888,-0.0812 8.21627,-1.95581 l 0.12246,-1.9558 0.38975,1.9558 c 0.27666,1.38844 1.02379,1.95581 2.57546,1.95581 l 2.18573,0 0,34.33524 0,34.33521 14.82151,0 14.82151,0 z"
       id="wyng_d_16"
       sodipodi:nodetypes="ssscsssccscccccccccccsssscsscccsscccssccscccccs"
       inkscape:label="#path38096" />
    <path
       inkscape:connector-curvature="0"
       style="fill:none;fill-opacity:1;stroke:#000000;stroke-opacity:1"
       d="m -34.325635,311.0715 0,-14.46365 4.49566,0.51465 c 12.74127,1.45856 26.51102,10.72565 28.46336,23.30948 1.56151999,10.06492 -0.5838,2.51777 -0.5838,-29.23207 l 0,-34.33523 10.79174,0 10.79173,0 0,-43.02769 0,-43.02768 -2.4731,-0.13024 -2.47311,-0.13024 2.47311,-0.36212 2.4731,-0.36212 0,-8.63473 0,-8.63471 -57.10628,0 -57.10628,0 0,8.69246 0,8.69244 2.92276,0.13913 2.92276,0.1391 -2.92276,0.3506 -2.92276,0.35057 0,42.97262 0,42.97261 29.22762,0 29.22763,0 0,2.60774 c 0,2.02823 -0.3997,2.60774 -1.79862,2.60774 -0.98925,0 -1.79863,0.39117 -1.79863,0.86924 l 3.59725,23.71732 0,19.43421 c 0,12.37663 0.32659,19.4342 0.8993,19.4342 0.56352,0 0.89932,-5.40071 0.89932,-14.46363 z"
       id="wyng_d_14"
       sodipodi:nodetypes="scssscccccccccccccccccccccccssccsss"
       inkscape:label="#path38030" />
    <path
       inkscape:connector-curvature="0"
       style="fill:none;fill-opacity:1;stroke:#000000;stroke-opacity:1"
       d="m 216.74878,311.19236 0,-14.34255 2.71367,0 c 1.49253,0 4.68436,0.63535 7.09294,1.4119 11.27987,3.6367 18.8412,12.35109 20.83619,24.01355 0.30667,1.79282 0.95081,3.25968 1.43134,3.25968 0.54009,0 0.87374,-13.11104 0.87374,-34.33522 l 0,-34.33524 10.98262,0 10.98261,0 0,-43.02769 0,-43.02769 -2.5168,-0.13023 -2.5169,-0.13024 2.5169,-0.36213 2.5168,-0.36211 0,-8.63474 0,-8.63472 -58.11638,0 -58.11643,0 0,8.69246 0,8.69247 2.97445,0.13911 2.97447,0.13911 -2.97447,0.3506 -2.97445,0.35057 0,42.97262 0,42.97261 29.74463,0 29.74463,0 0,2.60774 0,26.94662 0,19.55805 c 0,12.4592 0.33219,19.55805 0.91521,19.55805 0.57318,0 0.91523,-5.36036 0.91523,-14.34258 z"
       id="wyng_d_12"
       sodipodi:nodetypes="scssssscccccccccccccccccccccccccsss"
       inkscape:label="#path37990" />
    <path
       inkscape:connector-curvature="0"
       style="fill:none;fill-opacity:1;stroke:#000000;stroke-opacity:1"
       d="m 303.38959,323.1445 c 1.9484,-9.17416 5.8505,-16.23713 11.0062,-19.92144 4.562,-3.26004 10.1611,-5.59247 14.662,-6.10771 l 4.435,-0.50771 0,14.46366 c 0,12.27706 0.2038,14.46364 1.3489,14.46364 1.1591,0 1.349,-2.75262 1.349,-19.55805 l 0,-19.55805 0,-26.94662 0,-2.60774 29.2276,0 29.2276,0 0,-43.02769 0,-43.02769 -3.3724,-0.14612 -3.3724,-0.14612 3.3724,-0.34097 3.3724,-0.34098 0,-8.63999 0,-8.63999 -57.1062,0 -57.1063,0 0,8.69246 c 0,8.39984 0.068,8.69645 2.0234,8.81085 l 2.0235,0.11837 -2.0235,0.3767 -2.0234,0.37671 0,42.96722 0,42.96724 10.3421,0 10.342,0 0,34.33524 c 0,21.86606 0.3205,34.33522 0.8823,34.33522 0.4852,0 1.1106,-1.0757 1.3898,-2.39044 z"
       id="wyng_d_10"
       sodipodi:nodetypes="csscssscccccccccccccccsscccccccssc"
       inkscape:label="#path37930" />
    <path
       inkscape:connector-curvature="0"
       style="fill:none;fill-opacity:1;stroke:#000000;stroke-opacity:1"
       d="m 466.75739,311.0713 0,-14.46366 4.6015,0.51761 c 6.1004,0.68622 14.9399,5.26338 18.7958,9.73278 3.669,4.25255 6.3779,9.84903 7.2519,14.9826 1.6671,9.79024 2.2987,1.37219 2.2987,-30.64091 l 0,-34.33524 10.9827,0 10.9826,0 0,-43.02769 0,-43.02769 -2.5168,-0.13023 -2.5169,-0.13024 2.5169,-0.36213 2.5168,-0.36211 0,-8.63474 0,-8.63472 -58.1164,0 -58.1165,0 0,8.69246 0,8.69247 2.9744,0.13911 2.9745,0.13911 -2.9745,0.3506 -2.9744,0.35057 0,42.97262 0,42.97261 29.287,0 29.287,0 0,2.60774 0,27.1943 0,19.43421 c 0,16.69534 0.1936,19.43421 1.3729,19.43421 1.1652,0 1.3728,-2.18658 1.3728,-14.46364 z"
       id="wyng_d_8"
       sodipodi:nodetypes="scsccscccccccccccccccccccccccccsss"
       inkscape:label="#path37894" />
    <path
       inkscape:connector-curvature="0"
       style="fill:none;fill-opacity:1;stroke:#000000;stroke-opacity:1"
       d="m 553.70219,321.83464 c 1.9891,-12.59616 13.2113,-23.25498 25.9982,-24.69312 l 4.7471,-0.53391 0,14.46365 c 0,9.06292 0.3418,14.46364 0.9154,14.46364 0.5829,0 0.9153,-7.05861 0.9153,-19.43731 l 0,-19.43732 c 0,0 0.8053,-22.84604 0,-27.18809 l 0,-2.60774 29.7487,0 29.7487,0 0,-43.02769 0,-43.02769 -2.9748,-0.13911 -2.9749,-0.13911 2.9749,-0.35058 2.9748,-0.35059 0,-8.63739 0,-8.63739 -57.6667,0 -57.6668,0 0,8.69246 c 0,8.39984 0.069,8.69645 2.0595,8.81085 l 2.0596,0.11837 -2.0596,0.3767 -2.0595,0.37672 0,42.96722 0,42.96723 10.5265,0 10.5264,0 0,34.33524 c 0,31.58062 0.6448,40.52924 2.2072,30.63496 z"
       id="wyng_d_6"
       sodipodi:nodetypes="sscssscccccccccccccccsscccccccss"
       inkscape:label="#path37854" />
    <path
       inkscape:connector-curvature="0"
       style="fill:none;fill-opacity:1;stroke:#000000;stroke-opacity:1"
       d="m 841.77888,311.08034 0,-14.45454 4.7094,0.59328 c 8.2852,1.04371 15.5759,5.39769 20.4141,12.19106 2.8532,4.0063 4.0663,7.02694 5.5162,13.73432 0.2843,1.31475 0.9208,2.39044 1.4148,2.39044 0.5717,0 0.8978,-12.46915 0.8978,-34.33522 l 0,-34.33524 10.5265,0 10.5264,0 0,-43.02769 0,-43.02769 -2.9748,-0.13911 -2.9749,-0.13911 2.9749,-0.35058 2.9748,-0.35059 0,-8.63739 0,-8.63739 -57.6666,0 -57.6668,0 0,8.69246 c 0,8.39984 0.069,8.69645 2.0595,8.81085 l 2.0596,0.11837 -2.0596,0.3767 -2.0595,0.37672 0,42.96722 0,42.96723 29.2911,0 29.291,0 0,2.60774 c 0,1.73849 -0.4576,2.60774 -1.373,2.60774 l 1.373,24.33889 0,19.55804 c 0,16.80543 0.1933,19.55805 1.3729,19.55805 1.1656,0 1.3732,-2.18557 1.3732,-14.45456 z"
       id="wyng_d_4"
       sodipodi:nodetypes="scsscsscccccccccccccsscccccccsccsss"
       inkscape:label="#path37812" />
    <path
       inkscape:connector-curvature="0"
       style="fill:none;fill-opacity:1;stroke:#000000;stroke-opacity:1"
       d="m 928.73248,319.37156 c 0.871,-5.05871 3.5702,-10.57355 7.226,-14.76408 3.8422,-4.4042 12.6498,-8.91459 18.7283,-9.59079 l 4.5851,-0.51007 0,14.25268 c 0,8.93073 0.3405,14.25266 0.9119,14.25266 0.581,0 0.912,-6.9953 0.912,-19.27275 l 0,-19.27278 c 0,0 1.8238,-23.98387 3.6477,-23.1273 0,-0.47111 -0.8207,-0.85657 -1.8239,-0.85657 -1.4185,0 -1.8238,-0.57105 -1.8238,-2.56971 l 0,-2.5697 35.3376,-0.0515 c 19.43582,-0.0283 39.54402,-0.007 44.68502,0.0476 l 9.3473,0.0992 0,-51.06393 c 0,-33.82452 -0.3078,-50.88524 -0.9119,-50.53458 -0.5016,0.29117 -0.9119,0.12119 -0.9119,-0.37773 0,-0.63073 -21.9458,-0.90706 -72.04332,-0.90706 l -72.043,0 0,8.56567 0,8.56566 3.4198,0.14399 3.4197,0.14401 -3.4197,0.33599 -3.4198,0.33599 0,42.34839 0,42.34835 10.9432,0 10.9433,0 0,33.83441 c 0,31.54616 0.6293,39.84143 2.2904,30.194 z"
       id="wyng_d_2"
       sodipodi:nodetypes="csscsssccsscsccscsscccccccccccscc"
       inkscape:label="#path37772" />
  </g>
</svg>
