<?xml version="1.0" encoding="UTF-8" standalone="no"?>
<!-- Created with Inkscape (http://www.inkscape.org/) -->

<svg
   xmlns:dc="http://purl.org/dc/elements/1.1/"
   xmlns:cc="http://creativecommons.org/ns#"
   xmlns:rdf="http://www.w3.org/1999/02/22-rdf-syntax-ns#"
   xmlns:svg="http://www.w3.org/2000/svg"
   xmlns="http://www.w3.org/2000/svg"
   xmlns:sodipodi="http://sodipodi.sourceforge.net/DTD/sodipodi-0.dtd"
   xmlns:inkscape="http://www.inkscape.org/namespaces/inkscape"
   width="423.67181mm"
   height="146.812mm"
   viewBox="0 0 1501.1993 520.19999"
   id="svg34688"
   version="1.1"
   inkscape:version="0.91 r13725"
   sodipodi:docname="wyng-floor-c_rooms.svg">
  <defs
     id="defs34690" />
  <sodipodi:namedview
     id="base"
     pagecolor="#ffffff"
     bordercolor="#666666"
     borderopacity="1.0"
     inkscape:pageopacity="0.0"
     inkscape:pageshadow="2"
     inkscape:zoom="0.49497475"
     inkscape:cx="400.35463"
     inkscape:cy="479.37589"
     inkscape:document-units="px"
     inkscape:current-layer="layer1"
     showgrid="false"
     fit-margin-top="0"
     fit-margin-left="0"
     fit-margin-right="0"
     fit-margin-bottom="0"
     inkscape:window-width="1600"
     inkscape:window-height="837"
     inkscape:window-x="-8"
     inkscape:window-y="-8"
     inkscape:window-maximized="1" />
  <metadata
     id="metadata34693">
    <rdf:RDF>
      <cc:Work
         rdf:about="">
        <dc:format>image/svg+xml</dc:format>
        <dc:type
           rdf:resource="http://purl.org/dc/dcmitype/StillImage" />
        <dc:title></dc:title>
      </cc:Work>
    </rdf:RDF>
  </metadata>
  <g
     inkscape:label="Layer 1"
     inkscape:groupmode="layer"
     id="layer1"
     transform="translate(81.701724,-495.99673)">
    <path
       inkscape:connector-curvature="0"
       style="fill:none;fill-opacity:1;stroke:#000000;stroke-opacity:1"
       d="m 32.598215,934.29674 0,-81.9 -10.35,0 -10.35001,0 0,-35.625 c 0,-28.09305 -0.23776,-35.54575 -1.12459,-35.25014 -0.61852,0.20617 -1.3844297,2.19137 -1.7020097,4.41155 -1.72995,12.09382 -12.71873,22.74045 -25.4402903,24.64817 l -4.13311,0.6198 0,-14.9522 c 0,-12.69082 -0.20417,-14.95218 -1.35,-14.95218 -1.16,0 -1.35,2.85 -1.35,20.25 l 0,20.25 -3.43665,0 c -1.89015,0 -5.59504,0.64097 -8.23308,1.42438 -6.29272,1.86875 -13.46181,8.82993 -15.62161,15.16859 -2.42777,7.12511 -2.89873,6.80703 10.07884,6.80703 6.37313,0 12.85313,0.25312 14.4,0.5625 2.48333,0.49666 2.8125,0.918 2.8125,3.6 l 0,3.0375 -29.25,0 -29.24999,0 0,81.9 0,81.89996 57.14999,0 57.15001,0 0,-81.89996 z"
       id="wyng_c_19"
       inkscape:label="#path32613" />
    <path
       inkscape:connector-curvature="0"
       style="fill:none;fill-opacity:1;stroke:#000000;stroke-opacity:1"
       d="m 157.69822,934.29674 0,-81.9 -29.25,0 -29.250005,0 0,-3.0375 c 0,-2.682 0.32917,-3.10334 2.812505,-3.6 1.54687,-0.30938 8.02688,-0.5625 14.4,-0.5625 l 11.5875,0 -0.0198,-2.475 c -0.049,-6.1283 -6.3818,-14.60364 -13.70269,-18.33847 -2.11734,-1.08019 -6.25595,-2.12486 -9.42608,-2.37932 l -5.651445,-0.45365 0,-20.12678 c 0,-12.81786 -0.32682,-20.12678 -0.89999,-20.12678 -0.56395,0 -0.90001,5.59077 -0.90001,14.97233 l 0,14.97233 -4.20202,-0.57595 c -5.36473,-0.73532 -12.53573,-4.01542 -16.62176,-7.60301 -4.05122,-3.55702 -8.71764,-12.25754 -9.45346,-17.62589 -1.47551,-10.76504 -2.12276,-1.18779 -2.12276,31.41019 l 0,35.55 -10.8,0 -10.8,0 0,81.9 0,81.89996 57.150015,0 57.14999,0 0,-81.89996 z"
       id="wyng_c_17"
       inkscape:label="#path32603" />
    <path
       inkscape:connector-curvature="0"
       style="fill:none;fill-opacity:1;stroke:#000000;stroke-opacity:1"
       d="m 282.79821,934.29674 0,-81.9 -10.35001,0 -10.34999,0 0,-35.625 c 0,-28.09305 -0.23777,-35.54575 -1.12459,-35.25014 -0.61853,0.20617 -1.38443,2.19137 -1.70202,4.41155 -1.46598,10.24851 -10.059,20.08957 -20.3052,23.2543 -9.96105,3.07666 -9.2682,4.05154 -9.2682,-13.04071 0,-12.6 -0.20454,-14.85 -1.34999,-14.85 -1.16001,0 -1.35001,2.85 -1.35001,20.25 l 0,20.25 -3.43664,0 c -1.89016,0 -5.59504,0.64097 -8.23309,1.42438 -6.29272,1.86875 -13.4618,8.82993 -15.6216,15.16859 -2.42777,7.12511 -2.89873,6.80703 10.07884,6.80703 6.37313,0 12.85312,0.25312 14.39999,0.5625 2.48334,0.49666 2.8125,0.918 2.8125,3.6 l 0,3.0375 -29.25,0 -29.24998,0 0,81.9 0,81.89996 57.14999,0 57.15,0 0,-81.89996 z"
       id="wyng_c_15"
       inkscape:label="#path32591" />
    <path
       inkscape:connector-curvature="0"
       style="fill:none;fill-opacity:1;stroke:#000000;stroke-opacity:1"
       d="m 783.19825,926.19674 0,-73.8 -10.8,0 -10.8,0 0,-35.55 c 0,-32.68573 -0.6648,-42.35975 -2.1444,-31.20604 -1.6561,12.48415 -12.8244,23.21149 -26.05361,25.02475 l -4.20202,0.57595 0,-14.97233 c 0,-9.38156 -0.33606,-14.97233 -0.89999,-14.97233 -0.57334,0 -0.90001,7.35 -0.90001,20.25 l 0,20.25 -3.43665,0 c -6.03917,0 -12.6425,2.55263 -17.03519,6.58525 -4.19076,3.84724 -8.3036,11.15884 -8.31936,14.78975 -0.009,1.9956 0.15943,2.025 11.5787,2.025 6.37313,0 12.85313,0.25312 14.4,0.5625 2.48334,0.49666 2.8125,0.918 2.8125,3.6 l 0,3.0375 -29.25,0 -29.25,0 0,73.8 0,73.8 57.15001,0 57.15002,0 0,-73.8 z"
       id="wyng_c_9"
       inkscape:label="#path32443" />
    <path
       inkscape:connector-curvature="0"
       style="fill:none;fill-opacity:1;stroke:#000000;stroke-opacity:1"
       d="m 908.29822,926.19674 0,-73.8 -29.25,0 -29.25,0 0,-3.0375 c 0,-2.682 0.3291,-3.10334 2.8125,-3.6 1.5469,-0.30938 8.0269,-0.5625 14.4,-0.5625 12.9775,0 12.5065,0.31808 10.0788,-6.80703 -2.1598,-6.33866 -9.3289,-13.29984 -15.6216,-15.16859 -2.6381,-0.78341 -6.3429,-1.42438 -8.2331,-1.42438 l -3.4366,0 0,-20.25 c 0,-17.4 -0.19,-20.25 -1.35,-20.25 -1.1455,0 -1.35,2.25 -1.35,14.85 0,17.12349 0.7297,16.12876 -9.5118,12.9655 -5.0386,-1.55628 -6.989,-2.77226 -11.1984,-6.98164 -5.31836,-5.31844 -8.98977,-12.73802 -8.98977,-18.16762 0,-1.77 -0.4538,-2.66624 -1.35,-2.66624 -1.1772,0 -1.35,4.55 -1.35,35.55 l 0,35.55 -10.35,0 -10.35,0 0,73.8 0,73.8 57.14997,0 57.15,0 0,-73.8 z"
       id="wyng_c_7"
       inkscape:label="#path32415" />
    <path
       inkscape:connector-curvature="0"
       style="fill:none;fill-opacity:1;stroke:#000000;stroke-opacity:1"
       d="m 1158.4982,926.19674 0,-73.8 -10.8,0 -10.8,0 0,-35.55 c 0,-33.09631 -0.6369,-42.04067 -2.2271,-31.275 -1.8514,12.53471 -12.7734,23.07921 -25.8979,25.00281 l -4.275,0.62657 0,-14.9522 c 0,-9.36812 -0.3362,-14.95218 -0.9,-14.95218 -0.5732,0 -0.9,7.30833 -0.9,20.125 l 0,20.125 -5.2771,0.47851 c -6.5729,0.59601 -12.262,3.07309 -16.2081,7.05713 -3.3716,3.40413 -7.2925,10.96528 -7.306,14.08936 -0.01,1.9956 0.1594,2.025 11.5787,2.025 6.3732,0 12.8532,0.25312 14.4,0.5625 2.4834,0.49666 2.8125,0.918 2.8125,3.6 l 0,3.0375 -29.25,0 -29.25,0 0,73.8 0,73.8 57.15,0 57.15,0 0,-73.8 z"
       id="wyng_c_5"
       inkscape:label="#path32377" />
    <path
       inkscape:connector-curvature="0"
       style="fill:none;fill-opacity:1;stroke:#000000;stroke-opacity:1"
       d="m 1283.5982,923.49674 0,-71.1 -29.25,0 -29.25,0 0,-3.0375 c 0,-2.682 0.3291,-3.10334 2.8125,-3.6 1.5469,-0.30938 8.0269,-0.5625 14.4,-0.5625 11.4193,0 11.5874,-0.0294 11.5787,-2.025 -0.014,-3.33978 -4.0415,-10.95156 -7.6457,-14.45197 -3.9975,-3.88224 -11.5211,-6.92303 -17.1293,-6.92303 l -4.0162,0 0,-20.25 c 0,-17.4 -0.19,-20.25 -1.35,-20.25 -1.1459,0 -1.35,2.26278 -1.35,14.96503 l 0,14.96503 -3.825,-0.60725 c -13.0363,-2.06961 -23.9019,-12.7003 -25.5307,-24.97885 -1.4796,-11.15371 -2.1443,-1.47969 -2.1443,31.20604 l 0,35.55 -10.8,0 -10.8,0 0,71.1 0,71.1 57.15,0 57.15,0 0,-71.1 z"
       id="wyng_c_3"
       inkscape:label="#path32359" />
    <path
       inkscape:connector-curvature="0"
       style="fill:none;fill-opacity:1;stroke:#000000;stroke-opacity:1"
       d="m 1329.7901,992.38349 c 42.4054,-9.5769 72.3228,-39.7645 82.0956,-82.83675 1.035,-4.56151 1.5694,-13.31602 1.9365,-31.725 l 0.507,-25.425 -8.2154,0 -8.2155,0 0,-35.55 0,-35.55 -4.3979,0 -4.3977,0 -0.6315,4.275 c -1.8485,12.51474 -13.062,23.32434 -26.0414,25.10337 l -4.1315,0.56629 0,-14.97233 0,-14.97233 -2.7,0 -2.7,0 0,18.31986 0,18.31985 -5.8345,0.54484 c -11.4164,1.06608 -20.92,8.09393 -24.7355,18.29183 -3.2913,8.79673 -3.8032,8.42362 11.5575,8.42362 7.3631,0 14.6531,0.25312 16.2,0.5625 2.4834,0.49666 2.8125,0.918 2.8125,3.6 l 0,3.0375 -29.25,0 -29.25,0 0,71.22607 0,71.22607 14.625,-0.53915 c 8.0437,-0.29654 17.3888,-1.16334 20.7668,-1.92624 z"
       id="wyng_c_1"
       inkscape:label="#path32349" />
    <path
       inkscape:connector-curvature="0"
       style="fill:none;fill-opacity:1;stroke:#000000;stroke-opacity:1"
       d="m 532.99821,911.81827 0,-54.42133 -10.8,0 -10.79999,0 0,-38.04677 c 0,-34.98134 -0.66476,-45.33479 -2.14435,-33.39773 -1.65608,13.36095 -12.82448,24.8417 -26.05364,26.78231 l -4.20201,0.6164 0,-16.02388 c 0,-10.04045 -0.33606,-16.02387 -0.89999,-16.02387 -0.57334,0 -0.9,7.86621 -0.9,21.67221 l 0,21.67221 -4.01625,0 c -5.60817,0 -13.13184,3.25435 -17.12926,7.40925 -3.60425,3.74626 -7.63121,11.89263 -7.64571,15.46697 -0.009,2.13576 0.15944,2.16722 11.57871,2.16722 6.37312,0 12.85312,0.2709 14.4,0.60201 2.48333,0.53154 2.8125,0.98247 2.8125,3.85284 l 0,3.25083 -29.25,0 -29.25,0 0,54.42133 0,54.42133 57.15,0 57.14999,0 0,-54.42133 z"
       id="wyng_c_13"
       inkscape:label="#path32299" />
    <path
       inkscape:connector-curvature="0"
       style="fill:none;fill-opacity:1;stroke:#000000;stroke-opacity:1"
       d="m 658.09821,912.82645 0,-54.84172 -29.25,0 -29.25,0 0,-3.27594 c 0,-2.89254 0.32917,-3.34696 2.8125,-3.8826 1.54688,-0.33367 8.02688,-0.60666 14.4,-0.60666 11.42253,0 11.58723,-0.0311 11.56774,-2.18396 -0.0335,-3.70332 -3.49239,-10.71724 -7.42396,-15.05435 -4.31493,-4.76003 -11.33577,-7.99859 -17.34003,-7.99859 l -4.01625,0 0,-21.83963 c 0,-13.91265 -0.32665,-21.83962 -0.9,-21.83962 -0.56393,0 -0.89999,6.02964 -0.89999,16.14766 l 0,16.14766 -4.13156,-0.61075 c -5.41664,-0.80071 -11.48003,-3.75251 -16.10614,-7.84083 -4.45973,-3.94128 -9.2536,-13.19472 -10.03955,-19.37896 -1.4755,-11.61009 -2.12275,-1.28103 -2.12275,33.87589 l 0,38.34068 -10.8,0 -10.79999,0 0,54.84172 0,54.84173 57.14999,0 57.15,0 0,-54.84173 z"
       id="wyng_c_11"
       inkscape:label="#path32289" />
    <path
       inkscape:connector-curvature="0"
       style="fill:none;fill-opacity:1;stroke:#000000;stroke-opacity:1"
       d="m -20.501795,694.77082 0,-14.52591 4.92992,0.50881 c 12.0226203,1.24085 23.0754303,12.11743 24.4951403,24.10457 0.34177,2.8858 0.95406,4.43845 1.7502997,4.43845 1.01192,0 1.22464,-6.09692 1.22464,-35.10001 l 0,-35.1 10.35001,0 10.35,0 0,-71.55 0,-71.55 -57.15001,0 -57.14999,0 0,71.55 0,71.55 29.24999,0 29.25,0 0,2.7 c 0,2.1 -0.4,2.7 -1.8,2.7 -0.99,0 -1.8,0.405 -1.8,0.9 0,0.55739 -4.82384,0.9 -12.67151,0.9 l -12.67151,0 0.62991,2.925 c 0.77004,3.57576 2.66392,7.38308 5.58254,11.22275 2.36768,3.11487 11.84373,8.35225 15.11182,8.35225 1.09657,0 3.25938,0.25313 4.80625,0.5625 l 2.8125,0.5625 0,19.6875 c 0,16.90001 0.19114,19.68751 1.35,19.68751 1.14424,0 1.35,-2.214 1.35,-14.52592 z"
       id="wyng_c_20"
       inkscape:label="#path31605" />
    <path
       inkscape:connector-curvature="0"
       style="fill:none;fill-opacity:1;stroke:#000000;stroke-opacity:1"
       d="m 67.168355,705.46556 c 1.89724,-12.6517 12.93149,-23.4353 25.28462,-24.71026 l 4.94524,-0.51039 0,14.52591 c 0,9.08395 0.33717,14.52592 0.9,14.52592 0.57265,0 0.89999,-7.18163 0.89999,-19.74486 l 0,-19.74485 4.275005,-0.57706 c 7.06519,-0.95371 12.36634,-3.01796 16.21893,-6.31564 3.86682,-3.30985 8.30607,-11.08318 8.30607,-14.5443 0,-2.06566 -0.0464,-2.0733 -12.6,-2.0733 -7.8,0 -12.59998,-0.34285 -12.59998,-0.9 0,-0.495 -0.81,-0.9 -1.80001,-0.9 -1.400005,0 -1.800005,-0.6 -1.800005,-2.7 l 0,-2.7 29.250005,0 29.25,0 0,-71.55 0,-71.55 -57.14999,0 -57.150015,0 0,71.55 0,71.55 10.8,0 10.8,0 0,35.1 c 0,32.29099 0.6381,41.4852 2.17014,31.26883 z"
       id="wyng_c_18"
       inkscape:label="#path31593" />
    <path
       inkscape:connector-curvature="0"
       style="fill:none;fill-opacity:1;stroke:#000000;stroke-opacity:1"
       d="m 229.6982,694.89673 0,-14.4 3.11625,0 c 11.77573,0 24.9723,12.42639 26.37055,24.83151 0.28656,2.54244 0.89036,3.9685 1.68025,3.9685 1.02286,0 1.23296,-5.98095 1.23296,-35.10001 l 0,-35.1 10.34999,0 10.35001,0 0,-71.55 0,-71.55 -57.15,0 -57.15,0 0,71.55 0,71.55 29.24999,0 29.25,0 0,2.7 c 0,2.1 -0.39999,2.7 -1.8,2.7 -0.99,0 -1.79999,0.405 -1.79999,0.9 0,0.55715 -4.8,0.9 -12.6,0.9 -14.64752,0 -14.3766,-0.24277 -9.84629,8.82317 4.2569,8.51881 10.57697,12.61626 21.77129,14.11484 l 4.27499,0.57229 0,19.74485 c 0,16.95099 0.19103,19.74486 1.35001,19.74486 1.14374,0 1.34999,-2.2 1.34999,-14.40001 z"
       id="wyng_c_16"
       inkscape:label="#path31583" />
    <path
       inkscape:connector-curvature="0"
       style="fill:none;fill-opacity:1;stroke:#000000;stroke-opacity:1"
       d="m 478.99822,694.78529 0,-14.51145 4.77384,0.39588 c 12.22277,1.01361 23.81699,12.18347 25.51647,24.58258 1.45811,10.63805 2.10969,1.04647 2.10969,-31.05557 l 0,-35.1 10.79999,0 10.8,0 0,-71.55 0,-71.55 -57.14999,0 -57.15,0 0,71.55 0,71.55 29.25,0 29.25,0 0,2.7 c 0,2.1 -0.4,2.7 -1.8,2.7 -0.99,0 -1.79999,0.405 -1.79999,0.9 0,0.55715 -4.80001,0.9 -12.60001,0.9 -12.55362,0 -12.6,0.007 -12.6,2.0733 0,3.46112 4.43925,11.23445 8.30607,14.5443 3.8526,3.29768 9.15375,5.36193 16.21893,6.31564 l 4.275,0.57706 0,19.74485 c 0,12.56323 0.32735,19.74486 0.9,19.74486 0.56278,0 0.89999,-5.43716 0.89999,-14.51145 z"
       id="wyng_c_14"
       inkscape:label="#path31573" />
    <path
       inkscape:connector-curvature="0"
       style="fill:none;fill-opacity:1;stroke:#000000;stroke-opacity:1"
       d="m 567.50791,705.2523 c 1.69948,-12.39911 13.29369,-23.56897 25.51647,-24.58258 l 4.77385,-0.39588 0,14.51145 c 0,9.07429 0.33721,14.51145 0.89999,14.51145 0.57266,0 0.9,-7.18163 0.9,-19.74486 l 0,-19.74485 4.275,-0.57706 c 13.34617,-1.80154 22.16998,-8.96005 24.10812,-19.55824 l 0.61721,-3.375 -12.70016,0 c -7.86678,0 -12.70017,-0.34252 -12.70017,-0.9 0,-0.495 -0.81,-0.9 -1.8,-0.9 -1.4,0 -1.8,-0.6 -1.8,-2.7 l 0,-2.7 29.25,0 29.25,0 0,-71.55 0,-71.55 -57.15,0 -57.14999,0 0,71.55 0,71.55 10.79999,0 10.8,0 0,35.1 c 0,32.10204 0.65159,41.69362 2.1097,31.05557 z"
       id="wyng_c_12"
       inkscape:label="#path31557" />
    <path
       inkscape:connector-curvature="0"
       style="fill:none;fill-opacity:1;stroke:#000000;stroke-opacity:1"
       d="m 729.19821,694.78529 0,-14.51145 4.77386,0.39588 c 12.22278,1.01361 23.81698,12.18347 25.51648,24.58258 1.4581,10.63805 2.1097,1.04647 2.1097,-31.05557 l 0,-35.1 10.8,0 10.8,0 0,-71.55 0,-71.55 -57.15003,0 -57.15,0 0,71.55 0,71.55 29.25,0 29.25,0 0,2.7 c 0,2.1 -0.39999,2.7 -1.8,2.7 -0.99,0 -1.79999,0.405 -1.79999,0.9 0,0.55748 -4.83339,0.9 -12.70017,0.9 l -12.70016,0 0.60172,3.375 c 0.85379,4.78887 4.84289,10.92143 9.33074,14.34443 3.9313,2.9985 7.25581,4.16793 14.79286,5.20349 l 4.275,0.58738 0,19.74485 c 0,12.56323 0.32735,19.74486 0.90001,19.74486 0.56278,0 0.89999,-5.43716 0.89999,-14.51145 z"
       id="wyng_c_10"
       inkscape:label="#path31547" />
    <path
       inkscape:connector-curvature="0"
       style="fill:none;fill-opacity:1;stroke:#000000;stroke-opacity:1"
       d="m 817.39825,706.63049 c 0,-11.98874 14.38847,-26.13376 26.58367,-26.13376 l 3.1163,0 0,14.4 c 0,12.20001 0.2062,14.40001 1.35,14.40001 1.1588,0 1.35,-2.7875 1.35,-19.68751 l 0,-19.6875 2.8125,-0.5625 c 1.5469,-0.30937 3.6732,-0.56646 4.725,-0.57129 3.0433,-0.0139 10.6842,-3.95145 13.8911,-7.15828 3.3102,-3.3102 5.9443,-8.05861 6.883,-12.40793 l 0.6314,-2.925 -12.6715,0 c -7.8477,0 -12.6715,-0.34261 -12.6715,-0.9 0,-0.495 -0.81,-0.9 -1.8,-0.9 -1.4001,0 -1.8,-0.6 -1.8,-2.7 l 0,-2.7 29.25,0 29.25,0 0,-71.55 0,-71.55 -57.15,0 -57.14997,0 0,71.55 0,71.55 10.35,0 10.35,0 0,35.1 c 0,30.60001 0.173,35.10001 1.35,35.10001 0.8962,0 1.35,-0.89625 1.35,-2.66625 z"
       id="wnyg_c_10"
       inkscape:label="#path31511" />
    <path
       inkscape:connector-curvature="0"
       style="fill:none;fill-opacity:1;stroke:#000000;stroke-opacity:1"
       d="m 1104.4982,694.77082 0,-14.52591 4.8264,0.49813 c 12.2756,1.26695 23.463,12.154 25.4111,24.7287 1.5423,9.95598 2.1625,0.98707 2.1625,-31.27501 l 0,-35.1 10.8,0 10.8,0 0,-71.55 0,-71.55 -57.15,0 -57.15,0 0,71.55 0,71.55 29.25,0 29.25,0 0,2.7 c 0,2.1 -0.4,2.7 -1.8,2.7 -0.99,0 -1.8,0.405 -1.8,0.9 0,0.55715 -4.8,0.9 -12.6,0.9 -12.5537,0 -12.6,0.007 -12.6,2.0733 0,3.46112 4.4392,11.23445 8.3061,14.5443 3.8525,3.29768 9.1537,5.36193 16.2189,6.31564 l 4.275,0.57706 0,19.74485 c 0,12.56323 0.3273,19.74486 0.9,19.74486 0.5628,0 0.9,-5.44197 0.9,-14.52592 z"
       id="wyng_c_6"
       inkscape:label="#path31499" />
    <path
       inkscape:connector-curvature="0"
       style="fill:none;fill-opacity:1;stroke:#000000;stroke-opacity:1"
       d="m 1193.0074,705.2523 c 1.6675,-12.16557 13.1348,-23.42263 25.0238,-24.56502 l 4.3665,-0.41956 0,14.51451 c 0,12.30178 0.2058,14.51451 1.35,14.51451 1.159,0 1.35,-2.79387 1.35,-19.74486 l 0,-19.74485 4.275,-0.58738 c 12.8272,-1.76242 19.6671,-6.68027 23.1939,-16.67661 2.2901,-6.49093 2.7315,-6.24631 -11.2689,-6.24631 -7.8,0 -12.6,-0.34285 -12.6,-0.9 0,-0.495 -0.81,-0.9 -1.8,-0.9 -1.4001,0 -1.8,-0.6 -1.8,-2.7 l 0,-2.7 29.25,0 29.25,0 0,-71.55 0,-71.55 -57.15,0 -57.15,0 0,71.55 0,71.55 10.8,0 10.8,0 0,35.1 c 0,32.10204 0.6516,41.69362 2.1097,31.05557 z"
       id="wyng_c_4"
       inkscape:label="#path31481" />
    <path
       inkscape:connector-curvature="0"
       style="fill:none;fill-opacity:1;stroke:#000000;stroke-opacity:1"
       d="m 1358.2978,694.78529 0,-14.51145 4.7391,0.393 c 12.146,1.00725 23.593,12.14348 25.4907,24.79872 l 0.5746,3.83118 4.3977,0 4.3979,0 0,-35.10001 0,-35.1 10.7999,0 10.7999,0 0,-71.55 0,-71.55 -62.5499,0 -62.5501,0 0,71.55 0,71.55 29.2502,0 29.25,0 0,2.7 c 0,2.1 -0.4002,2.7 -1.8,2.7 -0.99,0 -1.8,0.405 -1.8,0.9 0,0.56276 -5.4334,0.9 -14.5002,0.9 l -14.5002,0 0.6239,3.3253 c 1.4822,7.90104 7.8771,16.15904 15.4428,19.94213 2.9683,1.4842 12.3594,3.69053 15.8587,3.72578 0.3712,0.004 0.675,8.10679 0.675,18.00679 l 0,18.00001 2.7,0 2.7,0 0,-14.51145 z"
       id="wyng_c_2"
       inkscape:label="#path31471" />
  </g>
</svg>
